<svg width="30" height="31" viewBox="0 0 30 31" fill="none" xmlns="http://www.w3.org/2000/svg">
<g clip-path="url(#clip0)">
<rect width="30" height="29.8992" transform="translate(0 0.966797)" fill="#FAFAFA"/>
<g clip-path="url(#clip1)">
<path fill-rule="evenodd" clip-rule="evenodd" d="M21.005 12.9365H24.02C27.2864 12.9365 29.9999 10.232 30.0502 6.92658C30.0502 3.62115 27.3366 0.916698 24.02 0.916698C20.7034 0.916698 17.9899 3.62115 17.9899 6.92658V9.93146H12.0603V6.97671C12.0603 3.67127 9.34669 0.966822 6.03011 0.966822C2.71353 0.966822 -4.17121e-05 3.67127 -0.050293 6.92662C-0.050293 10.2321 2.66328 12.9365 5.97986 12.9365H8.995V18.8462H6.03015C2.71357 18.8462 0 21.5507 0 24.8561C0 28.1615 2.71357 30.866 6.03015 30.866C9.29648 30.866 12.0101 28.1615 12.0603 24.8561V21.9011H17.9899V24.8561C17.9899 28.1615 20.7034 30.866 24.02 30.866C27.2864 30.866 29.9999 28.1615 30.0502 24.8561C30.0502 21.5507 27.3366 18.8462 24.02 18.8462H21.005V12.9365ZM21.0049 9.93152H24.02C25.6783 9.93152 27.0351 8.5793 27.0351 6.92658C27.0351 5.27386 25.6783 3.92164 24.02 3.92164C22.3617 3.92164 21.0049 5.27386 21.0049 6.92658V9.93152ZM6.03011 3.97176C4.37182 3.97176 3.01503 5.32399 3.01503 6.97671C3.01503 8.62942 4.37182 9.98165 6.03011 9.98165H9.04519V6.97671C8.99493 5.32399 7.63815 3.97176 6.03011 3.97176ZM21.0049 24.9062V21.9012H24.02C25.6783 21.9012 27.0351 23.2535 27.0351 24.9062C27.0351 26.5589 25.6783 27.9111 24.02 27.9111C22.3617 27.9111 21.0049 26.5589 21.0049 24.9062ZM6.03015 21.9012C4.37186 21.9012 3.01508 23.2535 3.01508 24.9062C3.01508 26.5589 4.37186 27.9111 6.03015 27.9111C7.68844 27.9111 9.04523 26.5589 9.04523 24.9062V21.9012H6.03015ZM17.99 18.8962H12.0101V12.9364H17.99V18.8962Z" fill="url(#paint0_linear)"/>
</g>
</g>
<defs>
<linearGradient id="paint0_linear" x1="0.422136" y1="15.8913" x2="30.0502" y2="15.8913" gradientUnits="userSpaceOnUse">
<stop stop-color="#03B0F2"/>
<stop offset="1" stop-color="#01E0C9"/>
</linearGradient>
<clipPath id="clip0">
<rect width="30" height="29.8992" fill="white" transform="translate(0 0.966797)"/>
</clipPath>
<clipPath id="clip1">
<rect width="30" height="29.8992" fill="white" transform="translate(0 0.966797)"/>
</clipPath>
</defs>
</svg>
