<svg width="45" height="42" viewBox="0 0 45 42" fill="none" xmlns="http://www.w3.org/2000/svg">
<path d="M27.0445 37.5377H26.673L26.5658 37.8935C25.9383 39.9761 23.9821 41.5 21.6612 41.5C18.83 41.5 16.5453 39.2345 16.5453 36.4528C16.5453 35.8976 16.636 35.3642 16.8033 34.8657L16.9111 34.5442L16.6523 34.3251L12.8759 31.1277L12.3789 30.7069L12.1007 31.2957L11.3364 32.9134L11.2068 33.1878L11.3903 33.4295C12.0307 34.2726 12.4093 35.3186 12.4093 36.4528C12.4093 39.2345 10.1247 41.5 7.29346 41.5C4.46222 41.5 2.17759 39.2345 2.17759 36.4528C2.17759 33.6711 4.46222 31.4057 7.29346 31.4057C7.88778 31.4057 8.45737 31.5054 8.98661 31.6885L9.41052 31.8351L9.60213 31.4295L10.4754 29.5812L10.6393 29.2341L10.3464 28.9861L6.51321 25.7407L6.3513 25.6036L6.14021 25.6248C5.96796 25.6421 5.79304 25.6509 5.61587 25.6509C2.78463 25.6509 0.5 23.3855 0.5 20.6038C0.5 17.9676 2.55169 15.7951 5.17612 15.575L5.29155 15.5653L5.39097 15.5058L16.961 8.58589L17.3719 8.34013L17.1441 7.91896C16.762 7.2122 16.5453 6.40528 16.5453 5.54717C16.5453 2.76548 18.83 0.5 21.6612 0.5C24.4924 0.5 26.7771 2.76548 26.7771 5.54717C26.7771 6.52142 26.4978 7.4301 26.0136 8.20112L25.8003 8.54083L26.0857 8.82273L32.4786 15.1376L32.6296 15.2868L32.8417 15.2818C32.883 15.2808 32.9244 15.2803 32.966 15.2803C35.7972 15.2803 38.0819 17.5458 38.0819 20.3275C38.0819 22.1302 37.1239 23.715 35.6765 24.6089L35.2856 24.8503L35.4931 25.2602L38.3409 30.8862L38.4964 31.1934L38.8389 31.1577C39.0179 31.139 39.1998 31.1294 39.3841 31.1294C42.2154 31.1294 44.5 33.3949 44.5 36.1765C44.5 38.9582 42.2154 41.2237 39.3841 41.2237C37.1578 41.2237 35.2666 39.8213 34.5625 37.8682L34.4434 37.5377H34.0922H27.0445ZM17.7579 19.3215L17.4207 20.035H18.2099H27.407H27.8398L27.9018 19.6067C28.0914 18.2975 28.7912 17.148 29.7998 16.3628L30.2494 16.0128L29.8441 15.6125L24.3855 10.2206L24.1392 9.97723L23.8247 10.1222C23.3116 10.3589 22.7519 10.514 22.1624 10.5705L21.8794 10.5976L21.758 10.8546L17.7579 19.3215ZM28.3412 22.4882L28.2049 22.2049H27.8906H16.7124H16.3956L16.2603 22.4913L13.5095 28.3136L13.3456 28.6608L13.6385 28.9088L17.8575 32.4808L18.1679 32.7436L18.4884 32.4933C19.36 31.8124 20.4615 31.4056 21.6612 31.4056C22.0157 31.4056 22.3613 31.4412 22.6947 31.5086L22.985 31.5673L23.176 31.3409L29.1176 24.2982L29.3962 23.968L29.11 23.6445C28.8028 23.2973 28.5433 22.9085 28.3412 22.4882ZM25.2845 32.2423L24.989 32.5925L25.3122 32.9174C25.8897 33.4977 26.3253 34.2142 26.5658 35.0122L26.673 35.3679H27.0445H33.9254H34.3178L34.4111 34.9868C34.6752 33.908 35.2917 32.9624 36.136 32.2769L36.4492 32.0228L36.267 31.6629L33.2213 25.6457L33.0875 25.3816L32.7916 25.3718C32.3826 25.3583 31.9862 25.2975 31.6077 25.195L31.3002 25.1117L31.0948 25.3552L25.2845 32.2423ZM9.08474 24.3135L8.66375 24.6969L9.0983 25.0648L11.109 26.7672L11.606 27.188L11.8842 26.5992L13.6232 22.9184L13.9603 22.2049H13.1711H10.8149H10.4809L10.353 22.5134C10.0675 23.202 9.63158 23.8155 9.08474 24.3135ZM10.6371 19.632L10.7167 20.035H11.1276H14.6686H14.9854L15.1207 19.7486L19.3716 10.7511L20.074 9.26443L18.6629 10.1084L8.95576 15.9141L8.34734 16.278L8.89432 16.729C9.77913 17.4586 10.4086 18.4757 10.6371 19.632ZM21.6612 8.42453C23.2608 8.42453 24.568 7.14208 24.568 5.54717C24.568 3.95226 23.2608 2.66981 21.6612 2.66981C20.0616 2.66981 18.7544 3.95226 18.7544 5.54717C18.7544 7.14208 20.0616 8.42453 21.6612 8.42453ZM32.966 23.2049C34.5656 23.2049 35.8728 21.9224 35.8728 20.3275C35.8728 18.7326 34.5656 17.4501 32.966 17.4501C31.3664 17.4501 30.0592 18.7326 30.0592 20.3275C30.0592 21.9224 31.3664 23.2049 32.966 23.2049ZM39.3841 39.0539C40.9837 39.0539 42.2909 37.7714 42.2909 36.1765C42.2909 34.5816 40.9837 33.2992 39.3841 33.2992C37.7846 33.2992 36.4773 34.5816 36.4773 36.1765C36.4773 37.7714 37.7846 39.0539 39.3841 39.0539ZM5.61587 23.4811C7.21543 23.4811 8.52267 22.1987 8.52267 20.6038C8.52267 19.0089 7.21543 17.7264 5.61587 17.7264C4.01631 17.7264 2.70907 19.0089 2.70907 20.6038C2.70907 22.1987 4.01631 23.4811 5.61587 23.4811ZM7.29346 39.3302C8.89302 39.3302 10.2003 38.0477 10.2003 36.4528C10.2003 34.8579 8.89302 33.5755 7.29346 33.5755C5.6939 33.5755 4.38666 34.8579 4.38666 36.4528C4.38666 38.0477 5.6939 39.3302 7.29346 39.3302ZM21.6612 39.3302C23.2608 39.3302 24.568 38.0477 24.568 36.4528C24.568 34.8579 23.2608 33.5755 21.6612 33.5755C20.0616 33.5755 18.7544 34.8579 18.7544 36.4528C18.7544 38.0477 20.0616 39.3302 21.6612 39.3302Z" fill="url(#paint0_linear)" stroke="url(#paint1_linear)"/>
<defs>
<linearGradient id="paint0_linear" x1="0.706278" y1="21" x2="45" y2="21" gradientUnits="userSpaceOnUse">
<stop stop-color="#141EFF"/>
<stop offset="1" stop-color="#FC4646"/>
</linearGradient>
<linearGradient id="paint1_linear" x1="0.706278" y1="21" x2="45" y2="21" gradientUnits="userSpaceOnUse">
<stop stop-color="#141EFF"/>
<stop offset="1" stop-color="#FC4646"/>
</linearGradient>
</defs>
</svg>
