<svg width="35" height="30" viewBox="0 0 35 30" fill="none" xmlns="http://www.w3.org/2000/svg">
<g clip-path="url(#clip0)">
<path d="M17.472 7.05891C17.6969 7.05891 17.9219 7.11559 18.0907 7.17228L33.3897 13.4077C34.2334 13.7478 34.6834 14.7681 34.3459 15.6184C34.0084 16.4687 32.996 16.9222 32.1523 16.5821L17.5282 10.6301L2.9041 16.5821C2.0604 16.9222 1.04797 16.5254 0.710487 15.6184C0.373007 14.7681 0.766734 13.7478 1.66668 13.4077L16.8532 7.22896C17.0782 7.11559 17.247 7.05891 17.472 7.05891Z" fill="url(#paint0_linear)"/>
<path d="M17.472 0.596739C17.6969 0.596739 17.9219 0.653425 18.0907 0.710111L33.3897 6.88884C34.2334 7.22895 34.6834 8.2493 34.3459 9.09958C34.0084 9.94986 32.996 10.4033 32.1523 10.0632L17.5282 4.11125L2.9041 10.0632C2.0604 10.4033 1.04797 10.0065 0.710487 9.09958C0.373007 8.24929 0.766734 7.22895 1.66668 6.88884L16.8532 0.710111C17.0782 0.653425 17.247 0.596739 17.472 0.596739Z" fill="url(#paint1_linear)"/>
<path d="M17.4719 13.9751C17.6969 13.9751 17.9219 14.0318 18.0906 14.0885L33.3897 20.3239C34.0646 20.5506 34.4584 21.1742 34.4584 21.9111C34.4584 22.648 34.0646 23.2149 33.3897 23.4983L18.1469 29.677C17.7532 29.8471 17.3032 29.8471 16.9095 29.677L1.6104 23.4983C0.991684 23.2149 0.541713 22.5913 0.541713 21.9111C0.541713 21.2309 0.935438 20.6073 1.6104 20.3239L16.8532 14.1452C17.0782 14.0318 17.3032 13.9751 17.4719 13.9751ZM28.2713 21.9111L17.5282 17.5463L6.78508 21.9111L17.4719 26.2759L28.2713 21.9111Z" fill="url(#paint2_linear)"/>
</g>
<defs>
<linearGradient id="paint0_linear" x1="33.9271" y1="11.8808" x2="0.590744" y2="11.8808" gradientUnits="userSpaceOnUse">
<stop stop-color="#03B0F2"/>
<stop offset="1" stop-color="#01E0C9"/>
</linearGradient>
<linearGradient id="paint1_linear" x1="33.9271" y1="5.39033" x2="0.590744" y2="5.39033" gradientUnits="userSpaceOnUse">
<stop stop-color="#03B0F2"/>
<stop offset="1" stop-color="#01E0C9"/>
</linearGradient>
<linearGradient id="paint2_linear" x1="33.9261" y1="21.8898" x2="0.541714" y2="21.8898" gradientUnits="userSpaceOnUse">
<stop stop-color="#03B0F2"/>
<stop offset="1" stop-color="#01E0C9"/>
</linearGradient>
<clipPath id="clip0">
<rect width="33.9167" height="29.1931" fill="white" transform="translate(34.4584 29.7898) rotate(-180)"/>
</clipPath>
</defs>
</svg>
