<svg width="34" height="35" viewBox="0 0 34 35" fill="none" xmlns="http://www.w3.org/2000/svg">
<g clip-path="url(#clip0)">
<g clip-path="url(#clip1)">
<path d="M32.2914 24.2262C31.3233 24.2262 30.5829 23.4896 30.5829 22.5263V11.9299C30.5829 10.9666 31.3233 10.23 32.2914 10.23C33.2596 10.23 34 10.9666 34 11.9299V22.5263C34 23.4329 33.2026 24.2262 32.2914 24.2262Z" fill="url(#paint0_linear)"/>
<path d="M1.70854 24.2262C0.740368 24.2262 0 23.4896 0 22.5263V11.9299C0 10.9666 0.740368 10.23 1.70854 10.23C2.67672 10.23 3.41709 10.9666 3.41709 11.9299V22.5263C3.41709 23.4329 2.67672 24.2262 1.70854 24.2262Z" fill="url(#paint1_linear)"/>
<path d="M16.9715 15.1598C16.0033 15.1598 15.2629 14.4232 15.2629 13.4599V2.92017C15.2629 1.95686 16.0033 1.22021 16.9715 1.22021C17.9397 1.22021 18.68 1.95686 18.68 2.92017V13.5165C18.68 14.4232 17.9397 15.1598 16.9715 15.1598Z" fill="url(#paint2_linear)"/>
<path d="M16.9715 34.3692C16.0033 34.3692 15.2629 33.6325 15.2629 32.6692V22.0729C15.2629 21.1096 16.0033 20.3729 16.9715 20.3729C17.9397 20.3729 18.68 21.1096 18.68 22.0729V32.6692C18.68 33.6325 17.9397 34.3692 16.9715 34.3692Z" fill="url(#paint3_linear)"/>
<path d="M16.9715 23.9996C16.6298 23.9996 16.2881 23.8863 16.0033 23.7163L0.740368 13.3466C0.284757 13.0066 0 12.4966 0 11.8733C0 11.25 0.284757 10.7967 0.79732 10.4567L16.0603 0.99364C16.6298 0.65365 17.3132 0.65365 17.8827 0.99364L33.1457 10.5134C33.6583 10.7967 33.943 11.3633 33.943 11.93C33.943 12.4966 33.6583 13.0633 33.2027 13.3466L17.9397 23.7163C17.6549 23.8863 17.3132 23.9996 16.9715 23.9996ZM4.84087 11.9867L17.0285 20.2597L29.2161 11.9867L16.9715 4.39354L4.84087 11.9867Z" fill="url(#paint4_linear)"/>
<path d="M16.9715 34.5959C16.6298 34.5959 16.2881 34.4825 16.0033 34.3125L0.740368 23.8862C0.284757 23.6028 0 23.0362 0 22.4695C0 21.9029 0.284757 21.3929 0.79732 21.0529L16.0603 11.5332C16.6298 11.1932 17.3132 11.1932 17.8827 11.5332L33.1457 21.0529C33.6583 21.3362 33.943 21.9029 33.943 22.4695C33.943 23.0362 33.6583 23.6028 33.2027 23.8862L17.9397 34.2559C17.6549 34.4825 17.3132 34.5959 16.9715 34.5959ZM4.84087 22.5829L17.0285 30.856L29.2161 22.5829L16.9715 14.9898L4.84087 22.5829Z" fill="url(#paint5_linear)"/>
</g>
</g>
<defs>
<linearGradient id="paint0_linear" x1="32.2914" y1="10.23" x2="32.2914" y2="24.2262" gradientUnits="userSpaceOnUse">
<stop stop-color="#03AFF1"/>
<stop offset="1" stop-color="#01DFC8"/>
</linearGradient>
<linearGradient id="paint1_linear" x1="1.70854" y1="10.23" x2="1.70854" y2="24.2262" gradientUnits="userSpaceOnUse">
<stop stop-color="#03AFF1"/>
<stop offset="1" stop-color="#01DFC8"/>
</linearGradient>
<linearGradient id="paint2_linear" x1="16.9715" y1="1.22021" x2="16.9715" y2="15.1598" gradientUnits="userSpaceOnUse">
<stop stop-color="#03AFF1"/>
<stop offset="1" stop-color="#01DFC8"/>
</linearGradient>
<linearGradient id="paint3_linear" x1="16.9715" y1="20.3729" x2="16.9715" y2="34.3692" gradientUnits="userSpaceOnUse">
<stop stop-color="#03AFF1"/>
<stop offset="1" stop-color="#01DFC8"/>
</linearGradient>
<linearGradient id="paint4_linear" x1="16.9715" y1="0.738647" x2="16.9715" y2="23.9996" gradientUnits="userSpaceOnUse">
<stop stop-color="#03AFF1"/>
<stop offset="1" stop-color="#01DFC8"/>
</linearGradient>
<linearGradient id="paint5_linear" x1="16.9715" y1="11.2782" x2="16.9715" y2="34.5959" gradientUnits="userSpaceOnUse">
<stop stop-color="#03AFF1"/>
<stop offset="1" stop-color="#01DFC8"/>
</linearGradient>
<clipPath id="clip0">
<rect width="34" height="33.8857" fill="white" transform="translate(0 0.710205)"/>
</clipPath>
<clipPath id="clip1">
<rect width="34" height="33.8857" fill="white" transform="translate(0 0.710205)"/>
</clipPath>
</defs>
</svg>
