<svg width="39" height="25" viewBox="0 0 39 25" fill="none" xmlns="http://www.w3.org/2000/svg">
<path d="M10 4V1C10 0.447715 10.4477 0 11 0H14C14.5523 0 15 0.447715 15 1V9.38462C15 9.9369 15.4477 10.3846 16 10.3846H23C23.5523 10.3846 24 9.9369 24 9.38462V1C24 0.447715 24.4477 0 25 0H28.0588C28.6111 0 29.0588 0.447715 29.0588 1V4C29.0588 4.55228 29.5065 5 30.0588 5H33C33.5523 5 34 5.44772 34 6V9C34 9.55229 34.4477 10 35 10H38C38.5523 10 39 10.4477 39 11V14C39 14.5523 38.5523 15 38 15H35.0294C34.4771 15 34.0294 15.4477 34.0294 16V19C34.0294 19.5523 33.5817 20 33.0294 20H30.4412C29.8889 20 29.4412 20.4477 29.4412 21V24C29.4412 24.5523 28.9935 25 28.4412 25H25C24.4477 25 24 24.5523 24 24V16C24 15.4477 23.5523 15 23 15H16C15.4477 15 15 15.4477 15 16V24C15 24.5523 14.5523 25 14 25H10.9412C10.3889 25 9.94118 24.5523 9.94118 24V21C9.94118 20.4477 9.49346 20 8.94117 20H5.97059C5.4183 20 4.97059 19.5523 4.97059 19V16C4.97059 15.4477 4.52287 15 3.97059 15H1C0.447715 15 0 14.5523 0 14V11C0 10.4477 0.447717 10 1 10H3.97059C4.52287 10 4.97059 9.55229 4.97059 9V6C4.97059 5.44772 5.4183 5 5.97059 5H9C9.55229 5 10 4.55228 10 4Z" fill="url(#paint0_linear)"/>
<defs>
<linearGradient id="paint0_linear" x1="0.612108" y1="12.5" x2="39" y2="12.5" gradientUnits="userSpaceOnUse">
<stop stop-color="#FC4646"/>
<stop offset="1" stop-color="#141EFF"/>
</linearGradient>
</defs>
</svg>
