<svg width="32" height="32" viewBox="0 0 32 32" fill="none" xmlns="http://www.w3.org/2000/svg">
<path fill-rule="evenodd" clip-rule="evenodd" d="M27.1897 1.68894C28.7794 0.0992901 31.4959 1.25204 31.4571 3.4998L31.0167 29.0431C30.9932 30.4068 29.881 31.5 28.5171 31.5H3.41419C1.18693 31.5 0.0715141 28.8071 1.64642 27.2322L11.1149 17.7637L5.54774 12.1966L5.08862 11.7375C4.41132 11.1483 3.49799 10.1522 2.95973 8.99212C2.68067 8.39066 2.4622 7.6587 2.50547 6.86935C2.55094 6.03969 2.8826 5.2398 3.54725 4.57516C4.1884 3.934 4.9551 3.58273 5.77286 3.51311C6.55655 3.4464 7.28362 3.64595 7.88782 3.91883C9.0485 4.44304 10.0492 5.37069 10.6988 6.10502L11.1691 6.57526L16.7362 12.1424L27.1897 1.68894ZM28.4362 4.68507L4.6213 28.5H28.0256L28.0601 26.5H27.5004H26.0004C25.172 26.5 24.5004 25.8284 24.5004 25C24.5004 24.1715 25.172 23.5 26.0004 23.5H27.5004H28.1118L28.1291 22.5H27.5004H26.0004C25.172 22.5 24.5004 21.8284 24.5004 21C24.5004 20.1715 25.172 19.5 26.0004 19.5H27.5004H28.1808L28.198 18.5H27.5004H26.0004C25.172 18.5 24.5004 17.8284 24.5004 17C24.5004 16.1715 25.172 15.5 26.0004 15.5H27.5004H28.2498L28.267 14.5H27.5004H26.0004C25.172 14.5 24.5004 13.8284 24.5004 13C24.5004 12.1715 25.172 11.5 26.0004 11.5H27.5004H28.3187L28.4362 4.68507ZM5.66857 6.69648C5.82741 6.53763 5.93988 6.50975 6.02733 6.5023C6.14885 6.49196 6.35303 6.51743 6.65299 6.65291C6.91855 6.77285 7.19459 6.94949 7.46402 7.15845L6.14051 8.48192C5.95944 8.23875 5.79851 7.98259 5.68109 7.7295C5.53097 7.40596 5.49319 7.17543 5.50097 7.03353C5.50654 6.93194 5.53322 6.83183 5.66857 6.69648ZM13.0665 15.4727L8.72972 11.1359L10.1084 9.75725L14.3917 14.0405L13.0665 15.4727ZM23.5005 17.4142C23.5005 15.1869 20.8076 14.0715 19.2327 15.6464L11.6469 23.2322C10.072 24.8071 11.1874 27.5 13.4147 27.5H21.0005C22.3812 27.5 23.5005 26.3807 23.5005 25V17.4142ZM14.6218 24.5L20.5005 18.6213V24.5H14.6218Z" fill="url(#paint0_linear)"/>
<defs>
<linearGradient id="paint0_linear" x1="1.39741" y1="16.1823" x2="30.9647" y2="16.1823" gradientUnits="userSpaceOnUse">
<stop stop-color="#F15383"/>
<stop offset="1" stop-color="#FEAA50"/>
</linearGradient>
</defs>
</svg>
