<svg width="112" height="112" viewBox="0 0 112 112" fill="none" xmlns="http://www.w3.org/2000/svg">
<path d="M55.72 111.44C86.4933 111.44 111.44 86.4933 111.44 55.72C111.44 24.9467 86.4933 0 55.72 0C24.9467 0 0 24.9467 0 55.72C0 86.4933 24.9467 111.44 55.72 111.44Z" fill="#182E56"/>
<g clip-path="url(#clip0_53_1108)">
<path d="M43.4913 51.3086H35.9475C35.429 51.3086 34.9157 51.4104 34.4367 51.6081C33.9577 51.8058 33.5225 52.0956 33.1559 52.4609C32.7894 52.8263 32.4986 53.26 32.3003 53.7373C32.1019 54.2146 31.9999 54.7262 32 55.2428V62.7589C31.9999 63.2755 32.1019 63.7871 32.3003 64.2644C32.4986 64.7417 32.7894 65.1754 33.1559 65.5407C33.5225 65.906 33.9577 66.1958 34.4367 66.3935C34.9157 66.5913 35.429 66.693 35.9475 66.693H43.4913C44.5377 66.692 45.5409 66.2771 46.2804 65.5394C47.0199 64.8017 47.4351 63.8016 47.4349 62.7589V55.2428C47.4351 54.2001 47.0199 53.2 46.2804 52.4623C45.5409 51.7246 44.5377 51.3096 43.4913 51.3086ZM41.747 61.017H37.6994V56.9838H41.747V61.017Z" fill="white"/>
<path d="M65.0518 31H57.5088C56.9902 30.9994 56.4766 31.1007 55.9973 31.2982C55.5181 31.4956 55.0826 31.7853 54.7159 32.1507C54.3491 32.5161 54.0583 32.9499 53.8601 33.4274C53.6618 33.9049 53.56 34.4167 53.5605 34.9334V42.4503C53.5605 42.9669 53.6627 43.4784 53.8611 43.9557C54.0595 44.433 54.3504 44.8666 54.717 45.2319C55.0836 45.5972 55.5189 45.8869 55.9979 46.0845C56.4769 46.2821 56.9903 46.3838 57.5088 46.3837H65.0518C66.0988 46.3837 67.1029 45.9693 67.8433 45.2317C68.5838 44.4941 68.9998 43.4936 69 42.4503V34.9334C69 34.4168 68.8979 33.9053 68.6995 33.428C68.5011 32.9507 68.2102 32.5171 67.8436 32.1518C67.4769 31.7866 67.0417 31.4968 66.5627 31.2992C66.0836 31.1016 65.5702 30.9999 65.0518 31ZM61.0596 38.3597H57.0113V34.3273H61.0596V38.3597Z" fill="white"/>
<path d="M65.0518 51.3086H57.5088C56.4616 51.3086 55.4574 51.7231 54.7169 52.4609C53.9765 53.1987 53.5605 54.1994 53.5605 55.2428V62.7589C53.5605 63.8023 53.9765 64.803 54.7169 65.5408C55.4574 66.2786 56.4616 66.693 57.5088 66.693H65.0518C65.5703 66.693 66.0837 66.5913 66.5627 66.3935C67.0417 66.1958 67.477 65.9061 67.8436 65.5408C68.2102 65.1754 68.5011 64.7417 68.6995 64.2644C68.8979 63.7871 69 63.2755 69 62.7589V55.2428C69 54.7261 68.8979 54.2145 68.6995 53.7372C68.5011 53.2599 68.2102 52.8262 67.8436 52.4609C67.477 52.0956 67.0417 51.8058 66.5627 51.6081C66.0837 51.4103 65.5703 51.3086 65.0518 51.3086ZM65.8974 58.8005H61.8498V54.7674H65.8974V58.8005Z" fill="white"/>
<path d="M65.0518 71.6172H57.5088C56.9902 71.6166 56.4766 71.7179 55.9973 71.9154C55.5181 72.1128 55.0826 72.4025 54.7159 72.7679C54.3491 73.1332 54.0583 73.5671 53.8601 74.0446C53.6618 74.5221 53.56 75.0339 53.5605 75.5506V83.0675C53.56 83.5842 53.6618 84.096 53.8601 84.5735C54.0583 85.051 54.3491 85.4848 54.7159 85.8502C55.0826 86.2155 55.5181 86.5052 55.9973 86.7027C56.4766 86.9001 56.9902 87.0015 57.5088 87.0009H65.0518C65.5702 87.001 66.0836 86.8993 66.5627 86.7017C67.0417 86.504 67.4769 86.2143 67.8436 85.8491C68.2102 85.4838 68.5011 85.0502 68.6995 84.5729C68.8979 84.0956 69 83.5841 69 83.0675V75.5506C69 75.034 68.8979 74.5224 68.6995 74.0452C68.5011 73.5679 68.2102 73.1343 67.8436 72.769C67.4769 72.4037 67.0417 72.114 66.5627 71.9164C66.0836 71.7188 65.5702 71.6171 65.0518 71.6172ZM63.874 83.9736H59.8242V79.9404H63.8717L63.874 83.9736Z" fill="white"/>
</g>
<defs>
<clipPath id="clip0_53_1108">
<rect width="37" height="56" fill="white" transform="translate(32 31)"/>
</clipPath>
</defs>
</svg>
