<?xml version="1.0" encoding="utf-8"?>
<!-- Generator: Adobe Illustrator 24.2.3, SVG Export Plug-In . SVG Version: 6.00 Build 0)  -->
<svg version="1.1" id="Layer_1" xmlns="http://www.w3.org/2000/svg" xmlns:xlink="http://www.w3.org/1999/xlink" x="0px" y="0px"
	 viewBox="0 0 635.2 281.6" style="enable-background:new 0 0 635.2 281.6;" xml:space="preserve">
<style type="text/css">
	.st0{fill:#F9F9FA;stroke:#E6E4E6;stroke-miterlimit:10;}
	.st1{fill:#F5F6F7;stroke:#E6E4E6;stroke-miterlimit:10;}
	.st2{fill:#959295;}
	.st3{fill:#128B44;}
	.st4{fill:#403F3F;}
	.st5{fill:#35C6F4;}
	.st6{opacity:0.85;}
	.st7{fill:#ED2224;}
	.st8{fill:none;stroke:#E6E4E6;stroke-miterlimit:10;}
	.st9{fill:#959295;stroke:#959294;stroke-width:0.5;stroke-miterlimit:10;}
	.st10{font-family:'MyriadPro-Regular';}
	.st11{font-size:21.119px;}
</style>
<rect x="0.5" y="225.9" class="st0" width="634.2" height="55.2"/>
<rect x="0.5" y="115.5" class="st0" width="634.2" height="55.2"/>
<rect x="0.5" y="0.5" class="st1" width="634.2" height="59.7"/>
<path class="st2" d="M31,28.1v-1.7h-1.6l0.5-3.7h-1.7l-0.5,3.7H26l0.5-3.7h-1.7l-0.5,3.7h-2v1.7H24l-0.3,2.2h-2V32h1.7l-0.5,3.7h1.7
	l0.5-3.7h1.7l-0.5,3.7H28l0.5-3.7h1.9v-1.7h-1.6l0.3-2.2C29.1,28.1,31,28.1,31,28.1z M27.5,28.1l-0.3,2.2h-1.7l0.3-2.2H27.5z"/>
<g>
	<g>
		<path class="st3" d="M77.7,92.2v-9.1h-3.3v-1.2c0.4,0,0.9,0,1.3-0.1s0.8-0.2,1.1-0.4s0.6-0.4,0.8-0.7c0.2-0.3,0.4-0.7,0.5-1.2h1.2
			v12.8h-1.6V92.2z"/>
	</g>
</g>
<path class="st4" d="M26.4,79.1v0.2c-0.1,0.4-0.2,0.8-0.4,1.1c-0.2,0.3-0.5,0.5-0.8,0.7s-0.6,0.3-1,0.3c-0.4,0.1-0.8,0.1-1.2,0.1
	h-0.3v1.7H26v9.1h2V79.1H26.4z"/>
<path class="st4" d="M24.3,146.4c0.2-0.3,0.5-0.6,0.8-0.8c0.3-0.3,0.7-0.5,1.1-0.7s0.8-0.5,1.2-0.7c0.4-0.3,0.8-0.5,1.2-0.8
	c0.4-0.3,0.7-0.6,1-1s0.6-0.8,0.7-1.2c0.2-0.5,0.3-1,0.3-1.6s-0.1-1.2-0.3-1.7c-0.2-0.5-0.5-0.9-0.9-1.2s-0.8-0.6-1.4-0.7
	c-0.5-0.2-1.1-0.3-1.6-0.3c-0.7,0-1.3,0.1-1.9,0.4c-0.6,0.2-1,0.6-1.4,1s-0.7,0.9-0.8,1.5c-0.2,0.6-0.2,1.2-0.2,1.9v0.2h2v-0.3
	c0-0.4,0-0.7,0.1-1.1c0.1-0.3,0.2-0.7,0.4-0.9c0.2-0.3,0.4-0.5,0.7-0.7c0.5-0.3,1.3-0.3,1.9-0.1c0.3,0.1,0.5,0.2,0.7,0.4
	s0.4,0.4,0.5,0.7c0.1,0.2,0.2,0.5,0.2,0.8c0,0.4-0.1,0.8-0.2,1.1s-0.3,0.6-0.6,0.9c-0.3,0.3-0.6,0.6-1,0.8c-0.4,0.3-0.9,0.6-1.4,0.9
	c-0.4,0.3-0.9,0.6-1.3,0.9c-0.4,0.3-0.8,0.7-1.1,1.1c-0.3,0.4-0.6,0.9-0.8,1.5c-0.2,0.6-0.4,1.2-0.4,2v0.3h8.9v-2h-6.5
	C24,146.8,24.1,146.5,24.3,146.4z"/>
<path class="st4" d="M30.2,199.3c-0.3-0.5-0.8-0.8-1.3-1c0.3-0.2,0.6-0.5,0.9-0.8c0.4-0.5,0.6-1.1,0.6-1.7c0-0.6-0.1-1.2-0.3-1.6
	c-0.2-0.5-0.5-0.9-0.9-1.2s-0.8-0.5-1.3-0.7c-0.5-0.1-1-0.2-1.6-0.2c-0.7,0-1.3,0.1-1.8,0.3s-1,0.5-1.3,0.9s-0.6,0.8-0.8,1.4
	c-0.2,0.5-0.3,1.1-0.3,1.7v0.3h2v-0.3c0-0.3,0-0.7,0.1-1s0.2-0.6,0.4-0.8c0.2-0.2,0.4-0.4,0.7-0.5c0.3-0.1,0.6-0.2,1-0.2
	c0.6,0,1.1,0.2,1.5,0.5s0.6,0.7,0.6,1.3c0,0.3-0.1,0.6-0.2,0.8s-0.3,0.4-0.5,0.6c-0.2,0.2-0.4,0.3-0.7,0.4c-0.3,0.1-0.6,0.1-0.9,0.1
	h-0.5h-0.1l-0.3-0.1v1.9h0.3c0.6-0.1,1.3-0.1,1.9,0.1c0.3,0.1,0.6,0.2,0.8,0.4c0.2,0.2,0.4,0.4,0.5,0.7s0.2,0.6,0.2,0.9
	c0,0.3-0.1,0.7-0.2,0.9c-0.1,0.3-0.3,0.5-0.5,0.7s-0.5,0.3-0.8,0.4c-0.3,0.1-0.6,0.2-1,0.2c-0.8,0-1.4-0.2-1.8-0.7s-0.6-1.1-0.7-1.9
	v-0.2h-2v0.2c0,0.7,0.1,1.3,0.3,1.9c0.2,0.5,0.5,1,0.9,1.4s0.9,0.7,1.4,0.9s1.2,0.3,1.8,0.3c0.6,0,1.2-0.1,1.8-0.3
	c0.6-0.2,1.1-0.4,1.5-0.8c0.4-0.3,0.8-0.8,1-1.3s0.4-1.1,0.4-1.8C30.8,200.6,30.6,199.9,30.2,199.3z"/>
<g>
	<g>
		<path class="st2" d="M73.9,199.7v1.4h-5.2v-1.4H73.9z"/>
	</g>
</g>
<g>
	<g>
		<path class="st2" d="M73.9,256.1v1.4h-5.2v-1.4H73.9z"/>
	</g>
</g>
<path class="st4" d="M29.2,257.2v-8.4h-1.6l-5.9,8.5v1.8h5.6v3h1.9v-3h1.7v-1.8h-1.7V257.2z M23.7,257.2l3.6-5.2v5.2H23.7z"/>
<g>
	<path class="st2" d="M286.4,29.1c-0.4-0.3-0.9-0.5-1.4-0.7s-1-0.3-1.5-0.4s-1-0.2-1.5-0.3c-0.5-0.1-0.9-0.2-1.3-0.4
		c-0.4-0.1-0.6-0.3-0.8-0.5c-0.2-0.2-0.3-0.5-0.3-0.8c0-0.4,0.1-0.7,0.2-0.9c0.1-0.2,0.3-0.4,0.6-0.6c0.2-0.2,0.5-0.3,0.8-0.3
		c0.3-0.1,0.7-0.1,1-0.1c0.8,0,1.5,0.2,2,0.6s0.8,1,0.9,1.8v0.2h2.1v-0.3c0-0.7-0.2-1.4-0.4-1.9c-0.3-0.5-0.6-1-1.1-1.4
		s-1-0.6-1.6-0.8c-1.1-0.3-2.5-0.3-3.7,0c-0.6,0.2-1.1,0.4-1.6,0.7c-0.5,0.3-0.8,0.7-1.1,1.3c-0.3,0.5-0.4,1.1-0.4,1.8
		c0,0.6,0.1,1.2,0.4,1.6s0.6,0.8,1,1c0.4,0.3,0.9,0.5,1.4,0.6c0.5,0.2,1,0.3,1.5,0.4s1,0.2,1.5,0.3c0.5,0.1,0.9,0.2,1.3,0.4
		c0.4,0.2,0.6,0.4,0.8,0.6c0.2,0.2,0.3,0.5,0.3,0.9s-0.1,0.8-0.2,1c-0.2,0.3-0.4,0.5-0.7,0.6c-0.3,0.2-0.6,0.3-1,0.3
		c-0.8,0.2-1.7,0.1-2.5-0.1c-0.4-0.1-0.8-0.3-1.1-0.5c-0.3-0.2-0.6-0.5-0.8-0.9c-0.2-0.4-0.3-0.8-0.3-1.3l0,0h-2.1v0.3
		c0,0.8,0.2,1.5,0.4,2.1c0.3,0.6,0.7,1.1,1.2,1.5s1.1,0.7,1.8,0.9c0.7,0.2,1.4,0.3,2.1,0.3c0.6,0,1.2-0.1,1.8-0.2
		c0.6-0.1,1.2-0.4,1.7-0.7s0.9-0.8,1.3-1.3c0.3-0.5,0.5-1.2,0.5-1.9c0-0.7-0.1-1.2-0.4-1.7C287.1,29.8,286.8,29.4,286.4,29.1z"/>
	<path class="st2" d="M295.8,32c-0.1,0.7-0.3,1.2-0.7,1.5c-0.4,0.3-0.9,0.5-1.6,0.5c-0.4,0-0.8-0.1-1.1-0.3
		c-0.3-0.2-0.6-0.4-0.8-0.7c-0.2-0.3-0.3-0.6-0.4-1c-0.1-0.4-0.1-0.8-0.1-1.2c0-0.4,0-0.9,0.1-1.3s0.2-0.8,0.4-1.1
		c0.2-0.3,0.5-0.5,0.8-0.7s0.8-0.3,1.3-0.3c0.6,0,1,0.1,1.4,0.4c0.3,0.3,0.6,0.7,0.7,1.2v0.2h2.1v-0.3c-0.1-0.6-0.2-1.1-0.5-1.5
		c-0.2-0.4-0.6-0.8-0.9-1.1c-0.4-0.3-0.8-0.5-1.3-0.6s-1-0.2-1.6-0.2c-0.8,0-1.4,0.1-2,0.4s-1.1,0.7-1.5,1.1c-0.4,0.5-0.7,1-0.9,1.7
		c-0.2,0.6-0.3,1.3-0.3,2s0.1,1.4,0.3,2c0.2,0.6,0.5,1.1,0.9,1.6c0.4,0.4,0.9,0.8,1.5,1s1.2,0.4,2,0.4c1.2,0,2.3-0.3,3-1
		s1.2-1.6,1.4-2.8v-0.3h-2.1L295.8,32z"/>
	<path class="st2" d="M307.3,27.2L307.3,27.2c-0.4-0.5-0.9-0.8-1.5-1.1c-0.6-0.3-1.3-0.4-2.1-0.4c-0.8,0-1.5,0.1-2,0.4
		c-0.6,0.3-1.1,0.6-1.5,1.1s-0.7,1-0.9,1.6c-0.2,0.6-0.3,1.3-0.3,2s0.1,1.4,0.3,2c0.2,0.6,0.5,1.2,0.9,1.6c0.4,0.5,0.9,0.8,1.5,1.1
		s1.3,0.4,2,0.4c0.8,0,1.5-0.1,2.1-0.4c0.6-0.3,1.1-0.6,1.5-1.1s0.7-1,0.9-1.6c0.2-0.6,0.3-1.3,0.3-2s-0.1-1.4-0.3-2
		C308,28.2,307.7,27.7,307.3,27.2z M302.7,33.9c-0.3-0.1-0.6-0.3-0.8-0.6c-0.2-0.3-0.4-0.6-0.6-1c-0.1-0.4-0.2-0.9-0.2-1.4
		s0.1-1,0.2-1.4s0.3-0.7,0.6-1c0.2-0.3,0.5-0.5,0.8-0.6s0.7-0.2,1-0.2s0.7,0.1,1,0.2s0.6,0.4,0.8,0.6c0.2,0.3,0.4,0.6,0.6,1
		c0.1,0.4,0.2,0.9,0.2,1.4s-0.1,1-0.2,1.4c-0.1,0.4-0.3,0.7-0.6,1c-0.2,0.3-0.5,0.5-0.8,0.6C304.1,34.2,303.3,34.2,302.7,33.9z"/>
	<path class="st2" d="M313.1,26.2c-0.4,0.3-0.7,0.6-1,1v-1.4h-1.9v9.8h2v-4.4c0-0.6,0.1-1.1,0.2-1.5s0.3-0.8,0.5-1.1
		c0.2-0.3,0.5-0.5,0.9-0.7s0.9-0.2,1.5-0.2h0.3v-2.1h-0.2C314.4,25.7,313.6,25.9,313.1,26.2z"/>
	<path class="st2" d="M324.8,31.3c0-0.6,0-1.2-0.2-1.8c-0.1-0.7-0.4-1.3-0.7-1.8c-0.3-0.6-0.8-1-1.4-1.4s-1.3-0.6-2.2-0.6
		c-0.7,0-1.3,0.1-1.9,0.4s-1.1,0.6-1.5,1.1s-0.7,1-1,1.6c-0.2,0.6-0.3,1.3-0.3,2s0.1,1.4,0.3,2c0.2,0.6,0.5,1.2,0.9,1.6
		c0.4,0.5,0.9,0.8,1.5,1.1s1.3,0.4,2,0.4c1.1,0,2-0.3,2.8-0.8c0.7-0.6,1.2-1.4,1.4-2.5l0.1-0.3h-2v0.2c-0.1,0.6-0.4,1-0.7,1.2
		c-0.4,0.3-0.9,0.4-1.4,0.4s-0.9-0.1-1.2-0.2c-0.3-0.2-0.6-0.4-0.8-0.6c-0.2-0.3-0.4-0.5-0.5-0.9c-0.1-0.3-0.1-0.5-0.1-0.8h7
		L324.8,31.3z M322.6,29.7h-4.8c0-0.2,0.1-0.5,0.2-0.7l0,0c0.1-0.3,0.3-0.5,0.5-0.8c0.2-0.2,0.5-0.4,0.7-0.5c0.6-0.2,1.3-0.3,1.9,0
		c0.3,0.1,0.5,0.3,0.8,0.5c0.2,0.2,0.4,0.5,0.5,0.8C322.5,29.2,322.6,29.4,322.6,29.7z"/>
</g>
<g>
	<path class="st5" d="M286.8,83c-0.1-0.5-0.2-1-0.4-1.4c-0.2-0.5-0.5-0.9-0.8-1.2c-0.3-0.3-0.8-0.6-1.3-0.8
		c-0.5-0.2-1.1-0.3-1.8-0.3c-0.7,0-1.3,0.1-1.8,0.3c-0.5,0.2-0.9,0.5-1.3,0.8c-0.3,0.3-0.6,0.8-0.8,1.2c-0.2,0.4-0.3,0.9-0.4,1.4
		s-0.2,1-0.2,1.5s0,1,0,1.5s0,1,0,1.5s0.1,1,0.2,1.5s0.2,1,0.4,1.4c0.2,0.5,0.5,0.9,0.8,1.2c0.3,0.3,0.8,0.6,1.3,0.8
		c0.5,0.2,1.1,0.3,1.8,0.3c0.7,0,1.3-0.1,1.8-0.3c0.5-0.2,0.9-0.5,1.3-0.8c0.3-0.3,0.6-0.7,0.8-1.2c0.2-0.4,0.3-0.9,0.4-1.4
		s0.2-1,0.2-1.5s0-1,0-1.5s0-1,0-1.5C286.9,84,286.9,83.5,286.8,83z M282.5,81.1c0.4,0,0.7,0.1,1,0.2c0.3,0.2,0.5,0.3,0.7,0.6
		c0.2,0.2,0.3,0.5,0.4,0.9c0.1,0.3,0.2,0.7,0.2,1.1c0.1,0.4,0.1,0.7,0.1,1.1s0,0.7,0,1c0,0.5,0,1,0,1.6s-0.1,1.1-0.3,1.6
		c-0.1,0.5-0.4,0.9-0.7,1.2c-0.3,0.3-0.8,0.5-1.3,0.5c-0.6,0-1-0.2-1.3-0.5s-0.6-0.7-0.7-1.2c-0.2-0.5-0.2-1-0.3-1.6
		c0-0.6,0-1.1,0-1.6c0-0.3,0-0.7,0-1c0-0.4,0-0.7,0.1-1.1s0.1-0.7,0.2-1.1c0.1-0.3,0.2-0.6,0.4-0.9c0.2-0.2,0.4-0.4,0.7-0.6
		C281.8,81.2,282.1,81.1,282.5,81.1z"/>
	<rect x="289.1" y="90" class="st5" width="2.5" height="2.5"/>
	<path class="st5" d="M293.9,81.4h6.4c-0.5,0.6-1,1.2-1.5,1.9c-0.6,0.8-1.1,1.8-1.6,2.7c-0.4,1-0.8,2-1.1,3c-0.3,1-0.5,2.1-0.5,3.2
		v0.3h2.2v-0.2c0.1-1,0.2-2,0.5-3s0.6-2.1,1.1-3c0.4-1,0.9-1.9,1.5-2.8c0.5-0.9,1.1-1.6,1.8-2.2l0.1-0.1v-1.7H294v1.9H293.9z"/>
	<path class="st5" d="M307.3,89.2c0.3-0.3,0.7-0.5,1.1-0.7s0.8-0.5,1.2-0.7c0.4-0.3,0.8-0.5,1.2-0.8c0.4-0.3,0.7-0.6,1-1
		s0.6-0.8,0.7-1.2c0.2-0.5,0.3-1,0.3-1.6s-0.1-1.2-0.3-1.7c-0.2-0.5-0.5-0.9-0.9-1.2c-0.4-0.3-0.8-0.6-1.4-0.7
		c-1.1-0.4-2.5-0.3-3.5,0.1c-0.6,0.2-1,0.6-1.4,1s-0.7,0.9-0.8,1.5c-0.2,0.6-0.2,1.2-0.2,1.9v0.2h2V84c0-0.4,0-0.7,0.1-1.1
		c0.1-0.3,0.2-0.7,0.4-0.9c0.2-0.3,0.4-0.5,0.7-0.7c0.5-0.3,1.3-0.3,1.9-0.1c0.3,0.1,0.5,0.2,0.7,0.4c0.2,0.2,0.4,0.4,0.5,0.7
		c0.1,0.2,0.2,0.5,0.2,0.8c0,0.4-0.1,0.8-0.2,1.1c-0.1,0.3-0.3,0.6-0.6,0.9c-0.3,0.3-0.6,0.5-1,0.8s-0.9,0.6-1.4,0.9
		c-0.4,0.3-0.9,0.6-1.3,0.9s-0.8,0.7-1.1,1.1c-0.3,0.4-0.6,0.9-0.8,1.5c-0.2,0.6-0.4,1.2-0.4,2v0.3h8.9v-1.8h-6.5
		c0.1-0.2,0.2-0.5,0.3-0.7C306.7,89.7,307,89.4,307.3,89.2z"/>
	<path class="st5" d="M323,86.2c-0.2-0.6-0.5-1.1-0.9-1.5s-0.9-0.7-1.4-0.9c-0.9-0.3-2-0.4-3.1,0c-0.2,0.1-0.5,0.2-0.7,0.3l0.5-2.9
		h5.2v-1.8h-6.8l-1.3,7.1l1.7,0.1l0.1-0.1c0.3-0.3,0.6-0.6,1-0.8c0.7-0.4,1.6-0.4,2.3-0.1c0.3,0.1,0.6,0.3,0.8,0.5
		c0.2,0.2,0.4,0.5,0.5,0.8s0.2,0.7,0.2,1.1c0,0.5-0.1,0.9-0.2,1.2c-0.1,0.3-0.3,0.6-0.5,0.9c-0.2,0.2-0.5,0.4-0.8,0.5
		c-0.6,0.2-1.4,0.2-1.9,0c-0.3-0.1-0.5-0.2-0.7-0.4c-0.2-0.2-0.4-0.4-0.5-0.7c-0.1-0.3-0.2-0.5-0.2-0.8v-0.2h-2v0.3
		c0,0.6,0.1,1.2,0.4,1.7c0.2,0.5,0.5,0.9,0.9,1.2c0.4,0.3,0.9,0.6,1.4,0.7c0.5,0.2,1.1,0.3,1.6,0.3c0.8,0,1.5-0.1,2-0.4
		c0.6-0.2,1.1-0.6,1.5-1s0.7-0.9,0.9-1.4c0.2-0.5,0.3-1.1,0.3-1.7C323.4,87.4,323.3,86.8,323,86.2z"/>
</g>
<g>
	<path class="st5" d="M286.8,139.6c-0.1-0.5-0.2-1-0.4-1.4c-0.2-0.5-0.5-0.9-0.8-1.2s-0.8-0.6-1.3-0.8s-1.1-0.3-1.8-0.3
		c-0.7,0-1.3,0.1-1.8,0.3s-0.9,0.5-1.3,0.8c-0.3,0.3-0.6,0.8-0.8,1.2c-0.2,0.4-0.3,0.9-0.4,1.4s-0.2,1-0.2,1.5s0,1,0,1.5s0,1,0,1.5
		s0.1,1,0.2,1.5s0.2,1,0.4,1.4c0.2,0.5,0.5,0.9,0.8,1.2s0.8,0.6,1.3,0.8s1.1,0.3,1.8,0.3c0.7,0,1.3-0.1,1.8-0.3s0.9-0.5,1.3-0.8
		c0.3-0.3,0.6-0.7,0.8-1.2c0.2-0.4,0.3-0.9,0.4-1.4s0.2-1,0.2-1.5s0-1,0-1.5s0-1,0-1.5C286.9,140.6,286.9,140.1,286.8,139.6z
		 M282.5,137.7c0.4,0,0.7,0.1,1,0.2c0.3,0.2,0.5,0.3,0.7,0.6c0.2,0.2,0.3,0.5,0.4,0.9c0.1,0.3,0.2,0.7,0.2,1.1
		c0.1,0.4,0.1,0.7,0.1,1.1c0,0.4,0,0.7,0,1c0,0.5,0,1,0,1.6s-0.1,1.1-0.3,1.6c-0.1,0.5-0.4,0.9-0.7,1.2c-0.3,0.3-0.8,0.5-1.3,0.5
		c-0.6,0-1-0.2-1.3-0.5s-0.6-0.7-0.7-1.2c-0.2-0.5-0.2-1-0.3-1.6c0-0.6,0-1.1,0-1.6c0-0.3,0-0.7,0-1c0-0.4,0-0.7,0.1-1.1
		c0.1-0.4,0.1-0.7,0.2-1.1c0.1-0.3,0.2-0.6,0.4-0.9c0.2-0.2,0.4-0.4,0.7-0.6C281.8,137.7,282.1,137.7,282.5,137.7z"/>
	<rect x="289.1" y="146.6" class="st5" width="2.5" height="2.5"/>
	<path class="st5" d="M293.9,138h6.4c-0.5,0.6-1,1.2-1.5,1.9c-0.6,0.8-1.1,1.8-1.6,2.7c-0.4,1-0.8,2-1.1,3c-0.3,1-0.5,2.1-0.5,3.2
		v0.3h2.2v-0.2c0.1-1,0.2-2,0.5-3s0.6-2.1,1.1-3c0.4-1,0.9-1.9,1.5-2.8c0.5-0.9,1.1-1.6,1.8-2.2l0.1-0.1V136H294v2H293.9z"/>
	<path class="st5" d="M311.1,142c0.3-0.2,0.6-0.5,0.9-0.8c0.4-0.5,0.6-1.1,0.6-1.7c0-0.6-0.1-1.2-0.3-1.6c-0.2-0.5-0.5-0.9-0.9-1.2
		s-0.8-0.5-1.3-0.7c-0.5-0.1-1-0.2-1.6-0.2c-0.7,0-1.3,0.1-1.8,0.3s-1,0.5-1.3,0.9s-0.6,0.8-0.8,1.4c-0.2,0.5-0.3,1.1-0.3,1.7v0.3h2
		v-0.3c0-0.3,0-0.7,0.1-1s0.2-0.6,0.4-0.8c0.2-0.2,0.4-0.4,0.7-0.5c0.3-0.1,0.6-0.2,1-0.2c0.6,0,1.1,0.2,1.5,0.5s0.6,0.7,0.6,1.3
		c0,0.3-0.1,0.6-0.2,0.8s-0.3,0.4-0.5,0.6c-0.2,0.2-0.4,0.3-0.7,0.4c-0.3,0.1-0.6,0.1-0.9,0.1h-0.5h-0.1l-0.3-0.1v1.9h0.3
		c0.6-0.1,1.3-0.1,1.9,0.1c0.3,0.1,0.5,0.2,0.8,0.4c0.2,0.2,0.4,0.4,0.5,0.7s0.2,0.6,0.2,0.9c0,0.3-0.1,0.7-0.2,0.9
		c-0.1,0.3-0.3,0.5-0.5,0.7s-0.5,0.3-0.8,0.4c-0.3,0.1-0.6,0.2-1,0.2c-0.8,0-1.4-0.2-1.8-0.7s-0.6-1.1-0.7-1.9v-0.2h-2v0.2
		c0,0.7,0.1,1.3,0.3,1.9c0.2,0.6,0.5,1,0.9,1.4s0.9,0.7,1.4,0.9c0.6,0.2,1.2,0.3,1.8,0.3c0.6,0,1.2-0.1,1.8-0.3
		c0.6-0.2,1.1-0.4,1.5-0.8c0.4-0.3,0.8-0.8,1-1.3s0.4-1.1,0.4-1.8c0-0.8-0.2-1.5-0.6-2.1C312.1,142.5,311.6,142.2,311.1,142z"/>
	<path class="st5" d="M323,142.8c-0.2-0.6-0.5-1.1-0.9-1.5s-0.9-0.7-1.4-0.9c-0.9-0.3-2-0.4-3.1,0c-0.2,0.1-0.5,0.2-0.7,0.3l0.5-2.9
		h5.2V136h-6.8l-1.3,7.1l1.7,0.1l0.1-0.1c0.3-0.3,0.6-0.6,1-0.8c0.7-0.4,1.6-0.4,2.3-0.1c0.3,0.1,0.6,0.3,0.8,0.5
		c0.2,0.2,0.4,0.5,0.5,0.8s0.2,0.7,0.2,1.1c0,0.5-0.1,0.9-0.2,1.2s-0.3,0.6-0.5,0.9c-0.2,0.2-0.5,0.4-0.8,0.5
		c-0.6,0.2-1.4,0.2-1.9,0c-0.3-0.1-0.5-0.2-0.7-0.4s-0.4-0.4-0.5-0.7s-0.2-0.5-0.2-0.8v-0.2h-2v0.3c0,0.6,0.1,1.2,0.4,1.7
		c0.2,0.5,0.5,0.9,0.9,1.2s0.9,0.6,1.4,0.7c0.5,0.2,1.1,0.3,1.6,0.3c0.8,0,1.5-0.1,2-0.4c0.6-0.2,1.1-0.6,1.5-1s0.7-0.9,0.9-1.4
		c0.2-0.5,0.3-1.1,0.3-1.7C323.4,144,323.3,143.4,323,142.8z"/>
</g>
<g>
	<path class="st5" d="M286.8,196.2c-0.1-0.5-0.2-1-0.4-1.4c-0.2-0.5-0.5-0.9-0.8-1.2s-0.8-0.6-1.3-0.8s-1.1-0.3-1.8-0.3
		c-0.7,0-1.3,0.1-1.8,0.3s-0.9,0.5-1.3,0.8c-0.3,0.3-0.6,0.8-0.8,1.2c-0.2,0.4-0.3,0.9-0.4,1.4s-0.2,1-0.2,1.5s0,1,0,1.5s0,1,0,1.5
		s0.1,1,0.2,1.5s0.2,1,0.4,1.4c0.2,0.5,0.5,0.9,0.8,1.2s0.8,0.6,1.3,0.8s1.1,0.3,1.8,0.3c0.7,0,1.3-0.1,1.8-0.3s0.9-0.5,1.3-0.8
		c0.3-0.3,0.6-0.7,0.8-1.2c0.2-0.4,0.3-0.9,0.4-1.4s0.2-1,0.2-1.5s0-1,0-1.5s0-1,0-1.5C286.9,197.2,286.9,196.7,286.8,196.2z
		 M282.5,194.2c0.4,0,0.7,0.1,1,0.2c0.3,0.2,0.5,0.3,0.7,0.6c0.2,0.2,0.3,0.5,0.4,0.9c0.1,0.3,0.2,0.7,0.2,1.1
		c0.1,0.4,0.1,0.7,0.1,1.1c0,0.4,0,0.7,0,1c0,0.5,0,1,0,1.6s-0.1,1.1-0.3,1.6c-0.1,0.5-0.4,0.9-0.7,1.2c-0.3,0.3-0.8,0.5-1.3,0.5
		c-0.6,0-1-0.2-1.3-0.5s-0.6-0.7-0.7-1.2c-0.2-0.5-0.2-1-0.3-1.6c0-0.6,0-1.1,0-1.6c0-0.3,0-0.7,0-1c0-0.4,0-0.7,0.1-1.1
		c0.1-0.4,0.1-0.7,0.2-1.1c0.1-0.3,0.2-0.6,0.4-0.9c0.2-0.2,0.4-0.4,0.7-0.6C281.8,194.3,282.1,194.2,282.5,194.2z"/>
	<rect x="289.1" y="203.2" class="st5" width="2.5" height="2.5"/>
	<path class="st5" d="M293.9,194.5h6.4c-0.5,0.6-1,1.2-1.5,1.9c-0.6,0.8-1.1,1.8-1.6,2.7c-0.4,1-0.8,2-1.1,3c-0.3,1-0.5,2.1-0.5,3.2
		v0.3h2.2v-0.2c0.1-1,0.2-2,0.5-3s0.6-2.1,1.1-3c0.4-1,0.9-1.9,1.5-2.8c0.5-0.9,1.1-1.6,1.8-2.2l0.1-0.1v-1.7H294v1.9H293.9z"/>
	<path class="st5" d="M312.1,198.2c-0.4-0.4-0.8-0.7-1.3-0.9s-1.1-0.3-1.7-0.3c-0.7,0-1.4,0.1-2,0.4c-0.4,0.2-0.7,0.4-1,0.7
		c0-0.3,0.1-0.5,0.1-0.8c0.1-0.5,0.2-1,0.4-1.5c0.2-0.5,0.5-0.8,0.9-1.1c0.3-0.3,0.8-0.4,1.4-0.4s1,0.1,1.3,0.5
		c0.3,0.3,0.5,0.7,0.6,1.2v0.2h2v-0.3c-0.1-1.1-0.5-2-1.2-2.6s-1.6-0.9-2.7-0.9c-1,0-1.8,0.2-2.4,0.6c-0.6,0.4-1.1,0.9-1.5,1.6
		c-0.4,0.7-0.6,1.4-0.8,2.3c-0.2,0.8-0.2,1.7-0.2,2.6c0,0.7,0.1,1.4,0.2,2.1c0.1,0.7,0.3,1.4,0.6,2.1c0.3,0.6,0.8,1.2,1.4,1.6
		c0.6,0.4,1.4,0.6,2.4,0.6c0.8,0,1.6-0.1,2.1-0.4c0.6-0.3,1-0.7,1.4-1.1c0.3-0.4,0.6-0.9,0.8-1.5c0.1-0.5,0.2-1,0.2-1.5
		c0-0.6-0.1-1.2-0.3-1.7C312.7,199.1,312.4,198.6,312.1,198.2z M308.7,198.8c0.4,0,0.7,0.1,1,0.2c0.3,0.1,0.5,0.3,0.7,0.6
		c0.2,0.2,0.3,0.5,0.4,0.8s0.1,0.7,0.1,1.1c0,0.3-0.1,0.7-0.2,1s-0.3,0.6-0.5,0.8s-0.4,0.4-0.7,0.6c-0.6,0.3-1.4,0.3-2,0
		c-0.3-0.1-0.5-0.3-0.7-0.5s-0.4-0.5-0.5-0.8s-0.2-0.7-0.2-1c0-0.4,0.1-0.7,0.2-1s0.3-0.6,0.5-0.8s0.5-0.4,0.7-0.6
		C308,198.9,308.3,198.8,308.7,198.8z"/>
	<path class="st5" d="M323.4,197.7c0-0.5-0.1-1-0.2-1.5s-0.2-1-0.4-1.4c-0.2-0.5-0.5-0.9-0.8-1.2s-0.8-0.6-1.3-0.8s-1.1-0.3-1.8-0.3
		s-1.3,0.1-1.8,0.3s-0.9,0.5-1.3,0.8c-0.3,0.3-0.6,0.8-0.8,1.2c-0.2,0.4-0.3,0.9-0.4,1.4s-0.2,1-0.2,1.5s0,1,0,1.5s0,1,0,1.5
		s0.1,1,0.2,1.5s0.2,1,0.4,1.4c0.2,0.5,0.5,0.9,0.8,1.2s0.8,0.6,1.3,0.8s1.1,0.3,1.8,0.3c0.7,0,1.3-0.1,1.8-0.3s0.9-0.5,1.3-0.8
		c0.3-0.3,0.6-0.7,0.8-1.2c0.2-0.4,0.3-0.9,0.4-1.4s0.2-1,0.2-1.5s0-1,0-1.5C323.5,198.7,323.4,198.2,323.4,197.7z M319,194.2
		c0.4,0,0.7,0.1,1,0.2c0.3,0.2,0.5,0.3,0.7,0.6c0.2,0.2,0.3,0.5,0.4,0.9c0.1,0.3,0.2,0.7,0.2,1.1c0.1,0.4,0.1,0.7,0.1,1.1
		c0,0.4,0,0.7,0,1c0,0.5,0,1,0,1.6s-0.1,1.1-0.3,1.6c-0.1,0.5-0.4,0.9-0.7,1.2c-0.3,0.3-0.8,0.5-1.3,0.5c-0.6,0-1-0.2-1.3-0.5
		s-0.6-0.7-0.7-1.2c-0.2-0.5-0.2-1-0.3-1.6c0-0.6,0-1.1,0-1.6c0-0.3,0-0.7,0-1c0-0.4,0-0.7,0.1-1.1c0.1-0.4,0.1-0.7,0.2-1.1
		c0.1-0.3,0.2-0.6,0.4-0.9c0.2-0.2,0.4-0.4,0.7-0.6C318.2,194.3,318.6,194.2,319,194.2z"/>
</g>
<g>
	<path class="st5" d="M286.8,252.6c-0.1-0.5-0.2-1-0.4-1.4c-0.2-0.5-0.5-0.9-0.8-1.2s-0.8-0.6-1.3-0.8s-1.1-0.3-1.8-0.3
		c-0.7,0-1.3,0.1-1.8,0.3s-0.9,0.5-1.3,0.8c-0.3,0.3-0.6,0.8-0.8,1.2c-0.2,0.4-0.3,0.9-0.4,1.4s-0.2,1-0.2,1.5s0,1,0,1.5s0,1,0,1.5
		s0.1,1,0.2,1.5s0.2,1,0.4,1.4c0.2,0.5,0.5,0.9,0.8,1.2c0.3,0.3,0.8,0.6,1.3,0.8c0.5,0.2,1.1,0.3,1.8,0.3c0.7,0,1.3-0.1,1.8-0.3
		c0.5-0.2,0.9-0.5,1.3-0.8c0.3-0.3,0.6-0.7,0.8-1.2c0.2-0.4,0.3-0.9,0.4-1.4s0.2-1,0.2-1.5s0-1,0-1.5s0-1,0-1.5
		C286.9,253.6,286.9,253.1,286.8,252.6z M282.5,250.7c0.4,0,0.7,0.1,1,0.2c0.3,0.2,0.5,0.3,0.7,0.6c0.2,0.2,0.3,0.5,0.4,0.9
		c0.1,0.3,0.2,0.7,0.2,1.1c0.1,0.4,0.1,0.7,0.1,1.1c0,0.4,0,0.7,0,1c0,0.5,0,1,0,1.6s-0.1,1.1-0.3,1.6c-0.1,0.5-0.4,0.9-0.7,1.2
		c-0.3,0.3-0.8,0.5-1.3,0.5c-0.6,0-1-0.2-1.3-0.5s-0.6-0.7-0.7-1.2c-0.2-0.5-0.2-1-0.3-1.6c0-0.6,0-1.1,0-1.6c0-0.3,0-0.7,0-1
		c0-0.4,0-0.7,0.1-1.1c0.1-0.4,0.1-0.7,0.2-1.1c0.1-0.3,0.2-0.6,0.4-0.9c0.2-0.2,0.4-0.4,0.7-0.6
		C281.8,250.8,282.1,250.7,282.5,250.7z"/>
	<rect x="289.1" y="259.6" class="st5" width="2.5" height="2.5"/>
	<path class="st5" d="M300.8,254.9c0.4-0.2,0.7-0.5,0.9-0.9c0.3-0.5,0.5-1.1,0.5-1.7c0-0.4-0.1-0.9-0.2-1.3
		c-0.2-0.4-0.4-0.8-0.7-1.1c-0.3-0.3-0.8-0.6-1.3-0.8s-1.1-0.3-1.9-0.3c-0.5,0-1,0.1-1.5,0.2c-0.5,0.2-0.9,0.4-1.3,0.7
		s-0.7,0.7-0.9,1.1c-0.2,0.4-0.3,0.9-0.3,1.5s0.2,1.2,0.5,1.7c0.2,0.4,0.6,0.7,0.9,0.9c-0.5,0.3-1,0.6-1.3,1.1
		c-0.4,0.6-0.6,1.3-0.6,2.1c0,0.7,0.1,1.3,0.4,1.8c0.2,0.5,0.6,1,1,1.3s0.9,0.6,1.5,0.8c0.5,0.2,1.1,0.2,1.8,0.2
		c0.6,0,1.2-0.1,1.7-0.3c0.5-0.2,1-0.4,1.4-0.8s0.7-0.8,1-1.3c0.2-0.5,0.4-1.1,0.4-1.8c0-0.8-0.2-1.6-0.6-2.1
		C301.8,255.6,301.4,255.2,300.8,254.9z M299.6,253.7c-0.4,0.3-0.8,0.5-1.3,0.5c-0.3,0-0.6,0-0.8-0.1c-0.2-0.1-0.5-0.2-0.6-0.3
		c-0.2-0.1-0.3-0.3-0.4-0.5s-0.2-0.5-0.2-0.8s0.1-0.5,0.2-0.7s0.2-0.4,0.4-0.5c0.2-0.1,0.4-0.3,0.6-0.3c0.3-0.1,0.5-0.1,0.8-0.1
		c0.6,0,1,0.1,1.4,0.4c0.3,0.3,0.5,0.7,0.5,1.3C300.1,253,300,253.4,299.6,253.7z M296,257.3c0.1-0.3,0.3-0.5,0.5-0.7
		s0.5-0.3,0.8-0.4s0.6-0.2,1-0.2c0.3,0,0.6,0.1,0.9,0.2s0.5,0.3,0.8,0.5c0.2,0.2,0.4,0.4,0.5,0.7c0.1,0.3,0.2,0.5,0.2,0.9
		c0,0.3-0.1,0.6-0.2,0.9s-0.3,0.5-0.5,0.7s-0.5,0.4-0.7,0.5c-0.3,0.1-0.6,0.2-1,0.2c-0.7,0-1.3-0.2-1.8-0.6s-0.7-0.9-0.7-1.6
		C295.8,257.9,295.9,257.6,296,257.3z"/>
	<path class="st5" d="M308.6,249c-0.1,0.4-0.2,0.8-0.4,1.1l0,0c-0.2,0.3-0.5,0.5-0.8,0.7s-0.7,0.3-1,0.3c-0.4,0.1-0.8,0.1-1.2,0.1
		h-0.3v1.7h3.3v9.1h2v-13.3h-1.6V249z"/>
	<path class="st5" d="M321.7,257.3v-8.4h-1.6l-5.9,8.5v1.8h5.6v3h1.9v-3h1.7v-1.8h-1.7V257.3z M316.2,257.3l3.6-5.2v5.2H316.2z"/>
</g>
<g>
	<polygon class="st2" points="379.8,29.8 386.5,29.8 386.5,27.9 379.8,27.9 379.8,24.3 387,24.3 387,22.4 377.6,22.4 377.6,35.7 
		387,35.7 387,33.8 379.8,33.8 	"/>
	<path class="st2" d="M396.2,26.7L396.2,26.7c-0.3-0.3-0.6-0.6-1.1-0.8c-0.4-0.2-1-0.3-1.6-0.3c-1.2,0-2.1,0.4-2.8,1.2v-1h-1.9v9.8
		h2v-5.5c0-0.4,0.1-0.8,0.2-1.1c0.1-0.3,0.3-0.6,0.5-0.8c0.2-0.2,0.5-0.4,0.8-0.5s0.7-0.2,1.1-0.2c0.5,0,0.9,0.1,1.2,0.4
		s0.4,0.7,0.4,1.2v6.5h2v-6.4c0-0.5-0.1-1-0.2-1.4C396.6,27.5,396.4,27.1,396.2,26.7z"/>
	<path class="st2" d="M401.7,23.1h-2v2.8h-1.6v1.8h1.6v5.7c0,0.5,0,0.8,0.1,1.1s0.3,0.6,0.5,0.7c0.2,0.2,0.5,0.3,0.8,0.3
		c0.3,0.1,0.7,0.1,1.1,0.1h1.4v-1.8h-1c-0.2,0-0.4,0-0.6,0c-0.1,0-0.2,0-0.2-0.1c0,0-0.1,0-0.1-0.1s0-0.2,0-0.4v-5.5h1.9v-1.8h-1.9
		L401.7,23.1L401.7,23.1z"/>
	<path class="st2" d="M408,26.2c-0.4,0.3-0.7,0.6-1,1v-1.4h-2v9.8h2v-4.4c0-0.6,0.1-1.1,0.2-1.5s0.3-0.8,0.5-1.1
		c0.2-0.3,0.5-0.5,0.9-0.7s0.9-0.2,1.5-0.2h0.3v-2.1h-0.2C409.3,25.7,408.6,25.9,408,26.2z"/>
	<rect x="411.5" y="22.4" class="st2" width="2" height="2.4"/>
	<rect x="411.5" y="25.9" class="st2" width="2" height="9.8"/>
	<path class="st2" d="M423.5,27.6c-0.3-0.6-0.8-1-1.4-1.4c-0.6-0.4-1.3-0.6-2.2-0.6c-0.7,0-1.3,0.1-1.9,0.4s-1.1,0.6-1.5,1.1
		s-0.7,1-1,1.6c-0.2,0.6-0.3,1.3-0.3,2s0.1,1.4,0.3,2c0.2,0.6,0.5,1.2,0.9,1.6c0.4,0.5,0.9,0.8,1.5,1.1s1.3,0.4,2,0.4
		c1.1,0,2-0.3,2.8-0.8c0.7-0.6,1.2-1.4,1.4-2.5l0.1-0.3h-2v0.2c-0.1,0.6-0.4,1-0.7,1.2c-0.4,0.3-0.9,0.4-1.4,0.4s-0.9-0.1-1.2-0.2
		c-0.3-0.2-0.6-0.4-0.8-0.6c-0.2-0.3-0.4-0.5-0.5-0.9c-0.1-0.3-0.1-0.5-0.1-0.8h7v-0.2c0-0.6,0-1.2-0.2-1.8
		C424.1,28.8,423.8,28.2,423.5,27.6z M422.2,29.7h-4.8c0-0.2,0.1-0.5,0.2-0.7c0.1-0.3,0.3-0.5,0.5-0.8c0.2-0.2,0.5-0.4,0.7-0.5
		c0.6-0.2,1.3-0.3,1.9,0c0.3,0.1,0.5,0.3,0.8,0.5c0.2,0.2,0.4,0.5,0.5,0.8C422.1,29.2,422.2,29.4,422.2,29.7z"/>
	<path class="st2" d="M433.3,31.5L433.3,31.5c-0.2-0.3-0.4-0.6-0.8-0.8c-0.3-0.2-0.6-0.4-1-0.5s-0.8-0.2-1.1-0.3
		c-0.4-0.1-0.7-0.2-1.1-0.2c-0.3-0.1-0.7-0.2-0.9-0.3c-0.3-0.1-0.5-0.2-0.6-0.4c-0.1-0.1-0.2-0.3-0.2-0.5s0-0.3,0.1-0.4
		s0.2-0.2,0.4-0.3c0.2-0.1,0.4-0.1,0.6-0.2c0.5-0.1,0.9-0.1,1.3,0c0.2,0,0.4,0.1,0.6,0.2c0.2,0.1,0.3,0.2,0.4,0.4
		c0.1,0.2,0.2,0.4,0.2,0.6V29h2v-0.3c0-0.6-0.2-1.1-0.4-1.5s-0.5-0.7-0.9-1c-0.4-0.2-0.8-0.4-1.3-0.5c-0.8-0.2-1.8-0.2-2.8,0
		c-0.4,0.1-0.8,0.3-1.2,0.5s-0.7,0.5-0.9,0.9s-0.4,0.8-0.4,1.3c0,0.7,0.2,1.2,0.5,1.6s0.7,0.6,1.2,0.8c0.5,0.2,1,0.3,1.5,0.4
		s1,0.2,1.4,0.3c0.4,0.1,0.8,0.3,1.1,0.5c0.2,0.2,0.3,0.4,0.3,0.7c0,0.2-0.1,0.4-0.2,0.6c-0.1,0.2-0.3,0.3-0.5,0.3
		c-0.2,0.1-0.4,0.1-0.7,0.2c-0.6,0.1-1.1,0.1-1.6,0c-0.3-0.1-0.5-0.1-0.7-0.3c-0.2-0.1-0.4-0.3-0.5-0.5s-0.2-0.4-0.2-0.7v-0.2h-2
		v0.3c0,0.6,0.2,1.1,0.4,1.6c0.2,0.4,0.5,0.8,0.9,1.1s0.8,0.5,1.3,0.6s1,0.2,1.5,0.2s1,0,1.5-0.1s1-0.3,1.4-0.5s0.7-0.6,1-1
		s0.4-0.9,0.4-1.5C433.6,32.3,433.5,31.8,433.3,31.5z"/>
</g>
<g class="st6">
	<g>
		<path class="st4" d="M398.2,90.6c0.4,0.3,1,0.5,1.6,0.5c0.9,0,1.6-0.4,2.1-1.2c0.5-0.8,0.7-2,0.8-3.7l0,0c-0.3,0.5-0.7,1-1.2,1.3
			s-1.1,0.5-1.7,0.5s-1.2-0.1-1.7-0.3s-0.9-0.5-1.3-0.9c-0.3-0.4-0.6-0.8-0.8-1.3s-0.3-1.1-0.3-1.7s0.1-1.2,0.3-1.7
			c0.2-0.5,0.5-0.9,0.9-1.3s0.8-0.7,1.3-0.9c0.5-0.2,1.1-0.3,1.7-0.3s1.2,0.1,1.7,0.3c0.5,0.2,1,0.5,1.4,1s0.7,1.1,0.9,1.9
			c0.2,0.8,0.4,1.8,0.4,3c0,2.2-0.4,3.9-1.1,5.1s-1.8,1.8-3.4,1.8c-1.1,0-2-0.3-2.7-0.8s-1.1-1.4-1.2-2.5h1.5
			C397.5,89.8,397.7,90.3,398.2,90.6z M402.2,82.6c-0.1-0.3-0.3-0.7-0.5-0.9c-0.2-0.3-0.5-0.5-0.8-0.6c-0.3-0.2-0.7-0.2-1.1-0.2
			c-0.5,0-0.8,0.1-1.2,0.3c-0.3,0.2-0.6,0.4-0.8,0.7c-0.2,0.3-0.3,0.6-0.4,1s-0.1,0.7-0.1,1.1c0,0.3,0.1,0.7,0.2,1s0.3,0.6,0.5,0.9
			s0.5,0.5,0.8,0.6c0.3,0.2,0.6,0.2,1,0.2s0.8-0.1,1.1-0.2c0.3-0.1,0.6-0.4,0.8-0.6c0.2-0.3,0.4-0.6,0.5-0.9s0.2-0.7,0.2-1.1
			C402.3,83.3,402.3,83,402.2,82.6z"/>
	</g>
	<g>
		<path class="st4" d="M412.1,81.3c-0.4-0.3-0.9-0.5-1.5-0.5s-1.2,0.2-1.6,0.5s-0.7,0.7-0.9,1.2c-0.2,0.5-0.4,1-0.5,1.6
			s-0.1,1.1-0.1,1.6l0,0c0.4-0.6,0.8-1,1.3-1.3s1.1-0.4,1.8-0.4c0.6,0,1.2,0.1,1.6,0.3s0.9,0.5,1.2,0.9c0.3,0.4,0.6,0.8,0.8,1.3
			c0.2,0.5,0.3,1,0.3,1.6c0,0.5-0.1,1-0.2,1.5s-0.4,1-0.7,1.4s-0.8,0.8-1.3,1c-0.5,0.3-1.2,0.4-2,0.4c-0.9,0-1.7-0.2-2.3-0.6
			s-1-0.9-1.3-1.5s-0.5-1.3-0.6-2s-0.1-1.3-0.1-2c0-0.9,0.1-1.7,0.2-2.5s0.4-1.6,0.8-2.2s0.8-1.1,1.4-1.5s1.4-0.6,2.3-0.6
			c1.1,0,1.9,0.3,2.5,0.8c0.6,0.6,1,1.4,1.1,2.4h-1.5C412.7,82.2,412.5,81.7,412.1,81.3z M409.4,85.6c-0.3,0.2-0.6,0.4-0.8,0.6
			c-0.2,0.3-0.4,0.6-0.5,0.9c-0.1,0.4-0.2,0.7-0.2,1.1s0.1,0.8,0.2,1.1c0.1,0.3,0.3,0.6,0.5,0.9s0.5,0.5,0.8,0.6
			c0.3,0.2,0.7,0.2,1.1,0.2s0.8-0.1,1.1-0.2c0.3-0.1,0.6-0.4,0.8-0.6c0.2-0.3,0.4-0.6,0.5-0.9s0.2-0.7,0.2-1.1s-0.1-0.8-0.2-1.1
			c-0.1-0.4-0.3-0.7-0.5-0.9s-0.5-0.5-0.8-0.6s-0.7-0.2-1.1-0.2S409.7,85.5,409.4,85.6z"/>
	</g>
</g>
<g class="st6">
	<g>
		<path class="st4" d="M394.7,148.8v-9.1h-3.3v-1.2c0.4,0,0.9,0,1.3-0.1s0.8-0.2,1.1-0.4c0.3-0.2,0.6-0.4,0.8-0.7
			c0.2-0.3,0.4-0.7,0.5-1.2h1.2v12.8h-1.6V148.8z"/>
	</g>
	<g>
		<path class="st4" d="M401,141.1c0-0.5,0.1-1,0.2-1.5s0.2-0.9,0.4-1.4c0.2-0.4,0.4-0.8,0.7-1.1c0.3-0.3,0.7-0.6,1.2-0.8
			s1-0.3,1.7-0.3s1.2,0.1,1.7,0.3s0.9,0.4,1.2,0.8c0.3,0.3,0.6,0.7,0.7,1.1c0.2,0.4,0.3,0.9,0.4,1.4s0.2,1,0.2,1.5s0,1,0,1.5
			s0,1,0,1.5s-0.1,1-0.2,1.5s-0.2,0.9-0.4,1.4c-0.2,0.4-0.4,0.8-0.7,1.1c-0.3,0.3-0.7,0.6-1.2,0.8s-1,0.3-1.7,0.3s-1.2-0.1-1.7-0.3
			s-0.9-0.4-1.2-0.8c-0.3-0.3-0.6-0.7-0.7-1.1s-0.3-0.9-0.4-1.4s-0.2-1-0.2-1.5s0-1,0-1.5C400.9,142.1,400.9,141.6,401,141.1z
			 M402.6,144.1c0,0.6,0.1,1.2,0.3,1.7c0.2,0.5,0.4,1,0.8,1.3c0.4,0.4,0.9,0.5,1.5,0.5s1.2-0.2,1.5-0.5c0.4-0.4,0.6-0.8,0.8-1.3
			c0.2-0.5,0.3-1.1,0.3-1.7c0-0.6,0-1.1,0-1.6c0-0.3,0-0.7,0-1s0-0.8-0.1-1.1c-0.1-0.4-0.1-0.7-0.2-1.1c-0.1-0.4-0.3-0.7-0.4-0.9
			c-0.2-0.3-0.4-0.5-0.7-0.7s-0.7-0.3-1.1-0.3s-0.8,0.1-1.1,0.3c-0.3,0.2-0.5,0.4-0.7,0.7s-0.3,0.6-0.5,0.9
			c-0.1,0.4-0.2,0.7-0.2,1.1s-0.1,0.8-0.1,1.1c0,0.4,0,0.7,0,1C402.5,143,402.6,143.6,402.6,144.1z"/>
	</g>
	<g>
		<path class="st4" d="M419.8,144.5v1.3h-1.7v3h-1.4v-3H411v-1.5l5.8-8.3h1.2v8.4h1.8V144.5z M416.6,138.2L416.6,138.2l-4.3,6.2h4.3
			V138.2z"/>
	</g>
</g>
<g class="st6">
	<g>
		<path class="st4" d="M398.3,194.2l-0.7,3.7l0,0c0.3-0.3,0.6-0.5,1.1-0.7c0.4-0.2,0.9-0.2,1.3-0.2c0.6,0,1.1,0.1,1.6,0.3
			s0.9,0.5,1.3,0.8c0.4,0.4,0.7,0.8,0.9,1.4c0.2,0.5,0.3,1.2,0.3,1.9c0,0.5-0.1,1.1-0.3,1.6s-0.5,1-0.8,1.4
			c-0.4,0.4-0.8,0.7-1.4,0.9s-1.2,0.4-2,0.4c-0.6,0-1.1-0.1-1.6-0.2s-0.9-0.4-1.3-0.7s-0.7-0.7-0.9-1.1c-0.2-0.5-0.3-1-0.3-1.5h1.5
			c0,0.3,0.1,0.6,0.2,0.9c0.1,0.3,0.3,0.5,0.6,0.7s0.5,0.4,0.8,0.5s0.7,0.2,1.1,0.2s0.7-0.1,1-0.2s0.6-0.3,0.9-0.6
			c0.2-0.3,0.4-0.6,0.6-0.9s0.2-0.8,0.2-1.3c0-0.4-0.1-0.8-0.2-1.2s-0.3-0.7-0.6-0.9c-0.3-0.3-0.6-0.5-0.9-0.6
			c-0.4-0.1-0.7-0.2-1.2-0.2s-1,0.1-1.3,0.3c-0.4,0.2-0.7,0.5-1,0.9l-1.3-0.1l1.2-6.6h6.3v1.3h-5.1V194.2z"/>
	</g>
	<g>
		<path class="st4" d="M412.7,196.4c-0.6,0.9-1.1,1.8-1.5,2.8s-0.8,2-1.1,3.1c-0.3,1.1-0.4,2.1-0.5,3.1h-1.7
			c0.1-1.1,0.2-2.1,0.5-3.2c0.3-1,0.6-2,1.1-3c0.4-0.9,1-1.8,1.5-2.7s1.2-1.6,1.9-2.3h-6.7v-1.4h8.3v1.3
			C413.9,194.8,413.3,195.6,412.7,196.4z"/>
	</g>
</g>
<g class="st6">
	<g>
		<path class="st4" d="M396.5,250.9c0.2-0.4,0.5-0.7,0.8-1s0.7-0.5,1.2-0.6s0.9-0.2,1.4-0.2c0.7,0,1.3,0.1,1.8,0.3s0.9,0.4,1.2,0.7
			c0.3,0.3,0.5,0.7,0.7,1c0.1,0.4,0.2,0.8,0.2,1.2c0,0.6-0.2,1.1-0.5,1.6s-0.7,0.8-1.3,1.1c0.8,0.2,1.3,0.6,1.7,1.2
			c0.4,0.5,0.6,1.2,0.6,2c0,0.6-0.1,1.2-0.3,1.7c-0.2,0.5-0.5,0.9-0.9,1.2c-0.4,0.3-0.8,0.6-1.3,0.7s-1.1,0.3-1.7,0.3
			s-1.2-0.1-1.7-0.2c-0.5-0.2-1-0.4-1.4-0.7c-0.4-0.3-0.7-0.7-0.9-1.2c-0.2-0.5-0.3-1.1-0.3-1.7c0-0.8,0.2-1.4,0.6-2s0.9-1,1.7-1.2
			c-0.5-0.2-1-0.6-1.3-1.1s-0.5-1-0.5-1.6C396.2,251.8,396.3,251.3,396.5,250.9z M398.1,260c0.5,0.4,1.2,0.7,2,0.7
			c0.4,0,0.7-0.1,1.1-0.2c0.3-0.1,0.6-0.3,0.8-0.5c0.2-0.2,0.4-0.5,0.5-0.8s0.2-0.6,0.2-1c0-0.3-0.1-0.7-0.2-1s-0.3-0.5-0.6-0.8
			c-0.2-0.2-0.5-0.4-0.8-0.5s-0.7-0.2-1-0.2c-0.4,0-0.7,0.1-1.1,0.2c-0.3,0.1-0.6,0.3-0.9,0.5s-0.4,0.5-0.6,0.8
			c-0.1,0.3-0.2,0.6-0.2,1C397.3,259,397.6,259.6,398.1,260z M398,253.3c0.1,0.3,0.3,0.5,0.5,0.6c0.2,0.2,0.4,0.3,0.7,0.4
			c0.3,0.1,0.6,0.1,0.9,0.1c0.6,0,1.1-0.2,1.5-0.5c0.4-0.4,0.6-0.9,0.6-1.5s-0.2-1.1-0.6-1.5s-0.9-0.5-1.5-0.5c-0.3,0-0.6,0-0.9,0.1
			s-0.5,0.2-0.7,0.4s-0.4,0.4-0.5,0.6c-0.1,0.2-0.2,0.5-0.2,0.8C397.8,252.7,397.8,253,398,253.3z"/>
	</g>
	<g>
		<path class="st4" d="M412.7,252.9c-0.6,0.9-1.1,1.8-1.5,2.8c-0.4,1-0.8,2-1.1,3.1c-0.3,1.1-0.4,2.1-0.5,3.1h-1.7
			c0.1-1.1,0.2-2.1,0.5-3.2c0.3-1,0.6-2,1.1-3c0.4-0.9,1-1.8,1.5-2.7s1.2-1.6,1.9-2.3h-6.7v-1.4h8.3v1.3
			C413.9,251.2,413.3,252,412.7,252.9z"/>
	</g>
</g>
<g>
	<polygon class="st2" points="476.3,22.4 474.1,22.4 474.1,35.7 483.1,35.7 483.1,33.8 476.3,33.8 	"/>
	<path class="st2" d="M492.2,34.1c-0.2,0-0.2,0-0.2-0.1s-0.1-0.4-0.1-0.7v-4.8c0-0.6-0.1-1.1-0.3-1.4c-0.2-0.4-0.5-0.7-0.9-0.9
		c-0.4-0.2-0.8-0.3-1.2-0.4c-0.9-0.1-1.9-0.1-2.8,0.1c-0.5,0.1-0.9,0.3-1.3,0.6c-0.4,0.3-0.7,0.6-0.9,1s-0.4,1-0.4,1.6v0.3h2v-0.2
		c0-0.6,0.2-1,0.6-1.2c0.5-0.3,1.4-0.4,2.2-0.3c0.2,0,0.4,0.1,0.6,0.2c0.2,0.1,0.3,0.2,0.4,0.4c0.1,0.2,0.2,0.4,0.2,0.7
		c0,0.2-0.1,0.4-0.2,0.5c-0.1,0.1-0.3,0.2-0.6,0.3c-0.3,0.1-0.6,0.1-1,0.2c-0.4,0-0.8,0.1-1.2,0.2s-0.8,0.2-1.2,0.3
		c-0.4,0.1-0.8,0.3-1.1,0.5s-0.6,0.5-0.8,0.9c-0.2,0.4-0.3,0.8-0.3,1.4c0,0.5,0.1,0.9,0.3,1.3c0.2,0.4,0.4,0.7,0.7,0.9
		s0.7,0.4,1.1,0.5c1,0.2,2.2,0.2,3.1-0.2c0.4-0.2,0.8-0.4,1.2-0.8c0.1,0.3,0.2,0.5,0.4,0.7c0.3,0.3,0.7,0.4,1.1,0.4
		c0.5,0,0.9-0.1,1.2-0.3l0.1-0.1V34l-0.3,0.1C492.5,34.1,492.3,34.1,492.2,34.1z M490,31.1v1.1c0,0.2,0,0.4-0.1,0.6
		c-0.1,0.2-0.2,0.4-0.4,0.6c-0.2,0.2-0.5,0.3-0.8,0.5c-0.5,0.2-1.2,0.3-1.8,0.1c-0.2,0-0.4-0.1-0.5-0.2c-0.1-0.1-0.2-0.2-0.3-0.3
		S486,33.2,486,33c0-0.3,0.1-0.6,0.2-0.8c0.1-0.2,0.3-0.3,0.6-0.4s0.5-0.2,0.9-0.2c0.3-0.1,0.7-0.1,1-0.1c0.4,0,0.7-0.1,1-0.2
		C489.7,31.2,489.8,31.1,490,31.1z"/>
	<path class="st2" d="M501,30.7c-0.3-0.2-0.6-0.4-1-0.5s-0.8-0.2-1.1-0.3c-0.4-0.1-0.7-0.2-1.1-0.2c-0.3-0.1-0.7-0.2-0.9-0.3
		c-0.3-0.1-0.5-0.2-0.6-0.4c-0.1-0.1-0.2-0.3-0.2-0.5s0-0.3,0.1-0.4s0.2-0.2,0.4-0.3c0.2-0.1,0.4-0.1,0.6-0.2c0.5-0.1,0.9-0.1,1.3,0
		c0.2,0,0.4,0.1,0.6,0.2c0.2,0.1,0.3,0.2,0.4,0.4c0.1,0.2,0.2,0.4,0.2,0.6V29h2v-0.3c0-0.6-0.2-1.1-0.4-1.5s-0.5-0.7-0.9-1
		c-0.4-0.2-0.8-0.4-1.3-0.5c-0.8-0.2-1.8-0.2-2.8,0c-0.4,0.1-0.8,0.3-1.2,0.5s-0.7,0.5-0.9,0.9s-0.4,0.8-0.4,1.3
		c0,0.7,0.2,1.2,0.5,1.6s0.7,0.6,1.2,0.8c0.5,0.2,1,0.3,1.5,0.4s1,0.2,1.4,0.3c0.4,0.1,0.8,0.3,1.1,0.5c0.2,0.2,0.3,0.4,0.3,0.7
		c0,0.2-0.1,0.4-0.2,0.6c-0.1,0.2-0.3,0.3-0.5,0.3c-0.2,0.1-0.4,0.1-0.7,0.2c-0.6,0.1-1.1,0.1-1.6,0c-0.3-0.1-0.5-0.1-0.7-0.3
		c-0.2-0.1-0.4-0.3-0.5-0.5s-0.2-0.4-0.2-0.7v-0.2h-2v0.3c0,0.6,0.2,1.1,0.4,1.6c0.2,0.4,0.6,0.8,0.9,1.1c0.4,0.3,0.8,0.5,1.3,0.6
		s1,0.2,1.5,0.2s1,0,1.5-0.1s1-0.3,1.4-0.5s0.7-0.6,1-1s0.4-0.9,0.4-1.5c0-0.5-0.1-0.9-0.3-1.2C501.6,31.2,501.3,30.9,501,30.7z"/>
	<path class="st2" d="M506.2,23.1h-2v2.8h-1.6v1.8h1.6v5.7c0,0.5,0,0.8,0.1,1.1s0.3,0.6,0.5,0.7c0.2,0.2,0.5,0.3,0.8,0.3
		c0.3,0.1,0.7,0.1,1.1,0.1h1.4v-1.8h-1c-0.2,0-0.4,0-0.6,0c-0.1,0-0.2,0-0.2-0.1c0,0-0.1,0-0.1-0.1s0-0.2,0-0.4v-5.5h1.9v-1.8h-1.9
		V23.1z"/>
	<path class="st2" d="M523.9,29.1c-0.4-0.3-0.9-0.5-1.4-0.7s-1-0.3-1.5-0.4s-1-0.2-1.5-0.3c-0.5-0.1-0.9-0.2-1.3-0.4
		c-0.4-0.1-0.6-0.3-0.8-0.5s-0.3-0.5-0.3-0.8c0-0.4,0.1-0.7,0.2-0.9c0.1-0.2,0.3-0.4,0.6-0.6c0.2-0.2,0.5-0.3,0.8-0.3
		c0.3-0.1,0.7-0.1,1-0.1c0.8,0,1.5,0.2,2,0.6s0.8,1,0.9,1.8v0.2h2.1v-0.3c0-0.7-0.2-1.4-0.4-1.9c-0.3-0.5-0.6-1-1.1-1.4
		s-1-0.6-1.6-0.8c-1.1-0.3-2.5-0.3-3.7,0c-0.6,0.2-1.1,0.4-1.6,0.7c-0.5,0.3-0.8,0.7-1.1,1.3c-0.3,0.5-0.4,1.1-0.4,1.8
		c0,0.6,0.1,1.2,0.4,1.6c0.3,0.4,0.6,0.8,1,1c0.4,0.3,0.9,0.5,1.4,0.6c0.5,0.2,1,0.3,1.5,0.4s1,0.2,1.5,0.3c0.5,0.1,0.9,0.2,1.3,0.4
		c0.4,0.2,0.6,0.4,0.8,0.6s0.3,0.5,0.3,0.9s-0.1,0.8-0.2,1c-0.2,0.3-0.4,0.5-0.7,0.6c-0.3,0.2-0.6,0.3-1,0.3
		c-0.8,0.2-1.7,0.1-2.5-0.1c-0.4-0.1-0.8-0.3-1.1-0.5s-0.6-0.5-0.8-0.9c-0.2-0.4-0.3-0.8-0.3-1.3l0,0h-2.1v0.3
		c0,0.8,0.2,1.5,0.4,2.1c0.3,0.6,0.7,1.1,1.2,1.5s1.1,0.7,1.8,0.9s1.4,0.3,2.1,0.3c0.6,0,1.2-0.1,1.8-0.2c0.6-0.1,1.2-0.4,1.7-0.7
		s0.9-0.8,1.3-1.3c0.3-0.5,0.5-1.2,0.5-1.9c0-0.7-0.1-1.2-0.4-1.7C524.7,29.8,524.4,29.4,523.9,29.1z"/>
	<path class="st2" d="M533.2,31.4c0,0.4-0.1,0.8-0.2,1.1c-0.1,0.3-0.3,0.6-0.5,0.8s-0.5,0.4-0.8,0.5S531,34,530.6,34
		c-0.5,0-0.9-0.1-1.2-0.4S529,33,529,32.5V26h-2v6.4c0,0.5,0.1,1,0.2,1.4c0.1,0.4,0.3,0.8,0.6,1.2c0.3,0.3,0.6,0.6,1.1,0.8
		c0.4,0.2,1,0.3,1.6,0.3c0.7,0,1.4-0.1,1.9-0.4c0.3-0.2,0.6-0.4,0.9-0.7v1h1.9v-9.8h-2V31.4z"/>
	<path class="st2" d="M545.6,27.3c-0.4-0.5-0.9-0.9-1.4-1.1c-0.6-0.3-1.2-0.4-2-0.4c-0.7,0-1.3,0.1-1.9,0.4
		c-0.3,0.1-0.6,0.4-0.9,0.6v-4.3h-2v13.4h2v-0.8c0.1,0.1,0.2,0.2,0.3,0.2c0.3,0.2,0.5,0.4,0.8,0.5s0.6,0.2,0.9,0.2
		c0.3,0.1,0.6,0.1,0.8,0.1c0.7,0,1.4-0.1,2-0.4c0.6-0.3,1-0.6,1.4-1.1s0.7-1,0.8-1.6c0.2-0.6,0.3-1.3,0.3-1.9c0-0.7-0.1-1.3-0.3-1.9
		C546.3,28.3,546,27.7,545.6,27.3z M542,27.5c0.4,0,0.8,0.1,1.2,0.3c0.3,0.2,0.6,0.4,0.8,0.7c0.2,0.3,0.4,0.6,0.5,1s0.2,0.8,0.2,1.2
		c0,0.4,0,0.9-0.1,1.3c-0.1,0.4-0.2,0.8-0.4,1.1s-0.5,0.5-0.8,0.7s-0.7,0.3-1.2,0.3s-0.9-0.1-1.2-0.3s-0.6-0.4-0.8-0.7
		s-0.4-0.6-0.5-1c-0.1-0.4-0.2-0.8-0.2-1.3c0-0.4,0-0.8,0.1-1.2c0.1-0.4,0.2-0.7,0.5-1c0.2-0.3,0.5-0.5,0.8-0.7
		C541.1,27.6,541.5,27.5,542,27.5z"/>
	<path class="st2" d="M561,26.4c-0.3-0.2-0.7-0.4-1.1-0.5c-0.4-0.1-0.8-0.2-1.3-0.2c-0.7,0-1.3,0.1-1.8,0.4
		c-0.4,0.2-0.8,0.5-1.1,0.9c-0.2-0.4-0.5-0.7-0.9-0.9c-0.5-0.3-1.1-0.4-1.7-0.4c-1.1,0-2.1,0.4-2.8,1.2V26h-1.9v9.8h2v-6
		c0-0.2,0-0.4,0.1-0.6s0.2-0.5,0.4-0.7s0.4-0.4,0.7-0.6s0.6-0.2,1-0.2c0.3,0,0.6,0,0.8,0.1s0.3,0.2,0.4,0.3c0.1,0.2,0.2,0.3,0.2,0.6
		c0,0.2,0.1,0.5,0.1,0.8v6.4h2v-6c0-0.7,0.2-1.2,0.6-1.6c0.4-0.4,0.9-0.6,1.6-0.6c0.3,0,0.6,0,0.8,0.1s0.3,0.2,0.5,0.4
		c0.1,0.2,0.2,0.3,0.2,0.6c0,0.2,0.1,0.5,0.1,0.8V36h2v-7.1c0-0.5-0.1-1-0.2-1.3C561.6,26.9,561.3,26.6,561,26.4z"/>
	<rect x="564.2" y="25.9" class="st2" width="2" height="9.8"/>
	<rect x="564.2" y="22.4" class="st2" width="2" height="2.4"/>
	<path class="st2" d="M575.2,30.7c-0.3-0.2-0.6-0.4-1-0.5s-0.8-0.2-1.1-0.3c-0.4-0.1-0.7-0.2-1.1-0.2c-0.3-0.1-0.7-0.2-0.9-0.3
		c-0.3-0.1-0.5-0.2-0.6-0.4c-0.1-0.1-0.2-0.3-0.2-0.5s0-0.3,0.1-0.4s0.2-0.2,0.4-0.3c0.2-0.1,0.4-0.1,0.6-0.2c0.4-0.1,0.9-0.1,1.3,0
		c0.2,0,0.4,0.1,0.6,0.2c0.2,0.1,0.3,0.2,0.4,0.4c0.1,0.2,0.2,0.4,0.2,0.6V29h2v-0.3c0-0.6-0.2-1.1-0.4-1.5s-0.5-0.7-0.9-1
		c-0.4-0.2-0.8-0.4-1.3-0.5c-0.8-0.2-1.8-0.2-2.8,0c-0.4,0.1-0.8,0.3-1.2,0.5s-0.7,0.5-0.9,0.9s-0.4,0.8-0.4,1.3
		c0,0.7,0.2,1.2,0.5,1.6s0.7,0.6,1.2,0.8c0.5,0.2,1,0.3,1.5,0.4s1,0.2,1.4,0.3c0.4,0.1,0.8,0.3,1.1,0.5c0.2,0.2,0.3,0.4,0.3,0.7
		c0,0.2-0.1,0.4-0.2,0.6c-0.1,0.2-0.3,0.3-0.5,0.3c-0.2,0.1-0.4,0.1-0.7,0.2c-0.6,0.1-1.1,0.1-1.6,0c-0.3-0.1-0.5-0.1-0.7-0.3
		c-0.2-0.1-0.4-0.3-0.5-0.5s-0.2-0.4-0.2-0.7v-0.2h-2v0.3c0,0.6,0.2,1.1,0.4,1.6s0.6,0.8,0.9,1.1c0.4,0.3,0.8,0.5,1.3,0.6
		s1,0.2,1.5,0.2s1,0,1.5-0.1s1-0.3,1.4-0.5s0.7-0.6,1-1s0.4-0.9,0.4-1.5c0-0.5-0.1-0.9-0.3-1.2C575.8,31.2,575.5,30.9,575.2,30.7z"
		/>
	<path class="st2" d="M584.6,30.7c-0.3-0.2-0.6-0.4-1-0.5s-0.8-0.2-1.1-0.3c-0.4-0.1-0.7-0.2-1.1-0.2c-0.3-0.1-0.7-0.2-0.9-0.3
		c-0.3-0.1-0.5-0.2-0.6-0.4c-0.1-0.1-0.2-0.3-0.2-0.5s0-0.3,0.1-0.4s0.2-0.2,0.4-0.3c0.2-0.1,0.4-0.1,0.6-0.2c0.5-0.1,0.9-0.1,1.3,0
		c0.2,0,0.4,0.1,0.6,0.2c0.2,0.1,0.3,0.2,0.4,0.4c0.1,0.2,0.2,0.4,0.2,0.6V29h2v-0.3c0-0.6-0.2-1.1-0.4-1.5s-0.5-0.7-0.9-1
		c-0.4-0.2-0.8-0.4-1.3-0.5c-0.8-0.2-1.8-0.2-2.8,0c-0.4,0.1-0.8,0.3-1.2,0.5s-0.7,0.5-0.9,0.9s-0.4,0.8-0.4,1.3
		c0,0.7,0.2,1.2,0.5,1.6s0.7,0.6,1.2,0.8c0.5,0.2,1,0.3,1.5,0.4s1,0.2,1.4,0.3c0.4,0.1,0.8,0.3,1.1,0.5c0.2,0.2,0.3,0.4,0.3,0.7
		c0,0.2-0.1,0.4-0.2,0.6c-0.1,0.2-0.3,0.3-0.5,0.3c-0.2,0.1-0.4,0.1-0.7,0.2c-0.6,0.1-1.1,0.1-1.6,0c-0.3-0.1-0.5-0.1-0.7-0.3
		c-0.2-0.1-0.4-0.3-0.5-0.5s-0.2-0.4-0.2-0.7v-0.2h-2v0.3c0,0.6,0.2,1.1,0.4,1.6c0.2,0.4,0.6,0.8,0.9,1.1c0.4,0.3,0.8,0.5,1.3,0.6
		s1,0.2,1.5,0.2s1,0,1.5-0.1s1-0.3,1.4-0.5s0.7-0.6,1-1s0.4-0.9,0.4-1.5c0-0.5-0.1-0.9-0.3-1.2C585.2,31.2,584.9,30.9,584.6,30.7z"
		/>
	<rect x="587.3" y="22.4" class="st2" width="2" height="2.4"/>
	<rect x="587.3" y="25.9" class="st2" width="2" height="9.8"/>
	<path class="st2" d="M599.4,27.2L599.4,27.2c-0.4-0.5-0.9-0.8-1.5-1.1c-0.6-0.3-1.3-0.4-2.1-0.4s-1.5,0.1-2,0.4
		c-0.6,0.3-1.1,0.6-1.5,1.1s-0.7,1-0.9,1.6s-0.3,1.3-0.3,2s0.1,1.4,0.3,2c0.2,0.6,0.5,1.2,0.9,1.6c0.4,0.5,0.9,0.8,1.5,1.1
		s1.3,0.4,2,0.4c0.8,0,1.5-0.1,2.1-0.4c0.6-0.3,1.1-0.6,1.5-1.1s0.7-1,0.9-1.6s0.3-1.3,0.3-2s-0.1-1.4-0.3-2
		C600.1,28.2,599.8,27.7,599.4,27.2z M594.8,33.9c-0.3-0.1-0.6-0.3-0.8-0.6s-0.4-0.6-0.6-1c-0.1-0.4-0.2-0.9-0.2-1.4s0.1-1,0.2-1.4
		c0.1-0.4,0.3-0.7,0.6-1c0.2-0.3,0.5-0.5,0.8-0.6s0.7-0.2,1-0.2s0.7,0.1,1,0.2s0.6,0.4,0.8,0.6c0.2,0.3,0.4,0.6,0.6,1
		c0.1,0.4,0.2,0.9,0.2,1.4s-0.1,1-0.2,1.4c-0.1,0.4-0.3,0.7-0.6,1c-0.2,0.3-0.5,0.5-0.8,0.6C596.2,34.2,595.4,34.2,594.8,33.9z"/>
	<path class="st2" d="M610.3,27.9c-0.1-0.4-0.3-0.8-0.6-1.2c-0.3-0.3-0.6-0.6-1.1-0.8c-0.4-0.2-1-0.3-1.6-0.3
		c-1.2,0-2.1,0.4-2.8,1.2v-1h-1.9v9.8h2v-5.5c0-0.4,0.1-0.8,0.2-1.1c0.1-0.3,0.3-0.6,0.5-0.8c0.2-0.2,0.5-0.4,0.8-0.5
		s0.7-0.2,1.1-0.2c0.5,0,0.9,0.1,1.2,0.4s0.4,0.7,0.4,1.2v6.5h2v-6.4C610.5,28.8,610.4,28.3,610.3,27.9z"/>
</g>
<g>
	<polygon class="st2" points="482.6,79.1 480.4,79.1 478,89.1 475.3,79.1 473.1,79.1 470.4,89.1 468,79.1 465.7,79.1 469.2,92.5 
		471.3,92.5 474.1,82.3 476.9,92.5 479.1,92.5 482.5,79.5 	"/>
	<path class="st2" d="M491.2,86.2c-0.1-0.7-0.4-1.3-0.7-1.8c-0.3-0.6-0.8-1-1.4-1.4c-0.6-0.4-1.3-0.6-2.2-0.6
		c-0.7,0-1.3,0.1-1.9,0.4c-0.6,0.3-1.1,0.6-1.5,1.1s-0.7,1-1,1.6c-0.2,0.6-0.3,1.3-0.3,2s0.1,1.4,0.3,2s0.5,1.2,0.9,1.6
		c0.4,0.5,0.9,0.8,1.5,1.1c0.6,0.3,1.3,0.4,2,0.4c1.1,0,2-0.3,2.8-0.8c0.7-0.6,1.2-1.4,1.4-2.5l0.1-0.3h-2v0.2
		c-0.1,0.6-0.4,1-0.7,1.2c-0.4,0.3-0.9,0.4-1.4,0.4s-0.9-0.1-1.2-0.2c-0.3-0.2-0.6-0.4-0.8-0.6c-0.2-0.3-0.4-0.5-0.5-0.9
		c-0.1-0.3-0.1-0.5-0.1-0.8h7v-0.2C491.4,87.5,491.3,86.9,491.2,86.2L491.2,86.2z M489.2,86.4h-4.8c0-0.2,0.1-0.5,0.2-0.7
		c0.1-0.3,0.3-0.5,0.5-0.8c0.2-0.2,0.5-0.4,0.7-0.5c0.6-0.2,1.3-0.3,1.9,0c0.3,0.1,0.5,0.3,0.8,0.5c0.2,0.2,0.4,0.5,0.5,0.8
		C489.1,86,489.2,86.2,489.2,86.4z"/>
	<path class="st2" d="M499.6,83.5c-0.1-0.1-0.2-0.2-0.3-0.2c-0.3-0.2-0.5-0.4-0.8-0.5s-0.6-0.2-0.9-0.3c-0.3-0.1-0.6-0.1-0.8-0.1
		c-0.7,0-1.4,0.1-2,0.4s-1,0.6-1.4,1.1s-0.7,1-0.8,1.6c-0.2,0.6-0.3,1.3-0.3,1.9c0,0.7,0.1,1.3,0.3,1.9s0.5,1.2,0.8,1.6
		c0.4,0.5,0.9,0.9,1.4,1.1c0.6,0.3,1.2,0.4,2,0.4c0.7,0,1.3-0.1,1.9-0.4c0.3-0.1,0.6-0.3,0.9-0.6v0.8h2V79.1h-2L499.6,83.5
		L499.6,83.5z M497,90.9c-0.4,0-0.8-0.1-1.2-0.3c-0.3-0.2-0.6-0.4-0.8-0.7c-0.2-0.3-0.4-0.6-0.5-1s-0.2-0.8-0.2-1.2
		c0-0.4,0-0.9,0.1-1.3s0.2-0.8,0.4-1.1c0.2-0.3,0.5-0.5,0.8-0.7s0.7-0.3,1.2-0.3s0.9,0.1,1.2,0.3c0.3,0.2,0.6,0.4,0.8,0.7
		c0.2,0.3,0.4,0.6,0.5,1s0.2,0.8,0.2,1.3c0,0.4,0,0.8-0.1,1.2c-0.1,0.4-0.2,0.7-0.5,1c-0.2,0.3-0.5,0.5-0.8,0.7
		C497.9,90.8,497.5,90.9,497,90.9z"/>
	<path class="st2" d="M504.2,92.5h1.1c0,0.1,0,0.1,0,0.2s-0.1,0.3-0.1,0.4c-0.1,0.1-0.2,0.3-0.3,0.4s-0.3,0.2-0.4,0.3l-0.2,0.1v1.4
		l0.3-0.1c0.8-0.2,1.3-0.6,1.7-1.2c0.3-0.5,0.5-1.2,0.5-1.9V90h-2.5L504.2,92.5L504.2,92.5z"/>
	<path class="st2" d="M518.6,79.4c-0.1,0.4-0.2,0.8-0.4,1.1c-0.2,0.3-0.5,0.5-0.8,0.7s-0.6,0.3-1,0.3c-0.4,0.1-0.8,0.1-1.2,0.1H515
		v1.7h3.3v9.1h2V79.2h-1.6L518.6,79.4z"/>
	<path class="st2" d="M527.7,89.2c0.3-0.3,0.7-0.5,1.1-0.7c0.4-0.2,0.8-0.5,1.2-0.7c0.4-0.3,0.8-0.5,1.2-0.8s0.7-0.6,1-1
		s0.6-0.8,0.7-1.2c0.2-0.5,0.3-1,0.3-1.6s-0.1-1.2-0.3-1.7s-0.5-0.9-0.9-1.2c-0.4-0.3-0.8-0.6-1.4-0.7c-1.1-0.4-2.5-0.3-3.5,0.1
		c-0.6,0.2-1,0.6-1.4,1s-0.7,0.9-0.8,1.5c-0.2,0.6-0.2,1.2-0.2,1.9v0.2h2V84c0-0.4,0-0.7,0.1-1.1c0.1-0.3,0.2-0.7,0.4-0.9
		c0.2-0.3,0.4-0.5,0.7-0.7c0.5-0.3,1.3-0.3,1.9-0.1c0.3,0.1,0.5,0.2,0.7,0.4c0.2,0.2,0.4,0.4,0.5,0.7c0.1,0.2,0.2,0.5,0.2,0.8
		c0,0.4-0.1,0.8-0.2,1.1c-0.1,0.3-0.3,0.6-0.6,0.9s-0.6,0.5-1,0.8s-0.9,0.6-1.4,0.9c-0.4,0.3-0.9,0.6-1.3,0.9
		c-0.4,0.3-0.8,0.7-1.1,1.1s-0.6,0.9-0.8,1.5s-0.4,1.2-0.4,2v0.3h8.9v-1.8h-6.5c0.1-0.2,0.2-0.5,0.3-0.7
		C527.1,89.7,527.4,89.4,527.7,89.2z"/>
	<path class="st2" d="M546.7,79.1h-2.2l-5.2,13.4h2.3l1.4-3.9h5.1l1.4,3.9h2.4l-5.2-13.2V79.1z M547.4,86.7h-3.6l1.8-5.1L547.4,86.7
		z"/>
	<path class="st2" d="M558.8,88.2c0,0.4-0.1,0.8-0.2,1.1c-0.1,0.3-0.3,0.6-0.5,0.8c-0.2,0.2-0.5,0.4-0.8,0.5s-0.7,0.2-1.1,0.2
		c-0.5,0-0.9-0.1-1.2-0.4s-0.4-0.7-0.4-1.2v-6.5h-2v6.4c0,0.5,0.1,1,0.2,1.4c0.1,0.4,0.3,0.8,0.6,1.2c0.3,0.3,0.6,0.6,1.1,0.8
		c0.4,0.2,1,0.3,1.6,0.3c0.7,0,1.4-0.1,1.9-0.4c0.3-0.2,0.6-0.4,0.9-0.7v1h1.9v-9.8h-2V88.2z"/>
	<path class="st2" d="M569.6,83.5c-0.2-0.3-0.5-0.5-0.8-0.6c-0.5-0.3-1.1-0.4-1.7-0.4c-0.8,0-1.6,0.2-2.2,0.5
		c-0.6,0.3-1.1,0.7-1.4,1.2c-0.4,0.5-0.6,1.1-0.8,1.7c-0.1,0.6-0.2,1.2-0.2,1.8c0,0.7,0.1,1.3,0.3,1.9s0.5,1.1,0.8,1.6
		c0.4,0.5,0.8,0.8,1.4,1.1c0.5,0.3,1.2,0.4,1.9,0.4c0.6,0,1.2-0.1,1.8-0.4c0.3-0.2,0.6-0.4,0.9-0.7c0,0.4-0.1,0.8-0.1,1.2
		c-0.1,0.4-0.2,0.7-0.5,1c-0.2,0.3-0.5,0.5-0.8,0.6c-0.5,0.2-1.1,0.3-1.9,0.2c-0.3,0-0.5-0.1-0.7-0.2s-0.4-0.2-0.5-0.4
		c-0.1-0.1-0.2-0.3-0.2-0.6v-0.2h-2v0.3c0,0.5,0.2,1,0.4,1.4c0.3,0.4,0.6,0.7,1,0.9c0.4,0.2,0.8,0.4,1.3,0.5s0.9,0.1,1.4,0.1
		c1.6,0,2.7-0.4,3.5-1.2c0.7-0.8,1.1-2,1.1-3.6v-8.8h-1.9L569.6,83.5L569.6,83.5z M567,90.7c-0.5,0-0.8-0.1-1.1-0.3
		c-0.3-0.2-0.5-0.4-0.7-0.7c-0.2-0.3-0.3-0.7-0.4-1.1c-0.1-0.4-0.1-0.8-0.1-1.2c0-0.4,0-0.8,0.1-1.2c0.1-0.4,0.2-0.7,0.4-1
		s0.5-0.5,0.8-0.7s0.7-0.3,1.1-0.3c0.4,0,0.8,0.1,1.1,0.3c0.3,0.2,0.5,0.4,0.7,0.7c0.2,0.3,0.3,0.6,0.4,1c0.1,0.4,0.1,0.8,0.1,1.1
		c0,0.4,0,0.8-0.1,1.2c-0.1,0.4-0.2,0.8-0.4,1.1c-0.2,0.3-0.5,0.6-0.8,0.7C567.9,90.7,567.5,90.7,567,90.7z"/>
	<path class="st2" d="M581.9,89.2c0.3-0.3,0.7-0.5,1.1-0.7c0.4-0.2,0.8-0.5,1.2-0.7c0.4-0.3,0.8-0.5,1.2-0.8s0.7-0.6,1-1
		s0.6-0.8,0.7-1.2c0.2-0.5,0.3-1,0.3-1.6s-0.1-1.2-0.3-1.7s-0.5-0.9-0.9-1.2c-0.4-0.3-0.8-0.6-1.4-0.7c-1.1-0.4-2.5-0.3-3.5,0.1
		c-0.6,0.2-1,0.6-1.4,1s-0.7,0.9-0.8,1.5c-0.2,0.6-0.2,1.2-0.2,1.9v0.2h2V84c0-0.4,0-0.7,0.1-1.1c0.1-0.3,0.2-0.7,0.4-0.9
		c0.2-0.3,0.4-0.5,0.7-0.7c0.5-0.3,1.3-0.3,1.9-0.1c0.3,0.1,0.5,0.2,0.7,0.4c0.2,0.2,0.4,0.4,0.5,0.7c0.1,0.2,0.2,0.5,0.2,0.8
		c0,0.4-0.1,0.8-0.2,1.1c-0.1,0.3-0.3,0.6-0.6,0.9s-0.6,0.5-1,0.8s-0.9,0.6-1.4,0.9c-0.4,0.3-0.9,0.6-1.3,0.9
		c-0.4,0.3-0.8,0.7-1.1,1.1s-0.6,0.9-0.8,1.5s-0.4,1.2-0.4,2v0.3h8.9v-1.8H581c0.1-0.2,0.2-0.5,0.3-0.7
		C581.3,89.7,581.6,89.4,581.9,89.2z"/>
	<path class="st2" d="M597.8,83L597.8,83c-0.1-0.5-0.2-1-0.4-1.4c-0.2-0.5-0.5-0.9-0.8-1.2c-0.3-0.3-0.8-0.6-1.3-0.8
		c-0.5-0.2-1.1-0.3-1.8-0.3s-1.3,0.1-1.8,0.3c-0.5,0.2-0.9,0.5-1.3,0.8c-0.3,0.3-0.6,0.8-0.8,1.2c-0.2,0.4-0.3,0.9-0.4,1.4
		c-0.1,0.5-0.2,1-0.2,1.5s0,1,0,1.5s0,1,0,1.5s0.1,1,0.2,1.5c0.1,0.5,0.2,1,0.4,1.4c0.2,0.5,0.5,0.9,0.8,1.2
		c0.3,0.3,0.8,0.6,1.3,0.8c0.5,0.2,1.1,0.3,1.8,0.3s1.3-0.1,1.8-0.3s0.9-0.5,1.3-0.8c0.3-0.3,0.6-0.7,0.8-1.2
		c0.2-0.4,0.3-0.9,0.4-1.4c0.1-0.5,0.2-1,0.2-1.5s0-1,0-1.5s0-1,0-1.5S597.9,83.5,597.8,83z M593.6,81.1c0.4,0,0.7,0.1,1,0.2
		c0.3,0.2,0.5,0.3,0.7,0.6c0.2,0.2,0.3,0.5,0.4,0.9c0.1,0.3,0.2,0.7,0.2,1.1c0.1,0.4,0.1,0.7,0.1,1.1s0,0.7,0,1c0,0.5,0,1,0,1.6
		s-0.1,1.1-0.3,1.6c-0.1,0.5-0.4,0.9-0.7,1.2c-0.3,0.3-0.8,0.5-1.3,0.5c-0.6,0-1-0.2-1.3-0.5s-0.6-0.7-0.7-1.2
		c-0.2-0.5-0.2-1-0.3-1.6c0-0.6,0-1.1,0-1.6c0-0.3,0-0.7,0-1c0-0.4,0-0.7,0.1-1.1s0.1-0.7,0.2-1.1c0.1-0.3,0.2-0.6,0.4-0.9
		c0.2-0.2,0.4-0.4,0.7-0.6C592.8,81.2,593.2,81.1,593.6,81.1z"/>
	<path class="st2" d="M602.6,89.2c0.3-0.3,0.7-0.5,1.1-0.7c0.4-0.2,0.8-0.5,1.2-0.7c0.4-0.3,0.8-0.5,1.2-0.8s0.7-0.6,1-1
		s0.6-0.8,0.7-1.2c0.2-0.5,0.3-1,0.3-1.6s-0.1-1.2-0.3-1.7s-0.5-0.9-0.9-1.2c-0.4-0.3-0.8-0.6-1.4-0.7c-0.5-0.2-1.1-0.3-1.6-0.3
		c-0.7,0-1.3,0.1-1.9,0.4c-0.6,0.2-1,0.6-1.4,1s-0.7,0.9-0.8,1.5c-0.2,0.6-0.2,1.2-0.2,1.9v0.2h2V84c0-0.4,0-0.7,0.1-1.1
		c0.1-0.3,0.2-0.7,0.4-0.9c0.2-0.3,0.4-0.5,0.7-0.7c0.5-0.3,1.3-0.3,1.9-0.1c0.3,0.1,0.5,0.2,0.7,0.4c0.2,0.2,0.4,0.4,0.5,0.7
		c0.1,0.2,0.2,0.5,0.2,0.8c0,0.4-0.1,0.8-0.2,1.1c-0.1,0.3-0.3,0.6-0.6,0.9s-0.6,0.6-1,0.8c-0.4,0.3-0.9,0.6-1.4,0.9
		c-0.4,0.3-0.9,0.6-1.3,0.9c-0.4,0.3-0.8,0.7-1.1,1.1s-0.6,0.9-0.8,1.5s-0.4,1.2-0.4,2v0.3h8.9v-1.8h-6.5c0.1-0.2,0.2-0.5,0.3-0.7
		C602,89.7,602.3,89.4,602.6,89.2z"/>
	<path class="st2" d="M618.8,84.5c0-0.5-0.1-1-0.2-1.5c-0.1-0.5-0.2-1-0.4-1.4c-0.2-0.5-0.5-0.9-0.8-1.2c-0.3-0.3-0.8-0.6-1.3-0.8
		c-0.5-0.2-1.1-0.3-1.8-0.3s-1.3,0.1-1.8,0.3c-0.5,0.2-0.9,0.5-1.3,0.8c-0.3,0.3-0.6,0.8-0.8,1.2c-0.2,0.4-0.3,0.9-0.4,1.4
		c-0.1,0.5-0.2,1-0.2,1.5s0,1,0,1.5s0,1,0,1.5s0.1,1,0.2,1.5c0.1,0.5,0.2,1,0.4,1.4c0.2,0.5,0.5,0.9,0.8,1.2
		c0.3,0.3,0.8,0.6,1.3,0.8c0.5,0.2,1.1,0.3,1.8,0.3s1.3-0.1,1.8-0.3s0.9-0.5,1.3-0.8c0.3-0.3,0.6-0.7,0.8-1.2
		c0.2-0.4,0.3-0.9,0.4-1.4c0.1-0.5,0.2-1,0.2-1.5s0-1,0-1.5S618.8,85,618.8,84.5z M614.3,81.1c0.4,0,0.7,0.1,1,0.2
		c0.3,0.2,0.5,0.3,0.7,0.6c0.2,0.2,0.3,0.5,0.4,0.9c0.1,0.3,0.2,0.7,0.2,1.1c0.1,0.4,0.1,0.7,0.1,1.1s0,0.7,0,1c0,0.5,0,1,0,1.6
		s-0.1,1.1-0.3,1.6c-0.1,0.5-0.4,0.9-0.7,1.2c-0.3,0.3-0.8,0.5-1.3,0.5c-0.6,0-1-0.2-1.3-0.5s-0.6-0.7-0.7-1.2
		c-0.2-0.5-0.2-1-0.3-1.6c0-0.6,0-1.1,0-1.6c0-0.3,0-0.7,0-1c0-0.4,0-0.7,0.1-1.1s0.1-0.7,0.2-1.1c0.1-0.3,0.2-0.6,0.4-0.9
		c0.2-0.2,0.4-0.4,0.7-0.6C613.6,81.2,613.9,81.1,614.3,81.1z"/>
</g>
<g>
	<polygon class="st2" points="480.3,135.7 469.5,135.7 469.5,137.7 473.8,137.7 473.8,149.1 476,149.1 476,137.7 480.3,137.7 	"/>
	<path class="st2" d="M485.8,144.8c0,0.4-0.1,0.8-0.2,1.1c-0.1,0.3-0.3,0.6-0.5,0.8s-0.5,0.4-0.8,0.5s-0.7,0.2-1.1,0.2
		c-0.5,0-0.9-0.1-1.2-0.4s-0.4-0.7-0.4-1.2v-6.5h-2v6.4c0,0.5,0.1,1,0.2,1.4c0.1,0.4,0.3,0.8,0.6,1.2c0.3,0.3,0.6,0.6,1.1,0.8
		c0.4,0.2,1,0.3,1.6,0.3c0.7,0,1.4-0.1,1.9-0.4c0.3-0.2,0.6-0.4,0.9-0.7v1h1.9v-9.8h-2V144.8z"/>
	<path class="st2" d="M497.7,141c-0.3-0.6-0.8-1-1.4-1.4c-0.6-0.4-1.3-0.6-2.2-0.6c-0.7,0-1.3,0.1-1.9,0.4s-1.1,0.6-1.5,1.1
		s-0.7,1-1,1.6c-0.2,0.6-0.3,1.3-0.3,2s0.1,1.4,0.3,2s0.5,1.2,0.9,1.6c0.4,0.5,0.9,0.8,1.5,1.1s1.3,0.4,2,0.4c1.1,0,2-0.3,2.8-0.8
		c0.7-0.6,1.2-1.4,1.4-2.5l0.1-0.3h-2v0.2c-0.1,0.6-0.4,1-0.7,1.2c-0.4,0.3-0.9,0.4-1.4,0.4s-0.9-0.1-1.2-0.2
		c-0.3-0.2-0.6-0.4-0.8-0.6c-0.2-0.3-0.4-0.5-0.5-0.9c-0.1-0.3-0.1-0.5-0.1-0.8h7v-0.2c0-0.6,0-1.2-0.2-1.8
		C498.3,142.1,498.1,141.5,497.7,141z M496.5,143h-4.8c0-0.2,0.1-0.5,0.2-0.7c0.1-0.3,0.3-0.5,0.5-0.8c0.2-0.2,0.5-0.4,0.7-0.5
		c0.6-0.2,1.3-0.3,1.9,0c0.3,0.1,0.5,0.3,0.8,0.5c0.2,0.2,0.4,0.5,0.5,0.8S496.4,142.8,496.5,143z"/>
	<path class="st2" d="M500.4,149.1h1.1c0,0.1,0,0.1,0,0.2c0,0.1-0.1,0.3-0.1,0.4c-0.1,0.1-0.2,0.3-0.3,0.4c-0.1,0.1-0.3,0.2-0.4,0.3
		l-0.2,0.1v1.4l0.3-0.1c0.8-0.2,1.3-0.6,1.7-1.2c0.3-0.5,0.5-1.2,0.5-1.9v-2.1h-2.5L500.4,149.1L500.4,149.1z"/>
	<path class="st2" d="M514.9,136c-0.1,0.4-0.2,0.8-0.4,1.1s-0.5,0.5-0.8,0.7s-0.6,0.3-1,0.3c-0.4,0.1-0.8,0.1-1.2,0.1h-0.3v1.7h3.3
		v9.1h2v-13.3h-1.6V136z"/>
	<path class="st2" d="M525.2,136c-0.1,0.4-0.2,0.8-0.4,1.1l0,0c-0.2,0.3-0.5,0.5-0.8,0.7s-0.7,0.3-1,0.3c-0.4,0.1-0.8,0.1-1.2,0.1
		h-0.3v1.7h3.3v9.1h2v-13.3h-1.6V136z"/>
	<path class="st2" d="M542.9,135.7h-2.2l-5.2,13.4h2.3l1.4-3.9h5.1l1.4,3.9h2.4l-5.2-13.2V135.7z M543.6,143.3H540l1.8-5.1
		L543.6,143.3z"/>
	<path class="st2" d="M555.1,144.8c0,0.4-0.1,0.8-0.2,1.1c-0.1,0.3-0.3,0.6-0.5,0.8s-0.5,0.4-0.8,0.5s-0.7,0.2-1.1,0.2
		c-0.5,0-0.9-0.1-1.2-0.4s-0.4-0.7-0.4-1.2v-6.5h-2v6.4c0,0.5,0.1,1,0.2,1.4c0.1,0.4,0.3,0.8,0.6,1.2c0.3,0.3,0.6,0.6,1.1,0.8
		c0.4,0.2,1,0.3,1.6,0.3c0.7,0,1.4-0.1,1.9-0.4c0.3-0.2,0.6-0.4,0.9-0.7v1h1.9v-9.8h-2V144.8z"/>
	<path class="st2" d="M565.9,140.1c-0.2-0.3-0.5-0.5-0.8-0.6c-0.5-0.3-1.1-0.4-1.7-0.4c-0.8,0-1.6,0.2-2.2,0.5
		c-0.6,0.3-1.1,0.7-1.4,1.2c-0.4,0.5-0.6,1.1-0.8,1.7c-0.1,0.6-0.2,1.2-0.2,1.8c0,0.7,0.1,1.3,0.3,1.9c0.2,0.6,0.5,1.1,0.8,1.6
		c0.4,0.5,0.8,0.8,1.4,1.1c0.5,0.3,1.2,0.4,1.9,0.4c0.6,0,1.2-0.1,1.8-0.4c0.3-0.2,0.6-0.4,0.9-0.7c0,0.4-0.1,0.8-0.1,1.2
		c-0.1,0.4-0.2,0.7-0.5,1c-0.2,0.3-0.5,0.5-0.8,0.6c-0.5,0.2-1.1,0.3-1.9,0.2c-0.3,0-0.5-0.1-0.7-0.2c-0.2-0.1-0.4-0.2-0.5-0.4
		c-0.1-0.1-0.2-0.3-0.2-0.6v-0.2h-2v0.3c0,0.5,0.2,1,0.4,1.4c0.3,0.4,0.6,0.7,1,0.9s0.8,0.4,1.3,0.5s0.9,0.1,1.4,0.1
		c1.6,0,2.7-0.4,3.5-1.2c0.7-0.8,1.1-2,1.1-3.6v-8.8H566L565.9,140.1L565.9,140.1z M563.3,147.3c-0.5,0-0.8-0.1-1.1-0.3
		s-0.5-0.4-0.7-0.7s-0.3-0.7-0.4-1.1c-0.1-0.4-0.1-0.8-0.1-1.2s0-0.8,0.1-1.2s0.2-0.7,0.4-1s0.5-0.5,0.8-0.7s0.7-0.3,1.1-0.3
		c0.4,0,0.8,0.1,1.1,0.3s0.5,0.4,0.7,0.7s0.3,0.6,0.4,1c0.1,0.4,0.1,0.8,0.1,1.1c0,0.4,0,0.8-0.1,1.2s-0.2,0.8-0.4,1.1
		s-0.5,0.6-0.8,0.7C564.1,147.2,563.7,147.3,563.3,147.3z"/>
	<path class="st2" d="M578.1,145.8c0.3-0.3,0.7-0.5,1.1-0.7c0.4-0.2,0.8-0.5,1.2-0.7c0.4-0.3,0.8-0.5,1.2-0.8s0.7-0.6,1-1
		s0.6-0.8,0.7-1.2c0.2-0.5,0.3-1,0.3-1.6s-0.1-1.2-0.3-1.7s-0.5-0.9-0.9-1.2s-0.8-0.6-1.4-0.7c-1.1-0.4-2.5-0.3-3.5,0.1
		c-0.6,0.2-1,0.6-1.4,1s-0.7,0.9-0.8,1.5c-0.2,0.6-0.2,1.2-0.2,1.9v0.2h2v-0.3c0-0.4,0-0.7,0.1-1.1c0.1-0.3,0.2-0.7,0.4-0.9
		c0.2-0.3,0.4-0.5,0.7-0.7c0.5-0.3,1.3-0.3,1.9-0.1c0.3,0.1,0.5,0.2,0.7,0.4s0.4,0.4,0.5,0.7c0.1,0.2,0.2,0.5,0.2,0.8
		c0,0.4-0.1,0.8-0.2,1.1c-0.1,0.3-0.3,0.6-0.6,0.9c-0.3,0.3-0.6,0.5-1,0.8s-0.9,0.6-1.4,0.9c-0.4,0.3-0.9,0.6-1.3,0.9
		c-0.4,0.3-0.8,0.7-1.1,1.1c-0.3,0.4-0.6,0.9-0.8,1.5s-0.4,1.2-0.4,2v0.3h8.9v-1.8H577c0.1-0.2,0.2-0.5,0.3-0.7
		C577.5,146.3,577.8,146,578.1,145.8z"/>
	<path class="st2" d="M594.1,139.6L594.1,139.6c-0.1-0.5-0.2-1-0.4-1.4c-0.2-0.5-0.5-0.9-0.8-1.2s-0.8-0.6-1.3-0.8s-1.1-0.3-1.8-0.3
		s-1.3,0.1-1.8,0.3s-0.9,0.5-1.3,0.8c-0.3,0.3-0.6,0.8-0.8,1.2s-0.3,0.9-0.4,1.4c-0.1,0.5-0.2,1-0.2,1.5s0,1,0,1.5s0,1,0,1.5
		s0.1,1,0.2,1.5c0.1,0.5,0.2,1,0.4,1.4c0.2,0.5,0.5,0.9,0.8,1.2s0.8,0.6,1.3,0.8s1.1,0.3,1.8,0.3s1.3-0.1,1.8-0.3s0.9-0.5,1.3-0.8
		c0.3-0.3,0.6-0.7,0.8-1.2c0.2-0.4,0.3-0.9,0.4-1.4c0.1-0.5,0.2-1,0.2-1.5s0-1,0-1.5s0-1,0-1.5C594.2,140.6,594.2,140.1,594.1,139.6
		z M589.8,137.7c0.4,0,0.7,0.1,1,0.2c0.3,0.2,0.5,0.3,0.7,0.6c0.2,0.2,0.3,0.5,0.4,0.9c0.1,0.3,0.2,0.7,0.2,1.1
		c0.1,0.4,0.1,0.7,0.1,1.1c0,0.4,0,0.7,0,1c0,0.5,0,1,0,1.6s-0.1,1.1-0.3,1.6c-0.1,0.5-0.4,0.9-0.7,1.2s-0.8,0.5-1.3,0.5
		c-0.6,0-1-0.2-1.3-0.5s-0.6-0.7-0.7-1.2c-0.2-0.5-0.2-1-0.3-1.6c0-0.6,0-1.1,0-1.6c0-0.3,0-0.7,0-1c0-0.4,0-0.7,0.1-1.1
		c0.1-0.4,0.1-0.7,0.2-1.1c0.1-0.3,0.2-0.6,0.4-0.9c0.2-0.2,0.4-0.4,0.7-0.6C589.1,137.7,589.4,137.7,589.8,137.7z"/>
	<path class="st2" d="M598.8,145.8c0.3-0.3,0.7-0.5,1.1-0.7c0.4-0.2,0.8-0.5,1.2-0.7c0.4-0.3,0.8-0.5,1.2-0.8s0.7-0.6,1-1
		s0.6-0.8,0.7-1.2c0.2-0.5,0.3-1,0.3-1.6s-0.1-1.2-0.3-1.7s-0.5-0.9-0.9-1.2s-0.8-0.6-1.4-0.7c-0.5-0.2-1.1-0.3-1.6-0.3
		c-0.7,0-1.3,0.1-1.9,0.4c-0.6,0.2-1,0.6-1.4,1s-0.7,0.9-0.8,1.5c-0.2,0.6-0.2,1.2-0.2,1.9v0.2h2v-0.3c0-0.4,0-0.7,0.1-1.1
		c0.1-0.3,0.2-0.7,0.4-0.9c0.2-0.3,0.4-0.5,0.7-0.7c0.5-0.3,1.3-0.3,1.9-0.1c0.3,0.1,0.5,0.2,0.7,0.4s0.4,0.4,0.5,0.7
		c0.1,0.2,0.2,0.5,0.2,0.8c0,0.4-0.1,0.8-0.2,1.1c-0.1,0.3-0.3,0.6-0.6,0.9c-0.3,0.3-0.6,0.6-1,0.8c-0.4,0.3-0.9,0.6-1.4,0.9
		c-0.4,0.3-0.9,0.6-1.3,0.9c-0.4,0.3-0.8,0.7-1.1,1.1c-0.3,0.4-0.6,0.9-0.8,1.5s-0.4,1.2-0.4,2v0.3h8.9v-1.8h-6.5
		c0.1-0.2,0.2-0.5,0.3-0.7C598.3,146.3,598.5,146,598.8,145.8z"/>
	<path class="st2" d="M615,141.1c0-0.5-0.1-1-0.2-1.5c-0.1-0.5-0.2-1-0.4-1.4c-0.2-0.5-0.5-0.9-0.8-1.2s-0.8-0.6-1.3-0.8
		s-1.1-0.3-1.8-0.3s-1.3,0.1-1.8,0.3s-0.9,0.5-1.3,0.8c-0.3,0.3-0.6,0.8-0.8,1.2s-0.3,0.9-0.4,1.4c-0.1,0.5-0.2,1-0.2,1.5s0,1,0,1.5
		s0,1,0,1.5s0.1,1,0.2,1.5c0.1,0.5,0.2,1,0.4,1.4c0.2,0.5,0.5,0.9,0.8,1.2s0.8,0.6,1.3,0.8s1.1,0.3,1.8,0.3s1.3-0.1,1.8-0.3
		s0.9-0.5,1.3-0.8c0.3-0.3,0.6-0.7,0.8-1.2c0.2-0.4,0.3-0.9,0.4-1.4c0.1-0.5,0.2-1,0.2-1.5s0-1,0-1.5S615,141.6,615,141.1z
		 M610.5,137.7c0.4,0,0.7,0.1,1,0.2c0.3,0.2,0.5,0.3,0.7,0.6c0.2,0.2,0.3,0.5,0.4,0.9c0.1,0.3,0.2,0.7,0.2,1.1
		c0.1,0.4,0.1,0.7,0.1,1.1c0,0.4,0,0.7,0,1c0,0.5,0,1,0,1.6s-0.1,1.1-0.3,1.6c-0.1,0.5-0.4,0.9-0.7,1.2s-0.8,0.5-1.3,0.5
		c-0.6,0-1-0.2-1.3-0.5s-0.6-0.7-0.7-1.2c-0.2-0.5-0.2-1-0.3-1.6c0-0.6,0-1.1,0-1.6c0-0.3,0-0.7,0-1c0-0.4,0-0.7,0.1-1.1
		c0.1-0.4,0.1-0.7,0.2-1.1c0.1-0.3,0.2-0.6,0.4-0.9c0.2-0.2,0.4-0.4,0.7-0.6C609.8,137.7,610.2,137.7,610.5,137.7z"/>
</g>
<g>
	<polygon class="st2" points="480.3,192.3 469.5,192.3 469.5,194.2 473.8,194.2 473.8,205.7 476,205.7 476,194.2 480.3,194.2 	"/>
	<path class="st2" d="M485.8,201.4c0,0.4-0.1,0.8-0.2,1.1c-0.1,0.3-0.3,0.6-0.5,0.8s-0.5,0.4-0.8,0.5s-0.7,0.2-1.1,0.2
		c-0.5,0-0.9-0.1-1.2-0.4s-0.4-0.7-0.4-1.2v-6.5h-2v6.4c0,0.5,0.1,1,0.2,1.4c0.1,0.4,0.3,0.8,0.6,1.2c0.3,0.3,0.6,0.6,1.1,0.8
		c0.4,0.2,1,0.3,1.6,0.3c0.7,0,1.4-0.1,1.9-0.4c0.3-0.2,0.6-0.4,0.9-0.7v1h1.9v-9.8h-2V201.4z"/>
	<path class="st2" d="M497.7,197.6c-0.3-0.6-0.8-1-1.4-1.4c-0.6-0.4-1.3-0.6-2.2-0.6c-0.7,0-1.3,0.1-1.9,0.4
		c-0.6,0.3-1.1,0.6-1.5,1.1s-0.7,1-1,1.6c-0.2,0.6-0.3,1.3-0.3,2s0.1,1.4,0.3,2s0.5,1.2,0.9,1.6c0.4,0.5,0.9,0.8,1.5,1.1
		s1.3,0.4,2,0.4c1.1,0,2-0.3,2.8-0.8c0.7-0.6,1.2-1.4,1.4-2.5l0.1-0.3h-2v0.2c-0.1,0.6-0.4,1-0.7,1.2c-0.4,0.3-0.9,0.4-1.4,0.4
		s-0.9-0.1-1.2-0.2c-0.3-0.2-0.6-0.4-0.8-0.6c-0.2-0.3-0.4-0.6-0.5-0.9c-0.1-0.3-0.1-0.5-0.1-0.8h7v-0.2c0-0.6,0-1.2-0.2-1.8
		C498.3,198.7,498.1,198.1,497.7,197.6z M496.5,199.6h-4.8c0-0.2,0.1-0.5,0.2-0.7c0.1-0.3,0.3-0.5,0.5-0.8c0.2-0.2,0.5-0.4,0.7-0.5
		c0.6-0.2,1.3-0.3,1.9,0c0.3,0.1,0.5,0.3,0.8,0.5c0.2,0.2,0.4,0.5,0.5,0.8C496.4,199.1,496.4,199.4,496.5,199.6z"/>
	<path class="st2" d="M500.4,205.7h1.1c0,0.1,0,0.1,0,0.2c0,0.1-0.1,0.3-0.1,0.4c-0.1,0.1-0.2,0.3-0.3,0.4c-0.1,0.1-0.3,0.2-0.4,0.3
		l-0.2,0.1v1.4l0.3-0.1c0.8-0.2,1.3-0.6,1.7-1.2c0.3-0.5,0.5-1.2,0.5-1.9v-2.1h-2.5L500.4,205.7L500.4,205.7z"/>
	<path class="st2" d="M514.9,192.6c-0.1,0.4-0.2,0.8-0.4,1.1l0,0c-0.2,0.3-0.5,0.5-0.8,0.7s-0.6,0.3-1,0.3c-0.4,0.1-0.8,0.1-1.2,0.1
		h-0.3v1.7h3.3v9.1h2v-13.3h-1.6V192.6z"/>
	<path class="st2" d="M525.2,192.6c-0.1,0.4-0.2,0.8-0.4,1.1s-0.5,0.5-0.8,0.7s-0.7,0.3-1,0.3c-0.4,0.1-0.8,0.1-1.2,0.1h-0.3v1.7
		h3.3v9.1h2v-13.3h-1.6V192.6z"/>
	<path class="st2" d="M542.9,192.3h-2.2l-5.2,13.4h2.3l1.4-3.9h5.1l1.4,3.9h2.4l-5.2-13.2V192.3z M543.6,199.8H540l1.8-5.1
		L543.6,199.8z"/>
	<path class="st2" d="M555.1,201.4c0,0.4-0.1,0.8-0.2,1.1c-0.1,0.3-0.3,0.6-0.5,0.8s-0.5,0.4-0.8,0.5s-0.7,0.2-1.1,0.2
		c-0.5,0-0.9-0.1-1.2-0.4s-0.4-0.7-0.4-1.2v-6.5h-2v6.4c0,0.5,0.1,1,0.2,1.4c0.1,0.4,0.3,0.8,0.6,1.2c0.3,0.3,0.6,0.6,1.1,0.8
		c0.4,0.2,1,0.3,1.6,0.3c0.7,0,1.4-0.1,1.9-0.4c0.3-0.2,0.6-0.4,0.9-0.7v1h1.9v-9.8h-2V201.4z"/>
	<path class="st2" d="M565.9,196.7c-0.2-0.3-0.5-0.5-0.8-0.6c-0.5-0.3-1.1-0.4-1.7-0.4c-0.8,0-1.6,0.2-2.2,0.5
		c-0.6,0.3-1.1,0.7-1.4,1.2c-0.4,0.5-0.6,1.1-0.8,1.7c-0.1,0.6-0.2,1.2-0.2,1.8c0,0.7,0.1,1.3,0.3,1.9c0.2,0.6,0.5,1.1,0.8,1.6
		c0.4,0.5,0.8,0.8,1.4,1.1c0.5,0.3,1.2,0.4,1.9,0.4c0.6,0,1.2-0.1,1.8-0.4c0.3-0.2,0.6-0.4,0.9-0.7c0,0.4-0.1,0.8-0.1,1.2
		c-0.1,0.4-0.2,0.7-0.5,1c-0.2,0.3-0.5,0.5-0.8,0.6c-0.5,0.2-1.1,0.3-1.9,0.2c-0.2,0-0.5-0.1-0.7-0.2c-0.2-0.1-0.4-0.2-0.5-0.4
		s-0.2-0.3-0.2-0.6v-0.2h-2v0.3c0,0.6,0.2,1,0.4,1.4c0.3,0.4,0.6,0.7,1,0.9s0.8,0.4,1.3,0.5s0.9,0.1,1.4,0.1c1.6,0,2.7-0.4,3.5-1.2
		c0.7-0.8,1.1-2,1.1-3.6V196H566L565.9,196.7L565.9,196.7z M563.3,203.9c-0.5,0-0.8-0.1-1.1-0.3s-0.5-0.4-0.7-0.7s-0.3-0.7-0.4-1.1
		c-0.1-0.4-0.1-0.8-0.1-1.2s0-0.8,0.1-1.2s0.2-0.7,0.4-1s0.5-0.5,0.8-0.7s0.7-0.3,1.1-0.3c0.4,0,0.8,0.1,1.1,0.3s0.5,0.4,0.7,0.7
		s0.3,0.6,0.4,1c0.1,0.4,0.1,0.8,0.1,1.1c0,0.4,0,0.8-0.1,1.2s-0.2,0.8-0.4,1.1s-0.5,0.6-0.8,0.7
		C564.1,203.8,563.7,203.9,563.3,203.9z"/>
	<path class="st2" d="M578.1,202.3c0.3-0.3,0.7-0.5,1.1-0.7c0.4-0.2,0.8-0.5,1.2-0.7c0.4-0.3,0.8-0.5,1.2-0.8s0.7-0.6,1-1
		s0.5-0.8,0.7-1.2c0.2-0.5,0.3-1,0.3-1.6s-0.1-1.2-0.3-1.7s-0.5-0.9-0.9-1.2s-0.8-0.6-1.4-0.7c-0.5-0.2-1.1-0.3-1.6-0.3
		c-0.7,0-1.3,0.1-1.9,0.4c-0.6,0.2-1,0.6-1.4,1s-0.7,0.9-0.8,1.5c-0.2,0.6-0.2,1.2-0.2,1.9v0.2h2v-0.3c0-0.4,0-0.7,0.1-1.1
		c0.1-0.3,0.2-0.7,0.4-0.9c0.2-0.3,0.4-0.5,0.7-0.7c0.5-0.3,1.3-0.3,1.9-0.1c0.3,0.1,0.5,0.2,0.7,0.4s0.4,0.4,0.5,0.7
		c0.1,0.2,0.2,0.5,0.2,0.8c0,0.4-0.1,0.8-0.2,1.1c-0.1,0.3-0.3,0.6-0.6,0.9c-0.3,0.3-0.6,0.5-1,0.8s-0.9,0.6-1.4,0.9
		c-0.4,0.3-0.9,0.6-1.3,0.9c-0.4,0.3-0.8,0.7-1.1,1.1c-0.3,0.4-0.6,0.9-0.8,1.5s-0.4,1.2-0.4,2v0.3h8.9v-1.8H577
		c0.1-0.2,0.2-0.5,0.3-0.7C577.5,202.9,577.8,202.6,578.1,202.3z"/>
	<path class="st2" d="M594.1,196.2c-0.1-0.5-0.2-1-0.4-1.4c-0.2-0.5-0.5-0.9-0.8-1.2s-0.8-0.6-1.3-0.8s-1.1-0.3-1.8-0.3
		s-1.3,0.1-1.8,0.3s-0.9,0.5-1.3,0.8c-0.3,0.3-0.6,0.8-0.8,1.2s-0.3,0.9-0.4,1.4c-0.1,0.5-0.2,1-0.2,1.5s0,1,0,1.5s0,1,0,1.5
		s0.1,1,0.2,1.5c0.1,0.5,0.2,1,0.4,1.4c0.2,0.5,0.5,0.9,0.8,1.2s0.8,0.6,1.3,0.8s1.1,0.3,1.8,0.3s1.3-0.1,1.8-0.3s0.9-0.5,1.3-0.8
		c0.3-0.3,0.6-0.7,0.8-1.2c0.2-0.4,0.3-0.9,0.4-1.4c0.1-0.5,0.2-1,0.2-1.5s0-1,0-1.5s0-1,0-1.5C594.2,197.2,594.2,196.7,594.1,196.2
		z M589.8,194.2c0.4,0,0.7,0.1,1,0.2c0.3,0.2,0.5,0.3,0.7,0.6c0.2,0.2,0.3,0.5,0.4,0.9c0.1,0.3,0.2,0.7,0.2,1.1
		c0.1,0.4,0.1,0.7,0.1,1.1c0,0.4,0,0.7,0,1c0,0.5,0,1,0,1.6s-0.1,1.1-0.3,1.6c-0.1,0.5-0.4,0.9-0.7,1.2s-0.8,0.5-1.3,0.5
		s-1-0.2-1.3-0.5s-0.6-0.7-0.7-1.2c-0.2-0.5-0.2-1-0.3-1.6c0-0.6,0-1.1,0-1.6c0-0.3,0-0.7,0-1c0-0.4,0-0.7,0.1-1.1
		c0-0.4,0.1-0.7,0.2-1.1c0.1-0.3,0.2-0.6,0.4-0.9c0.2-0.2,0.4-0.4,0.7-0.6C589.1,194.3,589.4,194.2,589.8,194.2z"/>
	<path class="st2" d="M598.8,202.3c0.3-0.3,0.7-0.5,1.1-0.7c0.4-0.2,0.8-0.5,1.2-0.7c0.4-0.3,0.8-0.5,1.2-0.8s0.7-0.6,1-1
		s0.6-0.8,0.7-1.2c0.2-0.5,0.3-1,0.3-1.6s-0.1-1.2-0.3-1.7s-0.5-0.9-0.9-1.2s-0.8-0.6-1.4-0.7c-1.1-0.4-2.5-0.3-3.5,0.1
		c-0.6,0.2-1,0.6-1.4,1s-0.7,0.9-0.8,1.5c-0.2,0.6-0.2,1.2-0.2,1.9v0.2h2v-0.3c0-0.4,0-0.7,0.1-1.1c0.1-0.3,0.2-0.7,0.4-0.9
		c0.2-0.3,0.4-0.5,0.7-0.7c0.5-0.3,1.3-0.3,1.9-0.1c0.3,0.1,0.5,0.2,0.7,0.4s0.4,0.4,0.5,0.7c0.1,0.2,0.2,0.5,0.2,0.8
		c0,0.4-0.1,0.8-0.2,1.1c-0.1,0.3-0.3,0.6-0.6,0.9c-0.3,0.3-0.6,0.5-1,0.8s-0.9,0.6-1.4,0.9c-0.4,0.3-0.9,0.6-1.3,0.9
		c-0.4,0.3-0.8,0.7-1.1,1.1c-0.3,0.4-0.6,0.9-0.8,1.5s-0.4,1.2-0.4,2v0.3h8.9v-1.8h-6.5c0.1-0.2,0.2-0.5,0.3-0.7
		C598.3,202.9,598.5,202.6,598.8,202.3z"/>
	<path class="st2" d="M615,197.7c0-0.5-0.1-1-0.2-1.5c-0.1-0.5-0.2-1-0.4-1.4c-0.2-0.5-0.5-0.9-0.8-1.2s-0.8-0.6-1.3-0.8
		s-1.1-0.3-1.8-0.3s-1.3,0.1-1.8,0.3s-0.9,0.5-1.3,0.8c-0.3,0.3-0.6,0.8-0.8,1.2s-0.3,0.9-0.4,1.4c-0.1,0.5-0.2,1-0.2,1.5s0,1,0,1.5
		s0,1,0,1.5s0.1,1,0.2,1.5c0.1,0.5,0.2,1,0.4,1.4c0.2,0.5,0.5,0.9,0.8,1.2s0.8,0.6,1.3,0.8s1.1,0.3,1.8,0.3s1.3-0.1,1.8-0.3
		s0.9-0.5,1.3-0.8c0.3-0.3,0.6-0.7,0.8-1.2c0.2-0.4,0.3-0.9,0.4-1.4c0.1-0.5,0.2-1,0.2-1.5s0-1,0-1.5S615,198.2,615,197.7z
		 M610.5,194.2c0.4,0,0.7,0.1,1,0.2c0.3,0.2,0.5,0.3,0.7,0.6c0.2,0.2,0.3,0.5,0.4,0.9c0.1,0.3,0.2,0.7,0.2,1.1
		c0.1,0.4,0.1,0.7,0.1,1.1c0,0.4,0,0.7,0,1c0,0.5,0,1,0,1.6s-0.1,1.1-0.3,1.6c-0.1,0.5-0.4,0.9-0.7,1.2s-0.8,0.5-1.3,0.5
		s-1-0.2-1.3-0.5s-0.6-0.7-0.7-1.2c-0.2-0.5-0.2-1-0.3-1.6c0-0.6,0-1.1,0-1.6c0-0.3,0-0.7,0-1c0-0.4,0-0.7,0.1-1.1
		c0-0.4,0.1-0.7,0.2-1.1c0.1-0.3,0.2-0.6,0.4-0.9c0.2-0.2,0.4-0.4,0.7-0.6C609.8,194.3,610.1,194.2,610.5,194.2z"/>
</g>
<g>
	<polygon class="st2" points="480.3,248.7 469.5,248.7 469.5,250.7 473.8,250.7 473.8,262.1 476,262.1 476,250.7 480.3,250.7 	"/>
	<path class="st2" d="M485.8,257.8c0,0.4-0.1,0.8-0.2,1.1c-0.1,0.3-0.3,0.6-0.5,0.8c-0.2,0.2-0.5,0.4-0.8,0.5s-0.7,0.2-1.1,0.2
		c-0.5,0-0.9-0.1-1.2-0.4s-0.4-0.7-0.4-1.2v-6.5h-2v6.4c0,0.5,0.1,1,0.2,1.4c0.1,0.4,0.3,0.8,0.6,1.2c0.3,0.3,0.6,0.6,1.1,0.8
		c0.4,0.2,1,0.3,1.6,0.3c0.7,0,1.4-0.1,1.9-0.4c0.3-0.2,0.6-0.4,0.9-0.7v1h1.9v-9.8h-2V257.8z"/>
	<path class="st2" d="M497.7,254c-0.3-0.6-0.8-1-1.4-1.4c-0.6-0.4-1.3-0.6-2.2-0.6c-0.7,0-1.3,0.1-1.9,0.4c-0.6,0.3-1.1,0.6-1.5,1.1
		s-0.7,1-1,1.6c-0.2,0.6-0.3,1.3-0.3,2s0.1,1.4,0.3,2s0.5,1.2,0.9,1.6c0.4,0.5,0.9,0.8,1.5,1.1c0.6,0.3,1.3,0.4,2,0.4
		c1.1,0,2-0.3,2.8-0.8c0.7-0.6,1.2-1.4,1.4-2.5l0.1-0.3h-2v0.2c-0.1,0.6-0.4,1-0.7,1.2c-0.4,0.3-0.9,0.4-1.4,0.4s-0.9-0.1-1.2-0.2
		c-0.3-0.2-0.6-0.4-0.8-0.6c-0.2-0.3-0.4-0.6-0.5-0.9s-0.1-0.5-0.1-0.8h7v-0.2c0-0.6,0-1.2-0.2-1.8
		C498.3,255.2,498.1,254.6,497.7,254z M496.5,256h-4.8c0-0.2,0.1-0.5,0.2-0.7c0.1-0.3,0.3-0.5,0.5-0.8c0.2-0.2,0.5-0.4,0.7-0.5
		c0.6-0.2,1.3-0.3,1.9,0c0.3,0.1,0.5,0.3,0.8,0.5c0.2,0.2,0.4,0.5,0.5,0.8S496.4,255.8,496.5,256z"/>
	<path class="st2" d="M500.4,262.1h1.1c0,0.1,0,0.1,0,0.2s-0.1,0.3-0.1,0.4c-0.1,0.1-0.2,0.3-0.3,0.4s-0.3,0.2-0.4,0.3l-0.2,0.1v1.4
		l0.3-0.1c0.8-0.2,1.3-0.6,1.7-1.2c0.3-0.5,0.5-1.2,0.5-1.9v-2.1h-2.5L500.4,262.1L500.4,262.1z"/>
	<path class="st2" d="M514.9,249c-0.1,0.4-0.2,0.8-0.4,1.1l0,0c-0.2,0.3-0.5,0.5-0.8,0.7s-0.6,0.3-1,0.3c-0.4,0.1-0.8,0.1-1.2,0.1
		h-0.3v1.7h3.3v9.1h2v-13.3h-1.6V249z"/>
	<path class="st2" d="M525.2,249c-0.1,0.4-0.2,0.8-0.4,1.1s-0.5,0.5-0.8,0.7s-0.7,0.3-1,0.3c-0.4,0.1-0.8,0.1-1.2,0.1h-0.3v1.7h3.3
		v9.1h2v-13.3h-1.6V249z"/>
	<path class="st2" d="M542.9,248.7h-2.2l-5.2,13.4h2.3l1.4-3.9h5.1l1.4,3.9h2.4l-5.2-13.2V248.7z M543.6,256.3H540l1.8-5.1
		L543.6,256.3z"/>
	<path class="st2" d="M555.1,257.8c0,0.4-0.1,0.8-0.2,1.1c-0.1,0.3-0.3,0.6-0.5,0.8c-0.2,0.2-0.5,0.4-0.8,0.5s-0.7,0.2-1.1,0.2
		c-0.5,0-0.9-0.1-1.2-0.4s-0.4-0.7-0.4-1.2v-6.5h-2v6.4c0,0.5,0.1,1,0.2,1.4c0.1,0.4,0.3,0.8,0.6,1.2c0.3,0.3,0.6,0.6,1.1,0.8
		c0.4,0.2,1,0.3,1.6,0.3c0.7,0,1.4-0.1,1.9-0.4c0.3-0.2,0.6-0.4,0.9-0.7v1h1.9v-9.8h-2V257.8z"/>
	<path class="st2" d="M565.9,253.1c-0.2-0.3-0.5-0.5-0.8-0.6c-0.5-0.3-1.1-0.4-1.7-0.4c-0.8,0-1.6,0.2-2.2,0.5
		c-0.6,0.3-1.1,0.7-1.4,1.2c-0.4,0.5-0.6,1.1-0.8,1.7c-0.1,0.6-0.2,1.2-0.2,1.8c0,0.7,0.1,1.3,0.3,1.9s0.5,1.1,0.8,1.6
		c0.4,0.5,0.8,0.8,1.4,1.1c0.5,0.3,1.2,0.4,1.9,0.4c0.6,0,1.2-0.1,1.8-0.4c0.3-0.2,0.6-0.4,0.9-0.7c0,0.4-0.1,0.8-0.1,1.2
		c-0.1,0.4-0.2,0.7-0.5,1c-0.2,0.3-0.5,0.5-0.8,0.6c-0.5,0.2-1.1,0.3-1.9,0.2c-0.2,0-0.5-0.1-0.7-0.2s-0.4-0.2-0.5-0.4
		c-0.1-0.2-0.2-0.3-0.2-0.6v-0.2h-2v0.3c0,0.6,0.2,1,0.4,1.4c0.3,0.4,0.6,0.7,1,0.9c0.4,0.2,0.8,0.4,1.3,0.5s0.9,0.1,1.4,0.1
		c1.6,0,2.7-0.4,3.5-1.2c0.7-0.8,1.1-2,1.1-3.6v-8.8H566L565.9,253.1L565.9,253.1z M563.3,260.3c-0.5,0-0.8-0.1-1.1-0.3
		c-0.3-0.2-0.5-0.4-0.7-0.7c-0.2-0.3-0.3-0.7-0.4-1.1c-0.1-0.4-0.1-0.8-0.1-1.2c0-0.4,0-0.8,0.1-1.2c0.1-0.4,0.2-0.7,0.4-1
		s0.5-0.5,0.8-0.7s0.7-0.3,1.1-0.3c0.4,0,0.8,0.1,1.1,0.3s0.5,0.4,0.7,0.7s0.3,0.6,0.4,1c0.1,0.4,0.1,0.8,0.1,1.1
		c0,0.4,0,0.8-0.1,1.2c-0.1,0.4-0.2,0.8-0.4,1.1c-0.2,0.3-0.5,0.6-0.8,0.7C564.1,260.3,563.7,260.3,563.3,260.3z"/>
	<path class="st2" d="M578.1,258.8c0.3-0.3,0.7-0.5,1.1-0.7c0.4-0.2,0.8-0.5,1.2-0.7c0.4-0.3,0.8-0.5,1.2-0.8s0.7-0.6,1-1
		s0.5-0.8,0.7-1.2c0.2-0.5,0.3-1,0.3-1.6s-0.1-1.2-0.3-1.7s-0.5-0.9-0.9-1.2s-0.8-0.6-1.4-0.7c-0.5-0.2-1.1-0.3-1.6-0.3
		c-0.7,0-1.3,0.1-1.9,0.4c-0.6,0.2-1,0.6-1.4,1s-0.7,0.9-0.8,1.5c-0.2,0.6-0.2,1.2-0.2,1.9v0.2h2v-0.3c0-0.4,0-0.7,0.1-1.1
		c0.1-0.3,0.2-0.7,0.4-0.9c0.2-0.3,0.4-0.5,0.7-0.7c0.5-0.3,1.3-0.3,1.9-0.1c0.3,0.1,0.5,0.2,0.7,0.4s0.4,0.4,0.5,0.7
		c0.1,0.2,0.2,0.5,0.2,0.8c0,0.4-0.1,0.8-0.2,1.1c-0.1,0.3-0.3,0.6-0.6,0.9c-0.3,0.3-0.6,0.5-1,0.8s-0.9,0.6-1.4,0.9
		c-0.4,0.3-0.9,0.6-1.3,0.9c-0.4,0.3-0.8,0.7-1.1,1.1s-0.6,0.9-0.8,1.5s-0.4,1.2-0.4,2v0.3h8.9v-1.8H577c0.1-0.2,0.2-0.5,0.3-0.7
		C577.5,259.3,577.8,259,578.1,258.8z"/>
	<path class="st2" d="M594.1,252.6c-0.1-0.5-0.2-1-0.4-1.4c-0.2-0.5-0.5-0.9-0.8-1.2s-0.8-0.6-1.3-0.8s-1.1-0.3-1.8-0.3
		s-1.3,0.1-1.8,0.3s-0.9,0.5-1.3,0.8c-0.3,0.3-0.6,0.8-0.8,1.2s-0.3,0.9-0.4,1.4c-0.1,0.5-0.2,1-0.2,1.5s0,1,0,1.5s0,1,0,1.5
		s0.1,1,0.2,1.5c0.1,0.5,0.2,1,0.4,1.4c0.2,0.5,0.5,0.9,0.8,1.2c0.3,0.3,0.8,0.6,1.3,0.8c0.5,0.2,1.1,0.3,1.8,0.3s1.3-0.1,1.8-0.3
		c0.5-0.2,0.9-0.5,1.3-0.8c0.3-0.3,0.6-0.7,0.8-1.2c0.2-0.4,0.3-0.9,0.4-1.4c0.1-0.5,0.2-1,0.2-1.5s0-1,0-1.5s0-1,0-1.5
		C594.2,253.6,594.2,253.1,594.1,252.6z M589.8,250.7c0.4,0,0.7,0.1,1,0.2c0.3,0.2,0.5,0.3,0.7,0.6c0.2,0.2,0.3,0.5,0.4,0.9
		c0.1,0.3,0.2,0.7,0.2,1.1c0.1,0.4,0.1,0.7,0.1,1.1c0,0.4,0,0.7,0,1c0,0.5,0,1,0,1.6s-0.1,1.1-0.3,1.6c-0.1,0.5-0.4,0.9-0.7,1.2
		c-0.3,0.3-0.8,0.5-1.3,0.5s-1-0.2-1.3-0.5s-0.6-0.7-0.7-1.2c-0.2-0.5-0.2-1-0.3-1.6c0-0.6,0-1.1,0-1.6c0-0.3,0-0.7,0-1
		c0-0.4,0-0.7,0.1-1.1c0-0.4,0.1-0.7,0.2-1.1c0.1-0.3,0.2-0.6,0.4-0.9c0.2-0.2,0.4-0.4,0.7-0.6C589.1,250.8,589.4,250.7,589.8,250.7
		z"/>
	<path class="st2" d="M598.8,258.8c0.3-0.3,0.7-0.5,1.1-0.7c0.4-0.2,0.8-0.5,1.2-0.7c0.4-0.3,0.8-0.5,1.2-0.8s0.7-0.6,1-1
		s0.6-0.8,0.7-1.2c0.2-0.5,0.3-1,0.3-1.6s-0.1-1.2-0.3-1.7s-0.5-0.9-0.9-1.2s-0.8-0.6-1.4-0.7c-1.1-0.4-2.5-0.3-3.5,0.1
		c-0.6,0.2-1,0.6-1.4,1s-0.7,0.9-0.8,1.5c-0.2,0.6-0.2,1.2-0.2,1.9v0.2h2v-0.3c0-0.4,0-0.7,0.1-1.1c0.1-0.3,0.2-0.7,0.4-0.9
		c0.2-0.3,0.4-0.5,0.7-0.7c0.5-0.3,1.3-0.3,1.9-0.1c0.3,0.1,0.5,0.2,0.7,0.4s0.4,0.4,0.5,0.7c0.1,0.2,0.2,0.5,0.2,0.8
		c0,0.4-0.1,0.8-0.2,1.1c-0.1,0.3-0.3,0.6-0.6,0.9c-0.3,0.3-0.6,0.5-1,0.8s-0.9,0.6-1.4,0.9c-0.4,0.3-0.9,0.6-1.3,0.9
		c-0.4,0.3-0.8,0.7-1.1,1.1s-0.6,0.9-0.8,1.5s-0.4,1.2-0.4,2v0.3h8.9v-1.8h-6.5c0.1-0.2,0.2-0.5,0.3-0.7
		C598.3,259.3,598.5,259,598.8,258.8z"/>
	<path class="st2" d="M615,254.1c0-0.5-0.1-1-0.2-1.5c-0.1-0.5-0.2-1-0.4-1.4c-0.2-0.5-0.5-0.9-0.8-1.2s-0.8-0.6-1.3-0.8
		s-1.1-0.3-1.8-0.3s-1.3,0.1-1.8,0.3s-0.9,0.5-1.3,0.8c-0.3,0.3-0.6,0.8-0.8,1.2s-0.3,0.9-0.4,1.4c-0.1,0.5-0.2,1-0.2,1.5s0,1,0,1.5
		s0,1,0,1.5s0.1,1,0.2,1.5c0.1,0.5,0.2,1,0.4,1.4c0.2,0.5,0.5,0.9,0.8,1.2c0.3,0.3,0.8,0.6,1.3,0.8c0.5,0.2,1.1,0.3,1.8,0.3
		s1.3-0.1,1.8-0.3c0.5-0.2,0.9-0.5,1.3-0.8c0.3-0.3,0.6-0.7,0.8-1.2c0.2-0.4,0.3-0.9,0.4-1.4c0.1-0.5,0.2-1,0.2-1.5s0-1,0-1.5
		S615,254.6,615,254.1z M610.5,250.7c0.4,0,0.7,0.1,1,0.2c0.3,0.2,0.5,0.3,0.7,0.6c0.2,0.2,0.3,0.5,0.4,0.9c0.1,0.3,0.2,0.7,0.2,1.1
		c0.1,0.4,0.1,0.7,0.1,1.1c0,0.4,0,0.7,0,1c0,0.5,0,1,0,1.6s-0.1,1.1-0.3,1.6c-0.1,0.5-0.4,0.9-0.7,1.2c-0.3,0.3-0.8,0.5-1.3,0.5
		s-1-0.2-1.3-0.5s-0.6-0.7-0.7-1.2c-0.2-0.5-0.2-1-0.3-1.6c0-0.6,0-1.1,0-1.6c0-0.3,0-0.7,0-1c0-0.4,0-0.7,0.1-1.1
		c0-0.4,0.1-0.7,0.2-1.1c0.1-0.3,0.2-0.6,0.4-0.9c0.2-0.2,0.4-0.4,0.7-0.6C609.8,250.8,610.1,250.7,610.5,250.7z"/>
</g>
<g>
	<path class="st2" d="M78.5,22.7c-0.1,0.4-0.2,0.8-0.4,1.1c-0.2,0.3-0.5,0.5-0.8,0.7s-0.6,0.3-1,0.3c-0.4,0.1-0.8,0.1-1.2,0.1h-0.3
		v1.7h3.3v9.1h2V22.5h-1.6V22.7z"/>
	<polygon class="st2" points="95.5,25.9 93.6,32.9 91.8,25.9 89.7,25.9 88,32.9 86.1,25.9 83.9,25.9 87,35.7 89.1,35.7 90.8,29 
		92.5,35.7 94.5,35.7 97.6,25.9 	"/>
	<path class="st2" d="M68.7,23c-0.2-0.4-0.5-0.6-0.9-0.6S67,22.7,66.9,23l-5,11.3c-0.1,0.3-0.1,0.7,0.1,1c0.2,0.3,0.5,0.5,0.8,0.5
		h10c0.3,0,0.7-0.2,0.8-0.5c0.2-0.3,0.2-0.6,0.1-1L68.7,23z M64.3,33.7l3.5-7.8l3.5,7.8H64.3z"/>
</g>
<g>
	<g>
		<g>
			<path class="st3" d="M67.8,92.6c-0.3,0-0.5-0.2-0.5-0.5v-9.3c0-0.3,0.2-0.5,0.5-0.5s0.5,0.2,0.5,0.5v9.3
				C68.3,92.4,68.1,92.6,67.8,92.6z"/>
		</g>
	</g>
	<g>
		<g>
			<g>
				<polygon class="st3" points="70.3,83.6 67.8,79.2 65.3,83.6 				"/>
			</g>
		</g>
	</g>
</g>
<g>
	<g>
		<path class="st7" d="M77.7,148.8v-9.1h-3.3v-1.2c0.4,0,0.9,0,1.3-0.1s0.8-0.2,1.1-0.4s0.6-0.4,0.8-0.7c0.2-0.3,0.4-0.7,0.5-1.2
			h1.2v12.8h-1.6V148.8z"/>
	</g>
</g>
<g>
	<g>
		<g>
			<path class="st7" d="M67.8,145.7c-0.3,0-0.5-0.2-0.5-0.5v-9.3c0-0.3,0.2-0.5,0.5-0.5s0.5,0.2,0.5,0.5v9.3
				C68.3,145.5,68.1,145.7,67.8,145.7z"/>
		</g>
	</g>
	<g>
		<g>
			<g>
				<polygon class="st7" points="65.3,144.5 67.8,148.8 70.3,144.5 				"/>
			</g>
		</g>
	</g>
</g>
<rect x="0.5" y="60.2" class="st8" width="634.2" height="55.2"/>
<rect x="0.5" y="170.7" class="st8" width="634.2" height="55.2"/>
<text transform="matrix(1 0 0 1 122.7002 37.9795)" class="st9 st10 st11">Synthesizer</text>
<text transform="matrix(1 0 0 1 120.1002 95.3001)" class="st4 st10 st11">CLBN</text>
<text transform="matrix(1 0 0 1 120.1002 149.3998)" class="st4 st10 st11">Medgan</text>
<text transform="matrix(1 0 0 1 120.1002 205.4004)" class="st4 st10 st11">Tablegan</text>
<text transform="matrix(1 0 0 1 120.1002 262.4)" class="st4 st10 st11">PrivBN</text>
</svg>
