<svg width="29" height="28" viewBox="0 0 29 28" fill="none" xmlns="http://www.w3.org/2000/svg">
<path d="M14.037 6.94098C14.6919 6.94084 15.3321 6.74909 15.8766 6.38998C16.4211 6.03088 16.8455 5.52053 17.096 4.92349C17.3465 4.32644 17.412 3.66951 17.2842 3.03575C17.1563 2.40199 16.8409 1.81986 16.3777 1.36298C15.9145 0.906103 15.3244 0.594993 14.682 0.468978C14.0397 0.342963 13.3739 0.407722 12.7688 0.655041C12.1637 0.90236 11.6465 1.32114 11.2827 1.85844C10.9188 2.39573 10.7246 3.0274 10.7246 3.67359C10.7254 4.54004 11.0746 5.37082 11.6956 5.98343C12.3167 6.59604 13.1588 6.94042 14.037 6.94098ZM14.037 1.61512C14.4496 1.61512 14.853 1.73583 15.1961 1.96202C15.5392 2.18821 15.8066 2.50973 15.9645 2.88587C16.1225 3.26201 16.1638 3.67591 16.0833 4.07522C16.0028 4.47453 15.804 4.84132 15.5123 5.12921C15.2205 5.41709 14.8487 5.61311 14.444 5.69254C14.0393 5.77196 13.6198 5.73122 13.2385 5.57542C12.8573 5.41961 12.5314 5.15576 12.3022 4.81725C12.0729 4.47873 11.9506 4.08072 11.9506 3.67359C11.9501 3.40313 12.0037 3.13527 12.1084 2.88532C12.2131 2.63536 12.3668 2.40823 12.5606 2.21699C12.7544 2.02575 12.9846 1.87415 13.238 1.77086C13.4913 1.66758 13.7628 1.61466 14.037 1.61512Z" fill="black"/>
<path d="M14.037 7.37247C13.298 7.37247 12.5757 7.15625 11.9613 6.7512C11.3469 6.34615 10.868 5.77045 10.5852 5.09689C10.3024 4.42332 10.2284 3.68213 10.3726 2.96707C10.5167 2.25202 10.8726 1.5952 11.3951 1.07968C11.9176 0.564152 12.5833 0.213059 13.3081 0.0708261C14.0328 -0.0714073 14.784 0.00161197 15.4667 0.280613C16.1494 0.559614 16.733 1.0321 17.1435 1.6383C17.554 2.24449 17.7731 2.95717 17.7731 3.68623C17.7728 4.66376 17.379 5.60114 16.6784 6.29236C15.9778 6.98358 15.0277 7.3721 14.037 7.37247ZM14.037 0.837047C13.4682 0.837047 12.9122 1.00344 12.4393 1.3152C11.9664 1.62697 11.5978 2.07008 11.3801 2.58852C11.1625 3.10697 11.1055 3.67747 11.2165 4.22785C11.3275 4.77823 11.6013 5.28376 12.0035 5.68056C12.4057 6.07736 12.9181 6.34758 13.4759 6.45705C14.0338 6.56653 14.612 6.51036 15.1375 6.29561C15.6629 6.08087 16.112 5.71721 16.428 5.25062C16.744 4.78403 16.9127 4.23545 16.9127 3.67428C16.9118 2.92208 16.6085 2.20098 16.0694 1.66909C15.5303 1.13719 14.7994 0.837975 14.037 0.837047ZM14.037 6.16291C13.5381 6.16291 13.0504 6.01695 12.6356 5.7435C12.2208 5.47006 11.8976 5.08138 11.7066 4.62665C11.5157 4.17193 11.4658 3.67155 11.5631 3.18881C11.6604 2.70607 11.9007 2.26266 12.2534 1.91463C12.6062 1.56659 13.0556 1.32956 13.5449 1.23354C14.0342 1.13752 14.5413 1.1868 15.0022 1.37515C15.4631 1.56351 15.857 1.88248 16.1342 2.29172C16.4113 2.70097 16.5593 3.18209 16.5593 3.67428C16.5585 4.33407 16.2925 4.96663 15.8197 5.43317C15.3468 5.89971 14.7057 6.16216 14.037 6.16291ZM14.037 2.04661C13.7083 2.04661 13.387 2.14277 13.1137 2.32294C12.8404 2.50311 12.6274 2.75915 12.5016 3.05876C12.3758 3.35836 12.3429 3.68806 12.407 4.00612C12.4712 4.32417 12.6294 4.61634 12.8619 4.84565C13.0943 5.07496 13.3904 5.23112 13.7127 5.29438C14.0351 5.35765 14.3693 5.32517 14.6729 5.20107C14.9766 5.07697 15.2361 4.86679 15.4187 4.59715C15.6014 4.32751 15.6988 4.01052 15.6988 3.68623C15.6991 3.47083 15.6563 3.25751 15.5729 3.05846C15.4895 2.8594 15.3671 2.67853 15.2127 2.52622C15.0583 2.37391 14.875 2.25314 14.6733 2.17083C14.4715 2.08853 14.2553 2.04633 14.037 2.04661Z" fill="black"/>
<path d="M24.3263 6.94099C24.9813 6.94099 25.6215 6.74936 26.1661 6.39034C26.7107 6.03132 27.1352 5.521 27.3858 4.92397C27.6365 4.32694 27.7021 3.67 27.5743 3.03619C27.4465 2.40238 27.1311 1.8202 26.668 1.36325C26.2048 0.9063 25.6147 0.595104 24.9723 0.469032C24.33 0.34296 23.6641 0.407668 23.059 0.654967C22.4539 0.902265 21.9367 1.32105 21.5728 1.85836C21.2089 2.39568 21.0146 3.02738 21.0146 3.6736C21.0154 4.53993 21.3645 5.37059 21.9854 5.98318C22.6063 6.59577 23.4482 6.94025 24.3263 6.94099ZM24.3263 1.61513C24.7389 1.61513 25.1423 1.73584 25.4854 1.96203C25.8285 2.18822 26.0959 2.50974 26.2539 2.88588C26.4118 3.26202 26.4531 3.67592 26.3726 4.07523C26.2921 4.47454 26.0934 4.84133 25.8016 5.12922C25.5098 5.4171 25.1381 5.61312 24.7333 5.69255C24.3286 5.77197 23.9091 5.73123 23.5279 5.57543C23.1466 5.41962 22.8208 5.15578 22.5915 4.81726C22.3623 4.47874 22.2399 4.08073 22.2399 3.6736C22.2394 3.40314 22.2931 3.13528 22.3977 2.88533C22.5024 2.63537 22.6561 2.40824 22.8499 2.217C23.0438 2.02576 23.274 1.87416 23.5273 1.77087C23.7806 1.66759 24.0522 1.61467 24.3263 1.61513Z" fill="black"/>
<path d="M24.326 7.37244C23.5876 7.37244 22.8657 7.15651 22.2516 6.75199C21.6374 6.34747 21.1585 5.77248 20.8754 5.0996C20.5923 4.42673 20.5176 3.68615 20.6608 2.97142C20.8039 2.25669 21.1586 1.59989 21.6799 1.08389C22.2012 0.567895 22.8658 0.215878 23.5897 0.0723001C24.3137 -0.0712774 25.0645 -1.05174e-05 25.7474 0.277162C26.4303 0.554335 27.0147 1.02495 27.4266 1.62958C27.8386 2.2342 28.0598 2.94571 28.0622 3.67426C28.0636 4.15929 27.968 4.63986 27.7809 5.08838C27.5938 5.53691 27.3188 5.94461 26.9717 6.28814C26.6247 6.63166 26.2123 6.90427 25.7583 7.09033C25.3043 7.27639 24.8176 7.37226 24.326 7.37244ZM24.326 0.837022C23.7572 0.837022 23.2012 1.00341 22.7283 1.31518C22.2554 1.62694 21.8868 2.07006 21.6692 2.5885C21.4515 3.10694 21.3946 3.67745 21.5055 4.22783C21.6165 4.7782 21.8904 5.28373 22.2926 5.68053C22.6947 6.07733 23.2071 6.34755 23.765 6.45703C24.3228 6.56651 24.901 6.51034 25.4265 6.29559C25.952 6.08084 26.4011 5.71718 26.7171 5.25059C27.0331 4.78401 27.2017 4.23542 27.2017 3.67426C27.2006 2.92211 26.8973 2.20108 26.3582 1.66923C25.8191 1.13738 25.0883 0.838135 24.326 0.837022ZM24.326 6.16288C23.8271 6.16288 23.3395 6.01693 22.9247 5.74348C22.5099 5.47003 22.1866 5.08136 21.9957 4.62663C21.8048 4.1719 21.7548 3.67152 21.8522 3.18878C21.9495 2.70605 22.1897 2.26264 22.5425 1.9146C22.8952 1.56657 23.3446 1.32954 23.8339 1.23351C24.3232 1.13749 24.8304 1.18677 25.2912 1.37513C25.7521 1.56348 26.1461 1.88245 26.4232 2.2917C26.7004 2.70094 26.8483 3.18207 26.8483 3.67426C26.8476 4.33405 26.5816 4.96661 26.1087 5.43315C25.6359 5.89968 24.9947 6.16214 24.326 6.16288ZM24.326 2.04658C23.9973 2.04658 23.676 2.14275 23.4027 2.32292C23.1294 2.50308 22.9164 2.75913 22.7906 3.05873C22.6649 3.35834 22.6319 3.68803 22.6961 4.00609C22.7602 4.32415 22.9185 4.61632 23.1509 4.84562C23.3833 5.07493 23.6794 5.23109 24.0018 5.29436C24.3242 5.35763 24.6583 5.32515 24.962 5.20105C25.2656 5.07695 25.5252 4.86676 25.7078 4.59713C25.8904 4.32749 25.9879 4.0105 25.9879 3.68621C25.9881 3.47081 25.9453 3.25749 25.8619 3.05843C25.7785 2.85938 25.6561 2.6785 25.5017 2.52619C25.3474 2.37388 25.1641 2.25311 24.9623 2.17081C24.7605 2.08851 24.5443 2.04631 24.326 2.04658Z" fill="black"/>
<path d="M24.3257 10.5586C23.6706 10.5585 23.0301 10.75 22.4853 11.1091C21.9404 11.4681 21.5158 11.9785 21.265 12.5757C21.0142 13.1729 20.9485 13.8301 21.0763 14.4641C21.2041 15.0981 21.5196 15.6804 21.9829 16.1375C22.4461 16.5946 23.0364 16.9059 23.679 17.032C24.3216 17.158 24.9877 17.0933 25.593 16.8458C26.1982 16.5984 26.7155 16.1794 27.0795 15.6419C27.4434 15.1043 27.6375 14.4724 27.6374 13.826C27.6366 12.9597 27.2875 12.129 26.6666 11.5164C26.0457 10.9038 25.2038 10.5593 24.3257 10.5586ZM24.3257 15.8845C23.9131 15.8845 23.5097 15.7637 23.1666 15.5375C22.8235 15.3114 22.5561 14.9898 22.3982 14.6137C22.2402 14.2376 22.1989 13.8237 22.2794 13.4244C22.3599 13.025 22.5587 12.6583 22.8504 12.3704C23.1422 12.0825 23.514 11.8865 23.9187 11.807C24.3234 11.7276 24.7429 11.7684 25.1242 11.9242C25.5054 12.08 25.8313 12.3438 26.0605 12.6823C26.2898 13.0208 26.4122 13.4189 26.4122 13.826C26.4126 14.0964 26.359 14.3643 26.2543 14.6143C26.1496 14.8642 25.9959 15.0913 25.8021 15.2826C25.6083 15.4738 25.3781 15.6254 25.1247 15.7287C24.8714 15.832 24.5999 15.8849 24.3257 15.8845Z" fill="black"/>
<path d="M24.326 17.5248C23.5871 17.5248 22.8647 17.3086 22.2503 16.9035C21.6359 16.4985 21.157 15.9228 20.8742 15.2492C20.5915 14.5756 20.5175 13.8344 20.6616 13.1194C20.8058 12.4043 21.1616 11.7475 21.6842 11.232C22.2067 10.7165 22.8724 10.3654 23.5971 10.2232C24.3219 10.0809 25.0731 10.1539 25.7558 10.4329C26.4385 10.7119 27.022 11.1844 27.4326 11.7906C27.8431 12.3968 28.0622 13.1095 28.0622 13.8385C28.0618 14.8161 27.6681 15.7535 26.9675 16.4447C26.2669 17.1359 25.3168 17.5244 24.326 17.5248ZM24.326 10.9894C23.7573 10.9894 23.2013 11.1557 22.7284 11.4675C22.2555 11.7793 21.8869 12.2224 21.6692 12.7408C21.4516 13.2593 21.3946 13.8298 21.5056 14.3802C21.6165 14.9305 21.8904 15.4361 22.2926 15.8329C22.6948 16.2297 23.2072 16.4999 23.765 16.6094C24.3228 16.7188 24.901 16.6627 25.4265 16.4479C25.952 16.2332 26.4011 15.8695 26.7171 15.4029C27.0331 14.9363 27.2018 14.3878 27.2018 13.8266C27.2006 13.0745 26.8973 12.3535 26.3582 11.8216C25.8192 11.2898 25.0884 10.9905 24.326 10.9894ZM24.326 16.3152C23.8272 16.3152 23.3395 16.1693 22.9247 15.8958C22.5099 15.6224 22.1866 15.2337 21.9957 14.779C21.8048 14.3242 21.7549 13.8239 21.8522 13.3411C21.9495 12.8584 22.1897 12.415 22.5425 12.0669C22.8952 11.7189 23.3447 11.4819 23.8339 11.3859C24.3232 11.2898 24.8304 11.3391 25.2913 11.5275C25.7522 11.7158 26.1461 12.0348 26.4233 12.444C26.7004 12.8533 26.8483 13.3344 26.8483 13.8266C26.8476 14.4864 26.5816 15.1189 26.1087 15.5855C25.6359 16.052 24.9947 16.3145 24.326 16.3152ZM24.326 12.187C23.9973 12.187 23.676 12.2831 23.4027 12.4633C23.1294 12.6435 22.9165 12.8996 22.7907 13.1992C22.6649 13.4988 22.632 13.8284 22.6961 14.1465C22.7602 14.4645 22.9185 14.7567 23.1509 14.986C23.3833 15.2153 23.6795 15.3715 24.0018 15.4347C24.3242 15.498 24.6583 15.4655 24.962 15.3414C25.2657 15.2173 25.5252 15.0072 25.7078 14.7376C25.8904 14.4679 25.9879 14.1509 25.9879 13.8266C25.9882 13.6112 25.9454 13.3979 25.862 13.1988C25.7785 12.9998 25.6562 12.8189 25.5018 12.6666C25.3474 12.5143 25.1641 12.3935 24.9623 12.3112C24.7606 12.2289 24.5443 12.1867 24.326 12.187Z" fill="black"/>
<path d="M3.74775 20.7091C3.0926 20.709 2.45213 20.9006 1.90732 21.2596C1.36252 21.6186 0.937847 22.129 0.687034 22.7261C0.436221 23.3233 0.370526 23.9804 0.498254 24.6144C0.625981 25.2484 0.941399 25.8307 1.40461 26.2878C1.86782 26.7449 2.45802 27.0563 3.10057 27.1824C3.74313 27.3086 4.40917 27.2439 5.01446 26.9966C5.61976 26.7492 6.13712 26.3304 6.50111 25.7929C6.86511 25.2555 7.0594 24.6236 7.0594 23.9772C7.05846 23.1109 6.70927 22.2803 6.08844 21.6676C5.46761 21.055 4.62583 20.7103 3.74775 20.7091ZM3.74775 26.035C3.33504 26.0351 2.93155 25.9145 2.58833 25.6884C2.24512 25.4623 1.97761 25.1408 1.81961 24.7646C1.6616 24.3884 1.62022 23.9745 1.70071 23.5751C1.78119 23.1757 1.9799 22.8089 2.27173 22.521C2.56356 22.233 2.93539 22.0369 3.34018 21.9575C3.74497 21.8781 4.16453 21.9189 4.5458 22.0748C4.92707 22.2307 5.2529 22.4947 5.4821 22.8333C5.71131 23.1719 5.83359 23.57 5.83345 23.9772C5.83392 24.2476 5.78029 24.5154 5.67564 24.7652C5.57099 25.0151 5.41736 25.2422 5.2236 25.4333C5.02983 25.6245 4.79973 25.776 4.54647 25.8793C4.29321 25.9825 4.02178 26.0355 3.74775 26.035Z" fill="black"/>
<path d="M3.7479 27.6635C3.00895 27.6635 2.28659 27.4472 1.67218 27.0422C1.05777 26.6371 0.578901 26.0614 0.296119 25.3879C0.0133365 24.7143 -0.0606508 23.9731 0.0835104 23.2581C0.227672 22.543 0.583501 21.8862 1.10601 21.3707C1.62853 20.8551 2.29426 20.5041 3.01901 20.3619C3.74376 20.2196 4.49497 20.2926 5.17767 20.5716C5.86037 20.8506 6.44387 21.3231 6.8544 21.9293C7.26494 22.5355 7.48407 23.2482 7.48407 23.9772C7.48369 24.9547 7.08995 25.8921 6.38937 26.5833C5.68878 27.2746 4.73868 27.6631 3.7479 27.6635ZM3.7479 21.1385C3.17916 21.1385 2.6232 21.3049 2.15031 21.6167C1.67741 21.9284 1.3088 22.3715 1.09113 22.8899C0.873449 23.4083 0.816465 23.9787 0.927368 24.5291C1.03827 25.0794 1.31209 25.585 1.7142 25.9818C2.1163 26.3786 2.62865 26.6489 3.18644 26.7585C3.74423 26.868 4.32241 26.8119 4.84789 26.5973C5.37338 26.3827 5.82255 26.0191 6.13863 25.5527C6.4547 25.0862 6.62349 24.5377 6.62363 23.9765C6.62232 23.2244 6.3189 22.5035 5.77988 21.9717C5.24086 21.4399 4.51018 21.1405 3.7479 21.1392V21.1385ZM3.7479 26.4644C3.24897 26.4645 2.76121 26.3187 2.34631 26.0453C1.93141 25.7719 1.60801 25.3832 1.41702 24.9285C1.22602 24.4737 1.17601 23.9733 1.27331 23.4905C1.37061 23.0077 1.61086 22.5642 1.96365 22.2161C2.31645 21.868 2.76593 21.631 3.25527 21.535C3.74462 21.439 4.25184 21.4884 4.71276 21.6768C5.17368 21.8652 5.5676 22.1843 5.8447 22.5937C6.1218 23.003 6.26963 23.4843 6.26949 23.9765C6.26873 24.6362 6.00285 25.2686 5.53014 25.7352C5.05743 26.2017 4.4165 26.4642 3.7479 26.4651V26.4644ZM3.7479 22.3369C3.41921 22.3369 3.0979 22.433 2.82461 22.6132C2.55132 22.7934 2.33831 23.0494 2.21252 23.3491C2.08674 23.6487 2.05385 23.9784 2.11797 24.2964C2.18209 24.6145 2.34037 24.9066 2.57279 25.1359C2.8052 25.3652 3.10131 25.5214 3.42368 25.5846C3.74605 25.6479 4.08019 25.6154 4.38385 25.4913C4.68752 25.3672 4.94708 25.1571 5.12969 24.8874C5.3123 24.6178 5.40977 24.3008 5.40977 23.9765C5.40995 23.7612 5.3671 23.5479 5.28364 23.3489C5.20018 23.15 5.07776 22.9692 4.92339 22.8169C4.76903 22.6647 4.58573 22.544 4.38403 22.4617C4.18232 22.3795 3.96615 22.3373 3.7479 22.3376V22.3369Z" fill="black"/>
<path d="M24.3259 20.7082C23.5544 20.7111 22.8079 20.9787 22.2145 21.4651C21.621 21.9515 21.2176 22.6265 21.0733 23.3743H17.2895C17.1653 22.7289 16.8472 22.1352 16.3764 21.6706C15.9056 21.206 15.304 20.892 14.6498 20.7693V17.0367C15.2419 16.9268 15.7923 16.6595 16.2418 16.2638C16.6913 15.868 17.0229 15.3587 17.2007 14.7908C17.3785 14.2229 17.396 13.6178 17.2511 13.0409C17.1062 12.4639 16.8045 11.9369 16.3785 11.5166C15.9525 11.0963 15.4183 10.7986 14.8335 10.6557C14.2488 10.5128 13.6355 10.5299 13.0599 10.7054C12.4843 10.8808 11.9681 11.208 11.567 11.6514C11.1659 12.0949 10.895 12.638 10.7835 13.2221H7.00043C6.87599 12.5768 6.55763 11.9832 6.08674 11.5188C5.61585 11.0543 5.01422 10.7404 4.36007 10.6178V6.88455C5.17087 6.73396 5.89552 6.29023 6.3921 5.64017C6.88867 4.99011 7.12141 4.18056 7.04477 3.37007C6.96812 2.55958 6.5876 1.80649 5.97771 1.25829C5.36782 0.710081 4.5725 0.40625 3.74746 0.40625C2.92242 0.40625 2.12708 0.710081 1.51719 1.25829C0.907298 1.80649 0.526775 2.55958 0.450131 3.37007C0.373487 4.18056 0.606246 4.99011 1.10282 5.64017C1.5994 6.29023 2.32403 6.73396 3.13483 6.88455V10.6178C2.54267 10.7276 1.9921 10.9948 1.54247 11.3905C1.09284 11.7863 0.76117 12.2955 0.583226 12.8635C0.405282 13.4315 0.387799 14.0366 0.532662 14.6136C0.677524 15.1906 0.97924 15.7177 1.4053 16.1381C1.83135 16.5584 2.36559 16.8561 2.95046 16.9991C3.53532 17.142 4.14862 17.1247 4.72428 16.9492C5.29994 16.7736 5.81613 16.4464 6.21723 16.0028C6.61832 15.5591 6.88912 15.0159 7.00043 14.4317H10.7835C10.9079 15.0772 11.2261 15.6709 11.697 16.1355C12.1679 16.6001 12.7696 16.9141 13.4239 17.0367V20.7693C12.8317 20.8791 12.2812 21.1463 11.8315 21.542C11.3819 21.9377 11.0502 22.447 10.8723 23.015C10.6943 23.5829 10.6769 24.188 10.8217 24.7651C10.9666 25.3421 11.2683 25.8692 11.6944 26.2896C12.1204 26.7099 12.6547 27.0076 13.2395 27.1505C13.8244 27.2935 14.4377 27.2762 15.0133 27.1006C15.589 26.9251 16.1052 26.5978 16.5063 26.1542C16.9074 25.7106 17.1782 25.1674 17.2895 24.5832H21.0733C21.1898 25.1926 21.4798 25.7568 21.9093 26.2096C22.3388 26.6625 22.8901 26.9854 23.4987 27.1405C24.1074 27.2956 24.7482 27.2766 25.3463 27.0857C25.9444 26.8947 26.475 26.5397 26.8761 26.0622C27.2772 25.5846 27.5323 25.0043 27.6114 24.389C27.6906 23.7738 27.5906 23.149 27.3231 22.5877C27.0556 22.0265 26.6317 21.5519 26.101 21.2196C25.5702 20.8873 24.9545 20.7109 24.3259 20.711V20.7082ZM1.66142 3.67261C1.66142 3.26548 1.78376 2.86752 2.01302 2.529C2.24228 2.19048 2.56813 1.92663 2.94937 1.77083C3.33061 1.61502 3.75012 1.57424 4.15484 1.65367C4.55956 1.73309 4.93132 1.92915 5.22311 2.21704C5.5149 2.50492 5.71361 2.87171 5.79412 3.27102C5.87462 3.67033 5.8333 4.08423 5.67539 4.46037C5.51747 4.83651 5.25005 5.15803 4.90694 5.38422C4.56384 5.61041 4.16046 5.73113 3.74781 5.73113C3.47369 5.73159 3.20217 5.67867 2.94883 5.57538C2.69548 5.4721 2.4653 5.3205 2.27146 5.12926C2.07763 4.93802 1.92396 4.71089 1.81927 4.46093C1.71459 4.21097 1.66095 3.94307 1.66142 3.67261ZM3.74781 15.8805C3.33513 15.8806 2.93168 15.76 2.58848 15.5339C2.24528 15.3078 1.97775 14.9864 1.81973 14.6103C1.6617 14.2341 1.62027 13.8202 1.70069 13.4208C1.78112 13.0215 1.97977 12.6546 2.27153 12.3667C2.56329 12.0787 2.93506 11.8826 3.3398 11.8031C3.74454 11.7236 4.16407 11.7643 4.54535 11.9201C4.92664 12.0759 5.25255 12.3397 5.48183 12.6783C5.71112 13.0168 5.8335 13.4148 5.8335 13.822C5.83435 14.0926 5.78098 14.3607 5.6765 14.6109C5.57201 14.8611 5.41848 15.0884 5.22467 15.2799C5.03087 15.4714 4.80062 15.6232 4.54718 15.7266C4.29373 15.8301 4.02207 15.8831 3.74781 15.8826V15.8805ZM11.9505 13.822C11.9505 13.4149 12.0728 13.0169 12.3021 12.6784C12.5314 12.3399 12.8572 12.076 13.2384 11.9202C13.6197 11.7644 14.0392 11.7236 14.4439 11.803C14.8486 11.8825 15.2204 12.0785 15.5122 12.3664C15.804 12.6543 16.0027 13.0211 16.0832 13.4204C16.1637 13.8197 16.1224 14.2336 15.9644 14.6097C15.8065 14.9859 15.5391 15.3074 15.196 15.5336C14.8529 15.7598 14.4495 15.8805 14.0369 15.8805C13.7627 15.881 13.4912 15.828 13.2379 15.7248C12.9845 15.6215 12.7544 15.4699 12.5605 15.2786C12.3667 15.0874 12.213 14.8603 12.1083 14.6103C12.0036 14.3603 11.95 14.0924 11.9505 13.822ZM14.0369 26.0299C13.6242 26.03 13.2207 25.9094 12.8775 25.6832C12.5343 25.4571 12.2667 25.1356 12.1087 24.7595C11.9507 24.3833 11.9093 23.9693 11.9898 23.5699C12.0703 23.1706 12.269 22.8037 12.5608 22.5158C12.8527 22.2279 13.2245 22.0318 13.6293 21.9524C14.0341 21.873 14.4536 21.9138 14.8349 22.0697C15.2162 22.2256 15.542 22.4895 15.7712 22.8282C16.0004 23.1668 16.1227 23.5649 16.1226 23.9721C16.1235 24.2428 16.0702 24.511 15.9658 24.7613C15.8614 25.0116 15.7078 25.2391 15.514 25.4307C15.3202 25.6223 15.0899 25.7743 14.8364 25.8778C14.583 25.9814 14.3112 26.0344 14.0369 26.0341V26.0299ZM24.3259 26.0299C23.9132 26.0299 23.5098 25.9091 23.1667 25.6829C22.8236 25.4567 22.5562 25.1351 22.3983 24.7589C22.2404 24.3828 22.1991 23.9688 22.2797 23.5695C22.3602 23.1702 22.559 22.8034 22.8509 22.5155C23.1427 22.2277 23.5146 22.0317 23.9193 21.9523C24.3241 21.873 24.7436 21.9139 25.1249 22.0698C25.5061 22.2257 25.8319 22.4896 26.061 22.8283C26.2902 23.1669 26.4125 23.5649 26.4123 23.9721C26.4133 24.2428 26.36 24.5111 26.2555 24.7615C26.151 25.0118 25.9974 25.2393 25.8035 25.431C25.6097 25.6226 25.3793 25.7745 25.1257 25.878C24.8722 25.9815 24.6003 26.0345 24.3259 26.0341V26.0299Z" fill="black"/>
<path d="M24.3257 27.6634C23.5152 27.6613 22.7271 27.4005 22.0792 26.9199C21.4313 26.4394 20.9584 25.7649 20.7311 24.9973H17.6193C17.4383 25.6132 17.0979 26.172 16.6313 26.6184C16.1648 27.0649 15.5884 27.3836 14.9589 27.5433C14.3295 27.703 13.6687 27.698 13.0418 27.5288C12.4149 27.3597 11.8435 27.0323 11.3839 26.5788C10.9244 26.1253 10.5926 25.5615 10.4213 24.943C10.2499 24.3244 10.245 23.6725 10.4069 23.0514C10.5688 22.4304 10.892 21.8618 11.3446 21.4015C11.7972 20.9413 12.3635 20.6055 12.9878 20.4271V17.3576C12.3842 17.1827 11.8348 16.8611 11.39 16.4222C10.9452 15.9834 10.6192 15.4413 10.442 14.8458H7.3302C7.14926 15.4617 6.80876 16.0204 6.34227 16.4668C5.87577 16.9132 5.29938 17.232 4.66996 17.3916C4.04054 17.5513 3.37983 17.5463 2.75294 17.3772C2.12606 17.2081 1.55467 16.8807 1.09513 16.4273C0.635593 15.9739 0.303767 15.4102 0.132374 14.7917C-0.0390199 14.1732 -0.0440633 13.5213 0.117747 12.9003C0.279557 12.2793 0.60264 11.7106 1.05512 11.2503C1.50759 10.7901 2.07383 10.4541 2.69802 10.2756V7.2061C1.83908 6.95373 1.10124 6.40417 0.619917 5.65829C0.138589 4.91241 -0.0539116 4.02028 0.0777513 3.14564C0.209414 2.27101 0.656403 1.47258 1.33667 0.896912C2.01694 0.321246 2.88483 0.00695152 3.78103 0.0117734C4.67723 0.0165953 5.54158 0.340211 6.21544 0.923162C6.88931 1.50611 7.32746 2.3093 7.44945 3.1853C7.57143 4.0613 7.36907 4.95129 6.87953 5.69195C6.38998 6.4326 5.64611 6.97421 4.78443 7.21732V10.2875C5.38804 10.4623 5.93747 10.7839 6.38228 11.2228C6.8271 11.6617 7.15304 12.2037 7.3302 12.7993H10.442C10.6228 12.1833 10.9632 11.6245 11.4297 11.1779C11.8962 10.7313 12.4726 10.4124 13.102 10.2526C13.7315 10.0929 14.3923 10.0978 15.0193 10.2669C15.6463 10.436 16.2178 10.7633 16.6774 11.2168C17.137 11.6703 17.4688 12.2341 17.6402 12.8527C17.8116 13.4713 17.8166 14.1233 17.6546 14.7443C17.4927 15.3654 17.1695 15.9341 16.7169 16.3943C16.2642 16.8546 15.6978 17.1904 15.0735 17.3688V20.439C15.6771 20.6138 16.2265 20.9354 16.6713 21.3743C17.1162 21.8131 17.4421 22.3552 17.6193 22.9507H20.7311C20.9235 22.2922 21.298 21.6996 21.8127 21.2393C22.3275 20.7791 22.962 20.4694 23.6451 20.3451C24.3282 20.2208 25.0329 20.2868 25.6801 20.5355C26.3274 20.7843 26.8916 21.2061 27.3095 21.7536C27.7273 22.3011 27.9823 22.9526 28.0458 23.6351C28.1093 24.3176 27.9788 25.004 27.669 25.6174C27.3591 26.2308 26.8822 26.7469 26.2917 27.1078C25.7012 27.4687 25.0204 27.6601 24.3257 27.6606V27.6634ZM16.9359 24.1631H21.4379L21.509 24.5139C21.6412 25.2088 22.0316 25.8299 22.6037 26.2556C23.1757 26.6814 23.8883 26.8811 24.6018 26.8156C25.3153 26.7501 25.9783 26.4241 26.461 25.9016C26.9436 25.379 27.2112 24.6975 27.2112 23.9905C27.2112 23.2835 26.9436 22.602 26.461 22.0794C25.9783 21.5569 25.3153 21.2309 24.6018 21.1654C23.8883 21.0999 23.1757 21.2996 22.6037 21.7254C22.0316 22.1511 21.6412 22.7723 21.509 23.4671L21.4379 23.8179H16.9359L16.8648 23.4671C16.7542 22.9063 16.4763 22.3908 16.0668 21.9868C15.6574 21.5828 15.1349 21.3087 14.5665 21.1996L14.2109 21.1294V16.6875L14.5665 16.6174C15.081 16.5219 15.5594 16.2897 15.9501 15.9458C16.3408 15.602 16.629 15.1594 16.7836 14.6658C16.9382 14.1723 16.9534 13.6465 16.8275 13.1451C16.7016 12.6436 16.4395 12.1856 16.0692 11.8203C15.699 11.4551 15.2348 11.1964 14.7265 11.0722C14.2183 10.948 13.6854 10.9629 13.1852 11.1155C12.6849 11.268 12.2364 11.5524 11.8878 11.9378C11.5393 12.3233 11.3039 12.7953 11.2072 13.303L11.1361 13.6538H6.64682L6.57571 13.303C6.46719 12.7413 6.19002 12.2247 5.78018 11.8203C5.37034 11.416 4.84675 11.1425 4.2774 11.0354L3.92185 10.9653V6.52625L4.2774 6.45607C4.98192 6.32573 5.61173 5.94059 6.04346 5.37605C6.47518 4.8115 6.6777 4.10825 6.61136 3.40408C6.54502 2.6999 6.21461 2.04555 5.68482 1.56918C5.15504 1.09281 4.46407 0.828739 3.74728 0.828739C3.03049 0.828739 2.3395 1.09281 1.80972 1.56918C1.27993 2.04555 0.949514 2.6999 0.883176 3.40408C0.816838 4.10825 1.01938 4.8115 1.4511 5.37605C1.88283 5.94059 2.51262 6.32573 3.21714 6.45607L3.57269 6.52625V10.9681L3.21714 11.0382C2.70251 11.1336 2.22402 11.3657 1.83322 11.7095C1.44241 12.0533 1.1541 12.4959 0.999387 12.9894C0.844672 13.483 0.829423 14.0088 0.955246 14.5103C1.08107 15.0118 1.34321 15.4699 1.71343 15.8352C2.08364 16.2005 2.54789 16.4593 3.05613 16.5835C3.56438 16.7078 4.09736 16.6928 4.59763 16.5403C5.0979 16.3878 5.54649 16.1034 5.89507 15.7179C6.24364 15.3324 6.47897 14.8603 6.57571 14.3526L6.64682 14.0018H11.1489L11.22 14.3526C11.3304 14.9135 11.6082 15.4291 12.0177 15.8331C12.4272 16.2372 12.9498 16.5112 13.5183 16.6202L13.8738 16.6904V21.1322L13.5183 21.2023C13.0037 21.2977 12.5252 21.5298 12.1344 21.8736C11.7436 22.2174 11.4553 22.66 11.3006 23.1535C11.1458 23.6471 11.1306 24.1729 11.2564 24.6744C11.3822 25.1759 11.6444 25.634 12.0146 25.9993C12.3848 26.3646 12.849 26.6234 13.3573 26.7476C13.8655 26.8719 14.3985 26.8569 14.8988 26.7044C15.399 26.5519 15.8476 26.2675 16.1962 25.882C16.5448 25.4965 16.7801 25.0244 16.8769 24.5167L16.9359 24.1631ZM24.3257 26.4651C23.8268 26.4651 23.3392 26.3191 22.9244 26.0456C22.5095 25.7722 22.1863 25.3834 21.9954 24.9286C21.8045 24.4739 21.7546 23.9735 21.852 23.4907C21.9493 23.008 22.1896 22.5645 22.5425 22.2165C22.8953 21.8685 23.3448 21.6316 23.8341 21.5356C24.3234 21.4397 24.8306 21.4891 25.2915 21.6775C25.7524 21.866 26.1462 22.1851 26.4233 22.5944C26.7004 23.0037 26.8482 23.485 26.8481 23.9772C26.8471 24.6368 26.581 25.2692 26.1082 25.7356C25.6354 26.202 24.9943 26.4643 24.3257 26.4651ZM24.3257 22.3376C23.9971 22.3376 23.6757 22.4337 23.4025 22.6139C23.1292 22.7941 22.9162 23.0501 22.7904 23.3497C22.6646 23.6493 22.6317 23.979 22.6958 24.2971C22.7599 24.6151 22.9182 24.9073 23.1506 25.1366C23.383 25.3659 23.6792 25.5221 24.0015 25.5853C24.3239 25.6486 24.6581 25.6161 24.9617 25.492C25.2654 25.3679 25.5249 25.1577 25.7075 24.8881C25.8901 24.6185 25.9876 24.3015 25.9876 23.9772C25.9879 23.7618 25.9451 23.5485 25.8617 23.3494C25.7783 23.1503 25.6559 22.9695 25.5015 22.8172C25.3471 22.6649 25.1638 22.5441 24.962 22.4618C24.7603 22.3795 24.5441 22.3373 24.3257 22.3376ZM14.0367 26.4651C13.5378 26.4651 13.0501 26.3191 12.6353 26.0456C12.2205 25.7722 11.8972 25.3834 11.7063 24.9286C11.5154 24.4739 11.4655 23.9735 11.5629 23.4907C11.6603 23.008 11.9006 22.5645 12.2534 22.2165C12.6062 21.8685 13.0557 21.6316 13.545 21.5356C14.0344 21.4397 14.5415 21.4891 15.0024 21.6775C15.4633 21.866 15.8572 22.1851 16.1343 22.5944C16.4113 23.0037 16.5591 23.485 16.559 23.9772C16.5581 24.6368 16.292 25.2692 15.8191 25.7356C15.3463 26.202 14.7053 26.4643 14.0367 26.4651ZM14.0367 22.3376C13.708 22.3376 13.3867 22.4337 13.1134 22.6139C12.8401 22.7941 12.6271 23.0501 12.5013 23.3497C12.3756 23.6493 12.3426 23.979 12.4068 24.2971C12.4709 24.6151 12.6292 24.9073 12.8616 25.1366C13.094 25.3659 13.3901 25.5221 13.7125 25.5853C14.0348 25.6486 14.369 25.6161 14.6727 25.492C14.9763 25.3679 15.2359 25.1577 15.4185 24.8881C15.6011 24.6185 15.6986 24.3015 15.6986 23.9772C15.6988 23.7618 15.656 23.5485 15.5726 23.3494C15.4892 23.1503 15.3668 22.9695 15.2124 22.8172C15.058 22.6649 14.8747 22.5441 14.673 22.4618C14.4712 22.3795 14.255 22.3373 14.0367 22.3376ZM14.0367 16.3136C13.5378 16.3136 13.0502 16.1677 12.6354 15.8942C12.2206 15.6208 11.8973 15.2321 11.7064 14.7774C11.5155 14.3226 11.4655 13.8222 11.5628 13.3395C11.6602 12.8568 11.9004 12.4134 12.2532 12.0653C12.6059 11.7173 13.0553 11.4803 13.5446 11.3842C14.0339 11.2882 14.541 11.3375 15.0019 11.5259C15.4628 11.7142 15.8567 12.0332 16.1339 12.4424C16.4111 12.8517 16.559 13.3328 16.559 13.825C16.5582 14.4848 16.2923 15.1173 15.8194 15.5839C15.3465 16.0504 14.7054 16.3129 14.0367 16.3136ZM14.0367 12.1854C13.708 12.1854 13.3867 12.2815 13.1134 12.4617C12.8401 12.6419 12.6271 12.8979 12.5013 13.1976C12.3756 13.4972 12.3426 13.8268 12.4068 14.1449C12.4709 14.4629 12.6292 14.7551 12.8616 14.9844C13.094 15.2137 13.3901 15.3699 13.7125 15.4331C14.0348 15.4964 14.369 15.4639 14.6727 15.3398C14.9763 15.2157 15.2359 15.0056 15.4185 14.7359C15.6011 14.4663 15.6986 14.1493 15.6986 13.825C15.6988 13.6096 15.656 13.3963 15.5726 13.1972C15.4892 12.9982 15.3668 12.8173 15.2124 12.665C15.058 12.5127 14.8747 12.3919 14.673 12.3096C14.4712 12.2273 14.255 12.1851 14.0367 12.1854ZM3.74763 16.3136C3.24873 16.3137 2.76099 16.1679 2.34611 15.8945C1.93122 15.6212 1.60783 15.2325 1.41681 14.7778C1.2258 14.3231 1.17573 13.8227 1.27298 13.3399C1.37022 12.8572 1.6104 12.4137 1.96312 12.0656C2.31585 11.7175 2.76527 11.4804 3.25457 11.3843C3.74387 11.2882 4.25106 11.3375 4.71199 11.5258C5.17293 11.7141 5.5669 12.0331 5.84409 12.4423C6.12127 12.8516 6.26922 13.3328 6.26922 13.825C6.26847 14.4847 6.00258 15.1171 5.52987 15.5836C5.05717 16.0501 4.41623 16.3127 3.74763 16.3136ZM3.74763 12.1854C3.41894 12.1854 3.09763 12.2815 2.82434 12.4617C2.55105 12.6419 2.33804 12.8979 2.21226 13.1976C2.08647 13.4972 2.05358 13.8268 2.1177 14.1449C2.18183 14.4629 2.3401 14.7551 2.57252 14.9844C2.80494 15.2137 3.10104 15.3699 3.42341 15.4331C3.74578 15.4964 4.07992 15.4639 4.38359 15.3398C4.68725 15.2157 4.94681 15.0056 5.12942 14.7359C5.31203 14.4663 5.4095 14.1493 5.4095 13.825C5.40978 13.6096 5.36698 13.3963 5.28356 13.1972C5.20015 12.9982 5.07774 12.8173 4.92336 12.665C4.76899 12.5127 4.58569 12.3919 4.38393 12.3096C4.18218 12.2273 3.96595 12.1851 3.74763 12.1854ZM3.74763 6.16214C3.24873 6.16227 2.76099 6.0164 2.34611 5.74303C1.93122 5.46967 1.60783 5.08107 1.41681 4.62635C1.2258 4.17164 1.17573 3.67125 1.27298 3.18846C1.37022 2.70568 1.6104 2.26218 1.96312 1.91407C2.31585 1.56597 2.76527 1.32889 3.25457 1.23281C3.74387 1.13673 4.25106 1.186 4.71199 1.37434C5.17293 1.56267 5.5669 1.88161 5.84409 2.29087C6.12127 2.70013 6.26922 3.18129 6.26922 3.67351C6.26847 4.33318 6.00258 4.96562 5.52987 5.43214C5.05717 5.89866 4.41623 6.16121 3.74763 6.16214ZM3.74763 2.04584C3.41894 2.04584 3.09763 2.142 2.82434 2.32217C2.55105 2.50233 2.33804 2.75838 2.21226 3.05799C2.08647 3.35759 2.05358 3.68728 2.1177 4.00534C2.18183 4.3234 2.3401 4.61557 2.57252 4.84488C2.80494 5.07418 3.10104 5.23035 3.42341 5.29361C3.74578 5.35688 4.07992 5.3244 4.38359 5.2003C4.68725 5.0762 4.94681 4.86602 5.12942 4.59638C5.31203 4.32674 5.4095 4.00975 5.4095 3.68546C5.40978 3.47006 5.36698 3.25674 5.28356 3.05769C5.20015 2.85863 5.07774 2.67776 4.92336 2.52545C4.76899 2.37314 4.58569 2.25237 4.38393 2.17006C4.18218 2.08776 3.96595 2.04556 3.74763 2.04584Z" fill="black"/>
<path d="M3.74658 6.17344C5.14589 6.17344 6.28026 5.05424 6.28026 3.67363C6.28026 2.29303 5.14589 1.17383 3.74658 1.17383C2.34726 1.17383 1.21289 2.29303 1.21289 3.67363C1.21289 5.05424 2.34726 6.17344 3.74658 6.17344Z" fill="black"/>
<path d="M3.74729 6.59318C3.16221 6.59318 2.59028 6.42199 2.1038 6.10128C1.61733 5.78057 1.23814 5.32475 1.01424 4.79143C0.790343 4.25811 0.731762 3.67129 0.845906 3.10513C0.960049 2.53896 1.2418 2.0189 1.65552 1.61071C2.06923 1.20253 2.59633 0.924565 3.17017 0.811948C3.744 0.699331 4.3388 0.757107 4.87934 0.978013C5.41989 1.19892 5.88192 1.57301 6.20697 2.05298C6.53202 2.53295 6.70552 3.09724 6.70552 3.67449C6.70289 4.44778 6.39039 5.18865 5.83618 5.73545C5.28197 6.28224 4.53105 6.59059 3.74729 6.59318ZM3.74729 1.6048C3.33239 1.6048 2.9268 1.72617 2.58182 1.95359C2.23684 2.18102 1.96798 2.50426 1.80921 2.88245C1.65043 3.26065 1.60889 3.67682 1.68983 4.07831C1.77077 4.4798 1.97056 4.84858 2.26394 5.13803C2.55732 5.42749 2.93112 5.62463 3.33805 5.70449C3.74498 5.78435 4.16675 5.74334 4.55007 5.58668C4.93339 5.43003 5.26103 5.16477 5.49154 4.8244C5.72205 4.48404 5.84508 4.08385 5.84508 3.67449C5.84376 3.12597 5.62232 2.60028 5.22919 2.21241C4.83607 1.82454 4.30325 1.6061 3.74729 1.6048Z" fill="black"/>
<path d="M24.3204 26.4813C25.7201 26.4813 26.8548 25.3618 26.8548 23.9808C26.8548 22.5998 25.7201 21.4803 24.3204 21.4803C22.9207 21.4803 21.786 22.5998 21.786 23.9808C21.786 25.3618 22.9207 26.4813 24.3204 26.4813Z" fill="black"/>
<path d="M24.3254 26.8959C23.7403 26.8959 23.1684 26.7248 22.6819 26.404C22.1954 26.0833 21.8163 25.6275 21.5924 25.0942C21.3685 24.5609 21.3099 23.974 21.424 23.4079C21.5382 22.8417 21.8199 22.3216 22.2336 21.9134C22.6473 21.5053 23.1745 21.2273 23.7483 21.1147C24.3221 21.0021 24.9169 21.0599 25.4575 21.2808C25.998 21.5017 26.46 21.8758 26.7851 22.3557C27.1101 22.8357 27.2836 23.4 27.2836 23.9773C27.2812 24.7506 26.9687 25.4916 26.4145 26.0384C25.8602 26.5853 25.1092 26.8935 24.3254 26.8959ZM24.3254 21.9068C23.9103 21.9067 23.5045 22.028 23.1594 22.2554C22.8142 22.4828 22.5451 22.8061 22.3861 23.1844C22.2272 23.5628 22.1855 23.9791 22.2664 24.3807C22.3473 24.7824 22.5471 25.1514 22.8406 25.441C23.134 25.7306 23.508 25.9279 23.915 26.0079C24.3221 26.0878 24.7441 26.0468 25.1276 25.8901C25.5111 25.7335 25.8389 25.4681 26.0695 25.1276C26.3001 24.7871 26.4232 24.3868 26.4232 23.9773C26.4221 23.4286 26.2007 22.9027 25.8076 22.5147C25.4144 22.1267 24.8815 21.9081 24.3254 21.9068Z" fill="black"/>
</svg>
