<svg width="32" height="26" viewBox="0 0 32 26" fill="none" xmlns="http://www.w3.org/2000/svg">
<path d="M27.2659 8.96035C26.384 8.95983 25.5287 9.25888 24.8439 9.80721L20.0794 5.76388C20.3967 5.23659 20.5805 4.64163 20.6152 4.0294C20.65 3.41718 20.5346 2.80569 20.2791 2.24675C20.0235 1.68781 19.6352 1.19791 19.147 0.818452C18.6588 0.438998 18.0851 0.181176 17.4745 0.066877C16.8639 -0.0474218 16.2344 -0.0148483 15.6392 0.161814C15.0441 0.338477 14.5008 0.65403 14.0555 1.08177C13.6102 1.5095 13.2759 2.03685 13.081 2.61909C12.886 3.20133 12.8362 3.82134 12.9356 4.42662L7.22825 6.3911C6.84617 5.72627 6.27044 5.19 5.57574 4.85189C4.88104 4.51378 4.0994 4.38942 3.33218 4.49488C2.56497 4.60034 1.84756 4.93077 1.27298 5.44335C0.698412 5.95594 0.293179 6.62703 0.109834 7.36959C-0.0735107 8.11214 -0.0264987 8.8919 0.244752 9.60779C0.516002 10.3237 0.998982 10.9427 1.63108 11.3844C2.26318 11.8262 3.01521 12.0704 3.78969 12.0854C4.56417 12.1004 5.32538 11.8856 5.97457 11.4686L7.41313 12.9686L5.90629 14.6069C5.24624 14.2027 4.47798 14.0044 3.70189 14.0378C2.9258 14.0712 2.17796 14.3347 1.55608 14.794C0.934201 15.2534 0.467212 15.8871 0.216106 16.6124C-0.0350002 17.3377 -0.0585377 18.1208 0.148571 18.8595C0.35568 19.5982 0.783797 20.2581 1.377 20.753C1.9702 21.2479 2.70089 21.5547 3.47361 21.6334C4.24634 21.7121 5.02517 21.559 5.70833 21.1941C6.39149 20.8293 6.94721 20.2696 7.30291 19.5882L12.9121 21.2721C12.8412 21.8725 12.9161 22.4809 13.1306 23.0471C13.345 23.6133 13.6929 24.1212 14.1455 24.5286C14.5981 24.936 15.1424 25.2313 15.7335 25.3902C16.3247 25.5491 16.9456 25.567 17.5451 25.4424C18.1446 25.3178 18.7055 25.0543 19.1814 24.6736C19.6573 24.293 20.0347 23.8061 20.2823 23.2532C20.5298 22.7003 20.6406 22.0972 20.6053 21.4937C20.57 20.8903 20.3898 20.3037 20.0794 19.7826L24.8439 15.7385C25.3246 16.1212 25.8914 16.3846 26.4967 16.5064C27.1019 16.6282 27.728 16.605 28.3222 16.4387C28.9165 16.2724 29.4617 15.9678 29.912 15.5505C30.3622 15.1333 30.7045 14.6156 30.91 14.0408C31.1154 13.4661 31.1782 12.8511 31.0929 12.2475C31.0076 11.6439 30.7767 11.0692 30.4197 10.5718C30.0627 10.0745 29.59 9.66885 29.0412 9.38905C28.4924 9.10925 27.8836 8.96345 27.2659 8.96387V8.96035ZM4.73865 10.5488L4.72088 10.5558C4.64408 10.5831 4.56584 10.607 4.48548 10.626L4.43642 10.6379C4.36414 10.6548 4.29105 10.6682 4.2174 10.6779L4.15482 10.6877C4.0618 10.6983 3.96829 10.704 3.87465 10.7046C3.22059 10.7046 2.59331 10.4482 2.13082 9.9919C1.66833 9.5356 1.40851 8.9167 1.40851 8.27139C1.40851 7.62607 1.66833 7.00717 2.13082 6.55087C2.59331 6.09456 3.22059 5.83822 3.87465 5.83822C3.96973 5.83867 4.0647 5.84454 4.15909 5.85578C4.1854 5.85578 4.21171 5.86347 4.23802 5.86768C4.30913 5.8775 4.37243 5.88943 4.43785 5.90416L4.51606 5.92382C4.58717 5.94206 4.6526 5.96311 4.71873 5.98767C4.73651 5.99398 4.75501 5.99958 4.77279 6.0066C5.2006 6.1716 5.5732 6.45122 5.84861 6.81393C6.12402 7.17664 6.29127 7.60804 6.33153 8.0595C6.33722 8.12966 6.34221 8.19981 6.34221 8.26997C6.34247 8.76585 6.18898 9.24995 5.90234 9.65729C5.61571 10.0646 5.20965 10.3757 4.73865 10.5488ZM3.87394 20.4007C3.38618 20.4007 2.90937 20.258 2.50382 19.9906C2.09827 19.7233 1.78219 19.3433 1.59553 18.8987C1.40888 18.4541 1.36003 17.9648 1.45519 17.4928C1.55035 17.0209 1.78523 16.5873 2.13012 16.247C2.47502 15.9067 2.91444 15.675 3.39282 15.5811C3.8712 15.4872 4.36706 15.5354 4.81769 15.7196C5.26831 15.9037 5.65347 16.2156 5.92446 16.6158C6.19544 17.0159 6.34006 17.4863 6.34006 17.9675C6.34006 18.6128 6.08024 19.2317 5.61775 19.688C5.15526 20.1443 4.528 20.4007 3.87394 20.4007ZM16.7756 1.42516C17.2632 1.42516 17.7398 1.5678 18.1453 1.83506C18.5507 2.10231 18.8667 2.48217 19.0533 2.9266C19.2399 3.37103 19.2888 3.86007 19.1937 4.3319C19.0986 4.80373 18.8639 5.23713 18.5192 5.57734C18.1744 5.91756 17.7352 6.1493 17.257 6.24323C16.7788 6.33717 16.2831 6.28909 15.8326 6.10509C15.3821 5.92109 14.997 5.60942 14.726 5.2095C14.455 4.80958 14.3103 4.33939 14.3102 3.85833C14.3102 3.21314 14.5699 2.59435 15.0323 2.13807C15.4946 1.68178 16.1217 1.42535 16.7756 1.42516ZM13.3886 5.71613C13.4764 5.86772 13.5746 6.01331 13.6823 6.15185L10.2768 9.85419L7.67838 8.91334C7.75893 8.48386 7.75893 8.04345 7.67838 7.61398L13.3886 5.71613ZM12.9427 13.3938L10.6451 14.3318L9.3182 12.9475L10.6771 11.47L12.9214 12.2832C12.8992 12.446 12.8876 12.61 12.8866 12.7743C12.8881 12.982 12.9069 13.1892 12.9427 13.3938ZM6.98861 10.5172C7.05972 10.4183 7.13082 10.3152 7.19553 10.2092L9.26202 10.9571L8.35536 11.9428L6.98861 10.5172ZM7.11447 15.7715C7.05972 15.6887 7.00139 15.6095 6.94095 15.5316L8.37669 13.9705L9.26345 14.8945L7.11447 15.7715ZM13.3139 19.9636L7.69616 18.3499C7.76006 17.9168 7.74416 17.4759 7.64922 17.0484L10.291 15.9701L13.6332 19.4542C13.5125 19.6157 13.4048 19.7862 13.3111 19.9643L13.3139 19.9636ZM16.7756 24.1732C16.2879 24.1732 15.8111 24.0305 15.4055 23.7631C15 23.4958 14.6839 23.1158 14.4972 22.6712C14.3106 22.2266 14.2617 21.7373 14.3569 21.2654C14.452 20.7934 14.6869 20.3598 15.0318 20.0195C15.3767 19.6792 15.8161 19.4475 16.2945 19.3536C16.7729 19.2598 17.2687 19.3079 17.7194 19.4921C18.17 19.6762 18.5551 19.9881 18.8261 20.3882C19.0971 20.7884 19.2417 21.2588 19.2417 21.74C19.2412 22.385 18.9811 23.0033 18.5187 23.4592C18.0562 23.915 17.4293 24.1711 16.7756 24.1711V24.1732ZM19.1649 18.7322C18.5328 18.2285 17.755 17.9355 16.9435 17.8952C16.1319 17.8548 15.3283 18.0693 14.648 18.5078L11.6762 15.4081L13.4199 14.6967C13.8168 15.3684 14.4129 15.904 15.1277 16.2314C15.8426 16.5588 16.6419 16.6622 17.4182 16.5278C18.1944 16.3933 18.9102 16.0274 19.4693 15.4794C20.0284 14.9314 20.4039 14.2275 20.5452 13.4625H23.47C23.5528 13.9053 23.7151 14.3299 23.9493 14.7163L19.1649 18.7322ZM14.3102 12.9027C14.3103 12.4216 14.455 11.9514 14.726 11.5514C14.997 11.1515 15.3821 10.8399 15.8326 10.6559C16.2831 10.4719 16.7788 10.4238 17.257 10.5177C17.7352 10.6117 18.1744 10.8434 18.5192 11.1836C18.8639 11.5238 19.0986 11.9572 19.1937 12.4291C19.2888 12.9009 19.2399 13.39 19.0533 13.8344C18.8667 14.2788 18.5507 14.6587 18.1453 14.9259C17.7398 15.1932 17.2632 15.3358 16.7756 15.3358C16.4513 15.3363 16.1301 15.2736 15.8304 15.1514C15.5307 15.0292 15.2583 14.8498 15.029 14.6236C14.7996 14.3974 14.6178 14.1287 14.4938 13.8331C14.3699 13.5374 14.3063 13.2205 14.3066 12.9006L14.3102 12.9027ZM23.47 12.0839H20.5452C20.401 11.3075 20.0159 10.5945 19.443 10.0435C18.8701 9.49245 18.1379 9.13069 17.3476 9.00819C16.5572 8.88568 15.7478 9.00851 15.0313 9.35967C14.3148 9.71083 13.7266 10.273 13.3481 10.9683L11.6919 10.3692L14.7169 7.08007C15.3941 7.49769 16.1864 7.69663 16.9835 7.64922C17.7806 7.60181 18.5428 7.31041 19.1642 6.81555L23.9493 10.8301C23.7155 11.216 23.5533 11.6398 23.47 12.0818V12.0839ZM27.3193 15.3358C26.8317 15.3357 26.3551 15.1929 25.9498 14.9256C25.5445 14.6583 25.2286 14.2783 25.0421 13.8339C24.8555 13.3894 24.8068 12.9004 24.9019 12.4286C24.9971 11.9568 25.2319 11.5235 25.5767 11.1833C25.9214 10.8432 26.3606 10.6116 26.8388 10.5177C27.317 10.4238 27.8126 10.4719 28.2631 10.6559C28.7136 10.84 29.0986 11.1516 29.3696 11.5515C29.6405 11.9514 29.7852 12.4216 29.7854 12.9027C29.785 13.5475 29.5251 14.1659 29.0628 14.6218C28.6004 15.0776 27.9736 15.3337 27.32 15.3337L27.3193 15.3358Z" fill="black"/>
</svg>
