<?xml version="1.0" encoding="UTF-8" standalone="no"?>
<!DOCTYPE svg PUBLIC "-//W3C//DTD SVG 1.1//EN" "http://www.w3.org/Graphics/SVG/1.1/DTD/svg11.dtd">
<svg width="100%" height="100%" viewBox="0 0 199 36" version="1.1" xmlns="http://www.w3.org/2000/svg" xmlns:xlink="http://www.w3.org/1999/xlink" xml:space="preserve" xmlns:serif="http://www.serif.com/" style="fill-rule:evenodd;clip-rule:evenodd;stroke-linejoin:round;stroke-miterlimit:2;">
    <path d="M55.831,9L55.831,17.923C54.06,16.671 52.117,16.045 50,16.045C48.204,16.045 46.545,16.487 45.02,17.369C43.469,18.276 42.245,19.498 41.347,21.034C40.449,22.57 40,24.231 40,26.023C40,27.839 40.455,29.495 41.366,30.992C42.253,32.539 43.464,33.76 45,34.656C46.536,35.552 48.204,36 50,36C51.771,36 53.433,35.558 54.981,34.676C56.531,33.791 57.755,32.614 58.653,31.142C59.551,29.67 60,28.062 60,26.32L59.964,9.003L55.831,9ZM55.056,28.933C54.515,29.818 53.795,30.522 52.897,31.05C51.999,31.579 51.035,31.84 50,31.84C48.918,31.84 47.945,31.571 47.086,31.031C46.199,30.516 45.494,29.809 44.964,28.913C44.434,28.017 44.172,27.055 44.172,26.023C44.172,24.943 44.442,23.972 44.983,23.115C45.499,22.23 46.208,21.526 47.105,20.998C48.003,20.469 48.968,20.207 50.003,20.207C51.06,20.207 52.033,20.466 52.917,20.981C53.804,21.521 54.509,22.238 55.039,23.134C55.569,24.03 55.831,24.993 55.831,26.025C55.831,27.08 55.572,28.048 55.056,28.933Z" style="fill:white;fill-rule:nonzero;"/>
    <path d="M76.712,17.308C75.099,16.437 73.359,16 71.5,16C69.614,16 67.872,16.443 66.271,17.325C64.643,18.232 63.357,19.454 62.414,20.991C61.471,22.528 61,24.189 61,25.982C61,27.8 61.477,29.456 62.435,30.953C63.366,32.501 64.637,33.723 66.25,34.619C67.863,35.516 69.614,35.964 71.5,35.964C73.722,35.964 75.763,35.338 77.623,34.085L77.623,36L81.962,36L82,25.687C82,23.944 81.523,22.324 80.565,20.824C79.611,19.351 78.325,18.18 76.712,17.308ZM76.809,28.891C76.241,29.776 75.485,30.48 74.542,31.009C73.599,31.538 72.586,31.802 71.5,31.802C70.364,31.802 69.342,31.532 68.44,30.992C67.509,30.477 66.768,29.77 66.212,28.874C65.656,27.978 65.38,27.015 65.38,25.982C65.38,24.902 65.664,23.93 66.232,23.073C66.774,22.188 67.518,21.484 68.461,20.955C69.403,20.426 70.417,20.164 71.503,20.164C72.613,20.164 73.635,20.423 74.563,20.938C75.494,21.478 76.235,22.196 76.791,23.093C77.347,23.989 77.623,24.952 77.623,25.985C77.623,27.037 77.35,28.008 76.809,28.891Z" style="fill:white;fill-rule:nonzero;"/>
    <path d="M94,15.051L89.218,15.051L89.218,9L84,9L84,36L89.218,36L89.218,19.322L94,19.322L94,15.051Z" style="fill:white;fill-rule:nonzero;"/>
    <path d="M108.46,17.308C106.77,16.437 104.948,16 103,16C101.025,16 99.199,16.443 97.522,17.325C95.816,18.232 94.469,19.454 93.482,20.991C92.494,22.528 92,24.189 92,25.982C92,27.8 92.5,29.456 93.503,30.953C94.479,32.501 95.81,33.723 97.5,34.619C99.19,35.516 101.025,35.964 103,35.964C105.328,35.964 107.466,35.338 109.414,34.085L109.414,36L113.96,36L114,25.687C114,23.944 113.5,22.324 112.497,20.824C111.497,19.351 110.153,18.18 108.46,17.308ZM108.561,28.891C107.966,29.776 107.175,30.48 106.187,31.009C105.199,31.538 104.138,31.802 103,31.802C101.81,31.802 100.739,31.532 99.795,30.992C98.819,30.477 98.043,29.77 97.46,28.874C96.877,27.978 96.589,27.015 96.589,25.982C96.589,24.902 96.887,23.93 97.482,23.073C98.049,22.188 98.828,21.484 99.816,20.955C100.804,20.426 101.865,20.164 103.003,20.164C104.166,20.164 105.236,20.423 106.209,20.938C107.184,21.478 107.96,22.196 108.543,23.093C109.126,23.989 109.414,24.952 109.414,25.985C109.414,27.037 109.132,28.008 108.561,28.891Z" style="fill:white;fill-rule:nonzero;"/>
    <path d="M122.182,20.964C123.09,20.434 124.065,20.172 125.111,20.172C126.355,20.172 127.474,20.518 128.47,21.206C129.465,21.895 130.173,22.793 130.596,23.9L135,23.936C134.676,22.461 134.041,21.109 133.097,19.876C132.127,18.672 130.945,17.723 129.552,17.035C128.159,16.346 126.679,16 125.111,16C123.295,16 121.618,16.443 120.075,17.327C118.508,18.237 117.27,19.461 116.362,21C115.454,22.539 115,24.204 115,26C115,27.821 115.46,29.48 116.382,30.981C117.278,32.531 118.502,33.755 120.056,34.653C121.609,35.551 123.295,36 125.111,36C126.727,36 128.221,35.657 129.589,34.965C130.982,34.277 132.152,33.329 133.097,32.124C134.041,30.919 134.676,29.567 135,28.064L130.635,28.064C130.212,29.171 129.496,30.074 128.489,30.777C127.483,31.477 126.358,31.828 125.111,31.828C124.017,31.828 123.033,31.558 122.165,31.017C121.268,30.501 120.555,29.793 120.019,28.895C119.483,27.997 119.218,27.032 119.218,25.997C119.218,24.915 119.492,23.942 120.039,23.083C120.558,22.199 121.274,21.494 122.182,20.964Z" style="fill:white;fill-rule:nonzero;"/>
    <path d="M150.416,17.015C148.913,16.337 147.458,16 146.053,16C143.983,16 142.087,16.591 140.36,17.771C138.634,18.95 137.402,20.501 136.665,22.419C136.221,23.599 136,24.781 136,25.961C136,27.977 136.592,29.86 137.774,31.608C138.832,33.184 140.109,34.307 141.601,34.985C143.092,35.663 144.55,36 145.98,36C147.682,36 149.282,35.593 150.785,34.781C152.288,33.97 153.494,32.863 154.408,31.46L150.38,29.91C149.838,30.526 149.179,30.997 148.402,31.329C147.626,31.661 146.818,31.828 145.98,31.828C145.24,31.828 144.55,31.706 143.911,31.46C143.123,31.165 142.433,30.716 141.841,30.113C141.249,29.511 140.804,28.803 140.511,27.991L155.813,27.584L155.813,27.548L155.888,27.584C155.961,27.068 156,26.538 156,25.997C156,23.981 155.422,22.099 154.263,20.35C153.201,18.805 151.919,17.693 150.416,17.015ZM140.475,24.157L140.547,23.936C140.992,22.779 141.718,21.87 142.729,21.206C143.74,20.543 144.849,20.211 146.056,20.211C146.796,20.211 147.486,20.334 148.126,20.579C148.913,20.875 149.598,21.31 150.176,21.89C150.754,22.47 151.179,23.139 151.453,23.9L140.475,24.157Z" style="fill:white;fill-rule:nonzero;"/>
    <path d="M172.727,17.298C171.1,16.398 169.358,15.948 167.499,15.948C165.227,15.948 163.186,16.588 161.377,17.871L161.377,9L157.038,9L157,26.27C157,28.046 157.477,29.662 158.435,31.116C159.389,32.62 160.674,33.811 162.29,34.686C163.906,35.561 165.642,36 167.501,36C169.413,36 171.17,35.544 172.771,34.63C174.373,33.741 175.643,32.528 176.586,30.987C177.529,29.446 178,27.775 178,25.974C178,24.173 177.535,22.496 176.606,20.941C175.646,19.415 174.355,18.199 172.727,17.298ZM172.572,28.75C172.031,29.614 171.313,30.291 170.423,30.786C169.533,31.278 168.558,31.527 167.499,31.527C166.465,31.527 165.496,31.281 164.594,30.786C163.69,30.294 162.981,29.62 162.463,28.77C161.948,27.92 161.687,26.989 161.687,25.977C161.687,24.965 161.945,24.028 162.463,23.164C162.981,22.3 163.684,21.624 164.574,21.129C165.464,20.637 166.439,20.388 167.499,20.388C168.558,20.388 169.539,20.634 170.444,21.129C171.348,21.646 172.057,22.331 172.575,23.181C173.09,24.031 173.351,24.962 173.351,25.974C173.348,26.961 173.087,27.886 172.572,28.75Z" style="fill:white;fill-rule:nonzero;"/>
    <path d="M197.67,20.981C196.761,19.455 195.528,18.245 193.98,17.347C192.43,16.449 190.771,16 189,16C187.204,16 185.545,16.443 184.02,17.327C182.469,18.237 181.245,19.461 180.347,21C179.449,22.539 179,24.204 179,26C179,27.821 179.455,29.48 180.366,30.981C181.253,32.531 182.463,33.755 184,34.653C185.537,35.551 187.204,36 189,36C190.821,36 192.494,35.545 194.02,34.634C195.545,33.747 196.755,32.536 197.653,31C198.551,29.464 199,27.796 199,26C199,24.204 198.557,22.531 197.67,20.981ZM193.796,28.766C193.306,29.628 192.634,30.303 191.786,30.796C190.938,31.287 190.009,31.535 189,31.535C188.016,31.535 187.093,31.29 186.234,30.796C185.372,30.306 184.697,29.634 184.204,28.786C183.713,27.938 183.465,27.01 183.465,26C183.465,24.991 183.71,24.056 184.204,23.195C184.697,22.333 185.366,21.664 186.214,21.184C187.062,20.704 187.991,20.465 189,20.465C190.009,20.465 190.944,20.71 191.805,21.204C192.667,21.694 193.336,22.366 193.816,23.214C194.296,24.062 194.535,24.991 194.535,26C194.533,26.982 194.287,27.905 193.796,28.766Z" style="fill:white;fill-rule:nonzero;"/>
    <path d="M21.064,19.137L27,19.137C26.959,18.938 26.911,18.784 26.86,18.587C26.392,16.76 25.583,15.07 24.431,13.52C23.854,12.778 23.222,12.105 22.531,11.508C22.211,11.226 21.882,10.965 21.538,10.717C21.5,10.688 21.461,10.661 21.423,10.634C21.365,10.592 21.307,10.55 21.247,10.511C21.187,10.467 21.124,10.425 21.064,10.383C21.043,10.366 21.016,10.351 20.992,10.336C20.987,10.334 20.985,10.331 20.98,10.329C20.552,10.049 20.109,9.793 19.648,9.558C19.549,9.508 19.453,9.459 19.354,9.413C19.256,9.366 19.157,9.319 19.058,9.275C19.005,9.251 18.952,9.228 18.902,9.206C18.895,9.204 18.885,9.199 18.878,9.197C18.775,9.152 18.673,9.111 18.575,9.071C18.512,9.047 18.45,9.022 18.387,8.998C18.327,8.973 18.267,8.951 18.207,8.929C18.031,8.865 17.86,8.806 17.702,8.754C17.555,8.708 17.416,8.664 17.291,8.627C17.276,8.622 17.259,8.617 17.245,8.612C17.218,8.605 17.194,8.597 17.168,8.592C17.115,8.578 17.067,8.563 17.019,8.551C16.944,8.531 16.874,8.514 16.814,8.496L16.81,8.496C16.713,8.472 16.636,8.455 16.581,8.442C16.547,8.435 16.521,8.428 16.504,8.425C16.494,8.423 16.487,8.42 16.478,8.42C15.684,8.243 14.873,8.145 14.044,8.123C14.027,8.123 14.012,8.121 13.996,8.121C13.882,8.118 13.769,8.116 13.654,8.116C11.201,8.116 8.935,8.737 6.855,9.968C5.299,10.901 3.985,12.07 2.913,13.476C2.523,13.982 2.167,14.519 1.84,15.087C0.613,17.231 0,19.555 0,22.055C0,23.166 0.12,24.234 0.358,25.259C0.363,25.288 0.373,25.317 0.38,25.347C0.38,25.352 0.382,25.354 0.382,25.359C0.387,25.374 0.39,25.389 0.394,25.403C0.406,25.453 0.421,25.502 0.435,25.548C0.553,26.017 0.697,26.477 0.868,26.926C0.955,27.16 1.049,27.391 1.152,27.619C1.191,27.703 1.229,27.789 1.27,27.872C1.282,27.901 1.294,27.929 1.308,27.958L1.311,27.961C1.477,28.312 1.664,28.658 1.866,29C3.074,31.164 4.726,32.873 6.826,34.121C8.925,35.374 11.201,36 13.654,36C15.835,36 17.849,35.519 19.696,34.561C21.576,33.603 23.157,32.276 24.431,30.599C25.708,28.916 26.562,27.034 27,24.939L24.342,24.939C22.608,24.939 20.949,25.728 19.876,27.12C19.417,27.72 18.863,28.253 18.209,28.722C17.192,29.449 16.086,29.911 14.888,30.093C14.885,30.093 14.885,30.093 14.883,30.095C14.784,30.11 14.686,30.122 14.587,30.134C14.383,30.159 14.176,30.174 13.967,30.181C13.863,30.183 13.76,30.186 13.654,30.186C13.558,30.186 13.464,30.183 13.37,30.181C13.284,30.179 13.197,30.174 13.11,30.169C11.848,30.085 10.703,29.717 9.673,29.056C8.464,28.336 7.497,27.346 6.778,26.099C6.754,26.057 6.73,26.015 6.708,25.973C6.703,25.968 6.701,25.964 6.698,25.959C6.027,24.745 5.693,23.443 5.693,22.055C5.693,20.55 6.063,19.196 6.802,17.995C7.506,16.765 8.473,15.775 9.697,15.035C10.922,14.301 12.24,13.93 13.654,13.93C14.289,13.93 14.9,13.999 15.484,14.139C15.53,14.149 15.573,14.158 15.619,14.171C15.732,14.2 15.847,14.232 15.958,14.264C15.987,14.271 16.016,14.284 16.045,14.293C16.576,14.461 17.086,14.689 17.577,14.976C17.791,15.102 17.995,15.234 18.185,15.369C18.257,15.421 18.327,15.473 18.397,15.527C18.423,15.546 18.45,15.568 18.476,15.588C18.522,15.622 18.565,15.657 18.606,15.694C18.649,15.726 18.693,15.76 18.734,15.799C19.66,16.578 20.372,17.521 20.857,18.629C20.877,18.673 20.896,18.712 20.913,18.752C20.929,18.793 20.946,18.835 20.963,18.872C20.975,18.904 20.99,18.936 20.999,18.963C21.011,18.992 21.021,19.017 21.028,19.037C21.035,19.054 21.04,19.069 21.045,19.081L21.064,19.137Z" style="fill:white;fill-rule:nonzero;"/>
    <path d="M20.913,18.752C20.896,18.712 20.877,18.673 20.857,18.629C20.371,17.521 19.66,16.578 18.734,15.799C18.69,15.762 18.649,15.728 18.606,15.694C18.565,15.657 18.522,15.622 18.476,15.588C18.45,15.568 18.423,15.546 18.397,15.527C18.327,15.472 18.257,15.421 18.185,15.369C17.995,15.234 17.791,15.102 17.577,14.976C17.235,14.78 16.862,14.603 16.458,14.456C16.456,14.456 16.456,14.453 16.453,14.453C16.148,14.338 15.823,14.239 15.479,14.161L15.484,14.139L15.487,14.114L16.47,8.464L16.478,8.42C16.478,8.42 16.487,8.423 16.504,8.425C16.521,8.428 16.547,8.435 16.581,8.442C16.636,8.455 16.713,8.472 16.809,8.496L16.814,8.496C16.874,8.514 16.944,8.531 17.019,8.55C17.067,8.563 17.115,8.577 17.168,8.592C17.206,8.605 17.247,8.614 17.29,8.627C17.416,8.663 17.555,8.708 17.702,8.754C17.86,8.806 18.031,8.865 18.207,8.929C18.267,8.951 18.327,8.973 18.387,8.998C18.45,9.022 18.512,9.047 18.575,9.071C18.673,9.111 18.774,9.152 18.878,9.196C18.885,9.199 18.895,9.204 18.902,9.206C18.952,9.228 19.005,9.251 19.058,9.275C19.157,9.319 19.255,9.366 19.354,9.413C19.881,9.658 20.436,9.96 20.98,10.329C20.985,10.331 20.987,10.334 20.992,10.336C21.016,10.351 21.042,10.366 21.064,10.383L21.064,10.385L21.261,10.714L21.076,18.621L21.064,19.137C21.062,19.127 21.05,19.093 21.045,19.081C21.04,19.069 21.035,19.054 21.028,19.037C21.021,19.017 21.011,18.992 20.999,18.963C20.99,18.936 20.975,18.904 20.963,18.872" style="fill:url(#_Linear1);fill-rule:nonzero;"/>
    <path d="M21.064,19.137L27,19.137L27,0L24.342,1.307C22.336,2.294 21.064,4.365 21.064,6.637L21.064,19.137Z" style="fill:white;fill-rule:nonzero;"/>
    <defs>
        <linearGradient id="_Linear1" x1="0" y1="0" x2="1" y2="0" gradientUnits="userSpaceOnUse" gradientTransform="matrix(5.7819,0,0,5.7819,15.4794,13.7784)"><stop offset="0" style="stop-color:white;stop-opacity:0.05"/><stop offset="1" style="stop-color:black;stop-opacity:0.13"/></linearGradient>
    </defs>
</svg>
