<svg width="27" height="28" viewBox="0 0 27 28" fill="none" xmlns="http://www.w3.org/2000/svg">
<path d="M25.7005 18.6491V10.6794C26.2205 10.3296 26.6133 9.82401 26.8211 9.23706C27.0289 8.65012 27.0408 8.01275 26.8549 7.41865C26.6691 6.82456 26.2953 6.30509 25.7887 5.9366C25.282 5.56812 24.6691 5.37006 24.0401 5.37156C23.5406 5.37293 23.0501 5.50333 22.6173 5.74988L16.6282 3.10313C16.6365 3.03999 16.641 2.97642 16.6419 2.91276C16.6419 2.14024 16.3315 1.39938 15.7789 0.853128C15.2264 0.306877 14.477 0 13.6956 0C12.9142 0 12.1649 0.306877 11.6123 0.853128C11.0598 1.39938 10.7494 2.14024 10.7494 2.91276C10.7503 2.97642 10.7549 3.03999 10.7631 3.10313L4.55081 5.85104C4.07501 5.53862 3.51634 5.37231 2.94516 5.37312C2.27556 5.37354 1.62608 5.59943 1.10365 6.01351C0.581218 6.42759 0.216997 7.00521 0.070956 7.65127C-0.0750846 8.29733 0.00574362 8.97327 0.300173 9.56783C0.594603 10.1624 1.08506 10.6401 1.69077 10.9223V17.7785C1.32734 17.9497 1.00337 18.1929 0.73889 18.493C0.474411 18.7931 0.275062 19.1437 0.153221 19.5231C0.0313814 19.9024 -0.0103657 20.3025 0.0305608 20.6984C0.0714873 21.0944 0.194235 21.4778 0.391167 21.825C0.588099 22.1721 0.855037 22.4756 1.17544 22.7166C1.49585 22.9576 1.86289 23.131 2.25384 23.226C2.64479 23.321 3.05131 23.3357 3.44822 23.2691C3.84513 23.2024 4.22398 23.0559 4.56128 22.8386L10.8332 25.706C10.9753 26.3557 11.3382 26.9376 11.8614 27.355C12.3846 27.7724 13.0366 28 13.7089 28C14.3812 28 15.0333 27.7724 15.5565 27.355C16.0797 26.9376 16.4426 26.3557 16.5847 25.706L22.0735 23.1995C22.496 23.5791 23.0209 23.8291 23.5845 23.9192C24.1481 24.0093 24.726 23.9355 25.248 23.7068C25.7699 23.4781 26.2134 23.1044 26.5244 22.6311C26.8355 22.1578 27.0007 21.6054 27 21.0409C26.9904 20.569 26.8676 20.1061 26.6417 19.6903C26.4157 19.2745 26.0932 18.9176 25.7005 18.6491ZM12.0392 5.30861C12.5266 5.63951 13.104 5.81667 13.6952 5.81667C14.2865 5.81667 14.8639 5.63951 15.3512 5.30861L21.1269 7.85739C21.1049 7.9976 21.0939 8.13924 21.0938 8.28111C21.0944 8.34185 21.0987 8.40252 21.1067 8.46274L17.7617 9.96092C17.2658 9.37028 16.6443 8.89492 15.9414 8.56867C15.2386 8.24241 14.4717 8.07329 13.6952 8.07329C12.9188 8.07329 12.1519 8.24241 11.449 8.56867C10.7462 8.89492 10.1247 9.37028 9.62877 9.96092L5.88174 8.28831V8.28111C5.88091 8.19768 5.87444 8.1144 5.86239 8.03182L12.0392 5.30861ZM12.4219 22.4715C12.0559 22.6511 11.7308 22.9025 11.4664 23.2106L5.87286 20.6459C5.88473 20.5668 5.89093 20.4869 5.8914 20.4069C5.89084 19.8642 5.7366 19.3324 5.44614 18.8718C5.15568 18.4112 4.74059 18.0402 4.24788 17.8008V10.8913C4.43162 10.8003 4.60457 10.6894 4.76351 10.5607L8.49442 12.2261C8.40415 12.5945 8.35631 12.9718 8.35182 13.3508C8.35826 14.5312 8.7617 15.676 9.49857 16.6048C10.2354 17.5336 11.2639 18.1936 12.4219 18.481V22.4715ZM13.6956 16.246C13.1163 16.246 12.5499 16.0762 12.0682 15.758C11.5865 15.4398 11.211 14.9875 10.9893 14.4583C10.7676 13.9291 10.7096 13.3468 10.8226 12.785C10.9356 12.2232 11.2146 11.7072 11.6243 11.3022C12.034 10.8972 12.5559 10.6214 13.1241 10.5096C13.6924 10.3979 14.2814 10.4552 14.8166 10.6744C15.3519 10.8936 15.8094 11.2648 16.1313 11.7411C16.4531 12.2173 16.625 12.7772 16.625 13.35C16.625 14.1181 16.3163 14.8547 15.767 15.3978C15.2176 15.9409 14.4725 16.246 13.6956 16.246ZM23.1434 18.2739C22.5838 18.4514 22.0904 18.7899 21.7263 19.246C21.3622 19.7022 21.144 20.2553 21.0995 20.8347L15.9256 23.2002C15.6632 22.8895 15.337 22.6376 14.9686 22.4611V18.4707C16.1267 18.1833 17.1552 17.5232 17.8922 16.5945C18.6292 15.6657 19.0328 14.5209 19.0395 13.3405C19.0377 12.9611 18.9904 12.5833 18.8985 12.215L22.3764 10.6611C22.6138 10.8191 22.8718 10.9445 23.1434 11.0338V18.2739Z" fill="black"/>
</svg>
