<svg width="112" height="112" viewBox="0 0 112 112" fill="none" xmlns="http://www.w3.org/2000/svg">
<path d="M55.72 111.44C86.4933 111.44 111.44 86.4933 111.44 55.72C111.44 24.9467 86.4933 0 55.72 0C24.9467 0 0 24.9467 0 55.72C0 86.4933 24.9467 111.44 55.72 111.44Z" fill="#182E56"/>
<path d="M75.445 50.2114C76.2544 49.5478 76.8919 48.6987 77.3036 47.7363C77.7152 46.7739 77.8888 45.7266 77.8096 44.6829C77.7304 43.6391 77.4008 42.6299 76.8487 41.7406C76.2966 40.8513 75.5383 40.1083 74.638 39.5743C74.629 39.4244 74.5899 39.2778 74.523 39.1433C73.2855 36.9622 71.3975 35.2222 69.1229 34.1664C69.8618 33.5537 70.4577 32.7867 70.8689 31.9193C71.28 31.052 71.4964 30.1052 71.5029 29.1454C71.4502 27.3648 70.7058 25.6748 69.4277 24.434C68.1496 23.1931 66.4383 22.499 64.6569 22.499C62.8756 22.499 61.1643 23.1931 59.8862 24.434C58.6081 25.6748 57.8637 27.3648 57.811 29.1454C57.8177 30.106 58.0346 31.0536 58.4464 31.9215C58.8583 32.7894 59.4551 33.5566 60.195 34.1693C58.5389 35.1093 57.0676 36.3427 55.853 37.8093C54.6439 36.256 53.0872 35.0083 51.3079 34.1664C52.0471 33.5539 52.6433 32.7869 53.0546 31.9196C53.4659 31.0522 53.6824 30.1053 53.6889 29.1454C53.6407 27.3619 52.8984 25.6675 51.6199 24.4231C50.3413 23.1787 48.6276 22.4824 46.8435 22.4824C45.0593 22.4824 43.3456 23.1787 42.0671 24.4231C40.7885 25.6675 40.0461 27.3619 39.9979 29.1454C40.0045 30.1062 40.2215 31.0538 40.6335 31.9218C41.0455 32.7897 41.6427 33.5568 42.3829 34.1693C40.275 35.4088 38.4491 37.0747 37.022 39.0604C36.9168 39.2082 36.8507 39.3802 36.8299 39.5604C35.9258 40.0921 35.1634 40.8341 34.6076 41.7236C34.0518 42.6131 33.719 43.6237 33.6375 44.6694C33.556 45.7151 33.7283 46.765 34.1396 47.7299C34.5509 48.6947 35.1891 49.5461 36 50.2114C33.414 51.4894 29.7179 55.6064 28.8999 58.1754C28.2519 60.2754 28.792 66.0664 28.85 66.6124C28.8686 67.8805 29.35 69.098 30.2036 70.036C31.0572 70.974 32.2242 71.5677 33.4849 71.7053L33.776 77.2513C33.7701 78.2343 34.1543 79.1794 34.8444 79.8794C35.5345 80.5794 36.474 80.9772 37.457 80.9854H40.4419H40.4589H40.475H43.466C44.3002 80.9801 45.1082 80.693 45.7588 80.1708C46.4094 79.6485 46.8644 78.9218 47.0499 78.1084C47.3028 78.1655 47.559 78.2069 47.8169 78.2324L48.1579 84.8014C48.1516 85.8928 48.5784 86.9422 49.3448 87.7192C50.1112 88.4963 51.1546 88.9377 52.246 88.9464H59.204C60.2865 88.9412 61.3231 88.5087 62.0884 87.7432C62.8538 86.9776 63.2859 85.9409 63.2909 84.8584L63.635 78.2324C63.8953 78.207 64.1538 78.1653 64.409 78.1074C64.5923 78.9206 65.0455 79.6478 65.6949 80.1705C66.3442 80.6933 67.1514 80.9808 67.9849 80.9863H70.966H70.983H70.9989H73.984C74.9578 80.9813 75.8904 80.5927 76.5795 79.9045C77.2686 79.2164 77.6587 78.2843 77.665 77.3104L77.957 71.7103C79.2015 71.5814 80.3569 71.0048 81.2081 70.0879C82.0594 69.1709 82.5487 67.976 82.5849 66.7253C82.6499 66.0723 83.185 60.2773 82.539 58.1733C81.726 55.6033 78.025 51.4824 75.445 50.2114ZM61.329 36.0844C62.0339 35.8315 62.7728 35.6861 63.521 35.6533C63.7867 35.6323 64.0359 35.5163 64.223 35.3264C64.4101 35.1365 64.5224 34.8855 64.5394 34.6195C64.5564 34.3535 64.477 34.0902 64.3156 33.8781C64.1543 33.6659 63.9219 33.519 63.661 33.4644C62.5452 33.2192 61.5593 32.5705 60.8925 31.6428C60.2258 30.7152 59.9252 29.5738 60.0485 28.4381C60.1718 27.3024 60.7103 26.2522 61.5606 25.4893C62.4109 24.7263 63.513 24.3043 64.6554 24.3043C65.7979 24.3043 66.9 24.7263 67.7503 25.4893C68.6006 26.2522 69.1391 27.3024 69.2624 28.4381C69.3857 29.5738 69.0851 30.7152 68.4184 31.6428C67.7516 32.5705 66.7657 33.2192 65.6499 33.4644C65.3891 33.519 65.1566 33.6657 64.9952 33.8778C64.8338 34.0899 64.7543 34.3532 64.7712 34.6191C64.7881 34.8851 64.9003 35.1361 65.0872 35.326C65.2741 35.516 65.5233 35.6322 65.789 35.6533C66.54 35.6857 67.2818 35.8321 67.9889 36.0874C69.2806 36.6713 70.4401 37.5116 71.397 38.5574C71.26 38.5494 71.122 38.5364 70.983 38.5364C69.1937 38.5131 67.4683 39.2003 66.185 40.4473C64.9016 41.6942 64.1651 43.3992 64.1369 45.1884C64.1436 46.1488 64.3604 47.0961 64.7721 47.9639C65.1837 48.8316 65.7803 49.5987 66.5199 50.2114C64.7156 51.2497 63.1256 52.6221 61.8349 54.2554C61.4327 53.9796 61.009 53.7365 60.5679 53.5283C61.4637 52.8362 62.1903 51.9494 62.6928 50.9351C63.1952 49.9207 63.4603 48.8053 63.4679 47.6733C63.4416 45.8252 62.7436 44.0498 61.5043 42.6786C60.265 41.3073 58.569 40.4339 56.733 40.2213C57.9578 38.5352 59.5238 37.1257 61.329 36.0844ZM43.5199 36.0844C44.2237 35.8314 44.9618 35.6865 45.7089 35.6544C45.9747 35.6334 46.2239 35.5173 46.411 35.3274C46.5981 35.1375 46.7104 34.8865 46.7274 34.6205C46.7444 34.3545 46.665 34.0913 46.5036 33.8792C46.3423 33.667 46.1098 33.52 45.849 33.4653C44.7328 33.2203 43.7465 32.5715 43.0795 31.6437C42.4125 30.7158 42.1118 29.5743 42.235 28.4382C42.3583 27.3022 42.8968 26.2517 43.7473 25.4885C44.5978 24.7253 45.7002 24.3032 46.8429 24.3032C47.9857 24.3032 49.0881 24.7253 49.9386 25.4885C50.7891 26.2517 51.3277 27.3022 51.4509 28.4382C51.5742 29.5743 51.2734 30.7158 50.6064 31.6437C49.9393 32.5715 48.9531 33.2203 47.837 33.4653C47.5761 33.52 47.3436 33.667 47.1823 33.8792C47.0209 34.0913 46.9415 34.3545 46.9585 34.6205C46.9755 34.8865 47.0878 35.1375 47.2749 35.3274C47.462 35.5173 47.7112 35.6334 47.9769 35.6544C48.728 35.6869 49.4698 35.8332 50.177 36.0884C52.0606 36.9143 53.6397 38.3073 54.694 40.0734C54.7065 40.1235 54.7235 40.1724 54.7449 40.2194C52.9017 40.424 51.1966 41.2945 49.9497 42.6674C48.7028 44.0402 47.9999 45.821 47.9729 47.6754C47.9806 48.8074 48.2456 49.9227 48.7481 50.9371C49.2505 51.9515 49.9771 52.8384 50.8729 53.5304C50.432 53.7391 50.0083 53.9825 49.6059 54.2584C48.3159 52.6243 46.7258 51.2513 44.9209 50.2134C45.6607 49.6008 46.2573 48.8337 46.669 47.9659C47.0807 47.0982 47.2974 46.1507 47.3039 45.1903C47.276 43.4012 46.5398 41.6963 45.2566 40.4493C43.9734 39.2023 42.2481 38.5151 40.4589 38.5383C40.4319 38.5383 40.405 38.5383 40.379 38.5383C41.2767 37.5451 42.3393 36.7156 43.5199 36.0844ZM43.462 78.7714H41.566V70.1444C41.566 69.8507 41.4493 69.5689 41.2416 69.3612C41.0339 69.1535 40.7522 69.0369 40.4585 69.0369C40.1647 69.0369 39.883 69.1535 39.6753 69.3612C39.4676 69.5689 39.3509 69.8507 39.3509 70.1444V78.7714H37.457C37.2566 78.7657 37.0593 78.7203 36.8767 78.6377C36.6941 78.5551 36.5297 78.4369 36.3931 78.2902C36.2566 78.1434 36.1507 77.9708 36.0814 77.7827C36.0122 77.5946 35.9811 77.3946 35.9899 77.1943L35.125 60.5814C35.1173 60.4361 35.0812 60.2937 35.0185 60.1624C34.9559 60.031 34.868 59.9133 34.7598 59.8159C34.6517 59.7186 34.5255 59.6434 34.3883 59.5948C34.2512 59.5463 34.1058 59.5252 33.9605 59.5328C33.8152 59.5405 33.6728 59.5766 33.5414 59.6393C33.4101 59.7019 33.2924 59.7898 33.195 59.8979C33.0977 60.0061 33.0226 60.1324 32.974 60.2695C32.9254 60.4067 32.9043 60.5521 32.9119 60.6974L33.368 69.4474C32.7097 69.2865 32.1245 68.9093 31.7062 68.3762C31.2878 67.8431 31.0606 67.185 31.061 66.5073C30.837 64.2073 30.6269 60.0924 31.0149 58.8374C31.6679 56.7744 35.0949 53.0124 37.1329 52.1254C37.8374 51.8735 38.5756 51.7289 39.323 51.6964C39.5892 51.6764 39.8392 51.5609 40.0269 51.3711C40.2147 51.1813 40.3275 50.9301 40.3447 50.6637C40.3619 50.3973 40.2822 50.1337 40.1203 49.9214C39.9585 49.7091 39.7254 49.5624 39.4639 49.5084C38.3465 49.2632 37.3591 48.6138 36.6912 47.6849C36.0233 46.7561 35.7222 45.6134 35.8455 44.4761C35.9688 43.3387 36.5079 42.287 37.3594 41.5229C38.2108 40.7589 39.3144 40.3362 40.4585 40.3362C41.6025 40.3362 42.7061 40.7589 43.5575 41.5229C44.409 42.287 44.9481 43.3387 45.0714 44.4761C45.1947 45.6134 44.8936 46.7561 44.2257 47.6849C43.5578 48.6138 42.5704 49.2632 41.453 49.5084C41.192 49.5632 40.9596 49.7101 40.7983 49.9224C40.637 50.1346 40.5576 50.3979 40.5748 50.6639C40.5919 50.93 40.7044 51.1809 40.8916 51.3707C41.0788 51.5605 41.3282 51.6766 41.5939 51.6974C42.3451 51.7292 43.087 51.8756 43.794 52.1313C45.3611 53.0165 46.7406 54.199 47.855 55.6124C45.622 57.5804 43.209 60.5444 42.519 62.7654C41.771 65.1574 42.3989 71.8343 42.4679 72.4803C42.4735 73.4016 42.7005 74.308 43.1297 75.1232C43.5588 75.9383 44.1776 76.6384 44.9339 77.1644V77.2534C44.9385 77.6487 44.7869 78.0298 44.512 78.3138C44.2371 78.5979 43.8612 78.762 43.466 78.7704L43.462 78.7714ZM63.2349 64.4564C63.0894 64.4478 62.9436 64.4681 62.806 64.5164C62.6684 64.5646 62.5418 64.6397 62.4335 64.7373C62.3251 64.8349 62.2373 64.9531 62.1751 65.085C62.1129 65.2168 62.0774 65.3597 62.0709 65.5054L61.0709 84.8054C61.0749 85.0552 61.0296 85.3033 60.9376 85.5355C60.8456 85.7678 60.7087 85.9795 60.5347 86.1588C60.3607 86.3381 60.1531 86.4813 59.9237 86.5802C59.6943 86.6791 59.4477 86.7318 59.198 86.7354H56.825V74.8353C56.8163 74.5474 56.6958 74.2741 56.4891 74.0735C56.2823 73.8729 56.0056 73.7606 55.7175 73.7606C55.4294 73.7606 55.1526 73.8729 54.9458 74.0735C54.7391 74.2741 54.6186 74.5474 54.6099 74.8353V86.7354H52.238C51.9839 86.7294 51.7335 86.6731 51.5014 86.5697C51.2692 86.4663 51.0599 86.3179 50.8856 86.1329C50.7113 85.948 50.5754 85.7303 50.4859 85.4924C50.3963 85.2546 50.3549 85.0013 50.3639 84.7473L49.3639 65.5073C49.3466 65.2155 49.2147 64.9423 48.9968 64.7473C48.779 64.5523 48.4929 64.4513 48.2009 64.4663C47.9089 64.4813 47.6347 64.6113 47.438 64.8276C47.2413 65.044 47.1382 65.3292 47.151 65.6213L47.687 75.9684C47.3034 75.9025 46.9323 75.7777 46.587 75.5984C46.0039 75.2869 45.5171 74.8218 45.1793 74.2535C44.8416 73.6852 44.6658 73.0354 44.6709 72.3744C44.4089 69.7004 44.1639 64.9064 44.6269 63.4264C45.1919 61.6094 47.6849 58.5024 50.0719 56.6404C50.5974 56.2109 51.1717 55.8451 51.7829 55.5504C52.6208 55.2505 53.4989 55.0778 54.388 55.0383C54.6536 55.0172 54.9028 54.901 55.0897 54.7111C55.2766 54.5211 55.3889 54.27 55.4057 54.004C55.4226 53.738 55.3431 53.4749 55.1817 53.2628C55.0203 53.0507 54.7878 52.904 54.527 52.8494C53.3205 52.6139 52.2311 51.9722 51.4403 51.0311C50.6495 50.09 50.2051 48.9064 50.181 47.6774C50.2386 46.2479 50.847 44.8962 51.8788 43.9052C52.9106 42.9141 54.2858 42.3606 55.7164 42.3606C57.1471 42.3606 58.5223 42.9141 59.5541 43.9052C60.5859 44.8962 61.1943 46.2479 61.2519 47.6774C61.2282 48.9065 60.7839 50.0903 59.993 51.0315C59.2022 51.9727 58.1126 52.6143 56.906 52.8494C56.6451 52.904 56.4126 53.0509 56.2513 53.2631C56.0899 53.4752 56.0105 53.7385 56.0275 54.0045C56.0445 54.2705 56.1568 54.5215 56.3439 54.7114C56.531 54.9013 56.7802 55.0173 57.0459 55.0383C57.9329 55.0784 58.8091 55.2497 59.646 55.5464C60.2597 55.8421 60.8369 56.2082 61.366 56.6373C63.752 58.5003 66.2439 61.6063 66.81 63.4233C67.272 64.9013 67.027 69.6954 66.759 72.4774C66.7516 73.1211 66.5699 73.7506 66.2332 74.2993C65.8965 74.848 65.4175 75.2952 64.8469 75.5934C64.5018 75.7728 64.1306 75.897 63.747 75.9614L64.2819 65.6154C64.2964 65.3228 64.1943 65.0365 63.9981 64.8191C63.8018 64.6017 63.5274 64.4708 63.2349 64.4553V64.4564ZM80.375 66.6154C80.3615 67.2762 80.1279 67.9136 79.7113 68.4268C79.2948 68.9399 78.7189 69.2994 78.075 69.4484L78.53 60.6974C78.5453 60.4039 78.4435 60.1163 78.2469 59.8979C78.0502 59.6796 77.7749 59.5482 77.4815 59.5328C77.188 59.5175 76.9004 59.6193 76.6821 59.8159C76.4637 60.0126 76.3323 60.288 76.3169 60.5814L75.4509 77.2523C75.456 77.6478 75.3048 78.0292 75.03 78.3137C74.7553 78.5982 74.3794 78.7627 73.984 78.7714H72.09V70.1444C72.09 69.8507 71.9733 69.5689 71.7656 69.3612C71.5579 69.1535 71.2762 69.0369 70.9824 69.0369C70.6887 69.0369 70.407 69.1535 70.1993 69.3612C69.9916 69.5689 69.875 69.8507 69.875 70.1444V78.7714H67.9819C67.7823 78.7661 67.5857 78.7213 67.4035 78.6394C67.2213 78.5576 67.0571 78.4403 66.9206 78.2946C66.784 78.1488 66.6778 77.9774 66.608 77.7903C66.5382 77.6031 66.5062 77.4039 66.514 77.2043V77.1633C67.2592 76.6522 67.8714 75.9703 68.2995 75.1744C68.7277 74.3786 68.9592 73.4919 68.975 72.5884C69.049 71.8354 69.6749 65.1564 68.9299 62.7664C68.2389 60.5444 65.8249 57.5793 63.5939 55.6113C64.7094 54.1955 66.0914 53.0118 67.6619 52.1273C68.3665 51.8745 69.1051 51.7296 69.853 51.6974C70.1187 51.6766 70.3681 51.5605 70.5553 51.3707C70.7425 51.1809 70.855 50.93 70.8721 50.6639C70.8893 50.3979 70.8099 50.1346 70.6486 49.9224C70.4873 49.7101 70.2549 49.5632 69.9939 49.5084C68.8787 49.2633 67.8933 48.6148 67.2269 47.6875C66.5606 46.7602 66.2602 45.6195 66.3835 44.4843C66.5068 43.349 67.0451 42.2993 67.895 41.5367C68.7449 40.7742 69.8466 40.3524 70.9884 40.3524C72.1303 40.3524 73.232 40.7742 74.0819 41.5367C74.9318 42.2993 75.4701 43.349 75.5934 44.4843C75.7167 45.6195 75.4163 46.7602 74.75 47.6875C74.0836 48.6148 73.0982 49.2633 71.983 49.5084C71.7215 49.5624 71.4884 49.7088 71.3265 49.921C71.1646 50.1332 71.0848 50.3968 71.1019 50.6632C71.1189 50.9296 71.2316 51.1809 71.4193 51.3707C71.6069 51.5606 71.8568 51.6762 72.1229 51.6964C72.8739 51.7288 73.6157 51.8748 74.323 52.1294C76.353 53.0124 79.78 56.7733 80.431 58.8293C80.812 60.0903 80.603 64.2084 80.375 66.6154Z" fill="white"/>
</svg>
