<svg fill="none" height="16" viewBox="0 0 16 16" width="16" xmlns="http://www.w3.org/2000/svg"><path d="m5.30566 12.4375c0-.0625-.0625-.125-.15625-.125s-.15625.0625-.15625.125.0625.125.15625.0937c.09375 0 .15625-.0312.15625-.0937zm-.96875-.1563c0 .0626.0625.1563.15625.1563.0625.0313.15625 0 .1875-.0625 0-.0625-.03125-.125-.125-.1562-.09375-.0313-.1875 0-.21875.0624zm1.40625-.0312c-.09375 0-.15625.0625-.15625.1562 0 .0626.09375.0938.1875.0626.09375-.0313.15625-.0626.125-.125 0-.0626-.09375-.125-.15625-.0938zm2.03125-12c-4.3125 0-7.624996 3.3125-7.624996 7.625 0 3.4688 2.156246 6.4375 5.281246 7.5.40625.0625.53125-.1875.53125-.375 0-.2188 0-1.2812 0-1.9375 0 0-2.1875.4687-2.65625-.9375 0 0-.34375-.9062-.84375-1.125 0 0-.71875-.5.03125-.5 0 0 .78125.0625 1.21875.8125.6875 1.2187 1.8125.875 2.28125.6563.0625-.5.25-.8438.5-1.0626-1.75-.1874-3.53125-.4374-3.53125-3.43745 0-.875.25-1.28125.75-1.84375-.09375-.21875-.34375-1.03125.09375-2.125.625-.1875 2.15625.84375 2.15625.84375.625-.1875 1.28125-.25 1.9375-.25.6875 0 1.34375.0625 1.96875.25 0 0 1.50004-1.0625 2.15624-.84375.4375 1.09375.1563 1.90625.0938 2.125.5.5625.8125.96875.8125 1.84375 0 3.00005-1.8438 3.25005-3.59379 3.43745.28125.25.53125.7188.53125 1.4688 0 1.0312-.03125 2.3438-.03125 2.5938 0 .2187.15625.4687.56249.375 3.125-1.0313 5.25-4 5.25-7.4688 0-4.3125-3.5312-7.625-7.87499-7.625zm-4.59375 10.7812c-.0625.0313-.03125.125 0 .1876.0625.0312.125.0624.1875.0312.03125-.0312.03125-.125-.03125-.1875-.0625-.0313-.125-.0625-.15625-.0313zm-.34375-.25c-.03125.0626 0 .0938.0625.125.0625.0313.125.0313.15625-.0312 0-.0312-.03125-.0625-.09375-.0938-.0625-.0312-.09375-.0312-.125 0zm1 1.125c-.03125.0313-.03125.125.0625.1876.0625.0624.15625.0937.1875.0312.03125-.0312.03125-.125-.03125-.1875s-.15625-.0937-.21875-.0313zm-.34375-.4687c-.0625.0313-.0625.125 0 .1875s.125.0938.1875.0625c.03125-.0313.03125-.125 0-.1875-.0625-.0625-.125-.0938-.1875-.0625z" fill="#000036"/></svg>