<svg width="80" height="45" viewBox="0 0 80 45" fill="none" xmlns="http://www.w3.org/2000/svg">
<path d="M1.15234 20.6445H6.91406C6.9401 22.4284 7.48047 23.7695 8.53516 24.668C9.58984 25.5534 11.0221 25.9961 12.832 25.9961C14.3294 25.9961 15.5924 25.6771 16.6211 25.0391C17.6497 24.401 18.1641 23.457 18.1641 22.207C18.1641 20.9831 17.6693 20.0977 16.6797 19.5508C15.6901 18.9909 13.8216 18.3529 11.0742 17.6367C7.74089 16.7773 5.37109 15.7552 3.96484 14.5703C2.57161 13.3854 1.875 11.6471 1.875 9.35547C1.875 6.71224 2.86458 4.64193 4.84375 3.14453C6.83594 1.63411 9.34245 0.878906 12.3633 0.878906C15.6185 0.878906 18.2161 1.64714 20.1562 3.18359C22.1094 4.72005 23.125 7.01823 23.2031 10.0781H17.4805C17.2982 6.97917 15.5273 5.4362 12.168 5.44922C10.8138 5.44922 9.72005 5.76172 8.88672 6.38672C8.05339 7.01172 7.63672 7.87109 7.63672 8.96484C7.63672 10.0586 8.04036 10.8203 8.84766 11.25C9.66797 11.6667 11.7057 12.3307 14.9609 13.2422C17.9688 14.0104 20.2214 15.026 21.7188 16.2891C23.2161 17.5391 23.9648 19.388 23.9648 21.8359C23.9648 24.5052 22.9232 26.6341 20.8398 28.2227C18.7565 29.8112 16.0221 30.6055 12.6367 30.6055C9.19922 30.6055 6.42578 29.7461 4.31641 28.0273C2.20703 26.3086 1.15234 23.8477 1.15234 20.6445ZM28.35 30V1.5625H37.2367C41.6898 1.5625 45.1404 2.75391 47.5883 5.13672C50.0362 7.51953 51.2602 11.0091 51.2602 15.6055C51.2602 20.0586 50.0883 23.5742 47.7445 26.1523C45.4008 28.7174 41.9372 30 37.3539 30H28.35ZM34.1508 25.1172H36.1039C42.2367 25.1172 45.3031 22.0247 45.3031 15.8398C45.2771 12.5326 44.5154 10.1367 43.018 8.65234C41.5336 7.15495 39.1247 6.40625 35.7914 6.40625H34.1508V25.1172ZM61.1336 30.1172L52.0516 1.5625H58.2234L64.6297 23.8086H64.6688L71.2117 1.5625H77.1492L67.9305 30.1172H61.1336Z" fill="#000036"/>
<path d="M1.48828 40.6416H2.15234C2.15234 41.2894 2.33789 41.776 2.70898 42.1016C3.08333 42.4271 3.60091 42.5898 4.26172 42.5898C4.75651 42.5898 5.18457 42.4629 5.5459 42.209C5.90723 41.9551 6.08789 41.6051 6.08789 41.1592C6.08789 40.7783 5.95605 40.487 5.69238 40.2852C5.43197 40.0833 4.94531 39.888 4.23242 39.6992C3.91992 39.6178 3.68229 39.5544 3.51953 39.5088C3.36003 39.4632 3.16146 39.3981 2.92383 39.3135C2.68945 39.2256 2.51204 39.1377 2.3916 39.0498C2.27116 38.9619 2.14583 38.8512 2.01562 38.7178C1.88542 38.5843 1.79427 38.4313 1.74219 38.2588C1.69336 38.0863 1.66895 37.8893 1.66895 37.668C1.66895 37.1406 1.86751 36.6882 2.26465 36.3105C2.66178 35.9297 3.25423 35.7393 4.04199 35.7393C4.81022 35.7393 5.41895 35.9362 5.86816 36.3301C6.31738 36.724 6.54199 37.2904 6.54199 38.0293H5.8877C5.8877 37.4889 5.7168 37.0674 5.375 36.7646C5.0332 36.4619 4.58561 36.3105 4.03223 36.3105C3.52441 36.3105 3.11263 36.4245 2.79688 36.6523C2.48438 36.877 2.32812 37.2122 2.32812 37.6582C2.32812 38.2507 2.73177 38.6543 3.53906 38.8691C4.60677 39.1361 5.30664 39.346 5.63867 39.499C6.25391 39.7855 6.61035 40.1989 6.70801 40.7393C6.73079 40.8597 6.74219 40.9899 6.74219 41.1299C6.74219 41.3643 6.69824 41.5938 6.61035 41.8184C6.52246 42.0397 6.389 42.2546 6.20996 42.4629C6.03092 42.668 5.76562 42.834 5.41406 42.9609C5.06576 43.0879 4.65723 43.1514 4.18848 43.1514C3.33561 43.1514 2.67155 42.9349 2.19629 42.502C1.72428 42.069 1.48828 41.4489 1.48828 40.6416ZM7.18711 44.8213V44.2891C7.36615 44.3216 7.50286 44.3379 7.59727 44.3379C7.92279 44.3379 8.17018 44.2337 8.33945 44.0254C8.51198 43.8203 8.68451 43.4753 8.85703 42.9902C8.39805 41.8509 7.71445 40.1403 6.80625 37.8584H7.45078C7.57773 38.1839 7.75514 38.6494 7.98301 39.2549C8.21413 39.8571 8.42409 40.4056 8.61289 40.9004C8.80169 41.3919 8.98398 41.859 9.15977 42.3018C9.89219 40.3291 10.4456 38.848 10.8199 37.8584H11.44C11.1536 38.5778 10.7548 39.5983 10.2438 40.9199C9.73268 42.2415 9.37786 43.1611 9.1793 43.6787C9.00026 44.1117 8.80007 44.416 8.57871 44.5918C8.35736 44.7708 8.05462 44.8604 7.67051 44.8604C7.50775 44.8604 7.34661 44.8473 7.18711 44.8213ZM12.1633 37.8584L12.4416 38.6592H12.4514C12.5653 38.3727 12.7671 38.1449 13.0568 37.9756C13.3465 37.8063 13.6753 37.7217 14.0432 37.7217C15.2834 37.7217 15.9035 38.3971 15.9035 39.748V43H15.3127V39.8018C15.3127 38.7633 14.8716 38.2425 13.9895 38.2393C13.5305 38.2393 13.1577 38.4004 12.8713 38.7227C12.5848 39.0417 12.4416 39.4535 12.4416 39.958V43H11.841V37.8584H12.1633ZM17.8426 36.5303V37.8584H18.9021V38.3516H17.8426V41.501C17.8426 41.8949 17.8768 42.1699 17.9451 42.3262C18.0167 42.4824 18.1827 42.5605 18.4432 42.5605C18.5701 42.5605 18.7231 42.5508 18.9021 42.5312V43.0488C18.6352 43.0749 18.466 43.0879 18.3943 43.0879C17.9158 43.0879 17.6033 42.9723 17.4568 42.7412C17.3136 42.5068 17.242 42.0202 17.242 41.2812V38.3516H16.3338V37.8584H17.242V36.8281L17.8426 36.5303ZM19.5473 43V35.8906H20.1479L20.1576 38.6396C20.3041 38.3532 20.5173 38.1286 20.7973 37.9658C21.0772 37.8031 21.3946 37.7217 21.7494 37.7217C22.4298 37.7217 22.9115 37.904 23.1947 38.2686C23.4779 38.6299 23.6195 39.193 23.6195 39.958V43H23.0287V40.0117C23.0287 39.4388 22.9294 39.001 22.7309 38.6982C22.5355 38.3923 22.1905 38.2393 21.6957 38.2393C21.1944 38.2393 20.8103 38.4053 20.5434 38.7373C20.2797 39.0661 20.1479 39.5267 20.1479 40.1191V43H19.5473ZM28.2393 41.3789H28.8594C28.7454 41.9388 28.5029 42.3717 28.1318 42.6777C27.764 42.9805 27.2806 43.1318 26.6816 43.1318C25.9427 43.1318 25.3698 42.8812 24.9629 42.3799C24.556 41.8786 24.3525 41.2259 24.3525 40.4219C24.3525 39.6406 24.5544 38.9961 24.958 38.4883C25.3649 37.9772 25.9329 37.7217 26.6621 37.7217C27.3945 37.7217 27.9479 37.9756 28.3223 38.4834C28.6999 38.988 28.8887 39.6829 28.8887 40.5684H24.9482C24.9482 41.1413 25.1012 41.6279 25.4072 42.0283C25.7165 42.4287 26.1413 42.6289 26.6816 42.6289C27.0951 42.6289 27.4385 42.515 27.7119 42.2871C27.9886 42.056 28.1644 41.7533 28.2393 41.3789ZM24.9629 40.0605H28.3027C28.2702 39.5137 28.1058 39.0726 27.8096 38.7373C27.5166 38.3988 27.1276 38.2295 26.6426 38.2295C26.1641 38.2295 25.7751 38.402 25.4756 38.7471C25.1794 39.0889 25.0085 39.5267 24.9629 40.0605ZM30.4273 36.5303V37.8584H31.4869V38.3516H30.4273V41.501C30.4273 41.8949 30.4615 42.1699 30.5299 42.3262C30.6015 42.4824 30.7675 42.5605 31.0279 42.5605C31.1549 42.5605 31.3079 42.5508 31.4869 42.5312V43.0488C31.22 43.0749 31.0507 43.0879 30.9791 43.0879C30.5006 43.0879 30.1881 42.9723 30.0416 42.7412C29.8984 42.5068 29.8268 42.0202 29.8268 41.2812V38.3516H28.9186V37.8584H29.8268V36.8281L30.4273 36.5303ZM32.1125 43V37.8584H32.7229V43H32.1125ZM32.093 36.8281V35.8906H32.7424V36.8281H32.093ZM37.9676 39.5381H37.3475C37.2954 39.1507 37.1375 38.8398 36.8738 38.6055C36.6102 38.3678 36.2814 38.249 35.8875 38.249C35.3602 38.249 34.937 38.4574 34.618 38.874C34.3022 39.2907 34.1443 39.8066 34.1443 40.4219C34.1443 41.0501 34.3006 41.5742 34.6131 41.9941C34.9288 42.4108 35.3569 42.6191 35.8973 42.6191C36.2911 42.6191 36.6297 42.484 36.9129 42.2139C37.1961 41.9437 37.3572 41.6019 37.3963 41.1885H38.0066C37.9188 41.8005 37.6876 42.279 37.3133 42.624C36.9422 42.9691 36.4702 43.1416 35.8973 43.1416C35.1714 43.1416 34.5984 42.8877 34.1785 42.3799C33.7586 41.8721 33.5486 41.2259 33.5486 40.4414C33.5486 39.6406 33.7586 38.988 34.1785 38.4834C34.5984 37.9756 35.1681 37.7217 35.8875 37.7217C36.4539 37.7217 36.9292 37.8844 37.3133 38.21C37.6974 38.5355 37.9155 38.9782 37.9676 39.5381ZM40.7471 43V35.8906H42.6465C43.7988 35.9036 44.6663 36.2113 45.249 36.8135C45.8317 37.4124 46.123 38.2816 46.123 39.4209C46.123 40.5602 45.835 41.4424 45.2588 42.0674C44.6826 42.6891 43.8086 43 42.6367 43H40.7471ZM41.377 42.4482H42.4756C43.5368 42.4482 44.3018 42.1943 44.7705 41.6865C45.2393 41.1755 45.4736 40.4235 45.4736 39.4307C45.4736 38.4248 45.2327 37.6761 44.751 37.1846C44.2725 36.6898 43.5205 36.4424 42.4951 36.4424H41.377V42.4482ZM46.7193 39.4111C46.7258 38.8773 46.9146 38.4622 47.2857 38.166C47.6568 37.8698 48.1419 37.7217 48.7408 37.7217C49.3951 37.7217 49.872 37.8747 50.1715 38.1807C50.471 38.4867 50.6207 39.0465 50.6207 39.8604V43H50.2594L50.0494 42.1797C49.8443 42.5052 49.6018 42.7477 49.3219 42.9072C49.0419 43.0635 48.6855 43.1416 48.2525 43.1416C47.7317 43.1416 47.3069 43.0065 46.9781 42.7363C46.6526 42.4661 46.4898 42.0934 46.4898 41.6182C46.4898 41.3968 46.5257 41.2048 46.5973 41.042C46.6721 40.8792 46.7665 40.7474 46.8805 40.6465C46.9944 40.5423 47.1539 40.4495 47.359 40.3682C47.5673 40.2835 47.7675 40.2184 47.9596 40.1729C48.1549 40.124 48.4055 40.0703 48.7115 40.0117L49.9908 39.7676V39.4404C49.9908 38.6396 49.5579 38.2393 48.692 38.2393C48.2981 38.2393 47.9791 38.3402 47.735 38.542C47.4908 38.7406 47.3557 39.0303 47.3297 39.4111H46.7193ZM50.0201 40.2412L49.3805 40.3486C48.5309 40.5016 47.9986 40.6204 47.7838 40.7051C47.3346 40.8841 47.11 41.1787 47.11 41.5889C47.11 41.9014 47.2223 42.152 47.4469 42.3408C47.6747 42.5264 47.9628 42.6191 48.3111 42.6191C48.8255 42.6191 49.2389 42.458 49.5514 42.1357C49.8639 41.8135 50.0201 41.361 50.0201 40.7783V40.2412ZM52.3352 36.5303V37.8584H53.3947V38.3516H52.3352V41.501C52.3352 41.8949 52.3693 42.1699 52.4377 42.3262C52.5093 42.4824 52.6753 42.5605 52.9357 42.5605C53.0627 42.5605 53.2157 42.5508 53.3947 42.5312V43.0488C53.1278 43.0749 52.9585 43.0879 52.8869 43.0879C52.4084 43.0879 52.0959 42.9723 51.9494 42.7412C51.8062 42.5068 51.7346 42.0202 51.7346 41.2812V38.3516H50.8264V37.8584H51.7346V36.8281L52.3352 36.5303ZM53.8787 39.4111C53.8852 38.8773 54.074 38.4622 54.4451 38.166C54.8162 37.8698 55.3012 37.7217 55.9002 37.7217C56.5545 37.7217 57.0314 37.8747 57.3309 38.1807C57.6303 38.4867 57.7801 39.0465 57.7801 39.8604V43H57.4188L57.2088 42.1797C57.0037 42.5052 56.7612 42.7477 56.4813 42.9072C56.2013 43.0635 55.8449 43.1416 55.4119 43.1416C54.8911 43.1416 54.4663 43.0065 54.1375 42.7363C53.812 42.4661 53.6492 42.0934 53.6492 41.6182C53.6492 41.3968 53.685 41.2048 53.7566 41.042C53.8315 40.8792 53.9259 40.7474 54.0398 40.6465C54.1538 40.5423 54.3133 40.4495 54.5184 40.3682C54.7267 40.2835 54.9269 40.2184 55.1189 40.1729C55.3143 40.124 55.5649 40.0703 55.8709 40.0117L57.1502 39.7676V39.4404C57.1502 38.6396 56.7173 38.2393 55.8514 38.2393C55.4575 38.2393 55.1385 38.3402 54.8943 38.542C54.6502 38.7406 54.5151 39.0303 54.4891 39.4111H53.8787ZM57.1795 40.2412L56.5398 40.3486C55.6902 40.5016 55.158 40.6204 54.9432 40.7051C54.4939 40.8841 54.2693 41.1787 54.2693 41.5889C54.2693 41.9014 54.3816 42.152 54.6063 42.3408C54.8341 42.5264 55.1222 42.6191 55.4705 42.6191C55.9848 42.6191 56.3982 42.458 56.7107 42.1357C57.0232 41.8135 57.1795 41.361 57.1795 40.7783V40.2412ZM62.4639 42.9805L59.9346 35.8906H60.5938L62.874 42.3896L65.1641 35.8906H65.8037L63.2646 42.9805H62.4639ZM65.7213 39.4111C65.7278 38.8773 65.9166 38.4622 66.2877 38.166C66.6588 37.8698 67.1438 37.7217 67.7428 37.7217C68.3971 37.7217 68.874 37.8747 69.1734 38.1807C69.4729 38.4867 69.6227 39.0465 69.6227 39.8604V43H69.2613L69.0514 42.1797C68.8463 42.5052 68.6038 42.7477 68.3238 42.9072C68.0439 43.0635 67.6874 43.1416 67.2545 43.1416C66.7337 43.1416 66.3089 43.0065 65.9801 42.7363C65.6546 42.4661 65.4918 42.0934 65.4918 41.6182C65.4918 41.3968 65.5276 41.2048 65.5992 41.042C65.6741 40.8792 65.7685 40.7474 65.8824 40.6465C65.9964 40.5423 66.1559 40.4495 66.3609 40.3682C66.5693 40.2835 66.7695 40.2184 66.9615 40.1729C67.1568 40.124 67.4075 40.0703 67.7135 40.0117L68.9928 39.7676V39.4404C68.9928 38.6396 68.5598 38.2393 67.6939 38.2393C67.3001 38.2393 66.9811 38.3402 66.7369 38.542C66.4928 38.7406 66.3577 39.0303 66.3316 39.4111H65.7213ZM69.0221 40.2412L68.3824 40.3486C67.5328 40.5016 67.0006 40.6204 66.7857 40.7051C66.3365 40.8841 66.1119 41.1787 66.1119 41.5889C66.1119 41.9014 66.2242 42.152 66.4488 42.3408C66.6767 42.5264 66.9648 42.6191 67.3131 42.6191C67.8274 42.6191 68.2408 42.458 68.5533 42.1357C68.8658 41.8135 69.0221 41.361 69.0221 40.7783V40.2412ZM74.4572 37.8584V43H74.0666L73.8908 42.1895C73.5523 42.8242 72.9989 43.1416 72.2307 43.1416C71.4722 43.1416 70.9449 42.8682 70.6486 42.3213C70.5347 42.1227 70.4631 41.9046 70.4338 41.667C70.4045 41.4294 70.3898 41.0664 70.3898 40.5781V37.8584H70.9904V40.5781C70.9904 41.0241 71.0035 41.3561 71.0295 41.5742C71.0555 41.7923 71.1255 41.9714 71.2395 42.1113C71.4543 42.4499 71.8205 42.6191 72.3381 42.6191C72.8459 42.6191 73.2268 42.4417 73.4807 42.0869C73.7378 41.7288 73.8664 41.2292 73.8664 40.5879V37.8584H74.4572ZM75.493 43V35.8906H76.0936V43H75.493ZM78.2133 36.5303V37.8584H79.2729V38.3516H78.2133V41.501C78.2133 41.8949 78.2475 42.1699 78.3158 42.3262C78.3874 42.4824 78.5534 42.5605 78.8139 42.5605C78.9408 42.5605 79.0938 42.5508 79.2729 42.5312V43.0488C79.0059 43.0749 78.8367 43.0879 78.765 43.0879C78.2865 43.0879 77.974 42.9723 77.8275 42.7412C77.6843 42.5068 77.6127 42.0202 77.6127 41.2812V38.3516H76.7045V37.8584H77.6127V36.8281L78.2133 36.5303Z" fill="#000036"/>
</svg>
