<svg width="74" height="38" viewBox="0 0 74 38" fill="none" xmlns="http://www.w3.org/2000/svg">
<mask id="mask0_6_4187" style="mask-type:luminance" maskUnits="userSpaceOnUse" x="0" y="0" width="74" height="38">
<path d="M6.63116 13.3367H13.8982V14.7339H6.63116V13.3367ZM6.63116 22.4456H13.8982V21.0493H6.63116V22.4456ZM6.63116 30.159H13.8982V28.7618H6.63116V30.159ZM18.9652 14.7339H26.2322V13.3367H18.9652V14.7339ZM18.9652 22.4456H26.2322V21.0493H18.9652V22.4456ZM18.9652 30.159H26.2322V28.7618H18.9652V30.159ZM31.3 14.7339H38.567V13.3367H31.3V14.7339ZM31.3 22.4456H38.567V21.0493H31.3V22.4456ZM31.3 30.159H38.567V28.7618H31.3V30.159ZM73.7377 0.466302V37.0202C73.7377 37.1437 73.6886 37.2621 73.6013 37.3493C73.514 37.4366 73.3957 37.4857 73.2722 37.4857H53.7759C53.7147 37.4858 53.6541 37.4738 53.5976 37.4505C53.5411 37.4271 53.4897 37.3928 53.4465 37.3496C53.4033 37.3064 53.369 37.255 53.3456 37.1985C53.3223 37.142 53.3103 37.0814 53.3104 37.0202V16.4148H45.2735V37.0194C45.2736 37.0805 45.2616 37.1411 45.2383 37.1976C45.2149 37.2541 45.1806 37.3055 45.1374 37.3487C45.0942 37.392 45.0428 37.4263 44.9863 37.4496C44.9298 37.473 44.8692 37.4849 44.808 37.4848H0.465431C0.404277 37.4849 0.343716 37.473 0.287195 37.4496C0.230674 37.4263 0.179316 37.392 0.136073 37.3487C0.0928312 37.3055 0.0585437 37.2541 0.0351938 37.1976C0.0118439 37.1411 -0.000113179 37.0805 8.0735e-07 37.0194V0.465431C-0.000113179 0.404277 0.0118439 0.343716 0.0351938 0.287195C0.0585437 0.230674 0.0928312 0.179316 0.136073 0.136073C0.179316 0.0928312 0.230674 0.0585438 0.287195 0.0351938C0.343716 0.0118439 0.404277 -0.000113179 0.465431 8.0735e-07H44.808C44.8692 -0.000113179 44.9298 0.0118439 44.9863 0.0351938C45.0428 0.0585438 45.0942 0.0928312 45.1374 0.136073C45.1806 0.179316 45.2149 0.230674 45.2383 0.287195C45.2616 0.343716 45.2736 0.404277 45.2735 0.465431V13.6213H53.3104V0.465431C53.3103 0.404277 53.3223 0.343716 53.3456 0.287195C53.369 0.230674 53.4033 0.179316 53.4465 0.136073C53.4897 0.0928312 53.5411 0.0585438 53.5976 0.0351938C53.6541 0.0118439 53.7147 -0.000113179 53.7759 8.0735e-07H73.2722C73.3957 8.0735e-07 73.514 0.0490516 73.6013 0.136338C73.6886 0.223623 73.7377 0.34199 73.7377 0.465431V0.466302ZM44.3426 36.5548V6.84831H0.933474V36.5513L44.3426 36.5548ZM72.8051 36.5548V6.84831H54.2396V36.5513L72.8051 36.5548ZM59.939 14.7339H67.206V13.3367H59.939V14.7339ZM59.939 22.4456H67.206V21.0493H59.939V22.4456ZM59.939 30.159H67.206V28.7618H59.939V30.159Z" fill="white"/>
</mask>
<g mask="url(#mask0_6_4187)">
<path d="M61.4483 28.7598H59.9404V30.1561H61.4483V28.7598Z" fill="#01DFCA"/>
<path d="M62.9837 28.7598H61.4473V30.1561H62.9837V28.7598Z" fill="#01DFCA"/>
<path d="M64.5208 28.7598H62.9844V30.1561H64.5208V28.7598Z" fill="#01DFCA"/>
<path d="M66.057 28.7598H64.5205V30.1561H66.057V28.7598Z" fill="#01E0C9"/>
<path d="M67.2047 28.7598H66.0566V30.1561H67.2047V28.7598Z" fill="#01E0C9"/>
<path d="M61.4483 21.0488H59.9404V22.4451H61.4483V21.0488Z" fill="#01DFCA"/>
<path d="M62.9837 21.0488H61.4473V22.4451H62.9837V21.0488Z" fill="#01DFCA"/>
<path d="M64.5208 21.0488H62.9844V22.4451H64.5208V21.0488Z" fill="#01DFCA"/>
<path d="M66.057 21.0488H64.5205V22.4451H66.057V21.0488Z" fill="#01E0C9"/>
<path d="M67.2047 21.0488H66.0566V22.4451H67.2047V21.0488Z" fill="#01E0C9"/>
<path d="M61.4483 13.3359H59.9404V14.7322H61.4483V13.3359Z" fill="#01DFCA"/>
<path d="M62.9837 13.3359H61.4473V14.7322H62.9837V13.3359Z" fill="#01DFCA"/>
<path d="M64.5208 13.3359H62.9844V14.7322H64.5208V13.3359Z" fill="#01DFCA"/>
<path d="M66.057 13.3359H64.5205V14.7322H66.057V13.3359Z" fill="#01E0C9"/>
<path d="M67.2047 13.3359H66.0566V14.7322H67.2047V13.3359Z" fill="#01E0C9"/>
<path d="M55.3026 6.85156H54.2402V36.5546H55.3026V6.85156Z" fill="#01DDCB"/>
<path d="M56.8399 6.85168H55.3035V36.5547H56.8399V6.85168Z" fill="#01DECB"/>
<path d="M58.3763 6.85156H56.8398V36.5546H58.3763V6.85156Z" fill="#01DECB"/>
<path d="M59.9115 6.85156H58.375V36.5546H59.9115V6.85156Z" fill="#01DFCA"/>
<path d="M61.4494 6.85168H59.913V36.5547H61.4494V6.85168Z" fill="#01DFCA"/>
<path d="M62.9836 6.85168H61.4471V36.5547H62.9836V6.85168Z" fill="#01DFCA"/>
<path d="M64.5208 6.85156H62.9844V36.5546H64.5208V6.85156Z" fill="#01DFCA"/>
<path d="M66.0572 6.85168H64.5208V36.5547H66.0572V6.85168Z" fill="#01E0C9"/>
<path d="M67.5931 6.85168H66.0566V36.5547H67.5931V6.85168Z" fill="#01E0C9"/>
<path d="M69.129 6.85168H67.5925V36.5547H69.129V6.85168Z" fill="#01E0C9"/>
<path d="M70.6654 6.85156H69.1289V36.5546H70.6654V6.85156Z" fill="#01E0C9"/>
<path d="M72.2026 6.85168H70.6661V36.5547H72.2026V6.85168Z" fill="#01E0C9"/>
<path d="M72.8059 6.85168H72.2003V36.5547H72.8059V6.85168Z" fill="#01E0C9"/>
<path d="M1.53625 6.85156H0.930664V36.5546H1.53625V6.85156Z" fill="#03B0F2"/>
<path d="M3.07234 6.85168H1.53589V36.5547H3.07234V6.85168Z" fill="#03B2F0"/>
<path d="M4.60872 6.85156H3.07227V36.5546H4.60872V6.85156Z" fill="#03B4EE"/>
<path d="M6.14388 6.85156H4.60742V36.5546H6.14388V6.85156Z" fill="#03B6ED"/>
<path d="M7.68184 6.85168H6.14539V36.5547H7.68184V6.85168Z" fill="#03B8EB"/>
<path d="M9.21809 6.85156H7.68164V36.5546H9.21809V6.85156Z" fill="#03BAE9"/>
<path d="M10.7533 6.85156H9.2168V36.5546H10.7533V6.85156Z" fill="#02BCE8"/>
<path d="M12.2894 6.85156H10.7529V36.5546H12.2894V6.85156Z" fill="#02BEE6"/>
<path d="M13.8255 6.85168H12.2891V36.5547H13.8255V6.85168Z" fill="#02C0E5"/>
<path d="M15.3615 6.85168H13.8251V36.5547H15.3615V6.85168Z" fill="#02C1E3"/>
<path d="M16.8988 6.85156H15.3623V36.5546H16.8988V6.85156Z" fill="#02C3E2"/>
<path d="M18.435 6.85168H16.8986V36.5547H18.435V6.85168Z" fill="#02C5E0"/>
<path d="M19.9709 6.85168H18.4344V36.5547H19.9709V6.85168Z" fill="#02C6DF"/>
<path d="M21.5072 6.85156H19.9707V36.5546H21.5072V6.85156Z" fill="#02C8DE"/>
<path d="M23.0433 6.85156H21.5068V36.5546H23.0433V6.85156Z" fill="#02C9DC"/>
<path d="M24.5804 6.85168H23.0439V36.5547H24.5804V6.85168Z" fill="#02CBDB"/>
<path d="M26.1147 6.85168H24.5782V36.5547H26.1147V6.85168Z" fill="#02CCDA"/>
<path d="M27.6527 6.85156H26.1162V36.5546H27.6527V6.85156Z" fill="#02CDD9"/>
<path d="M29.1878 6.85156H27.6514V36.5546H29.1878V6.85156Z" fill="#02CFD8"/>
<path d="M30.7241 6.85168H29.1876V36.5547H30.7241V6.85168Z" fill="#02D0D7"/>
<path d="M32.2601 6.85168H30.7236V36.5547H32.2601V6.85168Z" fill="#02D1D6"/>
<path d="M33.7962 6.85156H32.2598V36.5546H33.7962V6.85156Z" fill="#02D2D5"/>
<path d="M35.3333 6.85156H33.7969V36.5546H35.3333V6.85156Z" fill="#02D3D4"/>
<path d="M36.8695 6.85168H35.333V36.5547H36.8695V6.85168Z" fill="#01D4D3"/>
<path d="M38.4055 6.85168H36.869V36.5547H38.4055V6.85168Z" fill="#01D5D2"/>
<path d="M39.9417 6.85156H38.4053V36.5546H39.9417V6.85156Z" fill="#01D6D1"/>
<path d="M41.4769 6.85156H39.9404V36.5546H41.4769V6.85156Z" fill="#01D7D0"/>
<path d="M43.0133 6.85168H41.4768V36.5547H43.0133V6.85168Z" fill="#01D8D0"/>
<path d="M44.3435 6.85156H43.0146V36.5546H44.3435V6.85156Z" fill="#01D9CF"/>
<path d="M1.53645 0H0V37.4857H1.53645V0Z" fill="#03B0F2"/>
<path d="M3.07234 0H1.53589V37.4857H3.07234V0Z" fill="#03B2F0"/>
<path d="M4.60872 0H3.07227V37.4857H4.60872V0Z" fill="#03B4EE"/>
<path d="M6.14388 0H4.60742V37.4857H6.14388V0Z" fill="#03B6ED"/>
<path d="M7.68184 0H6.14539V37.4857H7.68184V0Z" fill="#03B8EB"/>
<path d="M9.21809 0H7.68164V37.4857H9.21809V0Z" fill="#03BAE9"/>
<path d="M10.7533 0H9.2168V37.4857H10.7533V0Z" fill="#02BCE8"/>
<path d="M12.2894 0H10.7529V37.4857H12.2894V0Z" fill="#02BEE6"/>
<path d="M13.8255 0H12.2891V37.4857H13.8255V0Z" fill="#02C0E5"/>
<path d="M15.3615 0H13.8251V37.4857H15.3615V0Z" fill="#02C1E3"/>
<path d="M16.8988 0H15.3623V37.4857H16.8988V0Z" fill="#02C3E2"/>
<path d="M18.435 0H16.8986V37.4857H18.435V0Z" fill="#02C5E0"/>
<path d="M19.9709 0H18.4344V37.4857H19.9709V0Z" fill="#02C6DF"/>
<path d="M21.5072 0H19.9707V37.4857H21.5072V0Z" fill="#02C8DE"/>
<path d="M23.0433 0H21.5068V37.4857H23.0433V0Z" fill="#02C9DC"/>
<path d="M24.5804 0H23.0439V37.4857H24.5804V0Z" fill="#02CBDB"/>
<path d="M26.1147 0H24.5782V37.4857H26.1147V0Z" fill="#02CCDA"/>
<path d="M27.6527 0H26.1162V37.4857H27.6527V0Z" fill="#02CDD9"/>
<path d="M29.1878 0H27.6514V37.4857H29.1878V0Z" fill="#02CFD8"/>
<path d="M30.7241 0H29.1876V37.4857H30.7241V0Z" fill="#02D0D7"/>
<path d="M32.2601 0H30.7236V37.4857H32.2601V0Z" fill="#02D1D6"/>
<path d="M33.7962 0H32.2598V37.4857H33.7962V0Z" fill="#02D2D5"/>
<path d="M35.3333 0H33.7969V37.4857H35.3333V0Z" fill="#02D3D4"/>
<path d="M36.8695 0H35.333V37.4857H36.8695V0Z" fill="#01D4D3"/>
<path d="M38.4055 0H36.869V37.4857H38.4055V0Z" fill="#01D5D2"/>
<path d="M39.9417 0H38.4053V37.4857H39.9417V0Z" fill="#01D6D1"/>
<path d="M41.4769 0H39.9404V37.4857H41.4769V0Z" fill="#01D7D0"/>
<path d="M43.0133 0H41.4768V37.4857H43.0133V0Z" fill="#01D8D0"/>
<path d="M44.5511 0H43.0146V37.4857H44.5511V0Z" fill="#01D9CF"/>
<path d="M46.0872 0H44.5508V37.4857H46.0872V0Z" fill="#01DACE"/>
<path d="M47.6224 0H46.0859V37.4857H47.6224V0Z" fill="#01DACE"/>
<path d="M49.1586 0H47.6222V37.4857H49.1586V0Z" fill="#01DBCD"/>
<path d="M50.6945 0H49.1581V37.4857H50.6945V0Z" fill="#01DCCD"/>
<path d="M52.2308 0H50.6943V37.4857H52.2308V0Z" fill="#01DCCC"/>
<path d="M53.7659 0H52.2295V37.4857H53.7659V0Z" fill="#01DDCC"/>
<path d="M55.304 0H53.7676V37.4857H55.304V0Z" fill="#01DDCB"/>
<path d="M56.8399 0H55.3035V37.4857H56.8399V0Z" fill="#01DECB"/>
<path d="M58.3763 0H56.8398V37.4857H58.3763V0Z" fill="#01DECB"/>
<path d="M59.9115 0H58.375V37.4857H59.9115V0Z" fill="#01DFCA"/>
<path d="M61.4494 0H59.913V37.4857H61.4494V0Z" fill="#01DFCA"/>
<path d="M62.9836 0H61.4471V37.4857H62.9836V0Z" fill="#01DFCA"/>
<path d="M64.5208 0H62.9844V37.4857H64.5208V0Z" fill="#01DFCA"/>
<path d="M66.0572 0H64.5208V37.4857H66.0572V0Z" fill="#01E0C9"/>
<path d="M67.5931 0H66.0566V37.4857H67.5931V0Z" fill="#01E0C9"/>
<path d="M69.129 0H67.5925V37.4857H69.129V0Z" fill="#01E0C9"/>
<path d="M70.6654 0H69.1289V37.4857H70.6654V0Z" fill="#01E0C9"/>
<path d="M72.2026 0H70.6661V37.4857H72.2026V0Z" fill="#01E0C9"/>
<path d="M73.7368 0H72.2003V37.4857H73.7368V0Z" fill="#01E0C9"/>
<path d="M32.2601 28.7598H31.2998V30.1561H32.2601V28.7598Z" fill="#02D1D6"/>
<path d="M33.7962 28.7598H32.2598V30.1561H33.7962V28.7598Z" fill="#02D2D5"/>
<path d="M35.3333 28.7598H33.7969V30.1561H35.3333V28.7598Z" fill="#02D3D4"/>
<path d="M36.8695 28.7598H35.333V30.1561H36.8695V28.7598Z" fill="#01D4D3"/>
<path d="M38.4056 28.7598H36.8691V30.1561H38.4056V28.7598Z" fill="#01D5D2"/>
<path d="M38.5645 28.7598H38.4053V30.1561H38.5645V28.7598Z" fill="#01D6D1"/>
<path d="M32.2601 21.0488H31.2998V22.4451H32.2601V21.0488Z" fill="#02D1D6"/>
<path d="M33.7962 21.0488H32.2598V22.4451H33.7962V21.0488Z" fill="#02D2D5"/>
<path d="M35.3333 21.0488H33.7969V22.4451H35.3333V21.0488Z" fill="#02D3D4"/>
<path d="M36.8695 21.0488H35.333V22.4451H36.8695V21.0488Z" fill="#01D4D3"/>
<path d="M38.4056 21.0488H36.8691V22.4451H38.4056V21.0488Z" fill="#01D5D2"/>
<path d="M38.5645 21.0488H38.4053V22.4451H38.5645V21.0488Z" fill="#01D6D1"/>
<path d="M32.2601 13.3359H31.2998V14.7322H32.2601V13.3359Z" fill="#02D1D6"/>
<path d="M33.7962 13.3359H32.2598V14.7322H33.7962V13.3359Z" fill="#02D2D5"/>
<path d="M35.3333 13.3359H33.7969V14.7322H35.3333V13.3359Z" fill="#02D3D4"/>
<path d="M36.8695 13.3359H35.333V14.7322H36.8695V13.3359Z" fill="#01D4D3"/>
<path d="M38.4056 13.3359H36.8691V14.7322H38.4056V13.3359Z" fill="#01D5D2"/>
<path d="M38.5645 13.3359H38.4053V14.7322H38.5645V13.3359Z" fill="#01D6D1"/>
<path d="M19.9701 28.7598H18.9648V30.1561H19.9701V28.7598Z" fill="#02C6DF"/>
<path d="M21.5072 28.7598H19.9707V30.1561H21.5072V28.7598Z" fill="#02C8DE"/>
<path d="M23.0433 28.7598H21.5068V30.1561H23.0433V28.7598Z" fill="#02C9DC"/>
<path d="M24.5804 28.7598H23.0439V30.1561H24.5804V28.7598Z" fill="#02CBDB"/>
<path d="M26.1146 28.7598H24.5781V30.1561H26.1146V28.7598Z" fill="#02CCDA"/>
<path d="M26.2313 28.7598H26.1162V30.1561H26.2313V28.7598Z" fill="#02CDD9"/>
<path d="M19.9701 21.0488H18.9648V22.4451H19.9701V21.0488Z" fill="#02C6DF"/>
<path d="M21.5072 21.0488H19.9707V22.4451H21.5072V21.0488Z" fill="#02C8DE"/>
<path d="M23.0433 21.0488H21.5068V22.4451H23.0433V21.0488Z" fill="#02C9DC"/>
<path d="M24.5804 21.0488H23.0439V22.4451H24.5804V21.0488Z" fill="#02CBDB"/>
<path d="M26.1146 21.0488H24.5781V22.4451H26.1146V21.0488Z" fill="#02CCDA"/>
<path d="M26.2313 21.0488H26.1162V22.4451H26.2313V21.0488Z" fill="#02CDD9"/>
<path d="M19.9701 13.3359H18.9648V14.7322H19.9701V13.3359Z" fill="#02C6DF"/>
<path d="M21.5072 13.3359H19.9707V14.7322H21.5072V13.3359Z" fill="#02C8DE"/>
<path d="M23.0433 13.3359H21.5068V14.7322H23.0433V13.3359Z" fill="#02C9DC"/>
<path d="M24.5804 13.3359H23.0439V14.7322H24.5804V13.3359Z" fill="#02CBDB"/>
<path d="M26.1146 13.3359H24.5781V14.7322H26.1146V13.3359Z" fill="#02CCDA"/>
<path d="M26.2313 13.3359H26.1162V14.7322H26.2313V13.3359Z" fill="#02CDD9"/>
<path d="M7.68014 28.7598H6.62988V30.1561H7.68014V28.7598Z" fill="#03B8EB"/>
<path d="M9.21809 28.7598H7.68164V30.1561H9.21809V28.7598Z" fill="#03BAE9"/>
<path d="M10.7533 28.7598H9.2168V30.1561H10.7533V28.7598Z" fill="#02BCE8"/>
<path d="M12.2894 28.7598H10.7529V30.1561H12.2894V28.7598Z" fill="#02BEE6"/>
<path d="M13.8255 28.7598H12.2891V30.1561H13.8255V28.7598Z" fill="#02C0E5"/>
<path d="M13.8953 28.7598H13.8252V30.1561H13.8953V28.7598Z" fill="#02C1E3"/>
<path d="M7.68014 21.0488H6.62988V22.4451H7.68014V21.0488Z" fill="#03B8EB"/>
<path d="M9.21809 21.0488H7.68164V22.4451H9.21809V21.0488Z" fill="#03BAE9"/>
<path d="M10.7533 21.0488H9.2168V22.4451H10.7533V21.0488Z" fill="#02BCE8"/>
<path d="M12.2894 21.0488H10.7529V22.4451H12.2894V21.0488Z" fill="#02BEE6"/>
<path d="M13.8255 21.0488H12.2891V22.4451H13.8255V21.0488Z" fill="#02C0E5"/>
<path d="M13.8953 21.0488H13.8252V22.4451H13.8953V21.0488Z" fill="#02C1E3"/>
<path d="M7.68014 13.3359H6.62988V14.7322H7.68014V13.3359Z" fill="#03B8EB"/>
<path d="M9.21809 13.3359H7.68164V14.7322H9.21809V13.3359Z" fill="#03BAE9"/>
<path d="M10.7533 13.3359H9.2168V14.7322H10.7533V13.3359Z" fill="#02BCE8"/>
<path d="M12.2894 13.3359H10.7529V14.7322H12.2894V13.3359Z" fill="#02BEE6"/>
<path d="M13.8255 13.3359H12.2891V14.7322H13.8255V13.3359Z" fill="#02C0E5"/>
<path d="M13.8953 13.3359H13.8252V14.7322H13.8953V13.3359Z" fill="#02C1E3"/>
</g>
</svg>
