<svg width="112" height="112" viewBox="0 0 112 112" fill="none" xmlns="http://www.w3.org/2000/svg">
<path d="M55.72 111.44C86.4933 111.44 111.44 86.4933 111.44 55.72C111.44 24.9467 86.4933 0 55.72 0C24.9467 0 0 24.9467 0 55.72C0 86.4933 24.9467 111.44 55.72 111.44Z" fill="#182E56"/>
<path d="M32.6732 46.6268C33.2208 47.1694 33.9605 47.4738 34.7313 47.4738C35.5021 47.4738 36.2417 47.1694 36.7893 46.6268L39.6893 43.7218L42.5942 46.6268C43.1418 47.1694 43.8814 47.4738 44.6522 47.4738C45.423 47.4738 46.1628 47.1694 46.7103 46.6268C47.2352 46.0701 47.5275 45.334 47.5275 44.5688C47.5275 43.8037 47.2352 43.0676 46.7103 42.5109L43.8053 39.6058L46.7103 36.7008C47.2561 36.155 47.5627 35.4147 47.5627 34.6428C47.5627 33.8709 47.2561 33.1307 46.7103 32.5848C46.1645 32.039 45.4241 31.7324 44.6522 31.7324C43.8803 31.7324 43.1401 32.039 42.5942 32.5848L39.6893 35.4899L36.7893 32.5848C36.2435 32.039 35.5032 31.7324 34.7313 31.7324C33.9594 31.7324 33.219 32.039 32.6732 32.5848C32.1274 33.1307 31.8208 33.8709 31.8208 34.6428C31.8208 35.4147 32.1274 36.155 32.6732 36.7008L35.5782 39.6058L32.6732 42.5109C32.3872 42.772 32.1588 43.0899 32.0026 43.4442C31.8463 43.7986 31.7656 44.1816 31.7656 44.5688C31.7656 44.9561 31.8463 45.3391 32.0026 45.6935C32.1588 46.0478 32.3872 46.3657 32.6732 46.6268Z" fill="white" stroke="#172F57" stroke-miterlimit="10"/>
<path d="M76.4941 65.0262C75.9374 64.5014 75.2013 64.209 74.4362 64.209C73.671 64.209 72.9349 64.5014 72.3782 65.0262L69.4731 67.9313L66.6891 65.0262C66.1433 64.4804 65.403 64.1738 64.6311 64.1738C63.8592 64.1738 63.1189 64.4804 62.5731 65.0262C62.0273 65.5721 61.7207 66.3123 61.7207 67.0842C61.7207 67.8561 62.0273 68.5964 62.5731 69.1422L65.4781 72.0472L62.5731 74.9523C62.0483 75.509 61.756 76.2451 61.756 77.0103C61.756 77.7754 62.0483 78.5115 62.5731 79.0682C63.1207 79.6108 63.8603 79.9152 64.6311 79.9152C65.4019 79.9152 66.1415 79.6108 66.6891 79.0682L69.5941 76.1632L72.4991 79.0682C73.0467 79.6108 73.7863 79.9152 74.5571 79.9152C75.3279 79.9152 76.0676 79.6108 76.6151 79.0682C77.14 78.5115 77.4324 77.7754 77.4324 77.0103C77.4324 76.2451 77.14 75.509 76.6151 74.9523L73.7101 71.9263L76.6151 69.0212C76.8794 68.7562 77.0868 68.44 77.2245 68.092C77.3622 67.7441 77.4273 67.3717 77.416 66.9977C77.4047 66.6236 77.3171 66.2557 77.1586 65.9167C77 65.5778 76.7739 65.2748 76.4941 65.0262Z" fill="white" stroke="#172F57" stroke-miterlimit="10"/>
<path d="M39.5737 80.8774C41.67 80.8821 43.7014 80.1497 45.3123 78.8082C46.9233 77.4668 48.0114 75.6017 48.3864 73.5392C48.7614 71.4766 48.3994 69.3479 47.3637 67.5253C46.328 65.7026 44.6845 64.302 42.7206 63.5685C42.9382 62.1518 43.6564 60.86 44.7447 59.9272C45.833 58.9945 47.2194 58.4827 48.6527 58.4845H61.8467C65.0228 58.4771 68.0667 57.2121 70.3126 54.9663C72.5584 52.7205 73.8234 49.6766 73.8308 46.5005V40.4475L75.8878 42.5055C76.4349 43.0487 77.1747 43.3536 77.9457 43.3536C78.7168 43.3536 79.4566 43.0487 80.0037 42.5055C80.5283 41.9489 80.8204 41.2129 80.8204 40.448C80.8204 39.6831 80.5283 38.9471 80.0037 38.3905L72.9827 31.3695C72.4261 30.8449 71.6901 30.5527 70.9252 30.5527C70.1604 30.5527 69.4244 30.8449 68.8677 31.3695L61.8467 38.3905C61.3011 38.9363 60.9945 39.6766 60.9946 40.4484C60.9947 41.2202 61.3014 41.9603 61.8472 42.506C62.393 43.0517 63.1333 43.3581 63.9051 43.358C64.6769 43.3579 65.417 43.0513 65.9627 42.5055L68.0197 40.4475V46.5005C68.0195 48.1168 67.3856 49.6685 66.2541 50.8226C65.1226 51.9768 63.5837 52.6413 61.9677 52.6735H48.6527C45.6791 52.7074 42.823 53.8391 40.6332 55.8511C38.4435 57.8631 37.0747 60.6134 36.7897 63.5735C34.7672 64.2181 33.0431 65.5671 31.931 67.3752C30.8189 69.1834 30.3926 71.3308 30.7297 73.4266C31.0668 75.5225 32.1449 77.4278 33.7679 78.796C35.3909 80.1643 37.451 80.9046 39.5737 80.8824V80.8774ZM39.5737 68.8945C39.9878 68.8915 40.3985 68.9707 40.7817 69.1278C41.1649 69.2849 41.513 69.5166 41.8059 69.8094C42.0987 70.1023 42.3303 70.4504 42.4874 70.8336C42.6444 71.2168 42.7237 71.6274 42.7206 72.0415C42.7338 72.4583 42.6615 72.8735 42.508 73.2612C42.3545 73.649 42.1232 74.0012 41.8283 74.2961C41.5334 74.591 41.1812 74.8223 40.7934 74.9758C40.4056 75.1293 39.9905 75.2017 39.5737 75.1885C38.739 75.1885 37.9386 74.8569 37.3485 74.2667C36.7583 73.6765 36.4267 72.8761 36.4267 72.0415C36.4267 71.2069 36.7583 70.4065 37.3485 69.8163C37.9386 69.2261 38.739 68.8945 39.5737 68.8945Z" fill="white" stroke="#172F57" stroke-miterlimit="10"/>
</svg>
