<svg width="33" height="27" viewBox="0 0 33 27" fill="none" xmlns="http://www.w3.org/2000/svg">
<g opacity="0.5">
<path d="M9.29388 22.0566H9.30828C9.31385 22.0566 9.31836 22.0522 9.31836 22.0468V18.3711C9.31836 18.3657 9.31385 18.3613 9.30828 18.3613H9.29388C9.28832 18.3613 9.2838 18.3657 9.2838 18.3711V22.0468C9.2838 22.0522 9.28832 22.0566 9.29388 22.0566Z" fill="black"/>
<path d="M9.30636 22.2307H9.12146L9.10938 22.0455V18.2014L9.47276 18.1895L9.49479 18.3747V22.2187L9.30636 22.2307Z" fill="black"/>
</g>
<g opacity="0.5">
<path d="M23.2299 18.7639H15.8031L15.791 18.5794V14.9683L15.9788 14.957H23.4056L23.417 15.1416V18.7527L23.2299 18.7639ZM16.1423 18.4173H23.0657V15.3036H16.1437L16.1423 18.4173Z" fill="black"/>
</g>
<g opacity="0.5">
<path d="M23.2245 25.6914H9.1587L9.14233 25.502V21.9007L9.33435 21.8845H23.4001L23.4165 22.074V25.6753L23.2245 25.6914ZM9.49364 25.3448H23.0652V22.2311H9.49364V25.3448Z" fill="black"/>
</g>
<path d="M23.2072 26.0182H9.31636C9.17735 26.0161 9.04436 25.9619 8.94429 25.8667C8.84422 25.7715 8.78454 25.6423 8.77734 25.5053V15.0578C8.78437 14.9208 8.84399 14.7915 8.9441 14.6962C9.04421 14.601 9.1773 14.5469 9.31636 14.5449H23.2058C23.3449 14.5467 23.4781 14.6008 23.5782 14.696C23.6784 14.7913 23.7379 14.9207 23.7448 15.0578V25.5068C23.7374 25.6433 23.6779 25.772 23.5781 25.8669C23.4783 25.9619 23.3458 26.0159 23.2072 26.0182ZM9.79069 25.0205H22.7329V15.5419H9.79069V25.0205Z" fill="black"/>
<path d="M23.2074 26.191H9.31658C9.13153 26.1882 8.95462 26.1155 8.82231 25.9879C8.69 25.8602 8.61237 25.6873 8.60547 25.5048V15.0573C8.61237 14.8748 8.69 14.7019 8.82231 14.5742C8.95462 14.4466 9.13153 14.3738 9.31658 14.3711H23.206C23.391 14.374 23.5678 14.4468 23.7001 14.5744C23.8324 14.7021 23.91 14.8749 23.9171 15.0573V25.5062C23.9097 25.6882 23.8321 25.8604 23.7001 25.9877C23.5682 26.115 23.3919 26.1877 23.2074 26.191ZM9.31658 14.7156C9.22403 14.7178 9.13561 14.7538 9.06847 14.8167C9.00132 14.8795 8.96024 14.9648 8.95321 15.0559V25.5048C8.96025 25.5958 9.00135 25.681 9.06851 25.7438C9.13567 25.8065 9.22409 25.8424 9.31658 25.8444H23.206C23.2985 25.8424 23.3869 25.8065 23.4541 25.7438C23.5212 25.681 23.5623 25.5958 23.5694 25.5048V15.0573C23.5623 14.9662 23.5213 14.881 23.4541 14.8181C23.387 14.7552 23.2986 14.7191 23.206 14.717L9.31658 14.7156ZM22.9095 25.1926H9.6117V15.3702H22.9095V25.1926ZM9.96725 24.846H22.561V15.714H9.96725V24.846Z" fill="black"/>
<path d="M23.2413 18.3791H9.28503V18.6794H23.2413V18.3791Z" fill="black"/>
<path d="M23.4162 18.2051H9.10938V18.852H23.4162V18.2051Z" fill="black"/>
<path d="M23.2413 21.9084H9.28503V22.2087H23.2413V21.9084Z" fill="black"/>
<path d="M23.4162 21.7344H9.10938V22.3806H23.4162V21.7344Z" fill="black"/>
<path d="M16.3629 15.2168H16.0586V25.5177H16.3629V15.2168Z" fill="black"/>
<path d="M16.5385 15.0449H15.8828V25.6917H16.5385V15.0449Z" fill="black"/>
<path d="M23.2241 11.6478H9.33466C9.19559 11.646 9.06242 11.5921 8.96217 11.497C8.86193 11.4019 8.80214 11.2727 8.79492 11.1356V0.685984C8.80197 0.54889 8.86172 0.41959 8.962 0.324434C9.06228 0.229279 9.19554 0.175437 9.33466 0.173828H23.2241C23.3631 0.175614 23.4962 0.229554 23.5963 0.324691C23.6964 0.419829 23.7561 0.54901 23.7631 0.685984V11.1356C23.7559 11.2725 23.6962 11.4016 23.5961 11.4967C23.496 11.5918 23.363 11.6459 23.2241 11.6478ZM9.80684 10.6494H22.7491V1.1715H9.80684V10.6494Z" fill="black"/>
<path d="M23.2232 11.8199H9.3345C9.14888 11.818 8.9711 11.7459 8.83793 11.6183C8.70477 11.4907 8.62643 11.3174 8.61914 11.1344V0.684772C8.62678 0.501947 8.70524 0.328979 8.83835 0.201565C8.97146 0.074151 9.14906 0.0020016 9.3345 0H23.2232C23.4087 0.0020016 23.5863 0.074151 23.7194 0.201565C23.8525 0.328979 23.931 0.501947 23.9386 0.684772V11.1344C23.9313 11.3174 23.853 11.4907 23.7198 11.6183C23.5866 11.7459 23.4088 11.818 23.2232 11.8199ZM9.3345 0.346604C9.24212 0.3484 9.15372 0.383976 9.08644 0.446466C9.01916 0.508956 8.97781 0.593898 8.97042 0.684772V11.1344C8.97778 11.2254 9.01908 11.3105 9.08633 11.3732C9.15357 11.436 9.24199 11.4719 9.3345 11.474H23.2232C23.3157 11.4719 23.4041 11.436 23.4714 11.3732C23.5386 11.3105 23.5799 11.2254 23.5873 11.1344V0.684772C23.5799 0.593898 23.5386 0.508956 23.4713 0.446466C23.404 0.383976 23.3156 0.3484 23.2232 0.346604H9.3345ZM22.9267 10.8222H9.62891V0.999774H22.9267V10.8222ZM9.98446 10.4756H22.5775V1.34428H9.98233L9.98446 10.4756Z" fill="black"/>
<path d="M23.257 4.00977H9.30078V4.31005H23.257V4.00977Z" fill="black"/>
<path d="M23.4318 3.83594H9.125V4.48211H23.4318V3.83594Z" fill="black"/>
<path d="M23.257 7.53711H9.30078V7.83739H23.257V7.53711Z" fill="black"/>
<path d="M23.4318 7.36523H9.125V8.01141H23.4318V7.36523Z" fill="black"/>
<path d="M16.3786 0.849609H16.0742V11.1498H16.3786V0.849609Z" fill="black"/>
<path d="M16.5534 0.675781H15.8984V11.3226H16.5534V0.675781Z" fill="black"/>
<path d="M4.20894 20.1552C4.11793 20.1551 4.02895 20.1288 3.95295 20.0794C2.80119 19.395 1.84814 18.4287 1.1862 17.2741C0.524259 16.1195 0.175873 14.8157 0.174805 13.4892C0.174805 11.0989 2.02938 6.9896 7.13587 5.46572C7.19519 5.44684 7.25772 5.43981 7.31983 5.44503C7.38194 5.45026 7.44236 5.46761 7.49759 5.49612C7.55281 5.52464 7.60174 5.56373 7.64149 5.6111C7.68124 5.65847 7.71103 5.71317 7.72912 5.77203C7.74721 5.83088 7.75321 5.89268 7.74683 5.95385C7.74044 6.01502 7.72177 6.07433 7.6919 6.12831C7.66203 6.18228 7.62155 6.22987 7.57285 6.26825C7.52414 6.30663 7.46818 6.33503 7.40822 6.35184C2.79027 7.73049 1.11491 11.3753 1.11491 13.4892C1.11777 14.6613 1.42791 15.8128 2.01517 16.8318C2.60243 17.8507 3.44684 18.7024 4.46636 19.3041C4.5512 19.3586 4.6159 19.4388 4.65078 19.5326C4.68566 19.6264 4.68887 19.7288 4.65991 19.8245C4.63096 19.9203 4.57138 20.0042 4.4901 20.0638C4.40882 20.1234 4.3102 20.1554 4.20894 20.1552Z" fill="black"/>
<path d="M4.20907 20.3279C4.084 20.3277 3.96169 20.2916 3.85707 20.224C2.68041 19.5244 1.70698 18.5367 1.03118 17.3566C0.355391 16.1765 0.00016789 14.8441 0 13.4886C0 11.047 1.88659 6.85007 7.08552 5.29953C7.16743 5.27204 7.25409 5.26109 7.34038 5.26733C7.42667 5.27357 7.51081 5.2969 7.58778 5.33589C7.66475 5.37487 7.73297 5.42875 7.78841 5.49429C7.84384 5.55983 7.88535 5.6357 7.91045 5.71739C7.93556 5.79908 7.94374 5.88491 7.93452 5.96979C7.92531 6.05466 7.89888 6.13684 7.85681 6.21143C7.81474 6.28602 7.75789 6.3515 7.68964 6.40396C7.6214 6.45643 7.54316 6.49483 7.45956 6.51684C2.93335 7.86813 1.29067 11.428 1.29067 13.4886C1.29408 14.6317 1.5971 15.7546 2.17027 16.748C2.74344 17.7415 3.56728 18.5718 4.56178 19.1583C4.67852 19.2333 4.76752 19.3436 4.81543 19.4727C4.86334 19.6017 4.86758 19.7427 4.82756 19.8743C4.78753 20.006 4.70538 20.1213 4.59338 20.2031C4.48137 20.2848 4.34555 20.3286 4.20623 20.3279H4.20907ZM7.27324 5.61946C7.24366 5.61932 7.21422 5.62336 7.18578 5.6314C2.17174 7.12722 0.350586 11.1495 0.350586 13.4894C0.351716 14.787 0.692773 16.0622 1.34067 17.1914C1.98856 18.3207 2.9213 19.2655 4.04837 19.9342C4.11378 19.9751 4.19274 19.9892 4.26853 19.9736C4.34432 19.9581 4.41098 19.914 4.4544 19.8507C4.47553 19.8187 4.49005 19.7829 4.49713 19.7454C4.50421 19.7078 4.50371 19.6692 4.49566 19.6319C4.48809 19.5945 4.4729 19.5591 4.45102 19.5277C4.42913 19.4964 4.40101 19.4697 4.36836 19.4495C3.32436 18.832 2.45989 17.9588 1.85883 16.9145C1.25777 15.8702 0.940544 14.6903 0.937955 13.4894C0.937955 11.3235 2.64462 7.59166 7.35644 6.18565C7.39338 6.17483 7.42778 6.15691 7.45763 6.13285C7.48748 6.1088 7.5122 6.07914 7.53033 6.04558C7.54846 6.01203 7.55963 5.97523 7.56323 5.93737C7.56683 5.89951 7.56278 5.86134 7.5513 5.82505C7.53385 5.76565 7.49729 5.71345 7.44713 5.67637C7.39697 5.63928 7.33592 5.6193 7.27324 5.61946Z" fill="black"/>
<path d="M4.67124 17.2324L7.27604 21.0695L2.60547 21.3775L4.67124 17.2324Z" fill="black"/>
<path d="M2.31348 21.5733L4.64807 16.8887L7.59205 21.2252L2.31348 21.5733ZM4.69214 17.5833L2.89447 21.1888L6.95846 20.9208L4.69214 17.5833Z" fill="black"/>
<path d="M25.2509 21.535C25.1382 21.5353 25.0291 21.4956 24.9436 21.423C24.8581 21.3505 24.8019 21.2501 24.7854 21.14C24.7688 21.03 24.7929 20.9178 24.8533 20.8239C24.9137 20.73 25.0064 20.6606 25.1144 20.6286C29.6996 19.2604 31.407 15.5244 31.407 13.4912C31.404 12.3192 31.0939 11.1678 30.5068 10.1489C29.9197 9.13007 29.0755 8.27828 28.0562 7.6763C27.9631 7.60485 27.9006 7.50139 27.8813 7.38656C27.862 7.27173 27.8872 7.15393 27.9519 7.05661C28.0166 6.9593 28.1162 6.88961 28.2307 6.86143C28.3451 6.83325 28.4662 6.84865 28.5697 6.90455C29.7215 7.58878 30.6745 8.55507 31.3363 9.70972C31.9982 10.8644 32.3463 12.1682 32.3471 13.4947C32.3471 15.885 30.4925 19.9943 25.3867 21.5182C25.3426 21.5306 25.2968 21.5362 25.2509 21.535Z" fill="black"/>
<path d="M25.2507 21.7087C25.1124 21.7081 24.9778 21.6639 24.8668 21.5824C24.7557 21.501 24.674 21.3867 24.6335 21.2562C24.5837 21.0951 24.6007 20.9212 24.6807 20.7725C24.7606 20.6238 24.8971 20.5123 25.0601 20.4627C29.5537 19.1212 31.2283 15.475 31.2283 13.4908C31.2247 12.3479 30.9216 11.2252 30.3484 10.2319C29.7753 9.23859 28.9516 8.40839 27.9572 7.82189C27.8862 7.77623 27.825 7.71722 27.7771 7.64821C27.7293 7.57919 27.6956 7.50155 27.6782 7.41971C27.6608 7.33786 27.6599 7.25344 27.6755 7.17125C27.6912 7.08906 27.7231 7.0107 27.7695 6.94069C27.8154 6.87018 27.875 6.80937 27.945 6.76183C28.0149 6.71429 28.0937 6.68098 28.1769 6.66381C28.26 6.64663 28.3458 6.64593 28.4292 6.66179C28.5126 6.67765 28.5919 6.70974 28.6626 6.75617C29.8392 7.45583 30.8126 8.4436 31.4884 9.62369C32.1642 10.8038 32.5195 12.1362 32.5197 13.4916C32.5197 15.9338 30.6331 20.1308 25.4349 21.6814C25.3753 21.6997 25.3132 21.7089 25.2507 21.7087ZM28.3085 6.99825C28.2599 6.99791 28.2121 7.00984 28.1695 7.03293C28.1269 7.05602 28.091 7.08949 28.0653 7.13014C28.0439 7.16187 28.0291 7.19744 28.0218 7.23484C28.0144 7.27225 28.0146 7.31075 28.0224 7.34806C28.0302 7.38538 28.0455 7.42077 28.0672 7.45225C28.089 7.48373 28.1168 7.51064 28.1492 7.53143C29.1931 8.14882 30.0575 9.02201 30.6586 10.0662C31.2596 11.1103 31.5769 12.29 31.5796 13.4908C31.5796 15.5739 29.8374 19.399 25.1618 20.7952C25.0876 20.8179 25.0254 20.8686 24.9889 20.9363C24.9524 21.004 24.9446 21.0832 24.967 21.1566C24.9895 21.2297 25.0404 21.291 25.1087 21.3272C25.1769 21.3633 25.2569 21.3713 25.3311 21.3495C30.348 19.8523 32.1684 15.83 32.1684 13.4916C32.167 12.1941 31.8258 10.919 31.178 9.78997C30.5301 8.6609 29.5975 7.71612 28.4706 7.04732C28.4234 7.01614 28.3681 6.99912 28.3113 6.99825H28.3085Z" fill="black"/>
<path d="M27.851 9.74537L25.2462 5.90759L29.9168 5.59961L27.851 9.74537Z" fill="black"/>
<path d="M27.8755 10.0924L24.9308 5.7551L30.2094 5.4043L27.8755 10.0924ZM25.5615 6.06166L27.8286 9.39988L29.6255 5.79437L25.5615 6.06166Z" fill="black"/>
<path d="M23.0642 14.7832H16.2617V18.5957H23.0642V14.7832Z" fill="black"/>
<path d="M16.3787 22.2988H9.2832V25.5865H16.3787V22.2988Z" fill="black"/>
</svg>
