<?xml version="1.0" encoding="utf-8"?>
<!-- Generator: Adobe Illustrator 24.3.0, SVG Export Plug-In . SVG Version: 6.00 Build 0)  -->
<svg version="1.1" id="Layer_1" xmlns="http://www.w3.org/2000/svg" xmlns:xlink="http://www.w3.org/1999/xlink" x="0px" y="0px"
	 viewBox="0 0 282.8 209.6" style="enable-background:new 0 0 282.8 209.6;" xml:space="preserve">
<style type="text/css">
	.st0{opacity:0.65;}
	.st1{fill:none;stroke:#7D4D4B;stroke-width:0.8686;stroke-miterlimit:10;}
	.st2{fill:#7D4D4B;}
	.st3{opacity:0.83;fill:#828D9E;enable-background:new    ;}
	.st4{fill:#FFFFFF;}
	.st5{font-family:'HelveticaNeue';}
	.st6{font-size:12.4083px;}
	.st7{fill:#1B345D;}
	.st8{font-size:11.1674px;}
	.st9{font-family:'Inconsolata-Regular';}
	.st10{font-size:12.7103px;}
	.st11{fill:none;stroke:#19335D;stroke-width:0.834;stroke-miterlimit:10;}
	.st12{fill:none;stroke:#19335D;stroke-width:1.8612;stroke-miterlimit:10;}
	.st13{fill:none;stroke:#19335D;stroke-width:0.6204;stroke-miterlimit:10;}
	.st14{fill:none;stroke:#19335D;stroke-width:0.3722;stroke-miterlimit:10;}
</style>
<g class="st0">
	<g>
		<g>
			<line class="st1" x1="58.6" y1="96.6" x2="58.6" y2="106.8"/>
			<g>
				<polygon class="st2" points="53,105.1 58.6,114.9 64.3,105.1 				"/>
			</g>
		</g>
	</g>
	<g>
		<g>
			<polyline class="st1" points="128.8,53.8 133,53.8 133,105.7 138.9,105.7 			"/>
			<g>
				<polygon class="st2" points="137.3,111.4 147,105.7 137.3,100.1 				"/>
			</g>
		</g>
	</g>
	<rect x="0.8" y="0.4" class="st3" width="123.1" height="25.1"/>
	<g>
		<text transform="matrix(1 0 0 1 21.788 17.0455)" class="st4 st5 st6">movies2actors</text>
	</g>
	<g>
		<text transform="matrix(1 0 0 1 11.0987 42.1754)" class="st7 st5 st8">movieid</text>
		<text transform="matrix(1 0 0 1 13.2987 62.0754)" class="st7 st5 st8">actorid</text>
		<text transform="matrix(1 0 0 1 6.2987 81.8754)" class="st7 st5 st8">cast_num</text>
	</g>
	<text transform="matrix(1 0 0 1 84.3268 42.1754)" class="st7 st9 st10">id</text>
	<text transform="matrix(1 0 0 1 84.3268 62.0754)" class="st7 st9 st10">id</text>
	<text transform="matrix(1 0 0 1 81.1492 81.8754)" class="st7 st9 st10">int</text>
	<rect x="0.4" y="0.4" class="st11" width="123.5" height="88.6"/>
	<line class="st12" x1="0.8" y1="25.5" x2="123.9" y2="25.5"/>
	<line class="st13" x1="60.1" y1="89.2" x2="60.1" y2="25.7"/>
	<path class="st13" d="M123.9,68.8"/>
	<line class="st14" x1="0.4" y1="47.8" x2="123.9" y2="47.8"/>
	<line class="st14" x1="0.4" y1="68.8" x2="123.9" y2="68.8"/>
	<rect x="152.3" y="40.1" class="st3" width="130.1" height="25.1"/>
	<g>
		<text transform="matrix(1 0 0 1 197.584 57.0436)" class="st4 st5 st6">movies</text>
	</g>
	<g>
		<text transform="matrix(1 0 0 1 166.583 80.9362)" class="st7 st5 st8">movieid</text>
		<text transform="matrix(1 0 0 1 175.483 101.2362)" class="st7 st5 st8">year</text>
		<text transform="matrix(1 0 0 1 163.983 121.6362)" class="st7 st5 st8">isEnglish</text>
		<text transform="matrix(1 0 0 1 167.283 141.9362)" class="st7 st5 st8">country</text>
		<text transform="matrix(1 0 0 1 156.683 162.3362)" class="st7 st5 st8">runningtime</text>
	</g>
	<g>
		<text transform="matrix(1 0 0 1 237.7338 80.9362)" class="st7 st9 st10">pkey</text>
	</g>
	<g>
		<text transform="matrix(1 0 0 1 240.9114 101.2362)" class="st7 st9 st10">int</text>
	</g>
	<g>
		<text transform="matrix(1 0 0 1 237.7335 121.6362)" class="st7 st9 st10">enum</text>
	</g>
	<g>
		<text transform="matrix(1 0 0 1 228.2009 141.9362)" class="st7 st9 st10">varchar</text>
	</g>
	<g>
		<text transform="matrix(1 0 0 1 240.9114 162.3362)" class="st7 st9 st10">int</text>
	</g>
	<rect x="151.9" y="40.4" class="st11" width="130.5" height="130.6"/>
	<line class="st12" x1="152.3" y1="65.5" x2="282.4" y2="65.5"/>
	<line class="st13" x1="218.6" y1="171" x2="218.6" y2="65.7"/>
	<path class="st13" d="M282.4,108.8"/>
	<line class="st14" x1="151.9" y1="87.8" x2="282.4" y2="87.8"/>
	<line class="st14" x1="151.9" y1="108.8" x2="282.4" y2="108.8"/>
	<line class="st14" x1="151.9" y1="129.2" x2="282.4" y2="129.2"/>
	<line class="st14" x1="151.9" y1="150.1" x2="282.4" y2="150.1"/>
	<rect x="0.8" y="120.6" class="st3" width="123.1" height="25.1"/>
	<g>
		<text transform="matrix(1 0 0 1 45.0036 137.2203)" class="st4 st5 st6">actors</text>
	</g>
	<g>
		<text transform="matrix(1 0 0 1 13.2764 162.3502)" class="st7 st5 st8">actorid</text>
		<text transform="matrix(1 0 0 1 7.3764 182.2502)" class="st7 st5 st8">a_gender</text>
		<text transform="matrix(1 0 0 1 8.3764 202.0502)" class="st7 st5 st8">a_quality</text>
	</g>
	<g>
		<text transform="matrix(1 0 0 1 78.9719 162.3502)" class="st7 st9 st10">pkey</text>
	</g>
	<g>
		<text transform="matrix(1 0 0 1 78.972 182.2502)" class="st7 st9 st10">enum</text>
	</g>
	<g>
		<text transform="matrix(1 0 0 1 82.1494 202.0502)" class="st7 st9 st10">int</text>
	</g>
	<rect x="0.4" y="120.6" class="st11" width="123.5" height="88.6"/>
	<line class="st12" x1="0.8" y1="145.7" x2="123.9" y2="145.7"/>
	<line class="st13" x1="60.1" y1="209.3" x2="60.1" y2="145.9"/>
	<line class="st14" x1="0.4" y1="168" x2="123.9" y2="168"/>
	<line class="st14" x1="0.4" y1="188.9" x2="123.9" y2="188.9"/>
</g>
</svg>
