<svg width="37" height="28" viewBox="0 0 37 28" fill="none" xmlns="http://www.w3.org/2000/svg">
<path d="M14.2427 6.85503H10.0357C10.0049 6.85632 9.97421 6.85129 9.94549 6.84025C9.91678 6.82922 9.89069 6.81242 9.8689 6.79092C9.84711 6.76942 9.83008 6.74368 9.81889 6.71534C9.8077 6.68701 9.80261 6.65669 9.80391 6.62631V1.59931C9.8026 1.56896 9.80769 1.53871 9.81889 1.51041C9.83008 1.48211 9.84713 1.45641 9.86893 1.43496C9.89074 1.41351 9.91683 1.39676 9.94555 1.3858C9.97426 1.37484 10.005 1.36993 10.0357 1.37132H14.2427C14.2734 1.37003 14.304 1.37505 14.3326 1.38606C14.3613 1.39706 14.3873 1.41378 14.409 1.43522C14.4307 1.45665 14.4477 1.48233 14.4588 1.51058C14.47 1.53883 14.4751 1.56902 14.4738 1.59931V6.58842C14.4834 6.62182 14.4845 6.65708 14.477 6.69102C14.4695 6.72496 14.4536 6.75652 14.4307 6.78292C14.4078 6.80931 14.3787 6.82973 14.3459 6.84231C14.3131 6.85489 14.2776 6.85925 14.2427 6.85503ZM10.3052 6.3597H14.0108V1.86592H10.3052V6.3597Z" fill="black"/>
<path d="M14.2429 26.5044H10.036C10.0052 26.5057 9.97445 26.5007 9.94574 26.4896C9.91702 26.4786 9.89093 26.4618 9.86914 26.4403C9.84735 26.4188 9.83032 26.3931 9.81913 26.3647C9.80794 26.3364 9.80285 26.3061 9.80416 26.2757V21.2873C9.80285 21.2569 9.80794 21.2266 9.81913 21.1983C9.83032 21.1699 9.84735 21.1442 9.86914 21.1227C9.89093 21.1012 9.91702 21.0844 9.94574 21.0733C9.97445 21.0623 10.0052 21.0573 10.036 21.0586H14.2429C14.2736 21.0574 14.3043 21.0625 14.3329 21.0736C14.3616 21.0846 14.3875 21.1015 14.4093 21.123C14.431 21.1445 14.4479 21.1701 14.4591 21.1984C14.4702 21.2267 14.4753 21.257 14.474 21.2873V26.2729C14.5131 26.39 14.3972 26.5044 14.2429 26.5044ZM10.3055 26.0091H14.0111V21.5153H10.3055V26.0091Z" fill="black"/>
<path d="M26.8227 6.85503H22.6158C22.585 6.85632 22.5543 6.85129 22.5256 6.84025C22.4969 6.82922 22.4708 6.81242 22.449 6.79092C22.4272 6.76942 22.4102 6.74368 22.399 6.71534C22.3878 6.68701 22.3827 6.65669 22.384 6.62631V1.59931C22.3827 1.56896 22.3878 1.53871 22.399 1.51041C22.4102 1.48211 22.4272 1.45641 22.449 1.43496C22.4708 1.41351 22.4969 1.39676 22.5256 1.3858C22.5543 1.37484 22.585 1.36993 22.6158 1.37132H26.8227C26.8535 1.37004 26.8841 1.37506 26.9128 1.38606C26.9415 1.39705 26.9675 1.41379 26.9893 1.43522C27.0111 1.45664 27.0281 1.48225 27.0393 1.5105C27.0506 1.53875 27.0558 1.56899 27.0546 1.59931V6.58842C27.0632 6.6218 27.0635 6.65675 27.0555 6.69029C27.0476 6.72383 27.0315 6.75497 27.0088 6.78112C26.9861 6.80726 26.9573 6.82765 26.9249 6.84051C26.8925 6.85337 26.8575 6.85834 26.8227 6.85503ZM22.886 6.3597H26.5909V1.86592H22.886V6.3597Z" fill="black"/>
<path d="M26.8227 26.5046H22.6158C22.585 26.5059 22.5543 26.5009 22.5256 26.4899C22.4969 26.4788 22.4708 26.462 22.449 26.4405C22.4272 26.419 22.4102 26.3933 22.399 26.365C22.3878 26.3366 22.3827 26.3063 22.384 26.2759V21.2875C22.3827 21.2571 22.3878 21.2268 22.399 21.1985C22.4102 21.1701 22.4272 21.1444 22.449 21.1229C22.4708 21.1014 22.4969 21.0846 22.5256 21.0736C22.5543 21.0625 22.585 21.0575 22.6158 21.0588H26.8227C26.8535 21.0575 26.8843 21.0625 26.913 21.0736C26.9417 21.0846 26.9678 21.1014 26.9896 21.1229C27.0114 21.1444 27.0284 21.1701 27.0396 21.1985C27.0508 21.2268 27.0559 21.2571 27.0546 21.2875V26.2731C27.0951 26.3903 26.9792 26.5046 26.8227 26.5046ZM22.886 26.0093H26.5909V21.5155H22.886V26.0093Z" fill="black"/>
<path d="M14.2427 11.8433H10.0357C10.0049 11.8446 9.97421 11.8395 9.94549 11.8285C9.91677 11.8175 9.89069 11.8007 9.8689 11.7792C9.8471 11.7577 9.83007 11.7319 9.81889 11.7036C9.8077 11.6753 9.8026 11.6449 9.80391 11.6146V6.58829C9.8026 6.55791 9.8077 6.52759 9.81889 6.49926C9.83007 6.47093 9.8471 6.44518 9.8689 6.42368C9.89069 6.40218 9.91677 6.38538 9.94549 6.37435C9.97421 6.36331 10.0049 6.35828 10.0357 6.35957H14.2427C14.2734 6.35838 14.304 6.36348 14.3327 6.37456C14.3613 6.38564 14.3873 6.40249 14.409 6.42398C14.4307 6.44547 14.4477 6.47115 14.4588 6.49943C14.47 6.52771 14.4751 6.55797 14.4738 6.58829V11.5767C14.4834 11.6101 14.4845 11.6453 14.477 11.6793C14.4695 11.7132 14.4536 11.7448 14.4307 11.7712C14.4078 11.7976 14.3787 11.818 14.3459 11.8306C14.3131 11.8431 14.2776 11.8475 14.2427 11.8433ZM10.3052 11.3479H14.0108V6.85773H10.3052V11.3479Z" fill="black"/>
<path d="M14.2429 16.8314H10.036C10.0052 16.8327 9.97458 16.8277 9.94591 16.8167C9.91724 16.8057 9.89119 16.789 9.86941 16.7675C9.84763 16.7461 9.83059 16.7205 9.81936 16.6922C9.80813 16.664 9.80295 16.6337 9.80416 16.6034V11.5764C9.80285 11.546 9.80794 11.5157 9.81913 11.4874C9.83032 11.459 9.84735 11.4333 9.86914 11.4118C9.89093 11.3903 9.91702 11.3735 9.94574 11.3625C9.97445 11.3514 10.0052 11.3464 10.036 11.3477H14.2429C14.2736 11.3465 14.3043 11.3516 14.3329 11.3627C14.3616 11.3738 14.3875 11.3906 14.4093 11.4121C14.431 11.4336 14.4479 11.4593 14.4591 11.4876C14.4702 11.5158 14.4753 11.5461 14.474 11.5764V16.5648C14.4837 16.5982 14.4848 16.6335 14.4773 16.6674C14.4698 16.7013 14.4539 16.7329 14.431 16.7593C14.4081 16.7857 14.3789 16.8061 14.3461 16.8187C14.3133 16.8313 14.2778 16.8357 14.2429 16.8314ZM10.3055 16.3368H14.0111V11.843H10.3055V16.3368Z" fill="black"/>
<path d="M10.0363 11.8433H5.86776C5.83696 11.8446 5.80624 11.8395 5.77752 11.8285C5.7488 11.8175 5.72272 11.8007 5.70093 11.7792C5.67913 11.7577 5.6621 11.7319 5.65092 11.7036C5.63973 11.6753 5.63464 11.6449 5.63594 11.6146V6.58829C5.63464 6.55791 5.63973 6.52759 5.65092 6.49926C5.6621 6.47093 5.67913 6.44518 5.70093 6.42368C5.72272 6.40218 5.7488 6.38538 5.77752 6.37435C5.80624 6.36331 5.83696 6.35828 5.86776 6.35957H10.0747C10.1054 6.35838 10.1361 6.36348 10.1647 6.37456C10.1933 6.38564 10.2193 6.40249 10.2411 6.42398C10.2628 6.44547 10.2797 6.47115 10.2909 6.49943C10.302 6.52771 10.3071 6.55797 10.3058 6.58829V11.5767C10.3068 11.6119 10.3005 11.6469 10.2873 11.6797C10.2741 11.7124 10.2543 11.7422 10.2291 11.7671C10.2039 11.792 10.1738 11.8116 10.1406 11.8247C10.1075 11.8378 10.072 11.8441 10.0363 11.8433ZM6.09888 11.3479H9.80447V6.85773H6.09888V11.3479Z" fill="black"/>
<path d="M14.2427 21.668H10.0357C10.005 21.6694 9.97426 21.6645 9.94555 21.6535C9.91683 21.6425 9.89074 21.6258 9.86893 21.6043C9.84713 21.5829 9.83008 21.5572 9.81889 21.5289C9.80769 21.5006 9.8026 21.4703 9.80391 21.44V16.4509C9.80271 16.4206 9.80788 16.3903 9.81912 16.3621C9.83035 16.3338 9.84739 16.3082 9.86917 16.2867C9.89095 16.2653 9.917 16.2486 9.94567 16.2376C9.97433 16.2266 10.005 16.2216 10.0357 16.2229H14.2427C14.2734 16.2216 14.304 16.2266 14.3326 16.2376C14.3613 16.2486 14.3873 16.2654 14.409 16.2868C14.4307 16.3082 14.4477 16.3339 14.4588 16.3621C14.47 16.3904 14.4751 16.4206 14.4738 16.4509V21.44C14.5129 21.5543 14.397 21.668 14.2427 21.668ZM10.3052 21.1769H14.0108V16.6831H10.3052V21.1769Z" fill="black"/>
<path d="M10.0363 21.668H5.86776C5.837 21.6694 5.8063 21.6645 5.77758 21.6535C5.74886 21.6425 5.72277 21.6258 5.70096 21.6043C5.67916 21.5829 5.66211 21.5572 5.65092 21.5289C5.63972 21.5006 5.63463 21.4703 5.63594 21.44V16.4509C5.63474 16.4206 5.63991 16.3903 5.65115 16.3621C5.66238 16.3338 5.67942 16.3082 5.7012 16.2867C5.72298 16.2653 5.74903 16.2486 5.7777 16.2376C5.80637 16.2266 5.83703 16.2216 5.86776 16.2229H10.0747C10.1054 16.2216 10.136 16.2266 10.1647 16.2376C10.1933 16.2486 10.2193 16.2654 10.241 16.2868C10.2627 16.3082 10.2797 16.3339 10.2909 16.3621C10.302 16.3904 10.3071 16.4206 10.3058 16.4509V21.44C10.2993 21.5049 10.2677 21.5649 10.2174 21.6074C10.1672 21.6499 10.1023 21.6715 10.0363 21.668ZM6.09888 21.1769H9.80447V16.6831H6.09888V21.1769Z" fill="black"/>
<path d="M31.0319 11.8433H26.8228C26.792 11.8446 26.7613 11.8395 26.7326 11.8285C26.7039 11.8175 26.6778 11.8007 26.656 11.7792C26.6342 11.7577 26.6172 11.7319 26.606 11.7036C26.5948 11.6753 26.5897 11.6449 26.591 11.6146V6.58829C26.5897 6.55791 26.5948 6.52759 26.606 6.49926C26.6172 6.47093 26.6342 6.44518 26.656 6.42368C26.6778 6.40218 26.7039 6.38538 26.7326 6.37435C26.7613 6.36331 26.792 6.35828 26.8228 6.35957H31.0298C31.0606 6.35828 31.0913 6.36331 31.12 6.37435C31.1487 6.38538 31.1748 6.40218 31.1966 6.42368C31.2184 6.44518 31.2354 6.47093 31.2466 6.49926C31.2578 6.52759 31.2629 6.55791 31.2616 6.58829V11.5767C31.2651 11.6416 31.2432 11.7055 31.2005 11.7551C31.1578 11.8046 31.0975 11.8362 31.0319 11.8433ZM27.0952 11.3479H30.8008V6.85773H27.0952V11.3479Z" fill="black"/>
<path d="M26.8227 11.8433H22.6158C22.585 11.8446 22.5543 11.8395 22.5256 11.8285C22.4969 11.8175 22.4708 11.8007 22.449 11.7792C22.4272 11.7577 22.4102 11.7319 22.399 11.7036C22.3878 11.6753 22.3827 11.6449 22.384 11.6146V6.58829C22.3827 6.55791 22.3878 6.52759 22.399 6.49926C22.4102 6.47093 22.4272 6.44518 22.449 6.42368C22.4708 6.40218 22.4969 6.38538 22.5256 6.37435C22.5543 6.36331 22.585 6.35828 22.6158 6.35957H26.8227C26.8535 6.35828 26.8843 6.36331 26.913 6.37435C26.9417 6.38538 26.9678 6.40218 26.9896 6.42368C27.0114 6.44518 27.0284 6.47093 27.0396 6.49926C27.0508 6.52759 27.0559 6.55791 27.0546 6.58829V11.5767C27.0632 11.61 27.0635 11.645 27.0555 11.6785C27.0476 11.7121 27.0315 11.7432 27.0088 11.7694C26.9861 11.7955 26.9573 11.8159 26.9249 11.8288C26.8925 11.8416 26.8575 11.8466 26.8227 11.8433ZM22.886 11.348H26.5909V6.85773H22.886V11.348Z" fill="black"/>
<path d="M31.0319 21.668H26.8228C26.7921 21.6693 26.7614 21.6643 26.7327 21.6533C26.7041 21.6423 26.678 21.6256 26.6562 21.6041C26.6345 21.5827 26.6174 21.5571 26.6062 21.5288C26.595 21.5006 26.5898 21.4703 26.591 21.44V16.4509C26.5898 16.4206 26.595 16.3903 26.6062 16.3621C26.6174 16.3338 26.6345 16.3082 26.6562 16.2867C26.678 16.2653 26.7041 16.2486 26.7327 16.2376C26.7614 16.2266 26.7921 16.2216 26.8228 16.2229H31.0297C31.0605 16.2216 31.0911 16.2266 31.1198 16.2376C31.1485 16.2486 31.1745 16.2653 31.1963 16.2867C31.2181 16.3082 31.2351 16.3338 31.2464 16.3621C31.2576 16.3903 31.2628 16.4206 31.2616 16.4509V21.44C31.2575 21.4989 31.232 21.5543 31.1898 21.5962C31.1476 21.6381 31.0915 21.6636 31.0319 21.668ZM27.0952 21.1769H30.8008V16.6831H27.0952V21.1769Z" fill="black"/>
<path d="M26.8227 21.668H22.6158C22.585 21.6693 22.5544 21.6643 22.5257 21.6533C22.497 21.6423 22.471 21.6256 22.4492 21.6041C22.4274 21.5827 22.4104 21.5571 22.3992 21.5288C22.3879 21.5006 22.3828 21.4703 22.384 21.44V16.4509C22.3828 16.4206 22.3879 16.3903 22.3992 16.3621C22.4104 16.3338 22.4274 16.3082 22.4492 16.2867C22.471 16.2653 22.497 16.2486 22.5257 16.2376C22.5544 16.2266 22.585 16.2216 22.6158 16.2229H26.8227C26.8534 16.2216 26.8841 16.2266 26.9128 16.2376C26.9414 16.2486 26.9675 16.2653 26.9893 16.2867C27.011 16.3082 27.0281 16.3338 27.0393 16.3621C27.0505 16.3903 27.0557 16.4206 27.0545 16.4509V21.44C27.0951 21.5543 26.9791 21.668 26.8227 21.668ZM22.886 21.1769H26.5909V16.6831H22.886V21.1769Z" fill="black"/>
<path d="M10.0363 16.8316H5.86776C5.83703 16.8329 5.80636 16.8279 5.7777 16.8169C5.74903 16.8059 5.72298 16.7891 5.7012 16.7677C5.67942 16.7463 5.66238 16.7206 5.65114 16.6924C5.63991 16.6641 5.63474 16.6339 5.63594 16.6036V11.5766C5.63464 11.5462 5.63973 11.5159 5.65092 11.4875C5.6621 11.4592 5.67913 11.4335 5.70093 11.412C5.72272 11.3905 5.7488 11.3737 5.77752 11.3626C5.80624 11.3516 5.83696 11.3466 5.86776 11.3479H10.0747C10.1054 11.3467 10.1361 11.3518 10.1647 11.3628C10.1933 11.3739 10.2193 11.3908 10.2411 11.4123C10.2628 11.4338 10.2797 11.4594 10.2909 11.4877C10.302 11.516 10.3071 11.5462 10.3058 11.5766V16.565C10.3068 16.6002 10.3005 16.6352 10.2873 16.668C10.2741 16.7007 10.2543 16.7304 10.2291 16.7554C10.2039 16.7803 10.1738 16.8 10.1406 16.8131C10.1075 16.8262 10.072 16.8325 10.0363 16.8316ZM6.09888 16.337H9.80447V11.8432H6.09888V16.337Z" fill="black"/>
<path d="M5.86766 16.8316H1.66002C1.62932 16.8329 1.59869 16.8278 1.57006 16.8168C1.54143 16.8058 1.51542 16.7891 1.49369 16.7676C1.47196 16.7462 1.45498 16.7206 1.44383 16.6923C1.43268 16.6641 1.4276 16.6338 1.42891 16.6035V11.5765C1.42761 11.5462 1.43269 11.516 1.44383 11.4877C1.45498 11.4594 1.47194 11.4337 1.49366 11.4122C1.51537 11.3907 1.54137 11.3739 1.57 11.3628C1.59864 11.3517 1.62929 11.3466 1.66002 11.3478H5.86766C5.89839 11.3466 5.92904 11.3517 5.95767 11.3628C5.98631 11.3739 6.0123 11.3907 6.03402 11.4122C6.05574 11.4337 6.0727 11.4594 6.08385 11.4877C6.09499 11.516 6.10008 11.5462 6.09878 11.5765V16.565C6.10223 16.6302 6.08017 16.6942 6.03717 16.7438C5.99416 16.7934 5.93347 16.8248 5.86766 16.8316ZM1.89185 16.3369H5.59744V11.8432H1.89185V16.3369Z" fill="black"/>
<path d="M26.8227 16.8316H22.6158C22.5851 16.8329 22.5544 16.8279 22.5257 16.8169C22.4971 16.8059 22.471 16.7891 22.4492 16.7677C22.4275 16.7463 22.4104 16.7206 22.3992 16.6924C22.3879 16.6641 22.3828 16.6339 22.384 16.6036V11.5766C22.3827 11.5462 22.3878 11.5159 22.399 11.4875C22.4102 11.4592 22.4272 11.4335 22.449 11.412C22.4708 11.3905 22.4969 11.3737 22.5256 11.3626C22.5543 11.3516 22.585 11.3466 22.6158 11.3479H26.8227C26.8535 11.3466 26.8843 11.3516 26.913 11.3626C26.9417 11.3737 26.9678 11.3905 26.9896 11.412C27.0114 11.4335 27.0284 11.4592 27.0396 11.4875C27.0508 11.5159 27.0559 11.5462 27.0546 11.5766V16.565C27.0632 16.5984 27.0635 16.6333 27.0555 16.6668C27.0476 16.7004 27.0315 16.7315 27.0088 16.7577C26.9861 16.7838 26.9573 16.8042 26.9249 16.817C26.8925 16.8299 26.8575 16.8349 26.8227 16.8316ZM22.886 16.337H26.5909V11.8432H22.886V16.337Z" fill="black"/>
<path d="M31.0319 16.8316H26.8228C26.7921 16.8329 26.7614 16.8279 26.7328 16.8169C26.7041 16.8059 26.6781 16.7891 26.6563 16.7677C26.6345 16.7463 26.6175 16.7206 26.6062 16.6924C26.595 16.6641 26.5898 16.6339 26.591 16.6036V11.5766C26.5897 11.5462 26.5948 11.5159 26.606 11.4875C26.6172 11.4592 26.6342 11.4335 26.656 11.412C26.6778 11.3905 26.7039 11.3737 26.7326 11.3626C26.7613 11.3516 26.792 11.3466 26.8228 11.3479H31.0298C31.0606 11.3466 31.0913 11.3516 31.12 11.3626C31.1487 11.3737 31.1748 11.3905 31.1966 11.412C31.2184 11.4335 31.2354 11.4592 31.2466 11.4875C31.2578 11.5159 31.2629 11.5462 31.2616 11.5766V16.565C31.2651 16.63 31.2432 16.6938 31.2005 16.7433C31.1578 16.7929 31.0975 16.8245 31.0319 16.8316ZM27.0952 16.337H30.8008V11.8432H27.0952V16.337Z" fill="black"/>
<path d="M35.2006 16.8314H31.0321C31.0014 16.8327 30.9708 16.8277 30.9421 16.8167C30.9135 16.8057 30.8875 16.7889 30.8658 16.7675C30.844 16.7461 30.827 16.7204 30.8159 16.6922C30.8047 16.6639 30.7997 16.6337 30.801 16.6034V11.5764C30.7997 11.5461 30.8047 11.5158 30.8159 11.4876C30.827 11.4593 30.844 11.4336 30.8657 11.4121C30.8874 11.3906 30.9134 11.3738 30.9421 11.3627C30.9707 11.3516 31.0013 11.3465 31.0321 11.3477H35.239C35.2698 11.3464 35.3005 11.3514 35.3293 11.3625C35.358 11.3735 35.384 11.3903 35.4058 11.4118C35.4276 11.4333 35.4447 11.459 35.4559 11.4874C35.4671 11.5157 35.4721 11.546 35.4708 11.5764V16.5648C35.4717 16.6001 35.4653 16.6351 35.4521 16.6679C35.4388 16.7006 35.4189 16.7303 35.3936 16.7553C35.3684 16.7802 35.3382 16.7998 35.3051 16.8129C35.2719 16.826 35.2363 16.8323 35.2006 16.8314ZM31.2639 16.3368H34.9688V11.843H31.2639V16.3368Z" fill="black"/>
<path d="M22.6183 16.8314H18.4498C18.4191 16.8327 18.3884 16.8277 18.3597 16.8167C18.3311 16.8057 18.305 16.789 18.2832 16.7675C18.2614 16.7461 18.2444 16.7205 18.2332 16.6922C18.2219 16.664 18.2168 16.6337 18.218 16.6034V11.5764C18.2167 11.546 18.2218 11.5157 18.2329 11.4874C18.2441 11.459 18.2612 11.4333 18.283 11.4118C18.3048 11.3903 18.3308 11.3735 18.3596 11.3625C18.3883 11.3514 18.419 11.3464 18.4498 11.3477H22.6183C22.6491 11.3465 22.6797 11.3516 22.7083 11.3627C22.737 11.3738 22.763 11.3906 22.7847 11.4121C22.8064 11.4336 22.8234 11.4593 22.8345 11.4876C22.8457 11.5158 22.8507 11.5461 22.8494 11.5764V16.5648C22.8591 16.5982 22.8602 16.6335 22.8527 16.6674C22.8452 16.7013 22.8293 16.7329 22.8064 16.7593C22.7835 16.7857 22.7544 16.8061 22.7216 16.8187C22.6887 16.8313 22.6533 16.8357 22.6183 16.8314ZM18.6816 16.3368H22.3865V11.843H18.6816V16.3368Z" fill="black"/>
<path d="M18.4497 16.8314H14.2428C14.212 16.8327 14.1814 16.8277 14.1527 16.8167C14.124 16.8057 14.098 16.789 14.0762 16.7675C14.0544 16.7461 14.0374 16.7205 14.0261 16.6922C14.0149 16.664 14.0097 16.6337 14.0109 16.6034V11.5764C14.0096 11.546 14.0147 11.5157 14.0259 11.4874C14.0371 11.459 14.0541 11.4333 14.0759 11.4118C14.0977 11.3903 14.1238 11.3735 14.1525 11.3625C14.1812 11.3514 14.212 11.3464 14.2428 11.3477H18.4497C18.4805 11.3464 18.5112 11.3514 18.5399 11.3625C18.5687 11.3735 18.5947 11.3903 18.6165 11.4118C18.6383 11.4333 18.6553 11.459 18.6665 11.4874C18.6777 11.5157 18.6828 11.546 18.6815 11.5764V16.5648C18.685 16.6301 18.6628 16.6942 18.6196 16.7439C18.5765 16.7935 18.5156 16.8249 18.4497 16.8314ZM14.513 16.3368H18.2179V11.843H14.513V16.3368Z" fill="black"/>
<path d="M26.8231 1.59894V6.58805H31.03V11.5764H35.2369V16.5648L31.03 16.4126V21.401L26.8231 21.2487V26.2378H22.6162V16.4154L14.2407 16.5676V26.2729H10.0338V21.4367H5.86524V16.6006H1.65759V11.5736H5.86524V6.58527H10.0722V1.59616H14.2791V11.5736H22.6162V1.59894H26.8231ZM26.8231 0H22.6162C22.187 0.00239259 21.7762 0.171593 21.4726 0.470918C21.1691 0.770242 20.9974 1.17555 20.9948 1.59894V9.9768H15.8613V1.59894C15.8587 1.17567 15.6871 0.770479 15.3838 0.471174C15.0804 0.17187 14.6697 0.00257651 14.2407 0H10.0338C9.60464 0.00239259 9.19376 0.171593 8.89025 0.470918C8.58674 0.770242 8.41505 1.17555 8.41244 1.59894V4.98842H5.82612C5.39699 4.991 4.98619 5.16035 4.68281 5.45981C4.37943 5.75926 4.20793 6.16465 4.20551 6.58805V9.9768H1.62133C1.19213 9.97937 0.781261 10.1487 0.477767 10.4481C0.174272 10.7476 0.00261145 11.153 0 11.5764V16.5648C0.00261145 16.9883 0.174272 17.3937 0.477767 17.6931C0.781261 17.9925 1.19213 18.1619 1.62133 18.1645H4.20977V21.401C4.2122 21.8244 4.3837 22.2297 4.68708 22.5292C4.99047 22.8286 5.40127 22.998 5.8304 23.0006H8.4167V26.2378C8.41932 26.6612 8.591 27.0665 8.89452 27.3658C9.19803 27.6652 9.6089 27.8344 10.038 27.8368H14.245C14.674 27.8342 15.0847 27.6649 15.388 27.3656C15.6914 27.0663 15.863 26.6611 15.8656 26.2378V18.1266L20.9991 18.0501V26.2729C21.0017 26.6964 21.1734 27.1017 21.4769 27.4012C21.7804 27.7006 22.1912 27.87 22.6204 27.8726H26.8231C27.2523 27.87 27.6632 27.7006 27.9667 27.4012C28.2702 27.1017 28.4418 26.6964 28.4444 26.2729V22.922L30.9532 22.9978H30.9916C31.1997 22.9999 31.4062 22.9606 31.5985 22.8821C31.7908 22.8036 31.9651 22.6876 32.1109 22.5411C32.423 22.2394 32.6032 21.8292 32.6129 21.3982V18.0501L35.1218 18.1266H35.1601C35.3683 18.1287 35.5748 18.0894 35.7672 18.0107C35.9595 17.9321 36.1338 17.8159 36.2794 17.6691C36.5914 17.3676 36.7716 16.9577 36.7815 16.5269V11.5764C36.7789 11.153 36.6072 10.7476 36.3037 10.4481C36.0002 10.1487 35.5893 9.97937 35.1601 9.9768H32.6542V6.58805C32.6518 6.16453 32.4802 5.75907 32.1766 5.45959C31.8731 5.16012 31.4621 4.99081 31.0329 4.98842H28.4473V1.59894C28.4445 1.17561 28.2727 0.770417 27.9693 0.471132C27.6658 0.171847 27.255 0.00257463 26.8259 0H26.8231Z" fill="black"/>
</svg>
