<svg width="28" height="27" viewBox="0 0 28 27" fill="none" xmlns="http://www.w3.org/2000/svg">
<path d="M26.3544 0.0981235C26.1073 -0.000342987 25.8365 -0.0253883 25.5752 0.0260962C25.3139 0.0775807 25.0736 0.203322 24.8838 0.38786L0.39741 24.523C0.207449 24.709 0.0780756 24.9467 0.0258496 25.2057C-0.0263763 25.4647 0.000919087 25.7332 0.104246 25.9768C0.207573 26.2204 0.382224 26.428 0.605851 26.5731C0.829479 26.7182 1.09191 26.7941 1.35954 26.7912H25.8466C26.2008 26.7901 26.5401 26.6508 26.7905 26.4036C27.0408 26.1565 27.1819 25.8216 27.1828 25.4722V1.3112C27.1803 1.05116 27.1005 0.797544 26.9532 0.581888C26.8059 0.366231 26.5977 0.198034 26.3544 0.0981235ZM23.9487 5.84771C23.9511 6.08478 24.0476 6.31149 24.2175 6.47913C24.3874 6.64677 24.6172 6.74199 24.8575 6.74437H25.3922V9.27645H24.8575C24.6165 9.27645 24.3853 9.37093 24.2149 9.53908C24.0444 9.70724 23.9487 9.93531 23.9487 10.1731C23.9487 10.4109 24.0444 10.639 24.2149 10.8071C24.3853 10.9753 24.6165 11.0698 24.8575 11.0698H25.3922V13.6018H24.8575C24.62 13.6018 24.3923 13.6949 24.2244 13.8605C24.0565 14.0262 23.9622 14.2509 23.9622 14.4852C23.9622 14.7194 24.0565 14.9441 24.2244 15.1098C24.3923 15.2754 24.62 15.3685 24.8575 15.3685H25.3922V17.9005H24.8575C24.6208 17.9071 24.396 18.0044 24.2309 18.1719C24.0658 18.3395 23.9734 18.5639 23.9734 18.7975C23.9734 19.0312 24.0658 19.2556 24.2309 19.4231C24.396 19.5906 24.6208 19.688 24.8575 19.6945H25.3922V22.2259H24.8575C24.6171 22.2285 24.3874 22.3239 24.2175 22.4916C24.0476 22.6594 23.9511 22.8861 23.9487 23.1233C23.9482 23.2399 23.9716 23.3554 24.0175 23.4629C24.0633 23.5705 24.1307 23.6677 24.2156 23.749C24.3004 23.8302 24.401 23.8937 24.5113 23.9357C24.6216 23.9776 24.7393 23.9972 24.8575 23.9933H25.3922V25.0457H2.42905L25.3922 2.36287V4.94827H24.8575C24.7373 4.94676 24.6181 4.96899 24.5068 5.01366C24.3955 5.05833 24.2944 5.12455 24.2094 5.20837C24.1245 5.2922 24.0574 5.39194 24.0121 5.50175C23.9668 5.61156 23.9443 5.72918 23.9458 5.84771H23.9487Z" fill="black"/>
<path d="M20.9012 12.2567C20.7353 12.1934 20.5547 12.1771 20.3799 12.2097C20.2051 12.2424 20.0431 12.3225 19.912 12.4412L13.042 19.2468C12.9101 19.3688 12.821 19.5291 12.7873 19.7043C12.7537 19.8796 12.7774 20.0609 12.855 20.222C12.9184 20.3874 13.032 20.5293 13.1803 20.6285C13.3286 20.7277 13.5043 20.7793 13.6834 20.7763H20.5812C20.8146 20.7743 21.0379 20.6819 21.2029 20.519C21.368 20.3562 21.4616 20.1359 21.4637 19.9056V13.0748C21.4669 12.8979 21.4145 12.7243 21.3138 12.5778C21.2131 12.4314 21.069 12.3192 20.9012 12.2567ZM19.6717 15.2105V18.9823H15.8488L19.6717 15.2105Z" fill="black"/>
</svg>
