<?xml version="1.0" encoding="UTF-8" standalone="no"?>
<!DOCTYPE svg PUBLIC "-//W3C//DTD SVG 1.1//EN" "http://www.w3.org/Graphics/SVG/1.1/DTD/svg11.dtd">
<svg width="100%" height="100%" viewBox="0 0 77 52" version="1.1" xmlns="http://www.w3.org/2000/svg" xmlns:xlink="http://www.w3.org/1999/xlink" xml:space="preserve" xmlns:serif="http://www.serif.com/" style="fill-rule:evenodd;clip-rule:evenodd;stroke-linejoin:round;stroke-miterlimit:2;">
    <g transform="matrix(1,0,0,1,-1,-11)">
        <path d="M6.748,62.639L6.748,62.16C6.91,62.19 7.033,62.204 7.118,62.204C7.411,62.204 7.633,62.11 7.786,61.923C7.941,61.738 8.096,61.428 8.251,60.991C7.838,59.966 7.223,58.426 6.406,56.373L6.986,56.373C7.1,56.666 7.26,57.085 7.465,57.629C7.673,58.171 7.862,58.665 8.032,59.11C8.202,59.553 8.366,59.973 8.524,60.372C9.183,58.596 9.681,57.263 10.018,56.373L10.576,56.373C10.318,57.02 9.959,57.939 9.499,59.128C9.039,60.317 8.72,61.145 8.541,61.611C8.38,62.001 8.2,62.274 8.001,62.433C7.802,62.594 7.529,62.674 7.183,62.674C7.037,62.674 6.892,62.663 6.748,62.639ZM1.439,58.877L2.037,58.877C2.037,59.46 2.204,59.898 2.538,60.191C2.875,60.484 3.341,60.631 3.936,60.631C4.381,60.631 4.766,60.517 5.091,60.288C5.417,60.06 5.579,59.745 5.579,59.343C5.579,59.001 5.46,58.738 5.223,58.557C4.989,58.375 4.551,58.199 3.909,58.029C3.628,57.956 3.414,57.899 3.268,57.858C3.124,57.817 2.945,57.758 2.731,57.682C2.521,57.603 2.361,57.524 2.252,57.445C2.144,57.366 2.031,57.266 1.914,57.146C1.797,57.026 1.715,56.888 1.668,56.733C1.624,56.578 1.602,56.4 1.602,56.201C1.602,55.727 1.781,55.319 2.138,54.98C2.496,54.637 3.029,54.465 3.738,54.465C4.429,54.465 4.977,54.643 5.381,54.997C5.786,55.352 5.988,55.861 5.988,56.526L5.399,56.526C5.399,56.04 5.245,55.661 4.938,55.388C4.63,55.116 4.227,54.98 3.729,54.98C3.272,54.98 2.901,55.082 2.617,55.287C2.336,55.489 2.195,55.791 2.195,56.192C2.195,56.726 2.559,57.089 3.285,57.282C4.246,57.523 4.876,57.711 5.175,57.849C5.729,58.107 6.049,58.479 6.137,58.965C6.158,59.074 6.168,59.191 6.168,59.317C6.168,59.528 6.128,59.734 6.049,59.937C5.97,60.136 5.85,60.329 5.689,60.517C5.528,60.701 5.289,60.851 4.973,60.965C4.659,61.079 4.292,61.136 3.87,61.136C3.102,61.136 2.504,60.941 2.077,60.552C1.652,60.162 1.439,59.604 1.439,58.877ZM35.711,57.884L35.153,57.884C35.106,57.536 34.964,57.256 34.726,57.045C34.489,56.831 34.193,56.724 33.839,56.724C33.364,56.724 32.983,56.912 32.696,57.287C32.412,57.662 32.27,58.126 32.27,58.68C32.27,59.245 32.411,59.717 32.692,60.095C32.976,60.47 33.361,60.657 33.847,60.657C34.202,60.657 34.507,60.536 34.762,60.292C35.017,60.049 35.161,59.742 35.197,59.37L35.746,59.37C35.667,59.92 35.459,60.351 35.122,60.662C34.788,60.972 34.363,61.127 33.847,61.127C33.194,61.127 32.679,60.899 32.301,60.442C31.923,59.985 31.734,59.403 31.734,58.697C31.734,57.977 31.923,57.389 32.301,56.935C32.679,56.478 33.191,56.25 33.839,56.25C34.349,56.25 34.776,56.396 35.122,56.689C35.468,56.982 35.664,57.38 35.711,57.884ZM44.127,57.77C44.133,57.29 44.303,56.916 44.637,56.649C44.971,56.383 45.408,56.25 45.947,56.25C46.536,56.25 46.965,56.387 47.234,56.663C47.504,56.938 47.639,57.442 47.639,58.174L47.639,61L47.313,61L47.125,60.262C46.94,60.555 46.722,60.773 46.47,60.917C46.218,61.057 45.897,61.127 45.507,61.127C45.039,61.127 44.656,61.006 44.36,60.763C44.067,60.52 43.921,60.184 43.921,59.756C43.921,59.557 43.953,59.384 44.018,59.238C44.085,59.091 44.17,58.973 44.272,58.882C44.375,58.788 44.519,58.705 44.703,58.631C44.891,58.555 45.071,58.497 45.244,58.456C45.419,58.412 45.645,58.363 45.92,58.31L47.072,58.091L47.072,57.796C47.072,57.076 46.682,56.715 45.903,56.715C45.548,56.715 45.261,56.806 45.042,56.988C44.822,57.167 44.7,57.427 44.677,57.77L44.127,57.77ZM70.172,56.373L70.172,61L69.82,61L69.662,60.271C69.357,60.842 68.859,61.127 68.168,61.127C67.485,61.127 67.01,60.881 66.744,60.389C66.641,60.21 66.577,60.014 66.55,59.8C66.524,59.586 66.511,59.26 66.511,58.82L66.511,56.373L67.051,56.373L67.051,58.82C67.051,59.222 67.063,59.521 67.087,59.717C67.11,59.913 67.173,60.074 67.275,60.2C67.469,60.505 67.799,60.657 68.264,60.657C68.721,60.657 69.064,60.498 69.293,60.178C69.524,59.856 69.64,59.406 69.64,58.829L69.64,56.373L70.172,56.373ZM50.931,57.77C50.937,57.29 51.107,56.916 51.441,56.649C51.775,56.383 52.211,56.25 52.75,56.25C53.339,56.25 53.768,56.387 54.038,56.663C54.307,56.938 54.442,57.442 54.442,58.174L54.442,61L54.117,61L53.928,60.262C53.743,60.555 53.525,60.773 53.273,60.917C53.021,61.057 52.7,61.127 52.311,61.127C51.842,61.127 51.46,61.006 51.164,60.763C50.871,60.52 50.724,60.184 50.724,59.756C50.724,59.557 50.757,59.384 50.821,59.238C50.888,59.091 50.973,58.973 51.076,58.882C51.178,58.788 51.322,58.705 51.507,58.631C51.694,58.555 51.874,58.497 52.047,58.456C52.223,58.412 52.448,58.363 52.724,58.31L53.875,58.091L53.875,57.796C53.875,57.076 53.486,56.715 52.706,56.715C52.352,56.715 52.065,56.806 51.845,56.988C51.625,57.167 51.504,57.427 51.48,57.77L50.931,57.77ZM62.129,57.77C62.135,57.29 62.305,56.916 62.639,56.649C62.973,56.383 63.409,56.25 63.949,56.25C64.537,56.25 64.967,56.387 65.236,56.663C65.506,56.938 65.64,57.442 65.64,58.174L65.64,61L65.315,61L65.126,60.262C64.942,60.555 64.723,60.773 64.471,60.917C64.219,61.057 63.899,61.127 63.509,61.127C63.04,61.127 62.658,61.006 62.362,60.763C62.069,60.52 61.923,60.184 61.923,59.756C61.923,59.557 61.955,59.384 62.019,59.238C62.087,59.091 62.172,58.973 62.274,58.882C62.377,58.788 62.52,58.705 62.705,58.631C62.892,58.555 63.073,58.497 63.245,58.456C63.421,58.412 63.647,58.363 63.922,58.31L65.073,58.091L65.073,57.796C65.073,57.076 64.684,56.715 63.905,56.715C63.55,56.715 63.263,56.806 63.043,56.988C62.824,57.167 62.702,57.427 62.679,57.77L62.129,57.77ZM26.415,59.541L26.973,59.541C26.871,60.045 26.653,60.435 26.319,60.71C25.988,60.982 25.552,61.119 25.014,61.119C24.348,61.119 23.833,60.893 23.467,60.442C23.1,59.991 22.917,59.403 22.917,58.68C22.917,57.977 23.099,57.397 23.462,56.94C23.828,56.48 24.34,56.25 24.996,56.25C25.655,56.25 26.153,56.478 26.49,56.935C26.83,57.389 27,58.015 27,58.812L23.453,58.812C23.453,59.327 23.591,59.765 23.866,60.126C24.145,60.486 24.527,60.666 25.014,60.666C25.386,60.666 25.695,60.564 25.941,60.358C26.19,60.15 26.348,59.878 26.415,59.541ZM28.565,55.177L28.565,56.373L29.518,56.373L29.518,56.816L28.565,56.816L28.565,59.651C28.565,60.005 28.595,60.253 28.657,60.394C28.721,60.534 28.871,60.605 29.105,60.605C29.219,60.605 29.357,60.596 29.518,60.578L29.518,61.044C29.278,61.067 29.126,61.079 29.061,61.079C28.631,61.079 28.349,60.975 28.217,60.767C28.089,60.556 28.024,60.118 28.024,59.453L28.024,56.816L27.207,56.816L27.207,56.373L28.024,56.373L28.024,55.445L28.565,55.177ZM73.912,55.177L73.912,56.373L74.866,56.373L74.866,56.816L73.912,56.816L73.912,59.651C73.912,60.005 73.943,60.253 74.004,60.394C74.069,60.534 74.218,60.605 74.453,60.605C74.567,60.605 74.704,60.596 74.866,60.578L74.866,61.044C74.625,61.067 74.473,61.079 74.409,61.079C73.978,61.079 73.697,60.975 73.565,60.767C73.436,60.556 73.371,60.118 73.371,59.453L73.371,56.816L72.554,56.816L72.554,56.373L73.371,56.373L73.371,55.445L73.912,55.177ZM16.698,55.177L16.698,56.373L17.652,56.373L17.652,56.816L16.698,56.816L16.698,59.651C16.698,60.005 16.729,60.253 16.791,60.394C16.855,60.534 17.005,60.605 17.239,60.605C17.353,60.605 17.491,60.596 17.652,60.578L17.652,61.044C17.412,61.067 17.259,61.079 17.195,61.079C16.764,61.079 16.483,60.975 16.351,60.767C16.222,60.556 16.158,60.118 16.158,59.453L16.158,56.816L15.34,56.816L15.34,56.373L16.158,56.373L16.158,55.445L16.698,55.177ZM49.362,55.177L49.362,56.373L50.315,56.373L50.315,56.816L49.362,56.816L49.362,59.651C49.362,60.005 49.392,60.253 49.454,60.394C49.518,60.534 49.668,60.605 49.902,60.605C50.016,60.605 50.154,60.596 50.315,60.578L50.315,61.044C50.075,61.067 49.923,61.079 49.858,61.079C49.428,61.079 49.146,60.975 49.015,60.767C48.886,60.556 48.821,60.118 48.821,59.453L48.821,56.816L48.004,56.816L48.004,56.373L48.821,56.373L48.821,55.445L49.362,55.177ZM38.572,61L38.572,54.602L40.282,54.602C41.319,54.613 42.1,54.89 42.624,55.432C43.149,55.971 43.411,56.753 43.411,57.779C43.411,58.804 43.152,59.598 42.633,60.161C42.114,60.72 41.328,61 40.273,61L38.572,61ZM11.407,56.373L11.657,57.093L11.666,57.093C11.769,56.835 11.95,56.63 12.211,56.478C12.472,56.326 12.768,56.25 13.099,56.25C14.215,56.25 14.773,56.857 14.773,58.073L14.773,61L14.241,61L14.241,58.122C14.241,57.187 13.845,56.718 13.051,56.715C12.637,56.715 12.302,56.86 12.044,57.15C11.786,57.438 11.657,57.808 11.657,58.262L11.657,61L11.117,61L11.117,56.373L11.407,56.373ZM71.284,61L71.284,54.602L71.824,54.602L71.824,61L71.284,61ZM18.413,61L18.413,54.602L18.953,54.602L18.962,57.076C19.094,56.818 19.286,56.616 19.538,56.469C19.79,56.323 20.075,56.25 20.395,56.25C21.007,56.25 21.44,56.414 21.695,56.742C21.95,57.067 22.078,57.574 22.078,58.262L22.078,61L21.546,61L21.546,58.31C21.546,57.795 21.456,57.401 21.278,57.128C21.102,56.853 20.791,56.715 20.346,56.715C19.895,56.715 19.549,56.865 19.309,57.164C19.072,57.46 18.953,57.874 18.953,58.407L18.953,61L18.413,61ZM30.261,61L30.261,56.373L30.811,56.373L30.811,61L30.261,61ZM59.018,60.982L56.741,54.602L57.334,54.602L59.387,60.451L61.448,54.602L62.023,54.602L59.738,60.982L59.018,60.982ZM65.1,58.517L64.524,58.614C63.76,58.752 63.281,58.858 63.087,58.935C62.683,59.096 62.481,59.361 62.481,59.73C62.481,60.011 62.582,60.237 62.784,60.407C62.989,60.574 63.248,60.657 63.562,60.657C64.025,60.657 64.397,60.512 64.678,60.222C64.959,59.932 65.1,59.525 65.1,59.001L65.1,58.517ZM47.098,58.517L46.522,58.614C45.758,58.752 45.279,58.858 45.085,58.935C44.681,59.096 44.479,59.361 44.479,59.73C44.479,60.011 44.58,60.237 44.782,60.407C44.987,60.574 45.247,60.657 45.56,60.657C46.023,60.657 46.395,60.512 46.676,60.222C46.958,59.932 47.098,59.525 47.098,59.001L47.098,58.517ZM53.902,58.517L53.326,58.614C52.561,58.752 52.082,58.858 51.889,58.935C51.485,59.096 51.282,59.361 51.282,59.73C51.282,60.011 51.384,60.237 51.586,60.407C51.791,60.574 52.05,60.657 52.364,60.657C52.826,60.657 53.198,60.512 53.48,60.222C53.761,59.932 53.902,59.525 53.902,59.001L53.902,58.517ZM39.139,60.503L40.128,60.503C41.083,60.503 41.772,60.275 42.194,59.818C42.615,59.358 42.826,58.681 42.826,57.788C42.826,56.882 42.609,56.209 42.176,55.766C41.745,55.321 41.069,55.098 40.146,55.098L39.139,55.098L39.139,60.503ZM23.467,58.355L26.473,58.355C26.443,57.862 26.295,57.465 26.029,57.164C25.765,56.859 25.415,56.707 24.978,56.707C24.548,56.707 24.198,56.862 23.928,57.172C23.661,57.48 23.508,57.874 23.467,58.355ZM30.244,55.445L30.244,54.602L30.828,54.602L30.828,55.445L30.244,55.445ZM1.152,39.645L6.914,39.645C6.94,41.428 7.48,42.77 8.535,43.668C9.59,44.553 11.022,44.996 12.832,44.996C14.329,44.996 15.592,44.677 16.621,44.039C17.65,43.401 18.164,42.457 18.164,41.207C18.164,39.983 17.669,39.098 16.68,38.551C15.69,37.991 13.822,37.353 11.074,36.637C7.741,35.777 5.371,34.755 3.965,33.57C2.572,32.385 1.875,30.647 1.875,28.356C1.875,25.712 2.865,23.642 4.844,22.145C6.836,20.634 9.342,19.879 12.363,19.879C15.618,19.879 18.216,20.647 20.156,22.184C22.109,23.72 23.125,26.018 23.203,29.078L17.481,29.078C17.298,25.979 15.527,24.436 12.168,24.449C10.814,24.449 9.72,24.762 8.887,25.387C8.053,26.012 7.637,26.871 7.637,27.965C7.637,29.059 8.04,29.82 8.848,30.25C9.668,30.667 11.706,31.331 14.961,32.242C17.969,33.01 20.221,34.026 21.719,35.289C23.216,36.539 23.965,38.388 23.965,40.836C23.965,43.505 22.923,45.634 20.84,47.223C18.757,48.811 16.022,49.606 12.637,49.606C9.199,49.606 6.426,48.746 4.316,47.027C2.207,45.309 1.152,42.848 1.152,39.645ZM61.134,49.117L52.052,20.563L58.223,20.563L64.63,42.809L64.669,42.809L71.212,20.563L77.149,20.563L67.931,49.117L61.134,49.117ZM28.35,49L28.35,20.563L37.237,20.563C41.69,20.563 45.14,21.754 47.588,24.137C50.036,26.52 51.26,30.009 51.26,34.606C51.26,39.059 50.088,42.574 47.745,45.152C45.401,47.717 41.937,49 37.354,49L28.35,49ZM34.151,44.117L36.104,44.117C42.237,44.117 45.303,41.025 45.303,34.84C45.277,31.533 44.515,29.137 43.018,27.652C41.534,26.155 39.125,25.406 35.791,25.406L34.151,25.406L34.151,44.117ZM74.757,16.273L75.185,16.273C75.212,16.526 75.319,16.717 75.506,16.844C75.693,16.972 75.929,17.036 76.213,17.036C76.619,17.036 76.906,16.916 77.075,16.677C77.243,16.44 77.328,16.037 77.328,15.467L77.321,15.258C77.209,15.473 77.052,15.641 76.849,15.764C76.646,15.885 76.416,15.945 76.159,15.945C75.669,15.945 75.289,15.777 75.021,15.44C74.752,15.1 74.617,14.657 74.617,14.11C74.617,13.588 74.761,13.157 75.048,12.818C75.335,12.476 75.714,12.305 76.186,12.305C76.69,12.305 77.068,12.528 77.321,12.975L77.475,12.401L77.741,12.401L77.741,15.699C77.741,16.264 77.618,16.689 77.372,16.974C77.128,17.259 76.744,17.401 76.22,17.401C75.806,17.401 75.464,17.305 75.195,17.111C74.926,16.917 74.78,16.638 74.757,16.273ZM71.827,12.305C72.335,12.305 72.738,12.481 73.034,12.832C73.33,13.18 73.478,13.633 73.478,14.189C73.478,14.749 73.329,15.208 73.03,15.566C72.732,15.921 72.331,16.099 71.827,16.099C71.319,16.099 70.915,15.919 70.614,15.559C70.313,15.199 70.163,14.745 70.163,14.195C70.163,13.635 70.312,13.18 70.61,12.832C70.909,12.481 71.315,12.305 71.827,12.305ZM63.834,16L63.588,16L63.588,11.023L64.008,11.023L64.015,13.047C64.118,12.81 64.275,12.628 64.487,12.5C64.699,12.37 64.94,12.305 65.211,12.305C65.697,12.305 66.077,12.484 66.353,12.842C66.629,13.197 66.767,13.655 66.767,14.216C66.767,14.767 66.628,15.22 66.35,15.573C66.072,15.924 65.688,16.099 65.198,16.099C64.655,16.099 64.257,15.859 64.001,15.378L63.834,16ZM68.169,16L68.169,11.023L68.589,11.023L68.589,16L68.169,16ZM65.184,12.674C64.801,12.674 64.509,12.818 64.306,13.105C64.103,13.392 64.001,13.758 64.001,14.202C64.001,14.644 64.104,15.01 64.309,15.299C64.514,15.589 64.81,15.733 65.198,15.733C65.558,15.733 65.838,15.588 66.039,15.296C66.239,15.004 66.339,14.64 66.339,14.202C66.339,13.762 66.238,13.398 66.035,13.108C65.832,12.819 65.549,12.674 65.184,12.674ZM71.82,12.668C71.433,12.668 71.129,12.81 70.908,13.095C70.689,13.38 70.58,13.744 70.58,14.189C70.58,14.642 70.688,15.012 70.904,15.299C71.123,15.584 71.428,15.727 71.82,15.727C72.208,15.727 72.51,15.582 72.726,15.293C72.943,15.003 73.051,14.635 73.051,14.189C73.051,13.744 72.941,13.38 72.723,13.095C72.504,12.81 72.203,12.668 71.82,12.668ZM77.03,13.095C76.832,12.815 76.553,12.674 76.193,12.674C75.835,12.674 75.554,12.813 75.349,13.091C75.146,13.369 75.044,13.72 75.044,14.144C75.044,14.559 75.147,14.903 75.352,15.176C75.559,15.45 75.84,15.586 76.193,15.586C76.544,15.586 76.821,15.451 77.023,15.18C77.226,14.906 77.328,14.561 77.328,14.144C77.328,13.725 77.229,13.375 77.03,13.095Z" style="fill:rgb(0,0,54);fill-rule:nonzero;"/>
    </g>
</svg>
