<svg width="51" height="29" viewBox="0 0 51 29" fill="none" xmlns="http://www.w3.org/2000/svg">
<path d="M0.717476 13.2107C0.717476 17.2682 3.68634 19.3711 7.81801 19.3711C11.9497 19.3711 14.8196 17.2929 14.8196 13.9529C14.8196 10.7119 12.5929 9.49963 9.25296 8.63372C5.46766 7.59461 4.72544 7.39669 4.72544 5.98648C4.72544 4.60101 5.86351 3.80931 7.52112 3.80931C9.42614 3.80931 10.6879 4.65049 10.8116 6.67921H14.3495C14.2505 2.74547 11.5043 0.98889 7.64483 0.98889C4.08219 0.98889 1.16281 2.84443 1.16281 6.23388C1.16281 9.20275 2.94412 10.3408 6.85313 11.3552C9.79725 12.1221 11.2322 12.518 11.2322 14.1756C11.2322 15.8085 9.64881 16.5259 7.94171 16.5259C5.78929 16.5259 4.30485 15.5116 4.28011 13.2107H0.717476ZM19.0179 19H24.5846C30.4233 19 33.1943 15.4126 33.1943 10.0934C33.1943 4.3536 29.9285 1.40948 24.5103 1.40948H19.0179V19ZM22.6053 15.9817V4.40308H23.6197C27.7266 4.40308 29.4832 6.13492 29.5079 10.2419C29.5079 14.8931 26.7617 15.9817 23.8176 15.9817H22.6053ZM40.7848 19.0742H44.9907L50.681 1.40948H47.0194L42.9619 15.1652H42.9372L38.9787 1.40948H35.1687L40.7848 19.0742Z" fill="#000036"/>
<path d="M0.707859 24.1918H2.01775V27.6152H2.34653V24.1918H3.46334V23.9047H0.707859V24.1918ZM3.46599 27.6152H3.77911V26.1122C3.77911 25.4964 4.06614 25.1311 4.58801 25.1311C5.13597 25.1311 5.2821 25.5069 5.2821 26.0548V27.6152H5.59V26.0287C5.59 25.2512 5.3395 24.8598 4.6141 24.8598C4.24357 24.8598 3.93567 25.0372 3.78433 25.3399L3.77911 23.9047H3.46599V27.6152ZM8.00255 26.7698C7.92949 27.1508 7.6268 27.4221 7.18843 27.4221C6.59872 27.4221 6.2856 26.9107 6.2856 26.3471H8.34177C8.34177 25.4495 7.9608 24.8598 7.17799 24.8598C6.38997 24.8598 5.97247 25.4912 5.97247 26.2688C5.97247 27.0829 6.38997 27.6831 7.18843 27.6831C7.8199 27.6831 8.20608 27.3491 8.32611 26.7698H8.00255ZM6.29081 26.0809C6.33778 25.5434 6.6509 25.1259 7.16756 25.1259C7.68943 25.1259 8.00255 25.5278 8.03386 26.0809H6.29081ZM9.57053 26.3836C9.57053 27.2343 10.0924 27.6935 10.9796 27.6935C12.0077 27.6935 12.3103 27.0881 12.3103 26.6393C12.3103 25.8513 11.6424 25.7104 10.6404 25.4599C10.2646 25.3608 10.0089 25.1677 10.0089 24.8284C10.0089 24.3431 10.3951 24.1239 10.8961 24.1239C11.4545 24.1239 11.8668 24.4423 11.8668 25.0215H12.206C12.206 24.2335 11.6789 23.8265 10.9013 23.8265C10.0141 23.8265 9.66446 24.3483 9.66446 24.8337C9.66446 25.5434 10.2333 25.6948 11.0005 25.8931C11.7363 26.0862 11.9711 26.2584 11.9711 26.655C11.9711 27.1456 11.491 27.4013 11.0161 27.4013C10.3481 27.4013 9.91496 27.0777 9.91496 26.3836H9.57053ZM12.5443 28.565C12.6383 28.5807 12.7009 28.5859 12.7948 28.5859C13.2019 28.5859 13.4002 28.4137 13.5829 27.9701C13.9795 26.9577 14.3604 25.9452 14.7623 24.9328H14.4387C14.1465 25.7052 13.8594 26.4776 13.5724 27.2499C13.2697 26.4776 12.9775 25.7052 12.68 24.9328H12.346C12.7009 25.8252 13.0558 26.7176 13.4159 27.61C13.2541 28.0588 13.1236 28.3145 12.7583 28.3145C12.6852 28.3145 12.6278 28.3041 12.5443 28.2884V28.565ZM15.1395 24.9328H14.9725V27.6152H15.2856V26.0287C15.2856 25.5069 15.6092 25.1311 16.0945 25.1311C16.5799 25.1311 16.7834 25.4495 16.7834 25.9452V27.6152H17.0913V25.9192C17.0913 25.2616 16.799 24.8598 16.1206 24.8598C15.7396 24.8598 15.4109 25.0528 15.2908 25.3503H15.2856L15.1395 24.9328ZM18.1052 24.2387L17.7921 24.3953V24.9328H17.3172V25.1885H17.7921V26.7176C17.7921 27.4848 17.886 27.6622 18.3923 27.6622C18.481 27.6622 18.554 27.6518 18.6584 27.6413V27.37C18.5645 27.3804 18.4966 27.3856 18.4184 27.3856C18.1261 27.3856 18.1052 27.1925 18.1052 26.8324V25.1885H18.6584V24.9328H18.1052V24.2387ZM18.9943 27.6152H19.3074V26.1122C19.3074 25.4964 19.5944 25.1311 20.1163 25.1311C20.6643 25.1311 20.8104 25.5069 20.8104 26.0548V27.6152H21.1183V26.0287C21.1183 25.2512 20.8678 24.8598 20.1424 24.8598C19.7719 24.8598 19.464 25.0372 19.3126 25.3399L19.3074 23.9047H18.9943V27.6152ZM23.5309 26.7698C23.4578 27.1508 23.1551 27.4221 22.7167 27.4221C22.127 27.4221 21.8139 26.9107 21.8139 26.3471H23.8701C23.8701 25.4495 23.4891 24.8598 22.7063 24.8598C21.9183 24.8598 21.5008 25.4912 21.5008 26.2688C21.5008 27.0829 21.9183 27.6831 22.7167 27.6831C23.3482 27.6831 23.7344 27.3491 23.8544 26.7698H23.5309ZM21.8191 26.0809C21.8661 25.5434 22.1792 25.1259 22.6959 25.1259C23.2177 25.1259 23.5309 25.5278 23.5622 26.0809H21.8191ZM24.6729 24.2387L24.3597 24.3953V24.9328H23.8848V25.1885H24.3597V26.7176C24.3597 27.4848 24.4537 27.6622 24.9599 27.6622C25.0486 27.6622 25.1217 27.6518 25.226 27.6413V27.37C25.1321 27.3804 25.0643 27.3856 24.986 27.3856C24.6937 27.3856 24.6729 27.1925 24.6729 26.8324V25.1885H25.226V24.9328H24.6729V24.2387ZM25.5515 27.6152H25.8698V24.9328H25.5515V27.6152ZM25.541 24.3953H25.8802V23.9047H25.541V24.3953ZM28.6066 25.8096C28.5492 25.2198 28.1056 24.8598 27.5211 24.8598C26.754 24.8598 26.2999 25.4651 26.2999 26.2792C26.2999 27.0829 26.754 27.6883 27.5263 27.6883C28.1265 27.6883 28.5336 27.3125 28.6275 26.6706H28.3091C28.2674 27.1038 27.9386 27.4169 27.5263 27.4169C26.9471 27.4169 26.6131 26.8951 26.6131 26.2688C26.6131 25.653 26.9523 25.1363 27.5211 25.1363C27.9386 25.1363 28.2256 25.4077 28.2831 25.8096H28.6066ZM30.0565 27.6152H31.0429C32.2953 27.6152 32.8642 26.9003 32.8642 25.7469C32.8642 24.5675 32.264 23.9204 31.0481 23.9047H30.0565V27.6152ZM30.3853 27.3282V24.1918H30.9698C32.0501 24.1918 32.525 24.7136 32.525 25.7522C32.525 26.7541 32.097 27.3282 30.9594 27.3282H30.3853ZM33.1752 25.7417H33.4935C33.5196 25.3347 33.8014 25.1311 34.2033 25.1311C34.6155 25.1311 34.8817 25.2981 34.8817 25.7574V25.9296L34.2137 26.0548C33.5144 26.1853 33.0552 26.3158 33.0552 26.8951C33.0552 27.4013 33.4466 27.6883 33.9736 27.6883C34.4381 27.6883 34.7043 27.5161 34.913 27.1873L35.0226 27.6152H35.2105V25.9766C35.2105 25.0894 34.8713 24.8598 34.2294 24.8598C33.6188 24.8598 33.1856 25.1729 33.1752 25.7417ZM34.8974 26.1749V26.4567C34.8974 27.0725 34.532 27.4169 34.005 27.4169C33.6501 27.4169 33.3787 27.2134 33.3787 26.8794C33.3787 26.4097 33.8693 26.3575 34.5634 26.2323L34.8974 26.1749ZM36.1059 24.2387L35.7928 24.3953V24.9328H35.3179V25.1885H35.7928V26.7176C35.7928 27.4848 35.8867 27.6622 36.3929 27.6622C36.4816 27.6622 36.5547 27.6518 36.6591 27.6413V27.37C36.5651 27.3804 36.4973 27.3856 36.419 27.3856C36.1268 27.3856 36.1059 27.1925 36.1059 26.8324V25.1885H36.6591V24.9328H36.1059V24.2387ZM36.9115 25.7417H37.2298C37.2559 25.3347 37.5377 25.1311 37.9395 25.1311C38.3518 25.1311 38.618 25.2981 38.618 25.7574V25.9296L37.95 26.0548C37.2507 26.1853 36.7914 26.3158 36.7914 26.8951C36.7914 27.4013 37.1828 27.6883 37.7099 27.6883C38.1744 27.6883 38.4405 27.5161 38.6493 27.1873L38.7589 27.6152H38.9467V25.9766C38.9467 25.0894 38.6075 24.8598 37.9656 24.8598C37.355 24.8598 36.9219 25.1729 36.9115 25.7417ZM38.6336 26.1749V26.4567C38.6336 27.0725 38.2683 27.4169 37.7412 27.4169C37.3864 27.4169 37.115 27.2134 37.115 26.8794C37.115 26.4097 37.6055 26.3575 38.2996 26.2323L38.6336 26.1749ZM41.3902 27.6048H41.8077L43.1332 23.9047H42.7992L41.6041 27.2969L40.4143 23.9047H40.0698L41.3902 27.6048ZM43.0917 25.7417H43.4101C43.4362 25.3347 43.718 25.1311 44.1198 25.1311C44.5321 25.1311 44.7983 25.2981 44.7983 25.7574V25.9296L44.1303 26.0548C43.431 26.1853 42.9717 26.3158 42.9717 26.8951C42.9717 27.4013 43.3631 27.6883 43.8902 27.6883C44.3547 27.6883 44.6208 27.5161 44.8296 27.1873L44.9392 27.6152H45.127V25.9766C45.127 25.0894 44.7878 24.8598 44.1459 24.8598C43.5353 24.8598 43.1022 25.1729 43.0917 25.7417ZM44.8139 26.1749V26.4567C44.8139 27.0725 44.4486 27.4169 43.9215 27.4169C43.5666 27.4169 43.2953 27.2134 43.2953 26.8794C43.2953 26.4097 43.7858 26.3575 44.4799 26.2323L44.8139 26.1749ZM47.6507 24.9328H47.3428V26.3575C47.3428 27.0046 47.0871 27.4169 46.5443 27.4169C46.2834 27.4169 46.0799 27.323 45.9703 27.1508C45.845 26.989 45.8398 26.7541 45.8398 26.3523V24.9328H45.5267V26.3523C45.5267 26.7959 45.5319 27.0307 45.6624 27.2604C45.8085 27.5317 46.0955 27.6883 46.4869 27.6883C46.8679 27.6883 47.1758 27.5213 47.3532 27.1925L47.4472 27.6152H47.6507V24.9328ZM48.1905 27.6152H48.5036V23.9047H48.1905V27.6152ZM49.6109 24.2387L49.2978 24.3953V24.9328H48.8229V25.1885H49.2978V26.7176C49.2978 27.4848 49.3917 27.6622 49.898 27.6622C49.9867 27.6622 50.0597 27.6518 50.1641 27.6413V27.37C50.0702 27.3804 50.0023 27.3856 49.9241 27.3856C49.6318 27.3856 49.6109 27.1925 49.6109 26.8324V25.1885H50.1641V24.9328H49.6109V24.2387Z" fill="#000036"/>
</svg>
