<svg width="89" height="35" viewBox="0 0 89 35" fill="none" xmlns="http://www.w3.org/2000/svg">
<path d="M81.1112 14.063V17.1139H70C69.7999 16.247 69.3119 15.4736 68.6156 14.9198C67.9194 14.366 67.056 14.0645 66.1663 14.0645C65.2766 14.0645 64.4133 14.366 63.717 14.9198C63.0207 15.4736 62.5327 16.247 62.3326 17.1139H51.1108C50.9106 16.247 50.4226 15.4736 49.7264 14.9198C49.0301 14.366 48.1667 14.0645 47.277 14.0645C46.3874 14.0645 45.524 14.366 44.8277 14.9198C44.1315 15.4736 43.6435 16.247 43.4433 17.1139H36.3337C36.1442 14.8746 35.2592 12.7506 33.8028 11.0392C32.3463 9.32776 30.3912 8.11453 28.211 7.56928C29.3661 3.82928 31.7288 1.78521 34.9689 1.78521H34.9895C39.4427 1.79681 44.0414 5.56093 45.5499 10.2239L41.0797 7.6032L40.4486 8.68235L46.9236 12.4759L50.2369 5.74211L49.1149 5.1896L47.1065 9.27236C45.2383 4.04349 40.1318 0.013389 34.9939 0H34.968C30.8522 0 27.7933 2.63765 26.4339 7.28186C26.1661 7.26133 25.893 7.23991 25.6171 7.23991C22.9181 7.24386 20.3188 8.26058 18.3334 10.089C16.348 11.9174 15.121 14.4243 14.8952 17.1139H7.7865C7.56737 16.1707 7.00894 15.341 6.21758 14.783C5.42621 14.2249 4.45722 13.9775 3.49519 14.0877C2.53315 14.198 1.64529 14.6583 1.00075 15.381C0.356198 16.1036 0 17.0381 0 18.0065C0 18.9748 0.356198 19.9093 1.00075 20.632C1.64529 21.3547 2.53315 21.815 3.49519 21.9252C4.45722 22.0355 5.42621 21.7881 6.21758 21.23C7.00894 20.672 7.56737 19.8423 7.7865 18.8991H14.8952C15.0419 20.686 15.6332 22.4079 16.6152 23.9081C17.5972 25.4082 18.9387 26.639 20.5177 27.4884C22.0967 28.3377 23.8631 28.7788 25.656 28.7714C27.449 28.7639 29.2116 28.3082 30.7835 27.4458C32.9258 30.7377 35.5732 32.8299 38.708 33.6467C39.7515 33.9153 40.8252 34.0491 41.9027 34.0448C47.3476 34.0448 53.8582 30.8412 61.315 24.4984L60.7652 29.2649L62.0077 29.4068L62.8664 21.9518L55.3685 21.6367L55.3149 22.8864L60.2109 23.0908C51.7882 30.2584 44.5251 33.3164 39.1588 31.9186C36.4658 31.2179 34.1602 29.3747 32.2653 26.4559C33.4264 25.5436 34.3871 24.4017 35.0873 23.1015C35.7874 21.8013 36.212 20.3707 36.3346 18.8991H43.4442C43.6436 19.7666 44.1313 20.5408 44.8277 21.0953C45.524 21.6497 46.3878 21.9516 47.2779 21.9516C48.1681 21.9516 49.0319 21.6497 49.7282 21.0953C50.4246 20.5408 50.9123 19.7666 51.1117 18.8991H62.3335C62.5329 19.7666 63.0206 20.5408 63.7169 21.0953C64.4133 21.6497 65.2771 21.9516 66.1672 21.9516C67.0573 21.9516 67.9211 21.6497 68.6175 21.0953C69.3138 20.5408 69.8015 19.7666 70.0009 18.8991H81.1121V21.9509H89V14.063H81.1112ZM25.6136 26.9879C23.8372 26.988 22.1006 26.4614 20.6235 25.4747C19.1464 24.4879 17.9951 23.0852 17.3152 21.4441C16.6353 19.803 16.4573 17.9971 16.8038 16.2549C17.1502 14.5126 18.0055 12.9122 19.2616 11.656C20.5176 10.3999 22.1179 9.54437 23.8602 9.19775C25.6024 8.85113 27.4083 9.02894 29.0495 9.70869C30.6907 10.3884 32.0934 11.5396 33.0804 13.0166C34.0673 14.4936 34.594 16.2301 34.594 18.0065C34.5914 20.3875 33.6445 22.6703 31.9609 24.3541C30.2773 26.0378 27.9946 26.985 25.6136 26.9879ZM30.3801 18.0065C30.3801 18.9494 30.1005 19.8711 29.5766 20.6551C29.0528 21.4391 28.3082 22.0502 27.4371 22.411C26.566 22.7718 25.6074 22.8662 24.6826 22.6823C23.7578 22.4983 22.9084 22.0443 22.2416 21.3776C21.5749 20.7108 21.1208 19.8614 20.9369 18.9366C20.7529 18.0118 20.8473 17.0532 21.2082 16.1821C21.569 15.311 22.1801 14.5664 22.9641 14.0426C23.7481 13.5187 24.6698 13.2391 25.6127 13.2391C26.8768 13.2396 28.0889 13.742 28.9826 14.6361C29.8762 15.5301 30.3783 16.7424 30.3783 18.0065H30.3801Z" fill="url(#paint0_linear_6_4383)"/>
<defs>
<linearGradient id="paint0_linear_6_4383" x1="0" y1="17.0224" x2="89" y2="17.0224" gradientUnits="userSpaceOnUse">
<stop stop-color="#03B0F2"/>
<stop offset="0.151" stop-color="#02BEE6"/>
<stop offset="0.423" stop-color="#01D0D5"/>
<stop offset="0.702" stop-color="#01DCCC"/>
<stop offset="1" stop-color="#01E0C9"/>
</linearGradient>
</defs>
</svg>
