<svg width="46" height="38" viewBox="0 0 46 38" fill="none" xmlns="http://www.w3.org/2000/svg">
<mask id="mask0_6_4012" style="mask-type:luminance" maskUnits="userSpaceOnUse" x="0" y="0" width="46" height="38">
<path d="M44.8072 8.0735e-07H0.465444C0.40429 -0.000113179 0.343716 0.0118439 0.287195 0.0351938C0.230674 0.0585437 0.179316 0.0928312 0.136073 0.136073C0.0928312 0.179316 0.0585437 0.230674 0.0351938 0.287195C0.0118439 0.343716 -0.000113179 0.404277 8.0735e-07 0.465431V37.0194C-0.000113179 37.0805 0.0118439 37.1411 0.0351938 37.1976C0.0585437 37.2541 0.0928312 37.3055 0.136073 37.3487C0.179316 37.392 0.230674 37.4263 0.287195 37.4496C0.343716 37.473 0.40429 37.4849 0.465444 37.4848H44.8072C44.9306 37.4848 45.049 37.4358 45.1363 37.3485C45.2236 37.2612 45.2726 37.1428 45.2726 37.0194V0.465431C45.2726 0.34199 45.2236 0.223623 45.1363 0.136338C45.049 0.0490516 44.9306 8.0735e-07 44.8072 8.0735e-07ZM0.930874 36.5539V6.84831H44.3417V36.5513L0.930874 36.5539ZM6.62855 13.3367H13.8956V14.7339H6.62855V13.3367ZM6.62855 21.0493H13.8956V22.4456H6.62855V21.0493ZM6.62855 28.7618H13.8956V30.159H6.62855V28.7618ZM18.9634 13.3367H26.2305V14.7339H18.9634V13.3367ZM18.9634 21.0493H26.2305V22.4456H18.9634V21.0493ZM18.9634 28.7618H26.2305V30.159H18.9634V28.7618ZM31.2975 13.3367H38.5645V14.7339H31.2975V13.3367ZM31.2975 21.0493H38.5645V22.4456H31.2975V21.0493ZM31.2975 28.7618H38.5645V30.159H31.2975V28.7618Z" fill="white"/>
</mask>
<g mask="url(#mask0_6_4012)">
<path d="M32.0669 28.7598H31.2979V30.1561H32.0669V28.7598Z" fill="#01DCCC"/>
<path d="M33.0113 28.7598H32.0684V30.1561H33.0113V28.7598Z" fill="#01DDCC"/>
<path d="M33.9547 28.7598H33.0117V30.1561H33.9547V28.7598Z" fill="#01DDCB"/>
<path d="M34.8971 28.7598H33.9541V30.1561H34.8971V28.7598Z" fill="#01DECB"/>
<path d="M35.8404 28.7598H34.8975V30.1561H35.8404V28.7598Z" fill="#01DECB"/>
<path d="M36.7848 28.7598H35.8418V30.1561H36.7848V28.7598Z" fill="#01DFCA"/>
<path d="M37.7272 28.7598H36.7842V30.1561H37.7272V28.7598Z" fill="#01DFCA"/>
<path d="M38.5641 28.7598H37.7275V30.1561H38.5641V28.7598Z" fill="#01DFCA"/>
<path d="M32.0669 21.0488H31.2979V22.4451H32.0669V21.0488Z" fill="#01DCCC"/>
<path d="M33.0113 21.0488H32.0684V22.4451H33.0113V21.0488Z" fill="#01DDCC"/>
<path d="M33.9547 21.0488H33.0117V22.4451H33.9547V21.0488Z" fill="#01DDCB"/>
<path d="M34.8971 21.0488H33.9541V22.4451H34.8971V21.0488Z" fill="#01DECB"/>
<path d="M35.8404 21.0488H34.8975V22.4451H35.8404V21.0488Z" fill="#01DECB"/>
<path d="M36.7848 21.0488H35.8418V22.4451H36.7848V21.0488Z" fill="#01DFCA"/>
<path d="M37.7272 21.0488H36.7842V22.4451H37.7272V21.0488Z" fill="#01DFCA"/>
<path d="M38.5641 21.0488H37.7275V22.4451H38.5641V21.0488Z" fill="#01DFCA"/>
<path d="M32.0669 13.3359H31.2979V14.7322H32.0669V13.3359Z" fill="#01DCCC"/>
<path d="M33.0113 13.3359H32.0684V14.7322H33.0113V13.3359Z" fill="#01DDCC"/>
<path d="M33.9547 13.3359H33.0117V14.7322H33.9547V13.3359Z" fill="#01DDCB"/>
<path d="M34.8971 13.3359H33.9541V14.7322H34.8971V13.3359Z" fill="#01DECB"/>
<path d="M35.8404 13.3359H34.8975V14.7322H35.8404V13.3359Z" fill="#01DECB"/>
<path d="M36.7848 13.3359H35.8418V14.7322H36.7848V13.3359Z" fill="#01DFCA"/>
<path d="M37.7272 13.3359H36.7842V14.7322H37.7272V13.3359Z" fill="#01DFCA"/>
<path d="M38.5641 13.3359H37.7275V14.7322H38.5641V13.3359Z" fill="#01DFCA"/>
<path d="M19.8075 28.7598H18.9648V30.1561H19.8075V28.7598Z" fill="#02D1D6"/>
<path d="M20.7496 28.7598H19.8066V30.1561H20.7496V28.7598Z" fill="#02D2D5"/>
<path d="M21.692 28.7598H20.749V30.1561H21.692V28.7598Z" fill="#02D3D4"/>
<path d="M22.6354 28.7598H21.6924V30.1561H22.6354V28.7598Z" fill="#01D4D3"/>
<path d="M23.5777 28.7598H22.6348V30.1561H23.5777V28.7598Z" fill="#01D5D2"/>
<path d="M24.5231 28.7598H23.5801V30.1561H24.5231V28.7598Z" fill="#01D6D1"/>
<path d="M25.4654 28.7598H24.5225V30.1561H25.4654V28.7598Z" fill="#01D7D0"/>
<path d="M26.2279 28.7598H25.4648V30.1561H26.2279V28.7598Z" fill="#01D8D0"/>
<path d="M19.8075 21.0488H18.9648V22.4451H19.8075V21.0488Z" fill="#02D1D6"/>
<path d="M20.7496 21.0488H19.8066V22.4451H20.7496V21.0488Z" fill="#02D2D5"/>
<path d="M21.692 21.0488H20.749V22.4451H21.692V21.0488Z" fill="#02D3D4"/>
<path d="M22.6354 21.0488H21.6924V22.4451H22.6354V21.0488Z" fill="#01D4D3"/>
<path d="M23.5777 21.0488H22.6348V22.4451H23.5777V21.0488Z" fill="#01D5D2"/>
<path d="M24.5231 21.0488H23.5801V22.4451H24.5231V21.0488Z" fill="#01D6D1"/>
<path d="M25.4654 21.0488H24.5225V22.4451H25.4654V21.0488Z" fill="#01D7D0"/>
<path d="M26.2279 21.0488H25.4648V22.4451H26.2279V21.0488Z" fill="#01D8D0"/>
<path d="M19.8075 13.3359H18.9648V14.7322H19.8075V13.3359Z" fill="#02D1D6"/>
<path d="M20.7496 13.3359H19.8066V14.7322H20.7496V13.3359Z" fill="#02D2D5"/>
<path d="M21.692 13.3359H20.749V14.7322H21.692V13.3359Z" fill="#02D3D4"/>
<path d="M22.6354 13.3359H21.6924V14.7322H22.6354V13.3359Z" fill="#01D4D3"/>
<path d="M23.5777 13.3359H22.6348V14.7322H23.5777V13.3359Z" fill="#01D5D2"/>
<path d="M24.5231 13.3359H23.5801V14.7322H24.5231V13.3359Z" fill="#01D6D1"/>
<path d="M25.4654 13.3359H24.5225V14.7322H25.4654V13.3359Z" fill="#01D7D0"/>
<path d="M26.2279 13.3359H25.4648V14.7322H26.2279V13.3359Z" fill="#01D8D0"/>
<path d="M7.5442 28.7598H6.62891V30.1561H7.5442V28.7598Z" fill="#02BEE6"/>
<path d="M8.48888 28.7598H7.5459V30.1561H8.48888V28.7598Z" fill="#02C0E5"/>
<path d="M9.43224 28.7598H8.48926V30.1561H9.43224V28.7598Z" fill="#02C1E3"/>
<path d="M10.3746 28.7598H9.43164V30.1561H10.3746V28.7598Z" fill="#02C3E2"/>
<path d="M11.318 28.7598H10.375V30.1561H11.318V28.7598Z" fill="#02C5E0"/>
<path d="M12.2604 28.7598H11.3174V30.1561H12.2604V28.7598Z" fill="#02C6DF"/>
<path d="M13.2047 28.7598H12.2617V30.1561H13.2047V28.7598Z" fill="#02C8DE"/>
<path d="M13.8954 28.7598H13.2051V30.1561H13.8954V28.7598Z" fill="#02C9DC"/>
<path d="M7.5442 21.0488H6.62891V22.4451H7.5442V21.0488Z" fill="#02BEE6"/>
<path d="M8.48888 21.0488H7.5459V22.4451H8.48888V21.0488Z" fill="#02C0E5"/>
<path d="M9.43224 21.0488H8.48926V22.4451H9.43224V21.0488Z" fill="#02C1E3"/>
<path d="M10.3746 21.0488H9.43164V22.4451H10.3746V21.0488Z" fill="#02C3E2"/>
<path d="M11.318 21.0488H10.375V22.4451H11.318V21.0488Z" fill="#02C5E0"/>
<path d="M12.2604 21.0488H11.3174V22.4451H12.2604V21.0488Z" fill="#02C6DF"/>
<path d="M13.2047 21.0488H12.2617V22.4451H13.2047V21.0488Z" fill="#02C8DE"/>
<path d="M13.8954 21.0488H13.2051V22.4451H13.8954V21.0488Z" fill="#02C9DC"/>
<path d="M7.5442 13.3359H6.62891V14.7322H7.5442V13.3359Z" fill="#02BEE6"/>
<path d="M8.48888 13.3359H7.5459V14.7322H8.48888V13.3359Z" fill="#02C0E5"/>
<path d="M9.43224 13.3359H8.48926V14.7322H9.43224V13.3359Z" fill="#02C1E3"/>
<path d="M10.3746 13.3359H9.43164V14.7322H10.3746V13.3359Z" fill="#02C3E2"/>
<path d="M11.318 13.3359H10.375V14.7322H11.318V13.3359Z" fill="#02C5E0"/>
<path d="M12.2604 13.3359H11.3174V14.7322H12.2604V13.3359Z" fill="#02C6DF"/>
<path d="M13.2047 13.3359H12.2617V14.7322H13.2047V13.3359Z" fill="#02C8DE"/>
<path d="M13.8954 13.3359H13.2051V14.7322H13.8954V13.3359Z" fill="#02C9DC"/>
<path d="M0.942776 6.85156H0.930664V36.5546H0.942776V6.85156Z" fill="#03B0F2"/>
<path d="M1.88536 6.85156H0.942383V36.5546H1.88536V6.85156Z" fill="#03B2F0"/>
<path d="M2.82872 6.85168H1.88574V36.5547H2.82872V6.85168Z" fill="#03B4EE"/>
<path d="M3.77111 6.85156H2.82812V36.5546H3.77111V6.85156Z" fill="#03B6ED"/>
<path d="M4.71642 6.85156H3.77344V36.5546H4.71642V6.85156Z" fill="#03B8EB"/>
<path d="M5.65892 6.85168H4.71594V36.5547H5.65892V6.85168Z" fill="#03BAE9"/>
<path d="M6.60216 6.85156H5.65918V36.5546H6.60216V6.85156Z" fill="#02BCE8"/>
<path d="M7.54454 6.85168H6.60156V36.5547H7.54454V6.85168Z" fill="#02BEE6"/>
<path d="M8.48888 6.85156H7.5459V36.5546H8.48888V6.85156Z" fill="#02C0E5"/>
<path d="M9.43224 6.85156H8.48926V36.5546H9.43224V6.85156Z" fill="#02C1E3"/>
<path d="M10.3749 6.85168H9.43188V36.5547H10.3749V6.85168Z" fill="#02C3E2"/>
<path d="M11.318 6.85156H10.375V36.5546H11.318V6.85156Z" fill="#02C5E0"/>
<path d="M12.2605 6.85168H11.3175V36.5547H12.2605V6.85168Z" fill="#02C6DF"/>
<path d="M13.2047 6.85156H12.2617V36.5546H13.2047V6.85156Z" fill="#02C8DE"/>
<path d="M14.1479 6.85168H13.205V36.5547H14.1479V6.85168Z" fill="#02C9DC"/>
<path d="M15.0904 6.85156H14.1475V36.5546H15.0904V6.85156Z" fill="#02CBDB"/>
<path d="M16.0336 6.85168H15.0906V36.5547H16.0336V6.85168Z" fill="#02CCDA"/>
<path d="M16.9762 6.85156H16.0332V36.5546H16.9762V6.85156Z" fill="#02CDD9"/>
<path d="M17.9195 6.85156H16.9766V36.5546H17.9195V6.85156Z" fill="#02CFD8"/>
<path d="M18.8638 6.85168H17.9208V36.5547H18.8638V6.85168Z" fill="#02D0D7"/>
<path d="M19.8063 6.85156H18.8633V36.5546H19.8063V6.85156Z" fill="#02D1D6"/>
<path d="M20.7495 6.85168H19.8065V36.5547H20.7495V6.85168Z" fill="#02D2D5"/>
<path d="M21.692 6.85156H20.749V36.5546H21.692V6.85156Z" fill="#02D3D4"/>
<path d="M22.6352 6.85168H21.6923V36.5547H22.6352V6.85168Z" fill="#01D4D3"/>
<path d="M23.5777 6.85156H22.6348V36.5546H23.5777V6.85156Z" fill="#01D5D2"/>
<path d="M24.5231 6.85156H23.5801V36.5546H24.5231V6.85156Z" fill="#01D6D1"/>
<path d="M25.4654 6.85168H24.5225V36.5547H25.4654V6.85168Z" fill="#01D7D0"/>
<path d="M26.4078 6.85156H25.4648V36.5546H26.4078V6.85156Z" fill="#01D8D0"/>
<path d="M27.3511 6.85168H26.4081V36.5547H27.3511V6.85168Z" fill="#01D9CF"/>
<path d="M28.2936 6.85156H27.3506V36.5546H28.2936V6.85156Z" fill="#01DACE"/>
<path d="M29.2389 6.85156H28.2959V36.5546H29.2389V6.85156Z" fill="#01DACE"/>
<path d="M30.1814 6.85168H29.2384V36.5547H30.1814V6.85168Z" fill="#01DBCD"/>
<path d="M31.1246 6.85156H30.1816V36.5546H31.1246V6.85156Z" fill="#01DCCD"/>
<path d="M32.067 6.85168H31.124V36.5547H32.067V6.85168Z" fill="#01DCCC"/>
<path d="M33.0116 6.85168H32.0686V36.5547H33.0116V6.85168Z" fill="#01DDCC"/>
<path d="M33.9547 6.85156H33.0117V36.5546H33.9547V6.85156Z" fill="#01DDCB"/>
<path d="M34.8972 6.85168H33.9542V36.5547H34.8972V6.85168Z" fill="#01DECB"/>
<path d="M35.8404 6.85156H34.8975V36.5546H35.8404V6.85156Z" fill="#01DECB"/>
<path d="M36.7847 6.85168H35.8417V36.5547H36.7847V6.85168Z" fill="#01DFCA"/>
<path d="M37.7272 6.85156H36.7842V36.5546H37.7272V6.85156Z" fill="#01DFCA"/>
<path d="M38.6703 6.85168H37.7273V36.5547H38.6703V6.85168Z" fill="#01DFCA"/>
<path d="M39.6129 6.85156H38.6699V36.5546H39.6129V6.85156Z" fill="#01DFCA"/>
<path d="M40.556 6.85168H39.613V36.5547H40.556V6.85168Z" fill="#01E0C9"/>
<path d="M41.5006 6.85168H40.5576V36.5547H41.5006V6.85168Z" fill="#01E0C9"/>
<path d="M42.443 6.85156H41.5V36.5546H42.443V6.85156Z" fill="#01E0C9"/>
<path d="M43.3862 6.85168H42.4432V36.5547H43.3862V6.85168Z" fill="#01E0C9"/>
<path d="M44.3287 6.85156H43.3857V36.5546H44.3287V6.85156Z" fill="#01E0C9"/>
<path d="M44.3411 6.85168H44.329V36.5547H44.3411V6.85168Z" fill="#01E0C9"/>
<path d="M0.942981 0H0V37.4857H0.942981V0Z" fill="#03B0F2"/>
<path d="M1.88536 0H0.942383V37.4857H1.88536V0Z" fill="#03B2F0"/>
<path d="M2.82872 0H1.88574V37.4857H2.82872V0Z" fill="#03B4EE"/>
<path d="M3.77111 0H2.82812V37.4857H3.77111V0Z" fill="#03B6ED"/>
<path d="M4.71642 0H3.77344V37.4857H4.71642V0Z" fill="#03B8EB"/>
<path d="M5.65892 0H4.71594V37.4857H5.65892V0Z" fill="#03BAE9"/>
<path d="M6.60216 0H5.65918V37.4857H6.60216V0Z" fill="#02BCE8"/>
<path d="M7.54454 0H6.60156V37.4857H7.54454V0Z" fill="#02BEE6"/>
<path d="M8.48888 0H7.5459V37.4857H8.48888V0Z" fill="#02C0E5"/>
<path d="M9.43224 0H8.48926V37.4857H9.43224V0Z" fill="#02C1E3"/>
<path d="M10.3749 0H9.43188V37.4857H10.3749V0Z" fill="#02C3E2"/>
<path d="M11.318 0H10.375V37.4857H11.318V0Z" fill="#02C5E0"/>
<path d="M12.2605 0H11.3175V37.4857H12.2605V0Z" fill="#02C6DF"/>
<path d="M13.2047 0H12.2617V37.4857H13.2047V0Z" fill="#02C8DE"/>
<path d="M14.1479 0H13.205V37.4857H14.1479V0Z" fill="#02C9DC"/>
<path d="M15.0904 0H14.1475V37.4857H15.0904V0Z" fill="#02CBDB"/>
<path d="M16.0336 0H15.0906V37.4857H16.0336V0Z" fill="#02CCDA"/>
<path d="M16.9762 0H16.0332V37.4857H16.9762V0Z" fill="#02CDD9"/>
<path d="M17.9195 0H16.9766V37.4857H17.9195V0Z" fill="#02CFD8"/>
<path d="M18.8638 0H17.9208V37.4857H18.8638V0Z" fill="#02D0D7"/>
<path d="M19.8063 0H18.8633V37.4857H19.8063V0Z" fill="#02D1D6"/>
<path d="M20.7495 0H19.8065V37.4857H20.7495V0Z" fill="#02D2D5"/>
<path d="M21.692 0H20.749V37.4857H21.692V0Z" fill="#02D3D4"/>
<path d="M22.6352 0H21.6923V37.4857H22.6352V0Z" fill="#01D4D3"/>
<path d="M23.5777 0H22.6348V37.4857H23.5777V0Z" fill="#01D5D2"/>
<path d="M24.5231 0H23.5801V37.4857H24.5231V0Z" fill="#01D6D1"/>
<path d="M25.4654 0H24.5225V37.4857H25.4654V0Z" fill="#01D7D0"/>
<path d="M26.4078 0H25.4648V37.4857H26.4078V0Z" fill="#01D8D0"/>
<path d="M27.3511 0H26.4081V37.4857H27.3511V0Z" fill="#01D9CF"/>
<path d="M28.2936 0H27.3506V37.4857H28.2936V0Z" fill="#01DACE"/>
<path d="M29.2389 0H28.2959V37.4857H29.2389V0Z" fill="#01DACE"/>
<path d="M30.1814 0H29.2384V37.4857H30.1814V0Z" fill="#01DBCD"/>
<path d="M31.1246 0H30.1816V37.4857H31.1246V0Z" fill="#01DCCD"/>
<path d="M32.067 0H31.124V37.4857H32.067V0Z" fill="#01DCCC"/>
<path d="M33.0116 0H32.0686V37.4857H33.0116V0Z" fill="#01DDCC"/>
<path d="M33.9547 0H33.0117V37.4857H33.9547V0Z" fill="#01DDCB"/>
<path d="M34.8972 0H33.9542V37.4857H34.8972V0Z" fill="#01DECB"/>
<path d="M35.8404 0H34.8975V37.4857H35.8404V0Z" fill="#01DECB"/>
<path d="M36.7847 0H35.8417V37.4857H36.7847V0Z" fill="#01DFCA"/>
<path d="M37.7272 0H36.7842V37.4857H37.7272V0Z" fill="#01DFCA"/>
<path d="M38.6703 0H37.7273V37.4857H38.6703V0Z" fill="#01DFCA"/>
<path d="M39.6129 0H38.6699V37.4857H39.6129V0Z" fill="#01DFCA"/>
<path d="M40.556 0H39.613V37.4857H40.556V0Z" fill="#01E0C9"/>
<path d="M41.5006 0H40.5576V37.4857H41.5006V0Z" fill="#01E0C9"/>
<path d="M42.443 0H41.5V37.4857H42.443V0Z" fill="#01E0C9"/>
<path d="M43.3862 0H42.4432V37.4857H43.3862V0Z" fill="#01E0C9"/>
<path d="M44.3287 0H43.3857V37.4857H44.3287V0Z" fill="#01E0C9"/>
<path d="M45.272 0H44.329V37.4857H45.272V0Z" fill="#01E0C9"/>
</g>
</svg>
