<?xml version="1.0" encoding="utf-8"?>
<!-- Generator: Adobe Illustrator 24.2.3, SVG Export Plug-In . SVG Version: 6.00 Build 0)  -->
<svg version="1.1" id="Layer_1" xmlns="http://www.w3.org/2000/svg" xmlns:xlink="http://www.w3.org/1999/xlink" x="0px" y="0px"
	 viewBox="0 0 1031.4 578.3" style="enable-background:new 0 0 1031.4 578.3;" xml:space="preserve">
<style type="text/css">
	.st0{fill:#EAEAF2;}
	.st1{clip-path:url(#SVGID_2_);fill:none;stroke:#FFFFFF;stroke-width:1.0892;stroke-linecap:round;stroke-linejoin:round;}
	.st2{fill:#262626;}
	.st3{clip-path:url(#SVGID_4_);fill:none;stroke:#FFFFFF;stroke-width:1.0892;stroke-linecap:round;stroke-linejoin:round;}
	.st4{clip-path:url(#SVGID_6_);fill:none;stroke:#FFFFFF;stroke-width:1.0892;stroke-linecap:round;stroke-linejoin:round;}
	.st5{clip-path:url(#SVGID_8_);fill:none;stroke:#FFFFFF;stroke-width:1.0892;stroke-linecap:round;stroke-linejoin:round;}
	.st6{clip-path:url(#SVGID_10_);fill:none;stroke:#FFFFFF;stroke-width:1.0892;stroke-linecap:round;stroke-linejoin:round;}
	.st7{clip-path:url(#SVGID_12_);fill:none;stroke:#FFFFFF;stroke-width:1.0892;stroke-linecap:round;stroke-linejoin:round;}
	.st8{clip-path:url(#SVGID_14_);fill:none;stroke:#FFFFFF;stroke-width:1.0892;stroke-linecap:round;stroke-linejoin:round;}
	.st9{clip-path:url(#SVGID_16_);fill:none;stroke:#FFFFFF;stroke-width:1.0892;stroke-linecap:round;stroke-linejoin:round;}
	.st10{clip-path:url(#SVGID_18_);fill:none;stroke:#FFFFFF;stroke-width:1.0892;stroke-linecap:round;stroke-linejoin:round;}
	.st11{clip-path:url(#SVGID_20_);fill:none;stroke:#FFFFFF;stroke-width:1.0892;stroke-linecap:round;stroke-linejoin:round;}
	.st12{clip-path:url(#SVGID_22_);fill:none;stroke:#FFFFFF;stroke-width:1.0892;stroke-linecap:round;stroke-linejoin:round;}
	.st13{clip-path:url(#SVGID_24_);fill:none;stroke:#FFFFFF;stroke-width:1.0892;stroke-linecap:round;stroke-linejoin:round;}
	.st14{opacity:0.4;clip-path:url(#SVGID_26_);fill:#4C72B0;stroke:#FFFFFF;stroke-width:1.0892;enable-background:new    ;}
	.st15{opacity:0.4;clip-path:url(#SVGID_28_);fill:#4C72B0;stroke:#FFFFFF;stroke-width:1.0892;enable-background:new    ;}
	.st16{opacity:0.4;clip-path:url(#SVGID_30_);fill:#4C72B0;stroke:#FFFFFF;stroke-width:1.0892;enable-background:new    ;}
	.st17{opacity:0.4;clip-path:url(#SVGID_32_);fill:#4C72B0;stroke:#FFFFFF;stroke-width:1.0892;enable-background:new    ;}
	.st18{opacity:0.4;clip-path:url(#SVGID_34_);fill:#4C72B0;stroke:#FFFFFF;stroke-width:1.0892;enable-background:new    ;}
	.st19{opacity:0.4;clip-path:url(#SVGID_36_);fill:#4C72B0;stroke:#FFFFFF;stroke-width:1.0892;enable-background:new    ;}
	.st20{opacity:0.4;clip-path:url(#SVGID_38_);fill:#4C72B0;stroke:#FFFFFF;stroke-width:1.0892;enable-background:new    ;}
	.st21{opacity:0.4;clip-path:url(#SVGID_40_);fill:#4C72B0;stroke:#FFFFFF;stroke-width:1.0892;enable-background:new    ;}
	.st22{opacity:0.4;clip-path:url(#SVGID_42_);fill:#4C72B0;stroke:#FFFFFF;stroke-width:1.0892;enable-background:new    ;}
	.st23{opacity:0.4;clip-path:url(#SVGID_44_);fill:#4C72B0;stroke:#FFFFFF;stroke-width:1.0892;enable-background:new    ;}
	.st24{opacity:0.4;clip-path:url(#SVGID_46_);fill:#DD8452;stroke:#FFFFFF;stroke-width:1.0892;enable-background:new    ;}
	.st25{opacity:0.4;clip-path:url(#SVGID_48_);fill:#DD8452;stroke:#FFFFFF;stroke-width:1.0892;enable-background:new    ;}
	.st26{opacity:0.4;clip-path:url(#SVGID_50_);fill:#DD8452;stroke:#FFFFFF;stroke-width:1.0892;enable-background:new    ;}
	.st27{opacity:0.4;clip-path:url(#SVGID_52_);fill:#DD8452;stroke:#FFFFFF;stroke-width:1.0892;enable-background:new    ;}
	.st28{opacity:0.4;clip-path:url(#SVGID_54_);fill:#DD8452;stroke:#FFFFFF;stroke-width:1.0892;enable-background:new    ;}
	.st29{opacity:0.4;clip-path:url(#SVGID_56_);fill:#DD8452;stroke:#FFFFFF;stroke-width:1.0892;enable-background:new    ;}
	.st30{opacity:0.4;clip-path:url(#SVGID_58_);fill:#DD8452;stroke:#FFFFFF;stroke-width:1.0892;enable-background:new    ;}
	.st31{opacity:0.4;clip-path:url(#SVGID_60_);fill:#DD8452;stroke:#FFFFFF;stroke-width:1.0892;enable-background:new    ;}
	.st32{opacity:0.4;clip-path:url(#SVGID_62_);fill:#DD8452;stroke:#FFFFFF;stroke-width:1.0892;enable-background:new    ;}
	.st33{opacity:0.4;clip-path:url(#SVGID_64_);fill:#DD8452;stroke:#FFFFFF;stroke-width:1.0892;enable-background:new    ;}
	.st34{fill:none;stroke:#FFFFFF;stroke-width:1.3615;stroke-linecap:square;}
	.st35{opacity:0.8;fill:#FFFFFF;stroke:#CCCCCC;stroke-width:1.0892;enable-background:new    ;}
	.st36{opacity:0.4;fill:#4C72B0;stroke:#FFFFFF;stroke-width:1.0892;enable-background:new    ;}
	.st37{opacity:0.4;fill:#DD8452;stroke:#FFFFFF;stroke-width:1.0892;enable-background:new    ;}
</style>
<g>
	<g id="patch_2">
		<path class="st0" d="M58.3,536.3h972.5V3.4H58.3V536.3z"/>
	</g>
	<g id="matplotlib.axis_1">
		<g id="xtick_1">
			<g id="line2d_1">
				<g>
					<defs>
						<rect id="SVGID_1_" x="58.3" y="3.4" width="972.5" height="532.9"/>
					</defs>
					<clipPath id="SVGID_2_">
						<use xlink:href="#SVGID_1_"  style="overflow:visible;"/>
					</clipPath>
					<path class="st1" d="M88.6,536.3V3.4"/>
				</g>
			</g>
			<g id="text_1">
				<g transform="translate(132.38744 605.13125)scale(0.4 -0.4)">
					<g>
						<path id="ArialMT-8722" class="st2" d="M-159.4,102.4h-51.5v8.9h51.5V102.4z"/>
					</g>
					<g>
						<path id="ArialMT-50" class="st2" d="M-98.5,77.6v-9.2H-150c-0.1,2.3,0.3,4.5,1.1,6.7c1.3,3.5,3.4,7,6.3,10.4
							c2.9,3.4,7.1,7.3,12.5,11.8c8.5,6.9,14.2,12.4,17.2,16.5c3,4.1,4.5,7.9,4.5,11.5c0,3.8-1.4,7-4.1,9.6
							c-2.7,2.6-6.2,3.9-10.6,3.9c-4.6,0-8.3-1.4-11.1-4.2c-2.8-2.8-4.2-6.6-4.2-11.5l-9.8,1c0.7,7.3,3.2,12.9,7.6,16.8
							c4.4,3.8,10.3,5.8,17.7,5.8c7.5,0,13.4-2.1,17.8-6.2c4.4-4.1,6.6-9.3,6.6-15.4c0-3.1-0.6-6.2-1.9-9.2c-1.3-3-3.4-6.2-6.3-9.5
							c-3-3.3-7.9-7.9-14.8-13.7c-5.8-4.8-9.4-8.1-11.1-9.8c-1.6-1.7-3-3.4-4-5.2H-98.5z"/>
					</g>
					<g>
						<path id="ArialMT-46" class="st2" d="M-82.9,68.4v10.9H-72V68.4H-82.9z"/>
					</g>
					<g>
						<path id="ArialMT-53" class="st2" d="M-58,88.8l10,0.9c0.7-4.9,2.5-8.6,5.2-11c2.7-2.5,6-3.7,9.8-3.7c4.6,0,8.5,1.7,11.7,5.2
							c3.2,3.5,4.8,8.1,4.8,13.8c0,5.5-1.5,9.8-4.6,12.9c-3.1,3.2-7.1,4.7-12,4.7c-3.1,0-5.9-0.7-8.4-2.1c-2.5-1.4-4.4-3.2-5.8-5.4
							l-9,1.2l7.5,40H-10v-9.2h-31.1l-4.2-21c4.7,3.3,9.6,4.9,14.7,4.9c6.8,0,12.5-2.4,17.2-7.1c4.7-4.7,7-10.8,7-18.2
							c0-7.1-2.1-13.2-6.2-18.3c-5-6.3-11.8-9.5-20.5-9.5c-7.1,0-12.9,2-17.4,6C-54.8,77-57.3,82.2-58,88.8z"/>
					</g>
				</g>
			</g>
		</g>
		<g id="xtick_2">
			<g id="line2d_2">
				<g>
					<defs>
						<rect id="SVGID_3_" x="58.3" y="3.4" width="972.5" height="532.9"/>
					</defs>
					<clipPath id="SVGID_4_">
						<use xlink:href="#SVGID_3_"  style="overflow:visible;"/>
					</clipPath>
					<path class="st3" d="M235.2,536.3V3.4"/>
				</g>
			</g>
			<g id="text_2">
				<g transform="translate(278.611579 605.13125)scale(0.4 -0.4)">
					<g>
						<path id="ArialMT-48" class="st2" d="M-179.8,106.8c0,9.2,0.9,16.6,2.8,22.3c1.9,5.6,4.7,10,8.4,13c3.7,3.1,8.5,4.6,14.1,4.6
							c4.2,0,7.9-0.8,11-2.5c3.2-1.7,5.8-4.1,7.8-7.3c2.1-3.2,3.7-7,4.9-11.6c1.2-4.5,1.8-10.7,1.8-18.4c0-9.1-0.9-16.5-2.8-22.1
							c-1.9-5.6-4.7-10-8.4-13c-3.7-3.1-8.5-4.6-14.2-4.6c-7.5,0-13.4,2.7-17.7,8.1C-177.2,81.6-179.8,92.2-179.8,106.8z
							 M-170,106.8c0-12.8,1.5-21.3,4.5-25.6c3-4.2,6.7-6.3,11.1-6.3c4.4,0,8.1,2.1,11.1,6.4c3,4.3,4.5,12.8,4.5,25.5
							c0,12.8-1.5,21.4-4.5,25.6c-3,4.2-6.7,6.3-11.2,6.3c-4.4,0-7.9-1.9-10.5-5.6C-168.3,128.4-170,119.6-170,106.8z"/>
					</g>
					<g>
						<path id="ArialMT-46_1_" class="st2" d="M-113.9,68.4v10.9h10.9V68.4H-113.9z"/>
					</g>
					<g>
						<path id="ArialMT-48_1_" class="st2" d="M-89,106.8c0,9.2,0.9,16.6,2.8,22.3c1.9,5.6,4.7,10,8.4,13c3.7,3.1,8.5,4.6,14.1,4.6
							c4.2,0,7.9-0.8,11-2.5c3.2-1.7,5.8-4.1,7.8-7.3c2.1-3.2,3.7-7,4.9-11.6c1.2-4.5,1.8-10.7,1.8-18.4c0-9.1-0.9-16.5-2.8-22.1
							c-1.9-5.6-4.7-10-8.4-13c-3.7-3.1-8.5-4.6-14.2-4.6c-7.5,0-13.4,2.7-17.7,8.1C-86.4,81.6-89,92.2-89,106.8z M-79.1,106.8
							c0-12.8,1.5-21.3,4.5-25.6c3-4.2,6.7-6.3,11.1-6.3c4.4,0,8.1,2.1,11.1,6.4c3,4.3,4.5,12.8,4.5,25.5c0,12.8-1.5,21.4-4.5,25.6
							c-3,4.2-6.7,6.3-11.2,6.3c-4.4,0-7.9-1.9-10.5-5.6C-77.5,128.4-79.1,119.6-79.1,106.8z"/>
					</g>
				</g>
			</g>
		</g>
		<g id="xtick_3">
			<g id="line2d_3">
				<g>
					<defs>
						<rect id="SVGID_5_" x="58.3" y="3.4" width="972.5" height="532.9"/>
					</defs>
					<clipPath id="SVGID_6_">
						<use xlink:href="#SVGID_5_"  style="overflow:visible;"/>
					</clipPath>
					<path class="st4" d="M381.7,536.3V3.4"/>
				</g>
			</g>
			<g id="text_3">
				<g transform="translate(413.154468 605.13125)scale(0.4 -0.4)">
					<g>
						<path id="ArialMT-50_1_" class="st2" d="M-99.5,77.6v-9.2H-151c-0.1,2.3,0.3,4.5,1.1,6.7c1.3,3.5,3.4,7,6.3,10.4
							c2.9,3.4,7.1,7.3,12.5,11.8c8.5,6.9,14.2,12.4,17.2,16.5c3,4.1,4.5,7.9,4.5,11.5c0,3.8-1.4,7-4.1,9.6
							c-2.7,2.6-6.2,3.9-10.6,3.9c-4.6,0-8.3-1.4-11.1-4.2c-2.8-2.8-4.2-6.6-4.2-11.5l-9.8,1c0.7,7.3,3.2,12.9,7.6,16.8
							c4.4,3.8,10.3,5.8,17.7,5.8c7.5,0,13.4-2.1,17.8-6.2c4.4-4.1,6.6-9.3,6.6-15.4c0-3.1-0.6-6.2-1.9-9.2c-1.3-3-3.4-6.2-6.3-9.5
							c-3-3.3-7.9-7.9-14.8-13.7c-5.8-4.8-9.4-8.1-11.1-9.8c-1.6-1.7-3-3.4-4-5.2H-99.5z"/>
					</g>
					<g>
						<path id="ArialMT-46_2_" class="st2" d="M-83.9,68.4v10.9H-73V68.4H-83.9z"/>
					</g>
					<g>
						<path id="ArialMT-53_1_" class="st2" d="M-59,88.8l10,0.9c0.7-4.9,2.5-8.6,5.2-11c2.7-2.5,6-3.7,9.8-3.7
							c4.6,0,8.5,1.7,11.7,5.2c3.2,3.5,4.8,8.1,4.8,13.8c0,5.5-1.5,9.8-4.6,12.9c-3.1,3.2-7.1,4.7-12,4.7c-3.1,0-5.9-0.7-8.4-2.1
							c-2.5-1.4-4.4-3.2-5.8-5.4l-9,1.2l7.5,40h38.8v-9.2h-31.1l-4.2-21c4.7,3.3,9.6,4.9,14.7,4.9c6.8,0,12.5-2.4,17.2-7.1
							c4.7-4.7,7-10.8,7-18.2c0-7.1-2.1-13.2-6.2-18.3c-5-6.3-11.8-9.5-20.5-9.5c-7.1,0-12.9,2-17.4,6C-55.8,77-58.3,82.2-59,88.8z"
							/>
					</g>
				</g>
			</g>
		</g>
		<g id="xtick_4">
			<g id="line2d_4">
				<g>
					<defs>
						<rect id="SVGID_7_" x="58.3" y="3.4" width="972.5" height="532.9"/>
					</defs>
					<clipPath id="SVGID_8_">
						<use xlink:href="#SVGID_7_"  style="overflow:visible;"/>
					</clipPath>
					<path class="st5" d="M528.2,536.3V3.4"/>
				</g>
			</g>
			<g id="text_4">
				<g transform="translate(547.697357 605.13125)scale(0.4 -0.4)">
					<g>
						<path id="ArialMT-53_2_" class="st2" d="M-119.8,88.8l10,0.9c0.7-4.9,2.5-8.6,5.2-11c2.7-2.5,6-3.7,9.8-3.7
							c4.6,0,8.5,1.7,11.7,5.2c3.2,3.5,4.8,8.1,4.8,13.8c0,5.5-1.5,9.8-4.6,12.9c-3.1,3.2-7.1,4.7-12,4.7c-3.1,0-5.9-0.7-8.4-2.1
							c-2.5-1.4-4.4-3.2-5.8-5.4l-9,1.2l7.5,40h38.8v-9.2h-31.1l-4.2-21c4.7,3.3,9.6,4.9,14.7,4.9c6.8,0,12.5-2.4,17.2-7.1
							c4.7-4.7,7-10.8,7-18.2c0-7.1-2.1-13.2-6.2-18.3c-5-6.3-11.8-9.5-20.5-9.5c-7.1,0-12.9,2-17.4,6
							C-116.6,77-119.2,82.2-119.8,88.8z"/>
					</g>
					<g>
						<path id="ArialMT-46_3_" class="st2" d="M-53.9,68.4v10.9h10.9V68.4H-53.9z"/>
					</g>
					<g>
						<path id="ArialMT-48_2_" class="st2" d="M-29,106.8c0,9.2,0.9,16.6,2.8,22.3c1.9,5.6,4.7,10,8.4,13c3.7,3.1,8.5,4.6,14.1,4.6
							c4.2,0,7.9-0.8,11-2.5c3.2-1.7,5.8-4.1,7.8-7.3c2.1-3.2,3.7-7,4.9-11.6c1.2-4.5,1.8-10.7,1.8-18.4c0-9.1-0.9-16.5-2.8-22.1
							c-1.9-5.6-4.7-10-8.4-13C6.9,68.6,2.2,67-3.5,67c-7.5,0-13.4,2.7-17.7,8.1C-26.4,81.6-29,92.2-29,106.8z M-19.1,106.8
							c0-12.8,1.5-21.3,4.5-25.6c3-4.2,6.7-6.3,11.1-6.3c4.4,0,8.1,2.1,11.1,6.4c3,4.3,4.5,12.8,4.5,25.5c0,12.8-1.5,21.4-4.5,25.6
							c-3,4.2-6.7,6.3-11.2,6.3c-4.4,0-7.9-1.9-10.5-5.6C-17.5,128.4-19.1,119.6-19.1,106.8z"/>
					</g>
				</g>
			</g>
		</g>
		<g id="xtick_5">
			<g id="line2d_5">
				<g>
					<defs>
						<rect id="SVGID_9_" x="58.3" y="3.4" width="972.5" height="532.9"/>
					</defs>
					<clipPath id="SVGID_10_">
						<use xlink:href="#SVGID_9_"  style="overflow:visible;"/>
					</clipPath>
					<path class="st6" d="M674.8,536.3V3.4"/>
				</g>
			</g>
			<g id="text_5">
				<g transform="translate(682.240246 605.13125)scale(0.4 -0.4)">
					<g>
						<path id="ArialMT-55" class="st2" d="M-89.2,136.1v9.2h50.5v-7.5c-5-5.3-9.9-12.3-14.8-21.1c-4.9-8.8-8.6-17.8-11.3-27
							c-1.9-6.5-3.1-13.7-3.7-21.4h-9.8c0.1,6.1,1.3,13.5,3.6,22.2c2.3,8.7,5.6,17.1,9.9,25.1s8.9,14.9,13.8,20.4H-89.2z"/>
					</g>
					<g>
						<path id="ArialMT-46_4_" class="st2" d="M-23.8,68.4v10.9h10.9V68.4H-23.8z"/>
					</g>
					<g>
						<path id="ArialMT-53_3_" class="st2" d="M1.1,88.8l10,0.9c0.7-4.9,2.5-8.6,5.2-11c2.7-2.5,6-3.7,9.8-3.7
							c4.6,0,8.5,1.7,11.7,5.2c3.2,3.5,4.8,8.1,4.8,13.8c0,5.5-1.5,9.8-4.6,12.9c-3.1,3.2-7.1,4.7-12,4.7c-3.1,0-5.9-0.7-8.4-2.1
							c-2.5-1.4-4.4-3.2-5.8-5.4l-9,1.2l7.5,40h38.8v-9.2H18l-4.2-21c4.7,3.3,9.6,4.9,14.7,4.9c6.8,0,12.5-2.4,17.2-7.1
							c4.7-4.7,7-10.8,7-18.2c0-7.1-2.1-13.2-6.2-18.3c-5-6.3-11.8-9.5-20.5-9.5c-7.1,0-12.9,2-17.4,6C4.2,77,1.7,82.2,1.1,88.8z"/>
					</g>
				</g>
			</g>
		</g>
		<g id="xtick_6">
			<g id="line2d_6">
				<g>
					<defs>
						<rect id="SVGID_11_" x="58.3" y="3.4" width="972.5" height="532.9"/>
					</defs>
					<clipPath id="SVGID_12_">
						<use xlink:href="#SVGID_11_"  style="overflow:visible;"/>
					</clipPath>
					<path class="st7" d="M821.3,536.3V3.4"/>
				</g>
			</g>
			<g id="text_6">
				<g transform="translate(805.66126 605.13125)scale(0.4 -0.4)">
					<g>
						<path id="ArialMT-49" class="st2" d="M-26.2,68.4h-9.6v61c-2.3-2.2-5.3-4.4-9.1-6.6c-3.7-2.2-7.1-3.9-10.1-5v9.3
							c5.4,2.5,10,5.6,14,9.1c4,3.6,6.8,7.1,8.5,10.4h6.2V68.4z"/>
					</g>
					<g>
						<path id="ArialMT-48_3_" class="st2" d="M-1.7,106.8c0,9.2,0.9,16.6,2.8,22.3c1.9,5.6,4.7,10,8.4,13c3.7,3.1,8.5,4.6,14.1,4.6
							c4.2,0,7.9-0.8,11-2.5c3.2-1.7,5.8-4.1,7.8-7.3c2.1-3.2,3.7-7,4.9-11.6c1.2-4.5,1.8-10.7,1.8-18.4c0-9.1-0.9-16.5-2.8-22.1
							c-1.9-5.6-4.7-10-8.4-13c-3.7-3.1-8.5-4.6-14.2-4.6c-7.5,0-13.4,2.7-17.7,8.1C0.9,81.6-1.7,92.2-1.7,106.8z M8.2,106.8
							c0-12.8,1.5-21.3,4.5-25.6c3-4.2,6.7-6.3,11.1-6.3c4.4,0,8.1,2.1,11.1,6.4c3,4.3,4.5,12.8,4.5,25.5c0,12.8-1.5,21.4-4.5,25.6
							c-3,4.2-6.7,6.3-11.2,6.3c-4.4,0-7.9-1.9-10.5-5.6C9.8,128.4,8.2,119.6,8.2,106.8z"/>
					</g>
					<g>
						<path id="ArialMT-46_5_" class="st2" d="M64.3,68.4v10.9h10.9V68.4H64.3z"/>
					</g>
					<g>
						<path id="ArialMT-48_4_" class="st2" d="M89.2,106.8c0,9.2,0.9,16.6,2.8,22.3c1.9,5.6,4.7,10,8.4,13c3.7,3.1,8.5,4.6,14.1,4.6
							c4.2,0,7.9-0.8,11-2.5c3.2-1.7,5.8-4.1,7.8-7.3c2.1-3.2,3.7-7,4.9-11.6c1.2-4.5,1.8-10.7,1.8-18.4c0-9.1-0.9-16.5-2.8-22.1
							c-1.9-5.6-4.7-10-8.4-13c-3.7-3.1-8.5-4.6-14.2-4.6c-7.5,0-13.4,2.7-17.7,8.1C91.7,81.6,89.2,92.2,89.2,106.8z M99,106.8
							c0-12.8,1.5-21.3,4.5-25.6c3-4.2,6.7-6.3,11.1-6.3c4.4,0,8.1,2.1,11.1,6.4c3,4.3,4.5,12.8,4.5,25.5c0,12.8-1.5,21.4-4.5,25.6
							c-3,4.2-6.7,6.3-11.2,6.3c-4.4,0-7.9-1.9-10.5-5.6C100.6,128.4,99,119.6,99,106.8z"/>
					</g>
				</g>
			</g>
		</g>
		<g id="xtick_7">
			<g id="line2d_7">
				<g>
					<defs>
						<rect id="SVGID_13_" x="58.3" y="3.4" width="972.5" height="532.9"/>
					</defs>
					<clipPath id="SVGID_14_">
						<use xlink:href="#SVGID_13_"  style="overflow:visible;"/>
					</clipPath>
					<path class="st8" d="M967.9,536.3V3.4"/>
				</g>
			</g>
			<g id="text_7">
				<g transform="translate(940.204149 605.13125)scale(0.4 -0.4)">
					<g>
						<path id="ArialMT-49_1_" class="st2" d="M3.8,68.4h-9.6v61c-2.3-2.2-5.3-4.4-9.1-6.6s-7.1-3.9-10.1-5v9.3
							c5.4,2.5,10,5.6,14,9.1c4,3.6,6.8,7.1,8.5,10.4h6.2V68.4z"/>
					</g>
					<g>
						<path id="ArialMT-50_2_" class="st2" d="M78.6,77.6v-9.2H27.1c-0.1,2.3,0.3,4.5,1.1,6.7c1.3,3.5,3.4,7,6.3,10.4
							c2.9,3.4,7.1,7.3,12.5,11.8c8.5,6.9,14.2,12.4,17.2,16.5c3,4.1,4.5,7.9,4.5,11.5c0,3.8-1.4,7-4.1,9.6
							c-2.7,2.6-6.2,3.9-10.6,3.9c-4.6,0-8.3-1.4-11.1-4.2c-2.8-2.8-4.2-6.6-4.2-11.5l-9.8,1c0.7,7.3,3.2,12.9,7.6,16.8
							c4.4,3.8,10.3,5.8,17.7,5.8c7.5,0,13.4-2.1,17.8-6.2c4.4-4.1,6.6-9.3,6.6-15.4c0-3.1-0.6-6.2-1.9-9.2c-1.3-3-3.4-6.2-6.3-9.5
							c-3-3.3-7.9-7.9-14.8-13.7c-5.8-4.8-9.4-8.1-11.1-9.8c-1.6-1.7-3-3.4-4-5.2H78.6z"/>
					</g>
					<g>
						<path id="ArialMT-46_6_" class="st2" d="M94.3,68.4v10.9h10.9V68.4H94.3z"/>
					</g>
					<g>
						<path id="ArialMT-53_4_" class="st2" d="M119.2,88.8l10,0.9c0.7-4.9,2.5-8.6,5.2-11c2.7-2.5,6-3.7,9.8-3.7
							c4.6,0,8.5,1.7,11.7,5.2c3.2,3.5,4.8,8.1,4.8,13.8c0,5.5-1.5,9.8-4.6,12.9c-3.1,3.2-7.1,4.7-12,4.7c-3.1,0-5.9-0.7-8.4-2.1
							c-2.5-1.4-4.4-3.2-5.8-5.4l-9,1.2l7.5,40h38.8v-9.2h-31.1l-4.2-21c4.7,3.3,9.6,4.9,14.7,4.9c6.8,0,12.5-2.4,17.2-7.1
							c4.7-4.7,7-10.8,7-18.2c0-7.1-2.1-13.2-6.2-18.3c-5-6.3-11.8-9.5-20.5-9.5c-7.1,0-12.9,2-17.4,6
							C122.4,77,119.8,82.2,119.2,88.8z"/>
					</g>
				</g>
			</g>
		</g>
	</g>
	<g id="matplotlib.axis_2">
		<g id="ytick_1">
			<g id="line2d_8">
				<g>
					<defs>
						<rect id="SVGID_15_" x="58.3" y="3.4" width="972.5" height="532.9"/>
					</defs>
					<clipPath id="SVGID_16_">
						<use xlink:href="#SVGID_15_"  style="overflow:visible;"/>
					</clipPath>
					<path class="st9" d="M58.3,536.3h972.5"/>
				</g>
			</g>
			<g id="text_8">
				<g transform="translate(112.25625 581.315625)scale(0.4 -0.4)">
					<g>
						<path id="ArialMT-48_5_" class="st2" d="M-216.9,112.1c0,9.2,0.9,16.6,2.8,22.3c1.9,5.6,4.7,10,8.4,13
							c3.7,3.1,8.5,4.6,14.1,4.6c4.2,0,7.9-0.8,11-2.5c3.2-1.7,5.8-4.1,7.8-7.3c2.1-3.2,3.7-7,4.9-11.6c1.2-4.5,1.8-10.7,1.8-18.4
							c0-9.1-0.9-16.5-2.8-22.1c-1.9-5.6-4.7-10-8.4-13c-3.7-3.1-8.5-4.6-14.2-4.6c-7.5,0-13.4,2.7-17.7,8.1
							C-214.4,86.9-216.9,97.5-216.9,112.1z M-207.1,112.1c0-12.8,1.5-21.3,4.5-25.6c3-4.2,6.7-6.3,11.1-6.3c4.4,0,8.1,2.1,11.1,6.4
							c3,4.3,4.5,12.8,4.5,25.5c0,12.8-1.5,21.4-4.5,25.6c-3,4.2-6.7,6.3-11.2,6.3c-4.4,0-7.9-1.9-10.5-5.6
							C-205.4,133.7-207.1,124.9-207.1,112.1z"/>
					</g>
				</g>
			</g>
		</g>
		<g id="ytick_2">
			<g id="line2d_9">
				<g>
					<defs>
						<rect id="SVGID_17_" x="58.3" y="3.4" width="972.5" height="532.9"/>
					</defs>
					<clipPath id="SVGID_18_">
						<use xlink:href="#SVGID_17_"  style="overflow:visible;"/>
					</clipPath>
					<path class="st10" d="M58.3,406.1h972.5"/>
				</g>
			</g>
			<g id="text_9">
				<g transform="translate(90.0125 461.843098)scale(0.4 -0.4)">
					<g>
						<path id="ArialMT-49_2_" class="st2" d="M-185.8,100.3h-9.6v61c-2.3-2.2-5.3-4.4-9.1-6.6c-3.7-2.2-7.1-3.9-10.1-5v9.3
							c5.4,2.5,10,5.6,14,9.1c4,3.6,6.8,7.1,8.5,10.4h6.2V100.3z"/>
					</g>
					<g>
						<path id="ArialMT-48_6_" class="st2" d="M-161.3,138.8c0,9.2,0.9,16.6,2.8,22.3c1.9,5.6,4.7,10,8.4,13
							c3.7,3.1,8.5,4.6,14.1,4.6c4.2,0,7.9-0.8,11-2.5c3.2-1.7,5.8-4.1,7.8-7.3c2.1-3.2,3.7-7,4.9-11.6c1.2-4.5,1.8-10.7,1.8-18.4
							c0-9.1-0.9-16.5-2.8-22.1c-1.9-5.6-4.7-10-8.4-13c-3.7-3.1-8.5-4.6-14.2-4.6c-7.5,0-13.4,2.7-17.7,8.1
							C-158.7,113.6-161.3,124.1-161.3,138.8z M-151.5,138.8c0-12.8,1.5-21.3,4.5-25.6c3-4.2,6.7-6.3,11.1-6.3
							c4.4,0,8.1,2.1,11.1,6.4c3,4.3,4.5,12.8,4.5,25.5c0,12.8-1.5,21.4-4.5,25.6c-3,4.2-6.7,6.3-11.2,6.3c-4.4,0-7.9-1.9-10.5-5.6
							C-149.8,160.4-151.5,151.6-151.5,138.8z"/>
					</g>
				</g>
			</g>
		</g>
		<g id="ytick_3">
			<g id="line2d_10">
				<g>
					<defs>
						<rect id="SVGID_19_" x="58.3" y="3.4" width="972.5" height="532.9"/>
					</defs>
					<clipPath id="SVGID_20_">
						<use xlink:href="#SVGID_19_"  style="overflow:visible;"/>
					</clipPath>
					<path class="st11" d="M58.3,276h972.5"/>
				</g>
			</g>
			<g id="text_10">
				<g transform="translate(90.0125 342.37057)scale(0.4 -0.4)">
					<g>
						<path id="ArialMT-50_3_" class="st2" d="M-171.6,136.2V127h-51.5c-0.1,2.3,0.3,4.5,1.1,6.7c1.3,3.5,3.4,7,6.3,10.4
							c2.9,3.4,7.1,7.3,12.5,11.8c8.5,6.9,14.2,12.4,17.2,16.5c3,4.1,4.5,7.9,4.5,11.5c0,3.8-1.4,7-4.1,9.6
							c-2.7,2.6-6.2,3.9-10.6,3.9c-4.6,0-8.3-1.4-11.1-4.2c-2.8-2.8-4.2-6.6-4.2-11.5l-9.8,1c0.7,7.3,3.2,12.9,7.6,16.8
							c4.4,3.8,10.3,5.8,17.7,5.8c7.5,0,13.4-2.1,17.8-6.2c4.4-4.1,6.6-9.3,6.6-15.4c0-3.1-0.6-6.2-1.9-9.2c-1.3-3-3.4-6.2-6.3-9.5
							s-7.9-7.9-14.8-13.7c-5.8-4.8-9.4-8.1-11.1-9.8c-1.6-1.7-3-3.4-4-5.2H-171.6z"/>
					</g>
					<g>
						<path id="ArialMT-48_7_" class="st2" d="M-161.3,165.4c0,9.2,0.9,16.6,2.8,22.3c1.9,5.6,4.7,10,8.4,13
							c3.7,3.1,8.5,4.6,14.1,4.6c4.2,0,7.9-0.8,11-2.5c3.2-1.7,5.8-4.1,7.8-7.3c2.1-3.2,3.7-7,4.9-11.6c1.2-4.5,1.8-10.7,1.8-18.4
							c0-9.1-0.9-16.5-2.8-22.1c-1.9-5.6-4.7-10-8.4-13c-3.7-3.1-8.5-4.6-14.2-4.6c-7.5,0-13.4,2.7-17.7,8.1
							C-158.7,140.2-161.3,150.8-161.3,165.4z M-151.5,165.4c0-12.8,1.5-21.3,4.5-25.6c3-4.2,6.7-6.3,11.1-6.3
							c4.4,0,8.1,2.1,11.1,6.4c3,4.3,4.5,12.8,4.5,25.5c0,12.8-1.5,21.4-4.5,25.6c-3,4.2-6.7,6.3-11.2,6.3c-4.4,0-7.9-1.9-10.5-5.6
							C-149.8,187-151.5,178.2-151.5,165.4z"/>
					</g>
				</g>
			</g>
		</g>
		<g id="ytick_4">
			<g id="line2d_11">
				<g>
					<defs>
						<rect id="SVGID_21_" x="58.3" y="3.4" width="972.5" height="532.9"/>
					</defs>
					<clipPath id="SVGID_22_">
						<use xlink:href="#SVGID_21_"  style="overflow:visible;"/>
					</clipPath>
					<path class="st12" d="M58.3,145.9h972.5"/>
				</g>
			</g>
			<g id="text_11">
				<g transform="translate(90.0125 222.898043)scale(0.4 -0.4)">
					<g>
						<path id="ArialMT-51" class="st2" d="M-221.8,174.2l9.6,1.3c1.1-5.4,3-9.3,5.6-11.7c2.6-2.4,5.9-3.6,9.6-3.6
							c4.5,0,8.3,1.6,11.4,4.7c3.1,3.1,4.7,7,4.7,11.6c0,4.4-1.4,8-4.3,10.9c-2.9,2.9-6.5,4.3-11,4.3c-1.8,0-4.1-0.4-6.8-1.1
							l1.1,8.4c0.6-0.1,1.1-0.1,1.5-0.1c4.1,0,7.8,1.1,11,3.2c3.3,2.1,4.9,5.4,4.9,9.9c0,3.5-1.2,6.4-3.6,8.7
							c-2.4,2.3-5.4,3.5-9.2,3.5c-3.7,0-6.8-1.2-9.3-3.5c-2.5-2.3-4.1-5.8-4.8-10.5l-9.6,1.7c1.2,6.4,3.8,11.4,8,14.9
							c4.2,3.5,9.3,5.3,15.5,5.3c4.3,0,8.2-0.9,11.7-2.7c3.6-1.8,6.3-4.3,8.2-7.5c1.9-3.2,2.9-6.5,2.9-10.1c0-3.4-0.9-6.4-2.7-9.2
							c-1.8-2.8-4.5-5-8-6.6c4.6-1.1,8.2-3.3,10.7-6.6c2.6-3.3,3.8-7.5,3.8-12.6c0-6.8-2.5-12.6-7.5-17.3c-5-4.7-11.2-7.1-18.8-7.1
							c-6.8,0-12.5,2-17.1,6.1C-218.6,162.4-221.2,167.7-221.8,174.2z"/>
					</g>
					<g>
						<path id="ArialMT-48_8_" class="st2" d="M-161.3,192.1c0,9.2,0.9,16.6,2.8,22.3c1.9,5.6,4.7,10,8.4,13
							c3.7,3.1,8.5,4.6,14.1,4.6c4.2,0,7.9-0.8,11-2.5c3.2-1.7,5.8-4.1,7.8-7.3c2.1-3.2,3.7-7,4.9-11.6c1.2-4.5,1.8-10.7,1.8-18.4
							c0-9.1-0.9-16.5-2.8-22.1c-1.9-5.6-4.7-10-8.4-13c-3.7-3.1-8.5-4.6-14.2-4.6c-7.5,0-13.4,2.7-17.7,8.1
							C-158.7,166.9-161.3,177.4-161.3,192.1z M-151.5,192.1c0-12.8,1.5-21.3,4.5-25.6c3-4.2,6.7-6.3,11.1-6.3
							c4.4,0,8.1,2.1,11.1,6.4c3,4.3,4.5,12.8,4.5,25.5c0,12.8-1.5,21.4-4.5,25.6c-3,4.2-6.7,6.3-11.2,6.3c-4.4,0-7.9-1.9-10.5-5.6
							C-149.8,213.7-151.5,204.9-151.5,192.1z"/>
					</g>
				</g>
			</g>
		</g>
		<g id="ytick_5">
			<g id="line2d_12">
				<g>
					<defs>
						<rect id="SVGID_23_" x="58.3" y="3.4" width="972.5" height="532.9"/>
					</defs>
					<clipPath id="SVGID_24_">
						<use xlink:href="#SVGID_23_"  style="overflow:visible;"/>
					</clipPath>
					<path class="st13" d="M58.3,15.7h972.5"/>
				</g>
			</g>
			<g id="text_12">
				<g transform="translate(90.0125 103.425515)scale(0.4 -0.4)">
					<g>
						<path id="ArialMT-52" class="st2" d="M-191.2,180.3v18.7H-225v8.8l35.6,50.5h7.8v-50.5h10.5v-8.8h-10.5v-18.7H-191.2z
							 M-191.2,207.7v35.1l-24.4-35.1H-191.2z"/>
					</g>
					<g>
						<path id="ArialMT-48_9_" class="st2" d="M-161.3,218.7c0,9.2,0.9,16.6,2.8,22.3c1.9,5.6,4.7,10,8.4,13
							c3.7,3.1,8.5,4.6,14.1,4.6c4.2,0,7.9-0.8,11-2.5c3.2-1.7,5.8-4.1,7.8-7.3c2.1-3.2,3.7-7,4.9-11.6c1.2-4.5,1.8-10.7,1.8-18.4
							c0-9.1-0.9-16.5-2.8-22.1c-1.9-5.6-4.7-10-8.4-13c-3.7-3.1-8.5-4.6-14.2-4.6c-7.5,0-13.4,2.7-17.7,8.1
							C-158.7,193.5-161.3,204.1-161.3,218.7z M-151.5,218.7c0-12.8,1.5-21.3,4.5-25.6c3-4.2,6.7-6.3,11.1-6.3
							c4.4,0,8.1,2.1,11.1,6.4c3,4.3,4.5,12.8,4.5,25.5c0,12.8-1.5,21.4-4.5,25.6c-3,4.2-6.7,6.3-11.2,6.3c-4.4,0-7.9-1.9-10.5-5.6
							C-149.8,240.3-151.5,231.5-151.5,218.7z"/>
					</g>
				</g>
			</g>
		</g>
	</g>
	<g id="patch_3">
		<g>
			<defs>
				<rect id="SVGID_25_" x="58.3" y="3.4" width="972.5" height="532.9"/>
			</defs>
			<clipPath id="SVGID_26_">
				<use xlink:href="#SVGID_25_"  style="overflow:visible;"/>
			</clipPath>
			<path class="st14" d="M102.5,536.3h88.4V393.1h-88.4V536.3z"/>
		</g>
	</g>
	<g id="patch_4">
		<g>
			<defs>
				<rect id="SVGID_27_" x="58.3" y="3.4" width="972.5" height="532.9"/>
			</defs>
			<clipPath id="SVGID_28_">
				<use xlink:href="#SVGID_27_"  style="overflow:visible;"/>
			</clipPath>
			<path class="st15" d="M190.9,536.3h88.4V28.7h-88.4V536.3z"/>
		</g>
	</g>
	<g id="patch_5">
		<g>
			<defs>
				<rect id="SVGID_29_" x="58.3" y="3.4" width="972.5" height="532.9"/>
			</defs>
			<clipPath id="SVGID_30_">
				<use xlink:href="#SVGID_29_"  style="overflow:visible;"/>
			</clipPath>
			<path class="st16" d="M279.3,536.3h88.4V315h-88.4V536.3z"/>
		</g>
	</g>
	<g id="patch_6">
		<g>
			<defs>
				<rect id="SVGID_31_" x="58.3" y="3.4" width="972.5" height="532.9"/>
			</defs>
			<clipPath id="SVGID_32_">
				<use xlink:href="#SVGID_31_"  style="overflow:visible;"/>
			</clipPath>
			<path class="st17" d="M367.7,536.3h88.4v-13h-88.4V536.3z"/>
		</g>
	</g>
	<g id="patch_7">
		<g>
			<defs>
				<rect id="SVGID_33_" x="58.3" y="3.4" width="972.5" height="532.9"/>
			</defs>
			<clipPath id="SVGID_34_">
				<use xlink:href="#SVGID_33_"  style="overflow:visible;"/>
			</clipPath>
			<path class="st18" d="M456.1,536.3h88.4l0,0H456.1z"/>
		</g>
	</g>
	<g id="patch_8">
		<g>
			<defs>
				<rect id="SVGID_35_" x="58.3" y="3.4" width="972.5" height="532.9"/>
			</defs>
			<clipPath id="SVGID_36_">
				<use xlink:href="#SVGID_35_"  style="overflow:visible;"/>
			</clipPath>
			<path class="st19" d="M544.5,536.3h88.4l0,0H544.5z"/>
		</g>
	</g>
	<g id="patch_9">
		<g>
			<defs>
				<rect id="SVGID_37_" x="58.3" y="3.4" width="972.5" height="532.9"/>
			</defs>
			<clipPath id="SVGID_38_">
				<use xlink:href="#SVGID_37_"  style="overflow:visible;"/>
			</clipPath>
			<path class="st20" d="M632.9,536.3h88.4v-13h-88.4V536.3z"/>
		</g>
	</g>
	<g id="patch_10">
		<g>
			<defs>
				<rect id="SVGID_39_" x="58.3" y="3.4" width="972.5" height="532.9"/>
			</defs>
			<clipPath id="SVGID_40_">
				<use xlink:href="#SVGID_39_"  style="overflow:visible;"/>
			</clipPath>
			<path class="st21" d="M721.3,536.3h88.4V393.1h-88.4V536.3z"/>
		</g>
	</g>
	<g id="patch_11">
		<g>
			<defs>
				<rect id="SVGID_41_" x="58.3" y="3.4" width="972.5" height="532.9"/>
			</defs>
			<clipPath id="SVGID_42_">
				<use xlink:href="#SVGID_41_"  style="overflow:visible;"/>
			</clipPath>
			<path class="st22" d="M809.7,536.3h88.4V367.1h-88.4V536.3z"/>
		</g>
	</g>
	<g id="patch_12">
		<g>
			<defs>
				<rect id="SVGID_43_" x="58.3" y="3.4" width="972.5" height="532.9"/>
			</defs>
			<clipPath id="SVGID_44_">
				<use xlink:href="#SVGID_43_"  style="overflow:visible;"/>
			</clipPath>
			<path class="st23" d="M898.1,536.3h88.4v-91.1h-88.4V536.3z"/>
		</g>
	</g>
	<g id="patch_13">
		<g>
			<defs>
				<rect id="SVGID_45_" x="58.3" y="3.4" width="972.5" height="532.9"/>
			</defs>
			<clipPath id="SVGID_46_">
				<use xlink:href="#SVGID_45_"  style="overflow:visible;"/>
			</clipPath>
			<path class="st24" d="M109.6,536.3h82.9V276h-82.9V536.3z"/>
		</g>
	</g>
	<g id="patch_14">
		<g>
			<defs>
				<rect id="SVGID_47_" x="58.3" y="3.4" width="972.5" height="532.9"/>
			</defs>
			<clipPath id="SVGID_48_">
				<use xlink:href="#SVGID_47_"  style="overflow:visible;"/>
			</clipPath>
			<path class="st25" d="M192.5,536.3h82.9V93.8h-82.9V536.3z"/>
		</g>
	</g>
	<g id="patch_15">
		<g>
			<defs>
				<rect id="SVGID_49_" x="58.3" y="3.4" width="972.5" height="532.9"/>
			</defs>
			<clipPath id="SVGID_50_">
				<use xlink:href="#SVGID_49_"  style="overflow:visible;"/>
			</clipPath>
			<path class="st26" d="M275.4,536.3h82.9V380.1h-82.9V536.3z"/>
		</g>
	</g>
	<g id="patch_16">
		<g>
			<defs>
				<rect id="SVGID_51_" x="58.3" y="3.4" width="972.5" height="532.9"/>
			</defs>
			<clipPath id="SVGID_52_">
				<use xlink:href="#SVGID_51_"  style="overflow:visible;"/>
			</clipPath>
			<path class="st27" d="M358.3,536.3h82.9v-39h-82.9V536.3z"/>
		</g>
	</g>
	<g id="patch_17">
		<g>
			<defs>
				<rect id="SVGID_53_" x="58.3" y="3.4" width="972.5" height="532.9"/>
			</defs>
			<clipPath id="SVGID_54_">
				<use xlink:href="#SVGID_53_"  style="overflow:visible;"/>
			</clipPath>
			<path class="st28" d="M441.2,536.3H524l0,0H441.2z"/>
		</g>
	</g>
	<g id="patch_18">
		<g>
			<defs>
				<rect id="SVGID_55_" x="58.3" y="3.4" width="972.5" height="532.9"/>
			</defs>
			<clipPath id="SVGID_56_">
				<use xlink:href="#SVGID_55_"  style="overflow:visible;"/>
			</clipPath>
			<path class="st29" d="M524,536.3h82.9l0,0H524z"/>
		</g>
	</g>
	<g id="patch_19">
		<g>
			<defs>
				<rect id="SVGID_57_" x="58.3" y="3.4" width="972.5" height="532.9"/>
			</defs>
			<clipPath id="SVGID_58_">
				<use xlink:href="#SVGID_57_"  style="overflow:visible;"/>
			</clipPath>
			<path class="st30" d="M606.9,536.3h82.9l0,0H606.9z"/>
		</g>
	</g>
	<g id="patch_20">
		<g>
			<defs>
				<rect id="SVGID_59_" x="58.3" y="3.4" width="972.5" height="532.9"/>
			</defs>
			<clipPath id="SVGID_60_">
				<use xlink:href="#SVGID_59_"  style="overflow:visible;"/>
			</clipPath>
			<path class="st31" d="M689.8,536.3h82.9v-91.1h-82.9V536.3z"/>
		</g>
	</g>
	<g id="patch_21">
		<g>
			<defs>
				<rect id="SVGID_61_" x="58.3" y="3.4" width="972.5" height="532.9"/>
			</defs>
			<clipPath id="SVGID_62_">
				<use xlink:href="#SVGID_61_"  style="overflow:visible;"/>
			</clipPath>
			<path class="st32" d="M772.7,536.3h82.9V367.1h-82.9V536.3z"/>
		</g>
	</g>
	<g id="patch_22">
		<g>
			<defs>
				<rect id="SVGID_63_" x="58.3" y="3.4" width="972.5" height="532.9"/>
			</defs>
			<clipPath id="SVGID_64_">
				<use xlink:href="#SVGID_63_"  style="overflow:visible;"/>
			</clipPath>
			<path class="st33" d="M855.6,536.3h82.9V393.1h-82.9V536.3z"/>
		</g>
	</g>
	<g id="patch_23">
		<path class="st34" d="M58.3,536.3V3.4"/>
	</g>
	<g id="patch_24">
		<path class="st34" d="M1030.7,536.3V3.4"/>
	</g>
	<g id="patch_25">
		<path class="st34" d="M58.3,536.3h972.5"/>
	</g>
	<g id="patch_26">
		<path class="st34" d="M58.3,3.4h972.5"/>
	</g>
	<g id="legend_1">
		<g id="patch_27">
			<path class="st35" d="M652.3,186.3h318.6c5.8,0,8.7-2.9,8.7-8.7V57.7c0-5.8-2.9-8.7-8.7-8.7H652.3c-5.8,0-8.7,2.9-8.7,8.7v119.9
				C643.6,183.4,646.5,186.3,652.3,186.3z"/>
		</g>
		<g id="patch_28">
			<path class="st36" d="M661,97.6h87.1V67.1H661V97.6z"/>
		</g>
		<g id="text_13">
			<g transform="translate(836.275 142.39125)scale(0.4 -0.4)">
				<g>
					<path id="ArialMT-82" class="st2" d="M-124.6,112v78H-90c7,0,12.2-0.7,15.8-2.1c3.6-1.4,6.5-3.9,8.7-7.4
						c2.2-3.5,3.3-7.5,3.3-11.7c0-5.5-1.8-10.2-5.4-14c-3.6-3.8-9.1-6.2-16.6-7.2c2.7-1.3,4.8-2.6,6.2-3.9c3-2.8,5.9-6.2,8.6-10.4
						l13.6-21.2h-13l-10.3,16.2c-3,4.7-5.5,8.3-7.5,10.7c-1.9,2.5-3.7,4.2-5.2,5.2c-1.5,1-3.1,1.7-4.7,2.1c-1.2,0.2-3.1,0.4-5.7,0.4
						h-12V112H-124.6z M-114.3,155.6h22.2c4.7,0,8.4,0.5,11,1.5c2.7,1,4.7,2.5,6.1,4.7c1.4,2.1,2.1,4.5,2.1,7c0,3.7-1.3,6.7-4,9.1
						c-2.7,2.4-6.9,3.6-12.7,3.6h-24.7V155.6z"/>
				</g>
				<g>
					<path id="ArialMT-101" class="st2" d="M-8.7,130.2l9.9-1.2c-1.6-5.8-4.4-10.3-8.7-13.5c-4.2-3.2-9.6-4.8-16.2-4.8
						c-8.3,0-14.8,2.5-19.7,7.6c-4.8,5.1-7.3,12.2-7.3,21.4c0,9.5,2.4,16.9,7.3,22.1c4.9,5.3,11.2,7.9,19,7.9
						c7.6,0,13.7-2.6,18.5-7.7c4.8-5.1,7.2-12.4,7.2-21.7c0-0.6,0-1.4-0.1-2.6h-42.1c0.4-6.2,2.1-11,5.3-14.3
						c3.2-3.3,7.1-4.9,11.8-4.9c3.5,0,6.5,0.9,9,2.8C-12.1,123.2-10.1,126.2-8.7,130.2z M-40.1,145.7h31.5
						c-0.4,4.8-1.6,8.3-3.6,10.7c-3.1,3.7-7,5.5-11.9,5.5c-4.4,0-8.1-1.5-11.1-4.4C-38.1,154.6-39.8,150.6-40.1,145.7z"/>
				</g>
				<g>
					<path id="ArialMT-97" class="st2" d="M50.1,119c-3.6-3-7-5.1-10.2-6.4c-3.3-1.2-6.8-1.9-10.6-1.9c-6.2,0-11,1.5-14.3,4.5
						s-5,6.9-5,11.6c0,2.8,0.6,5.3,1.9,7.6c1.3,2.3,2.9,4.1,5,5.5c2,1.4,4.3,2.4,6.9,3.1c1.9,0.5,4.7,1,8.5,1.4
						c7.7,0.9,13.4,2,17.1,3.3c0,1.3,0.1,2.2,0.1,2.5c0,3.9-0.9,6.7-2.7,8.3c-2.4,2.2-6.1,3.2-10.9,3.2c-4.5,0-7.8-0.8-10-2.4
						s-3.7-4.4-4.8-8.4l-9.4,1.3c0.9,4,2.3,7.2,4.2,9.7c2,2.5,4.8,4.4,8.5,5.7c3.7,1.3,8,2,12.8,2c4.8,0,8.7-0.6,11.7-1.7
						c3-1.1,5.2-2.6,6.7-4.3c1.4-1.7,2.4-3.9,3-6.5c0.3-1.6,0.5-4.6,0.5-8.8v-12.8c0-8.9,0.2-14.5,0.6-16.9c0.4-2.3,1.2-4.6,2.4-6.8
						H52C51,114,50.4,116.3,50.1,119z M49.3,140.4c-3.5-1.4-8.7-2.6-15.6-3.6c-3.9-0.6-6.7-1.2-8.4-1.9c-1.6-0.7-2.9-1.7-3.8-3.1
						c-0.9-1.4-1.3-2.9-1.3-4.5c0-2.6,1-4.7,2.9-6.4c1.9-1.7,4.8-2.6,8.5-2.6c3.7,0,7,0.8,9.8,2.4c2.9,1.6,5,3.8,6.3,6.6
						c1,2.2,1.5,5.4,1.5,9.6V140.4z"/>
				</g>
				<g>
					<path id="ArialMT-108" class="st2" d="M73.6,112v78h9.6v-78H73.6z"/>
				</g>
			</g>
		</g>
		<g id="patch_29">
			<path class="st37" d="M661,159.7h87.1v-30.5H661V159.7z"/>
		</g>
		<g id="text_14">
			<g transform="translate(836.275 199.46)scale(0.4 -0.4)">
				<g>
					<path id="ArialMT-83" class="st2" d="M-128.3,124.4l9.7,0.9c0.5-3.9,1.5-7.1,3.2-9.6c1.7-2.5,4.3-4.5,7.8-6.1
						c3.6-1.5,7.5-2.3,12-2.3c3.9,0,7.4,0.6,10.4,1.8c3,1.2,5.3,2.8,6.7,4.8c1.5,2,2.2,4.3,2.2,6.7c0,2.4-0.7,4.6-2.1,6.4
						c-1.4,1.8-3.8,3.4-7,4.6c-2.1,0.8-6.7,2.1-13.9,3.8c-7.2,1.7-12.2,3.3-15,4.9c-3.7,2-6.5,4.4-8.3,7.3c-1.8,2.9-2.7,6.1-2.7,9.7
						c0,3.9,1.1,7.6,3.3,11c2.2,3.4,5.5,6,9.8,7.8c4.3,1.8,9.1,2.7,14.3,2.7c5.8,0,10.9-0.9,15.3-2.8c4.4-1.9,7.8-4.6,10.2-8.2
						c2.4-3.6,3.6-7.7,3.8-12.3l-9.9-0.7c-0.5,4.9-2.3,8.6-5.4,11.2c-3.1,2.5-7.6,3.8-13.6,3.8c-6.2,0-10.8-1.1-13.6-3.4
						c-2.8-2.3-4.3-5-4.3-8.3c0-2.8,1-5.1,3-6.9c2-1.8,7.2-3.7,15.6-5.5s14.1-3.6,17.3-5c4.5-2.1,7.9-4.8,10-8
						c2.2-3.2,3.3-6.9,3.3-11.1c0-4.2-1.2-8.1-3.6-11.7c-2.4-3.7-5.8-6.5-10.2-8.6c-4.4-2-9.5-3-15-3c-7.1,0-13,1-17.8,3.1
						c-4.8,2.1-8.5,5.1-11.2,9.3C-126.7,114.5-128.1,119.2-128.3,124.4z"/>
				</g>
				<g>
					<path id="ArialMT-121" class="st2" d="M-53.8,77.6l-1.1,9c2.1-0.6,3.9-0.9,5.5-0.9c2.1,0,3.8,0.4,5.1,1.1
						c1.3,0.7,2.3,1.7,3.1,3c0.6,1,1.6,3.3,2.9,7.1c0.2,0.5,0.5,1.3,0.9,2.3l-21.4,56.6h10.3l11.8-32.7c1.5-4.2,2.9-8.5,4.1-13.1
						c1.1,4.4,2.4,8.7,3.9,12.9l12.1,32.9H-7l-21.5-57.4c-2.3-6.2-4.1-10.5-5.4-12.8c-1.7-3.2-3.7-5.5-5.9-6.9
						c-2.2-1.5-4.8-2.2-7.9-2.2C-49.4,76.4-51.5,76.8-53.8,77.6z"/>
				</g>
				<g>
					<path id="ArialMT-110" class="st2" d="M1.1,99.3v56.5h8.6v-8c4.2,6.2,10.1,9.3,18,9.3c3.4,0,6.5-0.6,9.4-1.8
						c2.9-1.2,5-2.8,6.4-4.8c1.4-2,2.4-4.3,3-7.1c0.4-1.8,0.5-4.9,0.5-9.3V99.3h-9.6v34.4c0,3.9-0.4,6.8-1.1,8.7
						c-0.7,1.9-2.1,3.5-3.9,4.6c-1.9,1.2-4.1,1.7-6.7,1.7c-4.1,0-7.6-1.3-10.6-3.9c-3-2.6-4.4-7.5-4.4-14.7V99.3H1.1z"/>
				</g>
				<g>
					<path id="ArialMT-116" class="st2" d="M82.6,107.9l1.4-8.5c-2.7-0.6-5.1-0.9-7.2-0.9c-3.5,0-6.2,0.6-8.1,1.7
						c-1.9,1.1-3.3,2.5-4,4.3c-0.8,1.8-1.2,5.6-1.2,11.3v32.5h-7v7.5h7v14l9.5,5.7v-19.7h9.6v-7.5H73v-33c0-2.7,0.2-4.5,0.5-5.3
						c0.3-0.8,0.9-1.4,1.7-1.9s1.8-0.7,3.3-0.7C79.5,107.5,80.9,107.6,82.6,107.9z"/>
				</g>
				<g>
					<path id="ArialMT-104" class="st2" d="M92,99.3v78h9.6v-28c4.5,5.2,10.1,7.8,16.9,7.8c4.2,0,7.8-0.8,10.9-2.5
						c3.1-1.6,5.3-3.9,6.6-6.8c1.3-2.9,2-7.1,2-12.7V99.3h-9.6v35.8c0,4.8-1,8.3-3.1,10.4c-2.1,2.2-5,3.3-8.8,3.3
						c-2.8,0-5.5-0.7-8-2.2c-2.5-1.5-4.3-3.5-5.3-6c-1.1-2.5-1.6-6-1.6-10.4V99.3H92z"/>
				</g>
				<g>
					<path id="ArialMT-101_1_" class="st2" d="M191.2,117.5l9.9-1.2c-1.6-5.8-4.4-10.3-8.7-13.5c-4.2-3.2-9.6-4.8-16.2-4.8
						c-8.3,0-14.8,2.5-19.7,7.6c-4.8,5.1-7.3,12.2-7.3,21.4c0,9.5,2.4,16.9,7.3,22.1c4.9,5.3,11.2,7.9,19,7.9
						c7.6,0,13.7-2.6,18.5-7.7c4.8-5.1,7.2-12.4,7.2-21.7c0-0.6,0-1.4-0.1-2.6h-42.1c0.4-6.2,2.1-11,5.3-14.3
						c3.2-3.3,7.1-4.9,11.8-4.9c3.5,0,6.5,0.9,9,2.8C187.8,110.5,189.8,113.5,191.2,117.5z M159.8,133h31.5
						c-0.4,4.8-1.6,8.3-3.6,10.7c-3.1,3.7-7,5.5-11.9,5.5c-4.4,0-8.1-1.5-11.1-4.4C161.7,141.8,160.1,137.9,159.8,133z"/>
				</g>
				<g>
					<path id="ArialMT-116_1_" class="st2" d="M234,107.9l1.4-8.5c-2.7-0.6-5.1-0.9-7.2-0.9c-3.5,0-6.2,0.6-8.1,1.7
						c-1.9,1.1-3.3,2.5-4,4.3c-0.8,1.8-1.2,5.6-1.2,11.3v32.5h-7v7.5h7v14l9.5,5.7v-19.7h9.6v-7.5h-9.6v-33c0-2.7,0.2-4.5,0.5-5.3
						c0.3-0.8,0.9-1.4,1.7-1.9c0.8-0.5,1.8-0.7,3.3-0.7C230.9,107.5,232.3,107.6,234,107.9z"/>
				</g>
				<g>
					<path id="ArialMT-105" class="st2" d="M243.4,166.3v11h9.6v-11H243.4z M243.4,99.3v56.5h9.6V99.3H243.4z"/>
				</g>
				<g>
					<path id="ArialMT-99" class="st2" d="M304.4,120l9.4-1.2c-1-6.5-3.7-11.6-7.9-15.2c-4.2-3.7-9.4-5.5-15.6-5.5
						c-7.7,0-13.9,2.5-18.6,7.6c-4.7,5.1-7,12.3-7,21.7c0,6.1,1,11.4,3,16c2,4.6,5.1,8,9.2,10.3c4.1,2.3,8.6,3.4,13.5,3.4
						c6.1,0,11.1-1.6,15-4.7c3.9-3.1,6.4-7.5,7.5-13.2l-9.3-1.4c-0.9,3.8-2.5,6.7-4.7,8.6c-2.2,1.9-5,2.9-8.2,2.9
						c-4.8,0-8.7-1.7-11.8-5.2c-3-3.4-4.5-8.9-4.5-16.4c0-7.6,1.5-13.1,4.4-16.5c2.9-3.4,6.7-5.2,11.4-5.2c3.8,0,6.9,1.2,9.4,3.5
						C302.2,111.7,303.8,115.2,304.4,120z"/>
				</g>
			</g>
		</g>
	</g>
</g>
</svg>
