<?xml version="1.0" encoding="utf-8"?>
<!-- Generator: Adobe Illustrator 24.2.3, SVG Export Plug-In . SVG Version: 6.00 Build 0)  -->
<svg version="1.1" id="Layer_1" xmlns="http://www.w3.org/2000/svg" xmlns:xlink="http://www.w3.org/1999/xlink" x="0px" y="0px"
	 viewBox="0 0 968.6 528.5" style="enable-background:new 0 0 968.6 528.5;" xml:space="preserve">
<style type="text/css">
	.st0{fill:#EAEAF2;}
	.st1{clip-path:url(#SVGID_2_);fill:none;stroke:#FFFFFF;stroke-linecap:round;stroke-linejoin:round;}
	.st2{fill:#262626;}
	.st3{clip-path:url(#SVGID_4_);fill:none;stroke:#FFFFFF;stroke-linecap:round;stroke-linejoin:round;}
	.st4{clip-path:url(#SVGID_6_);fill:none;stroke:#FFFFFF;stroke-linecap:round;stroke-linejoin:round;}
	.st5{clip-path:url(#SVGID_8_);fill:none;stroke:#FFFFFF;stroke-linecap:round;stroke-linejoin:round;}
	.st6{clip-path:url(#SVGID_10_);fill:none;stroke:#FFFFFF;stroke-linecap:round;stroke-linejoin:round;}
	.st7{clip-path:url(#SVGID_12_);fill:none;stroke:#FFFFFF;stroke-linecap:round;stroke-linejoin:round;}
	.st8{clip-path:url(#SVGID_14_);fill:none;stroke:#FFFFFF;stroke-linecap:round;stroke-linejoin:round;}
	.st9{clip-path:url(#SVGID_16_);fill:none;stroke:#FFFFFF;stroke-linecap:round;stroke-linejoin:round;}
	.st10{clip-path:url(#SVGID_18_);}
	.st11{fill:#4C72B0;fill-opacity:0.3;stroke:#FFFFFF;stroke-linejoin:round;stroke-opacity:0.3;}
	.st12{clip-path:url(#SVGID_20_);}
	.st13{fill:#DD8452;fill-opacity:0.3;stroke:#FFFFFF;stroke-linejoin:round;stroke-opacity:0.3;}
	.st14{clip-path:url(#SVGID_22_);fill:none;stroke:#4C72B0;stroke-width:5;stroke-linecap:round;stroke-linejoin:round;}
	.st15{clip-path:url(#SVGID_24_);fill:none;stroke:#DD8452;stroke-width:5;stroke-linecap:round;stroke-linejoin:round;}
	.st16{fill:none;stroke:#FFFFFF;stroke-width:1.25;stroke-linecap:square;}
	.st17{opacity:0.8;fill:#FFFFFF;stroke:#CCCCCC;enable-background:new    ;}
	.st18{fill:none;stroke:#4C72B0;stroke-width:5;stroke-linecap:round;stroke-linejoin:round;}
	.st19{fill:none;stroke:#DD8452;stroke-width:5;stroke-linecap:round;stroke-linejoin:round;}
</style>
<g id="figure_1">
	<g id="axes_1">
		<g id="patch_2">
			<path class="st0" d="M75.1,489.9h892.8V0.6H75.1V489.9z"/>
		</g>
		<g id="matplotlib.axis_1">
			<g id="xtick_1">
				<g id="line2d_1">
					<g>
						<defs>
							<rect id="SVGID_1_" x="75.1" y="0.6" width="892.8" height="489.2"/>
						</defs>
						<clipPath id="SVGID_2_">
							<use xlink:href="#SVGID_1_"  style="overflow:visible;"/>
						</clipPath>
						<path class="st1" d="M115.7,489.9V0.6"/>
					</g>
				</g>
				<g id="text_1">
					<g transform="translate(173.459943 605.13125)scale(0.4 -0.4)">
						<g>
							<path id="ArialMT-48" class="st2" d="M-168,228.1c0,8.5,0.9,15.3,2.6,20.4c1.7,5.2,4.3,9.1,7.8,11.9c3.4,2.8,7.8,4.2,13,4.2
								c3.8,0,7.2-0.8,10.1-2.3c2.9-1.5,5.3-3.8,7.2-6.7c1.9-2.9,3.4-6.5,4.5-10.6c1.1-4.2,1.6-9.8,1.6-16.9
								c0-8.4-0.9-15.2-2.6-20.3c-1.7-5.2-4.3-9.1-7.7-12c-3.4-2.8-7.8-4.2-13-4.2c-6.9,0-12.3,2.5-16.3,7.4
								C-165.7,205-168,214.7-168,228.1z M-159,228.1c0-11.8,1.4-19.6,4.1-23.5c2.8-3.9,6.1-5.8,10.2-5.8c4,0,7.4,2,10.2,5.9
								s4.1,11.7,4.1,23.4c0,11.8-1.4,19.6-4.1,23.5c-2.8,3.9-6.2,5.8-10.3,5.8c-4,0-7.3-1.7-9.7-5.1
								C-157.5,248-159,239.9-159,228.1z"/>
						</g>
					</g>
				</g>
			</g>
			<g id="xtick_2">
				<g id="line2d_2">
					<g>
						<defs>
							<rect id="SVGID_3_" x="75.1" y="0.6" width="892.8" height="489.2"/>
						</defs>
						<clipPath id="SVGID_4_">
							<use xlink:href="#SVGID_3_"  style="overflow:visible;"/>
						</clipPath>
						<path class="st3" d="M318.6,489.9V0.6"/>
					</g>
				</g>
				<g id="text_2">
					<g transform="translate(376.369034 605.13125)scale(0.4 -0.4)">
						<g>
							<path id="ArialMT-53" class="st2" d="M-168,211.6l9.2,0.8c0.7-4.5,2.3-7.9,4.8-10.1c2.5-2.3,5.5-3.4,9-3.4
								c4.2,0,7.8,1.6,10.7,4.8c2.9,3.2,4.4,7.4,4.4,12.7c0,5-1.4,9-4.2,11.9c-2.8,2.9-6.5,4.4-11.1,4.4c-2.8,0-5.4-0.6-7.7-1.9
								c-2.3-1.3-4.1-2.9-5.4-5l-8.3,1.1l6.9,36.8h35.6V255h-28.6l-3.8-19.2c4.3,3,8.8,4.5,13.5,4.5c6.3,0,11.5-2.2,15.8-6.5
								c4.3-4.3,6.5-9.9,6.5-16.7c0-6.5-1.9-12.1-5.7-16.8c-4.6-5.8-10.9-8.7-18.8-8.7c-6.5,0-11.8,1.8-16,5.5
								C-165.1,200.7-167.4,205.6-168,211.6z"/>
						</g>
					</g>
				</g>
			</g>
			<g id="xtick_3">
				<g id="line2d_3">
					<g>
						<defs>
							<rect id="SVGID_5_" x="75.1" y="0.6" width="892.8" height="489.2"/>
						</defs>
						<clipPath id="SVGID_6_">
							<use xlink:href="#SVGID_5_"  style="overflow:visible;"/>
						</clipPath>
						<path class="st4" d="M521.5,489.9V0.6"/>
					</g>
				</g>
				<g id="text_3">
					<g transform="translate(568.15625 605.13125)scale(0.4 -0.4)">
						<g>
							<path id="ArialMT-49" class="st2" d="M-134.9,192.8h-8.8v56c-2.1-2-4.9-4-8.3-6s-6.5-3.5-9.3-4.5v8.5
								c4.9,2.3,9.2,5.1,12.9,8.4c3.7,3.3,6.3,6.5,7.8,9.6h5.7V192.8z"/>
						</g>
						<g>
							<path id="ArialMT-48_1_" class="st2" d="M-112.4,228.1c0,8.5,0.9,15.3,2.6,20.4c1.7,5.2,4.3,9.1,7.8,11.9
								c3.4,2.8,7.8,4.2,13,4.2c3.8,0,7.2-0.8,10.1-2.3c2.9-1.5,5.3-3.8,7.2-6.7c1.9-2.9,3.4-6.5,4.5-10.6c1.1-4.2,1.6-9.8,1.6-16.9
								c0-8.4-0.9-15.2-2.6-20.3c-1.7-5.2-4.3-9.1-7.7-12c-3.4-2.8-7.8-4.2-13-4.2c-6.9,0-12.3,2.5-16.3,7.4
								C-110.1,205-112.4,214.7-112.4,228.1z M-103.4,228.1c0-11.8,1.4-19.6,4.1-23.5c2.8-3.9,6.1-5.8,10.2-5.8c4,0,7.4,2,10.2,5.9
								s4.1,11.7,4.1,23.4c0,11.8-1.4,19.6-4.1,23.5c-2.8,3.9-6.2,5.8-10.3,5.8c-4,0-7.3-1.7-9.7-5.1
								C-101.9,248-103.4,239.9-103.4,228.1z"/>
						</g>
					</g>
				</g>
			</g>
			<g id="xtick_4">
				<g id="line2d_4">
					<g>
						<defs>
							<rect id="SVGID_7_" x="75.1" y="0.6" width="892.8" height="489.2"/>
						</defs>
						<clipPath id="SVGID_8_">
							<use xlink:href="#SVGID_7_"  style="overflow:visible;"/>
						</clipPath>
						<path class="st5" d="M724.4,489.9V0.6"/>
					</g>
				</g>
				<g id="text_4">
					<g transform="translate(771.065341 605.13125)scale(0.4 -0.4)">
						<g>
							<path id="ArialMT-49_1_" class="st2" d="M-134.9,192.8h-8.8v56c-2.1-2-4.9-4-8.3-6s-6.5-3.5-9.3-4.5v8.5
								c4.9,2.3,9.2,5.1,12.9,8.4c3.7,3.3,6.3,6.5,7.8,9.6h5.7V192.8z"/>
						</g>
						<g>
							<path id="ArialMT-53_1_" class="st2" d="M-112.4,211.6l9.2,0.8c0.7-4.5,2.3-7.9,4.8-10.1c2.5-2.3,5.5-3.4,9-3.4
								c4.2,0,7.8,1.6,10.7,4.8c2.9,3.2,4.4,7.4,4.4,12.7c0,5-1.4,9-4.2,11.9c-2.8,2.9-6.5,4.4-11.1,4.4c-2.8,0-5.4-0.6-7.7-1.9
								c-2.3-1.3-4.1-2.9-5.4-5l-8.3,1.1l6.9,36.8h35.6V255h-28.6l-3.8-19.2c4.3,3,8.8,4.5,13.5,4.5c6.3,0,11.5-2.2,15.8-6.5
								c4.3-4.3,6.5-9.9,6.5-16.7c0-6.5-1.9-12.1-5.7-16.8c-4.6-5.8-10.9-8.7-18.8-8.7c-6.5,0-11.8,1.8-16,5.5
								C-109.5,200.7-111.8,205.6-112.4,211.6z"/>
						</g>
					</g>
				</g>
			</g>
			<g id="xtick_5">
				<g id="line2d_5">
					<g>
						<defs>
							<rect id="SVGID_9_" x="75.1" y="0.6" width="892.8" height="489.2"/>
						</defs>
						<clipPath id="SVGID_10_">
							<use xlink:href="#SVGID_9_"  style="overflow:visible;"/>
						</clipPath>
						<path class="st6" d="M927.3,489.9V0.6"/>
					</g>
				</g>
				<g id="text_5">
					<g transform="translate(973.974432 605.13125)scale(0.4 -0.4)">
						<g>
							<path id="ArialMT-50" class="st2" d="M-121.8,201.3v-8.5h-47.3c-0.1,2.1,0.3,4.2,1,6.1c1.2,3.2,3.1,6.4,5.8,9.5
								c2.7,3.1,6.5,6.7,11.5,10.8c7.8,6.4,13,11.4,15.8,15.2c2.7,3.7,4.1,7.3,4.1,10.6c0,3.5-1.3,6.4-3.8,8.8
								c-2.5,2.4-5.7,3.6-9.7,3.6c-4.2,0-7.6-1.3-10.2-3.8c-2.5-2.5-3.8-6-3.9-10.5l-9,0.9c0.6,6.7,2.9,11.9,7,15.4
								c4,3.5,9.5,5.3,16.3,5.3c6.9,0,12.3-1.9,16.3-5.7c4-3.8,6-8.5,6-14.2c0-2.9-0.6-5.7-1.8-8.5c-1.2-2.8-3.1-5.7-5.8-8.7
								s-7.2-7.3-13.5-12.6c-5.3-4.4-8.7-7.4-10.2-9c-1.5-1.6-2.7-3.2-3.7-4.8H-121.8z"/>
						</g>
						<g>
							<path id="ArialMT-48_2_" class="st2" d="M-112.4,228.1c0,8.5,0.9,15.3,2.6,20.4c1.7,5.2,4.3,9.1,7.8,11.9
								c3.4,2.8,7.8,4.2,13,4.2c3.8,0,7.2-0.8,10.1-2.3c2.9-1.5,5.3-3.8,7.2-6.7c1.9-2.9,3.4-6.5,4.5-10.6c1.1-4.2,1.6-9.8,1.6-16.9
								c0-8.4-0.9-15.2-2.6-20.3c-1.7-5.2-4.3-9.1-7.7-12c-3.4-2.8-7.8-4.2-13-4.2c-6.9,0-12.3,2.5-16.3,7.4
								C-110.1,205-112.4,214.7-112.4,228.1z M-103.4,228.1c0-11.8,1.4-19.6,4.1-23.5c2.8-3.9,6.1-5.8,10.2-5.8c4,0,7.4,2,10.2,5.9
								s4.1,11.7,4.1,23.4c0,11.8-1.4,19.6-4.1,23.5c-2.8,3.9-6.2,5.8-10.3,5.8c-4,0-7.3-1.7-9.7-5.1
								C-101.9,248-103.4,239.9-103.4,228.1z"/>
						</g>
					</g>
				</g>
			</g>
		</g>
		<g id="matplotlib.axis_2">
			<g id="ytick_1">
				<g id="line2d_6">
					<g>
						<defs>
							<rect id="SVGID_11_" x="75.1" y="0.6" width="892.8" height="489.2"/>
						</defs>
						<clipPath id="SVGID_12_">
							<use xlink:href="#SVGID_11_"  style="overflow:visible;"/>
						</clipPath>
						<path class="st7" d="M75.1,414.2h892.8"/>
					</g>
				</g>
				<g id="text_6">
					<g transform="translate(66.65 505.627478)scale(0.4 -0.4)">
						<g>
							<path id="ArialMT-8722" class="st2" d="M-119.4,224h-47.3v8.2h47.3V224z"/>
						</g>
						<g>
							<path id="ArialMT-49_2_" class="st2" d="M-76.5,192.8h-8.8v56c-2.1-2-4.9-4-8.3-6s-6.5-3.5-9.3-4.5v8.5
								c4.9,2.3,9.2,5.1,12.9,8.4c3.7,3.3,6.3,6.5,7.8,9.6h5.7V192.8z"/>
						</g>
						<g>
							<path id="ArialMT-48_3_" class="st2" d="M-54,228.1c0,8.5,0.9,15.3,2.6,20.4c1.7,5.2,4.3,9.1,7.8,11.9
								c3.4,2.8,7.8,4.2,13,4.2c3.8,0,7.2-0.8,10.1-2.3c2.9-1.5,5.3-3.8,7.2-6.7c1.9-2.9,3.4-6.5,4.5-10.6c1.1-4.2,1.6-9.8,1.6-16.9
								c0-8.4-0.9-15.2-2.6-20.3c-1.7-5.2-4.3-9.1-7.7-12c-3.4-2.8-7.8-4.2-13-4.2c-6.9,0-12.3,2.5-16.3,7.4
								C-51.7,205-54,214.7-54,228.1z M-45,228.1c0-11.8,1.4-19.6,4.1-23.5c2.8-3.9,6.1-5.8,10.2-5.8c4,0,7.4,2,10.2,5.9
								s4.1,11.7,4.1,23.4c0,11.8-1.4,19.6-4.1,23.5c-2.8,3.9-6.2,5.8-10.3,5.8c-4,0-7.3-1.7-9.7-5.1C-43.5,248-45,239.9-45,228.1z"
								/>
						</g>
					</g>
				</g>
			</g>
			<g id="ytick_2">
				<g id="line2d_7">
					<g>
						<defs>
							<rect id="SVGID_13_" x="75.1" y="0.6" width="892.8" height="489.2"/>
						</defs>
						<clipPath id="SVGID_14_">
							<use xlink:href="#SVGID_13_"  style="overflow:visible;"/>
						</clipPath>
						<path class="st8" d="M75.1,265h892.8"/>
					</g>
				</g>
				<g id="text_7">
					<g transform="translate(112.25625 356.450723)scale(0.4 -0.4)">
						<g>
							<path id="ArialMT-48_4_" class="st2" d="M-168,228.1c0,8.5,0.9,15.3,2.6,20.4c1.7,5.2,4.3,9.1,7.8,11.9
								c3.4,2.8,7.8,4.2,13,4.2c3.8,0,7.2-0.8,10.1-2.3c2.9-1.5,5.3-3.8,7.2-6.7c1.9-2.9,3.4-6.5,4.5-10.6c1.1-4.2,1.6-9.8,1.6-16.9
								c0-8.4-0.9-15.2-2.6-20.3c-1.7-5.2-4.3-9.1-7.7-12c-3.4-2.8-7.8-4.2-13-4.2c-6.9,0-12.3,2.5-16.3,7.4
								C-165.7,205-168,214.7-168,228.1z M-159,228.1c0-11.8,1.4-19.6,4.1-23.5c2.8-3.9,6.1-5.8,10.2-5.8c4,0,7.4,2,10.2,5.9
								s4.1,11.7,4.1,23.4c0,11.8-1.4,19.6-4.1,23.5c-2.8,3.9-6.2,5.8-10.3,5.8c-4,0-7.3-1.7-9.7-5.1
								C-157.5,248-159,239.9-159,228.1z"/>
						</g>
					</g>
				</g>
			</g>
			<g id="ytick_3">
				<g id="line2d_8">
					<g>
						<defs>
							<rect id="SVGID_15_" x="75.1" y="0.6" width="892.8" height="489.2"/>
						</defs>
						<clipPath id="SVGID_16_">
							<use xlink:href="#SVGID_15_"  style="overflow:visible;"/>
						</clipPath>
						<path class="st9" d="M75.1,115.8h892.8"/>
					</g>
				</g>
				<g id="text_8">
					<g transform="translate(90.0125 207.273968)scale(0.4 -0.4)">
						<g>
							<path id="ArialMT-49_3_" class="st2" d="M-134.9,192.8h-8.8v56c-2.1-2-4.9-4-8.3-6s-6.5-3.5-9.3-4.5v8.5
								c4.9,2.3,9.2,5.1,12.9,8.4c3.7,3.3,6.3,6.5,7.8,9.6h5.7V192.8z"/>
						</g>
						<g>
							<path id="ArialMT-48_5_" class="st2" d="M-112.4,228.1c0,8.5,0.9,15.3,2.6,20.4c1.7,5.2,4.3,9.1,7.8,11.9
								c3.4,2.8,7.8,4.2,13,4.2c3.8,0,7.2-0.8,10.1-2.3c2.9-1.5,5.3-3.8,7.2-6.7c1.9-2.9,3.4-6.5,4.5-10.6c1.1-4.2,1.6-9.8,1.6-16.9
								c0-8.4-0.9-15.2-2.6-20.3c-1.7-5.2-4.3-9.1-7.7-12c-3.4-2.8-7.8-4.2-13-4.2c-6.9,0-12.3,2.5-16.3,7.4
								C-110.1,205-112.4,214.7-112.4,228.1z M-103.4,228.1c0-11.8,1.4-19.6,4.1-23.5c2.8-3.9,6.1-5.8,10.2-5.8c4,0,7.4,2,10.2,5.9
								s4.1,11.7,4.1,23.4c0,11.8-1.4,19.6-4.1,23.5c-2.8,3.9-6.2,5.8-10.3,5.8c-4,0-7.3-1.7-9.7-5.1
								C-101.9,248-103.4,239.9-103.4,228.1z"/>
						</g>
					</g>
				</g>
			</g>
		</g>
		<g id="PolyCollection_1">
			<g>
				<defs>
					<rect id="SVGID_17_" x="75.1" y="0.6" width="892.8" height="489.2"/>
				</defs>
				<clipPath id="SVGID_18_">
					<use xlink:href="#SVGID_17_"  style="overflow:visible;"/>
				</clipPath>
				<g class="st10">
					<g>
						<path id="m2e7db58ac5" class="st11" d="M115.7,227.7v74.6l0.8-4.7l0.8-4.7l0.8-4.7l0.8-4.7l0.8-4.7l0.8-4.6l0.8-4.6l0.8-4.6
							l0.8-4.5l0.8-4.5l0.8-4.5l0.8-4.4l0.8-4.4l0.8-4.3l0.8-4.3l0.8-4.3l0.8-4.2l0.8-4.2l0.8-4.1l0.8-4.1l0.8-4l0.8-3.9l0.8-3.9
							l0.8-3.8l0.8-3.8l0.8-3.7l0.8-3.6l0.8-3.6l0.8-3.5l0.8-3.4l0.8-3.4l0.8-3.3l0.8-3.2l0.8-3.2l0.8-3.1l0.8-3l0.8-2.9l0.8-2.9
							l0.8-2.8l0.8-2.7l0.8-2.6l0.8-2.5l0.8-2.5l0.8-2.4l0.8-2.3l0.8-2.2l0.8-2.1l0.8-2l0.8-2l0.8-1.9l0.8-1.8l0.8-1.7l0.8-1.6
							l0.8-1.5l0.8-1.5l0.8-1.4l0.8-1.3l0.8-1.2l0.8-1.1l0.8-1l0.8-0.9l0.8-0.9l0.8-0.8l0.8-0.7l0.8-0.6l0.8-0.5l0.8-0.4l0.8-0.3
							l0.8-0.3l0.8-0.2l0.8-0.1l0.8,0l0.8,0.1l0.8,0.2l0.8,0.2l0.8,0.3l0.8,0.4l0.8,0.5l0.8,0.6l0.8,0.6l0.8,0.7l0.8,0.8l0.8,0.9
							l0.8,0.9l0.8,1l0.8,1.1l0.8,1.2l0.8,1.2l0.8,1.3l0.8,1.4l0.8,1.4l0.8,1.5l0.8,1.6l0.8,1.6l0.8,1.7l0.8,1.8l0.8,1.8l0.8,1.9
							l0.8,1.9l0.8,2l0.8,2.1l0.8,2.1l0.8,2.2l0.8,2.2l0.8,2.3l0.8,2.3l0.8,2.4l0.8,2.4l0.8,2.5l0.8,2.5l0.8,2.6l0.8,2.6l0.8,2.7
							l0.8,2.7l0.8,2.8l0.8,2.8l0.8,2.9l0.8,2.9l0.8,2.9l0.8,3l0.8,3l0.8,3l0.8,3.1l0.8,3.1l0.8,3.1l0.8,3.2l0.8,3.2l0.8,3.2
							l0.8,3.2l0.8,3.3l0.8,3.3l0.8,3.3l0.8,3.3l0.8,3.4l0.8,3.4l0.8,3.4l0.8,3.4l0.8,3.4l0.8,3.4l0.8,3.5l0.8,3.5l0.8,3.5l0.8,3.5
							l0.8,3.5l0.8,3.5l0.8,3.5l0.8,3.5l0.8,3.5l0.8,3.5l0.8,3.5l0.8,3.5l0.8,3.5l0.8,3.5l0.8,3.5l0.8,3.5l0.8,3.5l0.8,3.5l0.8,3.5
							l0.8,3.5l0.8,3.5l0.8,3.4l0.8,3.4l0.8,3.4l0.8,3.4l0.8,3.4l0.8,3.4l0.8,3.3l0.8,3.3l0.8,3.3l0.8,3.3l0.8,3.2l0.8,3.2l0.8,3.2
							l0.8,3.2l0.8,3.1l0.8,3.1l0.8,3.1l0.8,3l0.8,3l0.8,3l0.8,2.9l0.8,2.9l0.8,2.8l0.8,2.8l0.8,2.8l0.8,2.7l0.8,2.7l0.8,2.6
							l0.8,2.6l0.8,2.5l0.8,2.5l0.8,2.5l0.8,2.4l0.8,2.4l0.8,2.3l0.8,2.2l0.8,2.2l0.8,2.1l0.8,2.1l0.8,2l0.8,2l0.8,1.9l0.8,1.9
							l0.8,1.8l0.8,1.7l0.8,1.7l0.8,1.6l0.8,1.6l0.8,1.5l0.8,1.4l0.8,1.4l0.8,1.3l0.8,1.3l0.8,1.2l0.8,1.1l0.8,1.1l0.8,1l0.8,0.9
							l0.8,0.9l0.8,0.8l0.8,0.7l0.8,0.7l0.8,0.6l0.8,0.6l0.8,0.5l0.8,0.4l0.8,0.4l0.8,0.3l0.8,0.2l0.8,0.2l0.8,0.1l0.8,0l0.8,0
							l0.8-0.1l0.8-0.2l0.8-0.2l0.8-0.3l0.8-0.4l0.8-0.4l0.8-0.5l0.8-0.5l0.8-0.6l0.8-0.7l0.8-0.7l0.8-0.8l0.8-0.8l0.8-0.9l0.8-1
							l0.8-1l0.8-1.1l0.8-1.1l0.8-1.1l0.8-1.2l0.8-1.2l0.8-1.3l0.8-1.3l0.8-1.4l0.8-1.4l0.8-1.5l0.8-1.5l0.8-1.6l0.8-1.6l0.8-1.7
							l0.8-1.7l0.8-1.7l0.8-1.8l0.8-1.8l0.8-1.9l0.8-1.9l0.8-1.9l0.8-2l0.8-2l0.8-2l0.8-2.1l0.8-2.1l0.8-2.1l0.8-2.2l0.8-2.2
							l0.8-2.2l0.8-2.3l0.8-2.3l0.8-2.3l0.8-2.3l0.8-2.4l0.8-2.4l0.8-2.4l0.8-2.4l0.8-2.5l0.8-2.5l0.8-2.5l0.8-2.5l0.8-2.5l0.8-2.5
							l0.8-2.6l0.8-2.6l0.8-2.6l0.8-2.6l0.8-2.6l0.8-2.6l0.8-2.6l0.8-2.6l0.8-2.6l0.8-2.6l0.8-2.6l0.8-2.6l0.8-2.6l0.8-2.6l0.8-2.6
							l0.8-2.6l0.8-2.6l0.8-2.6l0.8-2.6l0.8-2.6l0.8-2.6l0.8-2.6l0.8-2.6l0.8-2.6l0.8-2.6l0.8-2.5l0.8-2.5l0.8-2.5l0.8-2.5l0.8-2.5
							l0.8-2.5l0.8-2.4l0.8-2.4l0.8-2.4l0.8-2.4l0.8-2.3l0.8-2.3l0.8-2.3l0.8-2.3l0.8-2.2l0.8-2.2l0.8-2.2l0.8-2.1l0.8-2.1l0.8-2.1
							l0.8-2l0.8-2l0.8-1.9l0.8-1.9l0.8-1.9l0.8-1.8l0.8-1.8l0.8-1.7l0.8-1.7l0.8-1.7l0.8-1.6l0.8-1.6l0.8-1.5l0.8-1.5l0.8-1.4
							l0.8-1.4l0.8-1.3l0.8-1.3l0.8-1.2l0.8-1.2l0.8-1.1l0.8-1.1l0.8-1l0.8-1l0.8-0.9l0.8-0.9l0.8-0.8l0.8-0.8l0.8-0.7l0.8-0.7
							l0.8-0.6l0.8-0.6l0.8-0.5l0.8-0.5l0.8-0.4l0.8-0.4l0.8-0.3l0.8-0.3l0.8-0.2l0.8-0.2l0.8-0.1l0.8-0.1l0.8,0l0.8,0l0.8,0.1
							l0.8,0.1l0.8,0.2l0.8,0.2l0.8,0.3l0.8,0.3l0.8,0.4l0.8,0.4l0.8,0.5l0.8,0.5l0.8,0.6l0.8,0.6l0.8,0.7l0.8,0.7l0.8,0.8l0.8,0.8
							l0.8,0.8l0.8,0.9l0.8,0.9l0.8,1l0.8,1l0.8,1l0.8,1.1l0.8,1.1l0.8,1.1l0.8,1.2l0.8,1.2l0.8,1.2l0.8,1.3l0.8,1.3l0.8,1.3
							l0.8,1.4l0.8,1.4l0.8,1.4l0.8,1.4l0.8,1.5l0.8,1.5l0.8,1.5l0.8,1.5l0.8,1.5l0.8,1.6l0.8,1.6l0.8,1.6l0.8,1.6l0.8,1.6l0.8,1.7
							l0.8,1.7l0.8,1.7l0.8,1.7l0.8,1.7l0.8,1.7l0.8,1.7l0.8,1.7l0.8,1.7l0.8,1.7l0.8,1.7l0.8,1.7l0.8,1.8l0.8,1.8l0.8,1.8l0.8,1.8
							l0.8,1.8l0.8,1.8l0.8,1.8l0.8,1.8l0.8,1.8l0.8,1.7l0.8,1.7l0.8,1.7l0.8,1.7l0.8,1.7l0.8,1.7l0.8,1.7l0.8,1.7l0.8,1.7l0.8,1.7
							l0.8,1.7l0.8,1.7l0.8,1.7l0.8,1.6l0.8,1.6l0.8,1.6l0.8,1.6l0.8,1.6l0.8,1.6l0.8,1.6l0.8,1.6l0.8,1.6l0.8,1.5l0.8,1.5l0.8,1.5
							l0.8,1.5l0.8,1.5l0.8,1.5l0.8,1.5l0.8,1.4l0.8,1.4l0.8,1.4l0.8,1.4l0.8,1.4l0.8,1.4l0.8,1.3l0.8,1.3l0.8,1.3l0.8,1.3l0.8,1.3
							l0.8,1.3l0.8,1.2l0.8,1.2l0.8,1.2l0.8,1.2l0.8,1.2l0.8,1.2l0.8,1.2l0.8,1.1l0.8,1.1l0.8,1.1l0.8,0.9l0.8,0.8l0.8,0.8l0.8,0.7
							l0.8,0.7l0.8,0.7l0.8,0.7l0.8,0.7l0.8,0.7l0.8,0.7l0.8,0.6l0.8,0.6l0.8,0.6l0.8,0.6l0.8,0.6l0.8,0.6l0.8,0.5l0.8,0.5l0.8,0.5
							l0.8,0.5l0.8,0.5l0.8,0.5l0.8,0.4l0.8,0.4l0.8,0.4l0.8,0.4l0.8,0.4l0.8,0.4l0.8,0.3l0.8,0.3l0.8,0.3l0.8,0.3l0.8,0.3l0.8,0.3
							l0.8,0.2l0.8,0.2l0.8,0.2l0.8,0.2l0.8,0.2l0.8,0.1l0.8,0.1l0.8,0.1l0.8,0.1l0.8,0.1l0.8,0.1l0.8,0l0.8,0l0.8,0l0.8,0l0.8,0
							l0.8-0.1l0.8-0.1l0.8-0.1l0.8-0.1l0.8-0.2l0.8-0.2l0.8-0.2l0.8-0.2l0.8-0.2l0.8-0.3l0.8-0.3l0.8-0.3l0.8-0.3l0.8-0.4l0.8-0.4
							l0.8-0.4l0.8-0.4l0.8-0.5l0.8-0.5l0.8-0.5l0.8-0.5l0.8-0.6l0.8-0.6l0.8-0.6l0.8-0.6l0.8-0.6l0.8-0.7l0.8-0.7l0.8-0.7l0.8-0.7
							l0.8-0.8l0.8-0.8l0.8-0.8l0.8-0.8l0.8-0.9l0.8-0.9l0.8-0.9l0.8-0.9l0.8-0.9l0.8-1l0.8-1l0.8-1l0.8-1l0.8-1.1l0.8-1.1l0.8-1.1
							l0.8-1.1l0.8-1.1l0.8-1.1l0.8-1.2l0.8-1.2l0.8-1.2l0.8-1.2l0.8-1.2l0.8-1.2l0.8-1.2l0.8-1.3l0.8-1.3l0.8-1.3l0.8-1.3l0.8-1.3
							l0.8-1.3l0.8-1.3l0.8-1.3l0.8-1.3l0.8-1.3l0.8-1.3l0.8-1.3l0.8-1.3l0.8-1.3l0.8-1.3l0.8-1.3l0.8-1.3l0.8-1.3l0.8-1.3l0.8-1.3
							l0.8-1.3l0.8-1.3l0.8-1.3l0.8-1.3l0.8-1.3l0.8-1.2l0.8-1.2l0.8-1.2l0.8-1.2l0.8-1.2l0.8-1.2l0.8-1.1l0.8-1.1l0.8-1.1l0.8-1.1
							l0.8-1.1l0.8-1l0.8-1l0.8-1l0.8-1l0.8-0.9l0.8-0.9l0.8-0.9l0.8-0.9l0.8-0.8l0.8-0.8l0.8-0.8l0.8-0.7l0.8-0.7l0.8-0.7l0.8-0.6
							l0.8-0.6l0.8-0.6l0.8-0.5l0.8-0.5l0.8-0.5l0.8-0.4l0.8-0.4l0.8-0.4l0.8-0.3l0.8-0.3l0.8-0.3l0.8-0.2l0.8-0.2l0.8-0.2l0.8-0.1
							l0.8-0.1l0.8-0.1l0.8,0l0.8,0l0.8,0.1l0.8,0.1l0.8,0.1l0.8,0.2l0.8,0.2l0.8,0.2l0.8,0.3l0.8,0.3l0.8,0.3l0.8,0.3l0.8,0.4
							l0.8,0.4l0.8,0.4l0.8,0.5l0.8,0.5l0.8,0.5l0.8,0.5l0.8,0.6l0.8,0.6l0.8,0.6l0.8,0.6l0.8,0.6l0.8,0.7l0.8,0.7l0.8,0.7l0.8,0.7
							l0.8,0.7l0.8,0.7l0.8,0.7l0.8,0.8l0.8,0.8l0.8,0.8l0.8,0.8l0.8,0.8l0.8,0.8l0.8,0.8l0.8,0.8l0.8,0.8l0.8,0.8l0.8,0.8l0.8,0.8
							l0.8,0.8l0.8,0.8l0.8,0.8l0.8,0.8l0.8,0.8l0.8,0.7l0.8,0.7l0.8,0.7l0.8,0.7l0.8,0.7l0.8,0.7l0.8,0.7l0.8,0.6l0.8,0.6l0.8,0.6
							l0.8,0.6l0.8,0.5l0.8,0.5l0.8,0.5l0.8,0.5l0.8,0.5l0.8,0.4l0.8,0.4l0.8,0.4l0.8,0.3l0.8,0.3l0.8,0.3l0.8,0.2l0.8,0.2l0.8,0.2
							l0.8,0.2l0.8,0.1l0.8,0.1l0.8-0.2l0.8-0.3l0.8-0.4l0.8-0.4l0.8-0.4l0.8-0.4l0.8-0.4l0.8-0.4l0.8-0.4l0.8-0.4l0.8-0.5l0.8-0.5
							l0.8-0.5l0.8-0.5l0.8-0.5l0.8-0.5l0.8-0.5l0.8-0.5l0.8-0.5l0.8-0.5l0.8-0.5l0.8-0.5l0.8-0.5l0.8-0.5l0.8-0.5l0.8-0.5l0.8-0.5
							l0.8-0.5l0.8-0.5l0.8-0.5l0.8-0.5l0.8-0.5l0.8-0.5l0.8-0.5l0.8-0.5l0.8-0.5l0.8-0.5l0.8-0.5l0.8-0.5l0.8-0.4l0.8-0.4l0.8-0.4
							l0.8-0.4l0.8-0.4l0.8-0.4l0.8-0.3l0.8-0.3l0.8-0.3l0.8-0.3l0.8-0.3l0.8-0.2l0.8-0.2l0.8-0.2l0.8-0.2l0.8-0.1l0.8-0.1l0.8-0.1
							l0.8-0.1l0.8,0l0.8,0l0.8,0l0.8,0l0.8,0.1l0.8,0.1l0.8,0.1l0.8,0.2l0.8,0.2l0.8,0.2l0.8,0.3l0.8,0.3l0.8,0.3l0.8,0.3l0.8,0.4
							l0.8,0.4l0.8,0.4l0.8,0.5l0.8,0.5l0.8,0.5l0.8,0.5l0.8,0.6l0.8,0.6l0.8,0.6l0.8,0.7l0.8,0.7l0.8,0.7l0.8,0.7l0.8,0.8l0.8,0.8
							l0.8,0.8l0.8,0.8l0.8,0.8l0.8,0.9l0.8,0.9l0.8,0.9l0.8,0.9l0.8,0.9l0.8,1l0.8,1l0.8,1l0.8,1l0.8,1l0.8,1l0.8,1l0.8,1l0.8,1
							l0.8,1l0.8,1l0.8,1l0.8,1l0.8,1l0.8,1l0.8,1l0.8,1l0.8,1l0.8,1l0.8,1l0.8,1l0.8,0.9l0.8,0.9l0.8,0.9l0.8,0.9l0.8,0.9l0.8,0.8
							l0.8,0.8l0.8,0.8l0.8,0.8l0.8,0.7l0.8,0.7l0.8,0.7l0.8,0.6l0.8,0.6l0.8,0.6l0.8,0.5l0.8,0.5l0.8,0.4l0.8,0.4l0.8,0.4l0.8,0.3
							l0.8,0.3l0.8,0.2l0.8,0.2l0.8,0.1l0.8,0.1l0.8,0l0.8,0l0.8-0.1l0.8-0.1l0.8-0.2l0.8-0.2l0.8-0.3l0.8-0.3l0.8-0.4l0.8-0.4
							l0.8-0.5l0.8-0.5l0.8-0.6l0.8-0.6l0.8-0.7l0.8-0.7l0.8-0.8l0.8-0.8l0.8-0.9l0.8-0.9l0.8-1l0.8-1l0.8-1.1l0.8-1.1l0.8-1.2
							l0.8-1.2l0.8-1.3l0.8-1.3l0.8-1.4l0.8-1.4l0.8-1.5l0.8-1.5l0.8-1.5l0.8-1.6l0.8-1.6l0.8-1.7l0.8-1.7l0.8-1.7l0.8-1.8l0.8-1.8
							l0.8-1.8l0.8-1.8l0.8-1.9l0.8-1.9l0.8-1.9l0.8-1.9l0.8-2l0.8-2l0.8-2l0.8-2l0.8-2l0.8-2l0.8-2.1l0.8-2.1l0.8-2.1l0.8-2.1
							l0.8-2.1l0.8-2.1l0.8-2.1l0.8-2.1l0.8-2.1l0.8-2.1l0.8-2.1l0.8-2l0.8-2l0.8-2l0.8-2l0.8-2l0.8-2l0.8-1.9l0.8-1.9l0.8-1.9
							l0.8-1.9l0.8-1.8l0.8-1.8l0.8-1.8l0.8-1.7l0.8-1.7l0.8-1.7l0.8-1.6l0.8-1.6l0.8-1.6l0.8-1.5l0.8-1.5l0.8-1.4l0.8-1.4l0.8-1.4
							l0.8-1.3l0.8-1.3l0.8-1.2l0.8-1.2l0.8-1.1l0.8-1.1l0.8-1l0.8-1l0.8-0.9l0.8-0.9l0.8-0.8l0.8-0.8l0.8-0.7l0.8-0.7l0.8-0.6
							l0.8-0.6l0.8-0.5l0.8-0.5l0.8-0.4l0.8-0.4v-74.6l0,0l-0.8,0.3l-0.8,0.3l-0.8,0.4l-0.8,0.4l-0.8,0.5l-0.8,0.6l-0.8,0.6
							l-0.8,0.7l-0.8,0.7l-0.8,0.8l-0.8,0.8l-0.8,0.9l-0.8,0.9l-0.8,1l-0.8,1l-0.8,1.1l-0.8,1.1l-0.8,1.1l-0.8,1.2l-0.8,1.2
							l-0.8,1.3l-0.8,1.3l-0.8,1.4l-0.8,1.4l-0.8,1.5l-0.8,1.5l-0.8,1.5l-0.8,1.6l-0.8,1.6l-0.8,1.6l-0.8,1.7l-0.8,1.7l-0.8,1.7
							l-0.8,1.8l-0.8,1.8l-0.8,1.8l-0.8,1.8l-0.8,1.9l-0.8,1.9l-0.8,1.9L894,193l-0.8,1.9l-0.8,1.9l-0.8,2l-0.8,2l-0.8,2l-0.8,2
							l-0.8,2l-0.8,2l-0.8,2l-0.8,2l-0.8,2l-0.8,2l-0.8,2l-0.8,2l-0.8,2l-0.8,1.9l-0.8,1.9l-0.8,1.9l-0.8,1.9l-0.8,1.9L877,234
							l-0.8,1.8l-0.8,1.8l-0.8,1.8l-0.8,1.8l-0.8,1.7l-0.8,1.7l-0.8,1.7l-0.8,1.6l-0.8,1.6l-0.8,1.6l-0.8,1.5l-0.8,1.5l-0.8,1.5
							l-0.8,1.4l-0.8,1.4l-0.8,1.3l-0.8,1.3l-0.8,1.2l-0.8,1.2l-0.8,1.1l-0.8,1.1l-0.8,1l-0.8,1l-0.8,0.9l-0.8,0.9l-0.8,0.8
							l-0.8,0.8l-0.8,0.7l-0.8,0.7l-0.8,0.6l-0.8,0.6l-0.8,0.5l-0.8,0.5l-0.8,0.4l-0.8,0.4l-0.8,0.3l-0.8,0.3l-0.8,0.2l-0.8,0.2
							l-0.8,0.1l-0.8,0.1l-0.8,0l-0.8,0l-0.8-0.1l-0.8-0.1l-0.8-0.2l-0.8-0.2l-0.8-0.3l-0.8-0.3l-0.8-0.4l-0.8-0.4l-0.8-0.5
							l-0.8-0.5l-0.8-0.5l-0.8-0.6l-0.8-0.6l-0.8-0.7l-0.8-0.7l-0.8-0.7l-0.8-0.8l-0.8-0.8l-0.8-0.8l-0.8-0.9l-0.8-0.9l-0.8-0.9
							l-0.8-0.9l-0.8-1l-0.8-1l-0.8-1l-0.8-1l-0.8-1l-0.8-1l-0.8-1.1l-0.8-1.1l-0.8-1.1l-0.8-1.1l-0.8-1.1l-0.8-1.1l-0.8-1.1
							l-0.8-1.1l-0.8-1.1l-0.8-1.1l-0.8-1.1l-0.8-1.1l-0.8-1.1l-0.8-1.1l-0.8-1.1l-0.8-1.1l-0.8-1.1l-0.8-1.1l-0.8-1.1l-0.8-1.1
							l-0.8-1l-0.8-1l-0.8-1l-0.8-1l-0.8-1l-0.8-1l-0.8-0.9l-0.8-0.9l-0.8-0.9l-0.8-0.9l-0.8-0.8l-0.8-0.8l-0.8-0.8l-0.8-0.8
							l-0.8-0.7l-0.8-0.7l-0.8-0.7l-0.8-0.7l-0.8-0.6L786,219l-0.8-0.6l-0.8-0.5l-0.8-0.5l-0.8-0.5l-0.8-0.5l-0.8-0.4l-0.8-0.4
							l-0.8-0.4l-0.8-0.3l-0.8-0.3l-0.8-0.3l-0.8-0.2l-0.8-0.2l-0.8-0.2l-0.8-0.2l-0.8-0.1l-0.8-0.1l-0.8-0.1l-0.8,0l-0.8,0l-0.8,0
							l-0.8,0l-0.8,0.1l-0.8,0.1l-0.8,0.1l-0.8,0.1l-0.8,0.1l-0.8,0.2l-0.8,0.2l-0.8,0.2l-0.8,0.2l-0.8,0.2l-0.8,0.3l-0.8,0.3
							l-0.8,0.3l-0.8,0.3l-0.8,0.3l-0.8,0.3l-0.8,0.3l-0.8,0.4l-0.8,0.4l-0.8,0.4l-0.8,0.4l-0.8,0.4l-0.8,0.4l-0.8,0.4l-0.8,0.4
							l-0.8,0.4l-0.8,0.4l-0.8,0.4l-0.8,0.4l-0.8,0.4l-0.8,0.4l-0.8,0.4l-0.8,0.4l-0.8,0.4l-0.8,0.4l-0.8,0.4L738,225l-0.8,0.4
							l-0.8,0.4l-0.8,0.4l-0.8,0.4l-0.8,0.3l-0.8,0.3l-0.8,0.3l-0.8,0.3l-0.8,0.3l-0.8,0.3l-0.8,0.3l-0.8,0.3l-0.8,0.3l-0.8,0.2
							l-0.8,0.2l-0.8,0.2l-0.8,0.1l-0.8-0.2l-0.8-0.3l-0.8-0.3l-0.8-0.3l-0.8-0.4l-0.8-0.4l-0.8-0.4l-0.8-0.4l-0.8-0.5l-0.8-0.5
							l-0.8-0.5l-0.8-0.6l-0.8-0.6l-0.8-0.6l-0.8-0.6l-0.8-0.7l-0.8-0.7l-0.8-0.7l-0.8-0.7l-0.8-0.8l-0.8-0.8l-0.8-0.8l-0.8-0.8
							l-0.8-0.8l-0.8-0.8l-0.8-0.9l-0.8-0.9l-0.8-0.9l-0.8-0.9l-0.8-0.9l-0.8-0.9l-0.8-0.9l-0.8-0.9l-0.8-0.9l-0.8-0.9l-0.8-0.9
							l-0.8-0.9l-0.8-0.9l-0.8-0.9l-0.8-0.9l-0.8-0.9l-0.8-0.9l-0.8-0.9l-0.8-0.9l-0.8-0.9l-0.8-0.9l-0.8-0.9l-0.8-0.9l-0.8-0.9
							l-0.8-0.8l-0.8-0.8l-0.8-0.8l-0.8-0.8l-0.8-0.8l-0.8-0.8l-0.8-0.7l-0.8-0.7l-0.8-0.7l-0.8-0.7l-0.8-0.6l-0.8-0.6l-0.8-0.6
							l-0.8-0.6l-0.8-0.5l-0.8-0.5l-0.8-0.5l-0.8-0.4l-0.8-0.4l-0.8-0.4l-0.8-0.3l-0.8-0.3l-0.8-0.3l-0.8-0.2l-0.8-0.2l-0.8-0.2
							l-0.8-0.1l-0.8-0.1l-0.8-0.1l-0.8,0l-0.8,0l-0.8,0l-0.8,0.1l-0.8,0.1l-0.8,0.1l-0.8,0.2l-0.8,0.2l-0.8,0.2l-0.8,0.3l-0.8,0.3
							l-0.8,0.3l-0.8,0.4l-0.8,0.4l-0.8,0.4l-0.8,0.5l-0.8,0.5l-0.8,0.5l-0.8,0.6l-0.8,0.6l-0.8,0.6l-0.8,0.7l-0.8,0.7l-0.8,0.7
							l-0.8,0.7l-0.8,0.8l-0.8,0.8l-0.8,0.8l-0.8,0.8l-0.8,0.9l-0.8,0.9l-0.8,0.9l-0.8,0.9l-0.8,0.9l-0.8,1l-0.8,1l-0.8,1l-0.8,1
							l-0.8,1l-0.8,1l-0.8,1.1l-0.8,1.1l-0.8,1.1l-0.8,1.1l-0.8,1.1l-0.8,1.1l-0.8,1.1l-0.8,1.1l-0.8,1.1l-0.8,1.1l-0.8,1.1
							l-0.8,1.1l-0.8,1.1l-0.8,1.1l-0.8,1.1l-0.8,1.1l-0.8,1.1l-0.8,1.1l-0.8,1.1l-0.8,1.1l-0.8,1.1l-0.8,1.1l-0.8,1.1l-0.8,1.1
							l-0.8,1.1l-0.8,1l-0.8,1l-0.8,1l-0.8,1l-0.8,1l-0.8,1l-0.8,1l-0.8,0.9l-0.8,0.9l-0.8,0.9l-0.8,0.9l-0.8,0.9l-0.8,0.9l-0.8,0.8
							l-0.8,0.8l-0.8,0.8l-0.8,0.8l-0.8,0.8l-0.8,0.7l-0.8,0.7l-0.8,0.7l-0.8,0.7l-0.8,0.6l-0.8,0.6l-0.8,0.6l-0.8,0.6l-0.8,0.5
							l-0.8,0.5l-0.8,0.5l-0.8,0.5l-0.8,0.4l-0.8,0.4l-0.8,0.4l-0.8,0.4l-0.8,0.3l-0.8,0.3L578,256l-0.8,0.3l-0.8,0.2l-0.8,0.2
							l-0.8,0.2l-0.8,0.2l-0.8,0.2l-0.8,0.1l-0.8,0.1l-0.8,0.1l-0.8,0.1l-0.8,0l-0.8,0l-0.8,0l-0.8,0l-0.8-0.1l-0.8-0.1l-0.8-0.1
							l-0.8-0.1l-0.8-0.2l-0.8-0.2l-0.8-0.2l-0.8-0.2l-0.8-0.2l-0.8-0.3l-0.8-0.3l-0.8-0.3l-0.8-0.3l-0.8-0.3l-0.8-0.4l-0.8-0.4
							l-0.8-0.4l-0.8-0.4l-0.8-0.4l-0.8-0.5l-0.8-0.5l-0.8-0.5l-0.8-0.5l-0.8-0.5l-0.8-0.6l-0.8-0.6l-0.8-0.6l-0.8-0.6l-0.8-0.6
							l-0.8-0.6l-0.8-0.7l-0.8-0.7l-0.8-0.7l-0.8-0.7l-0.8-0.7l-0.8-0.8l-0.8-0.8l-0.8-0.8l-0.8-0.8l-0.8-0.8l-0.8-0.8l-0.8-0.9
							l-0.8-0.9l-0.8-0.9l-0.8-0.9l-0.8-0.9l-0.8-0.9l-0.8-1l-0.8-1l-0.8-1l-0.8-1l-0.8-1l-0.8-1l-0.8-1.1l-0.8-1.1l-0.8-0.9
							l-0.8-0.8l-0.8-0.8l-0.8-0.8l-0.8-0.9l-0.8-0.9l-0.8-0.9l-0.8-0.9l-0.8-0.9l-0.8-0.9l-0.8-1l-0.8-1l-0.8-1l-0.8-1l-0.8-1
							l-0.8-1l-0.8-1.1l-0.8-1.1l-0.8-1.1l-0.8-1.1l-0.8-1.1l-0.8-1.1l-0.8-1.2l-0.8-1.2l-0.8-1.2l-0.8-1.2l-0.8-1.2l-0.8-1.2
							l-0.8-1.3l-0.8-1.3l-0.8-1.3l-0.8-1.3l-0.8-1.3l-0.8-1.3l-0.8-1.3l-0.8-1.4l-0.8-1.4l-0.8-1.4l-0.8-1.4l-0.8-1.4l-0.8-1.4
							l-0.8-1.4l-0.8-1.4l-0.8-1.4l-0.8-1.5l-0.8-1.5l-0.8-1.5l-0.8-1.5l-0.8-1.5l-0.8-1.5l-0.8-1.5l-0.8-1.5l-0.8-1.5l-0.8-1.5
							l-0.8-1.5l-0.8-1.5l-0.8-1.5l-0.8-1.5l-0.8-1.5l-0.8-1.5l-0.8-1.5l-0.8-1.5l-0.8-1.5l-0.8-1.5l-0.8-1.5l-0.8-1.5l-0.8-1.5
							l-0.8-1.5l-0.8-1.5l-0.8-1.5l-0.8-1.4l-0.8-1.4l-0.8-1.4l-0.8-1.4l-0.8-1.4l-0.8-1.4l-0.8-1.4l-0.8-1.3l-0.8-1.3l-0.8-1.3
							l-0.8-1.3l-0.8-1.3l-0.8-1.2l-0.8-1.2l-0.8-1.2l-0.8-1.2l-0.8-1.1l-0.8-1.1l-0.8-1.1l-0.8-1.1l-0.8-1l-0.8-1l-0.8-1l-0.8-0.9
							l-0.8-0.9l-0.8-0.9l-0.8-0.8l-0.8-0.8l-0.8-0.7l-0.8-0.7l-0.8-0.7l-0.8-0.6l-0.8-0.6l-0.8-0.5l-0.8-0.5l-0.8-0.5l-0.8-0.4
							l-0.8-0.4l-0.8-0.3l-0.8-0.3l-0.8-0.2l-0.8-0.2l-0.8-0.1l-0.8-0.1l-0.8,0l-0.8,0l-0.8,0l-0.8,0.1l-0.8,0.1l-0.8,0.2l-0.8,0.2
							l-0.8,0.3l-0.8,0.4l-0.8,0.4l-0.8,0.5l-0.8,0.5l-0.8,0.6l-0.8,0.6l-0.8,0.7l-0.8,0.7l-0.8,0.8l-0.8,0.8l-0.8,0.9l-0.8,0.9
							l-0.8,1l-0.8,1l-0.8,1.1l-0.8,1.1l-0.8,1.2l-0.8,1.2l-0.8,1.3l-0.8,1.3l-0.8,1.4l-0.8,1.4l-0.8,1.5l-0.8,1.5l-0.8,1.6
							l-0.8,1.6l-0.8,1.7l-0.8,1.7l-0.8,1.7l-0.8,1.8l-0.8,1.8l-0.8,1.9l-0.8,1.9l-0.8,2l-0.8,2l-0.8,2l-0.8,2.1l-0.8,2.1l-0.8,2.2
							l-0.8,2.2l-0.8,2.2l-0.8,2.3l-0.8,2.3l-0.8,2.3l-0.8,2.4l-0.8,2.4l-0.8,2.4l-0.8,2.4l-0.8,2.5l-0.8,2.5l-0.8,2.5l-0.8,2.5
							l-0.8,2.6l-0.8,2.6l-0.8,2.6l-0.8,2.6l-0.8,2.7l-0.8,2.7l-0.8,2.7l-0.8,2.7l-0.8,2.7l-0.8,2.7l-0.8,2.7l-0.8,2.8L370,213
							l-0.8,2.8l-0.8,2.8l-0.8,2.8l-0.8,2.8l-0.8,2.8l-0.8,2.8l-0.8,2.8l-0.8,2.8l-0.8,2.8l-0.8,2.8l-0.8,2.8l-0.8,2.8l-0.8,2.8
							l-0.8,2.8l-0.8,2.8l-0.8,2.8l-0.8,2.7l-0.8,2.7l-0.8,2.7l-0.8,2.7l-0.8,2.7l-0.8,2.7l-0.8,2.7l-0.8,2.6l-0.8,2.6l-0.8,2.6
							l-0.8,2.6l-0.8,2.6l-0.8,2.5l-0.8,2.5l-0.8,2.5l-0.8,2.5l-0.8,2.4l-0.8,2.4l-0.8,2.4l-0.8,2.4l-0.8,2.3l-0.8,2.3l-0.8,2.3
							l-0.8,2.2l-0.8,2.2l-0.8,2.2l-0.8,2.1l-0.8,2.1l-0.8,2l-0.8,2l-0.8,2l-0.8,1.9l-0.8,1.9l-0.8,1.8l-0.8,1.8l-0.8,1.8l-0.8,1.7
							l-0.8,1.7l-0.8,1.6l-0.8,1.6l-0.8,1.5l-0.8,1.5l-0.8,1.4l-0.8,1.4l-0.8,1.3l-0.8,1.3l-0.8,1.2l-0.8,1.2l-0.8,1.1l-0.8,1.1
							l-0.8,1l-0.8,1l-0.8,0.9l-0.8,0.9l-0.8,0.8l-0.8,0.7l-0.8,0.7l-0.8,0.6l-0.8,0.5l-0.8,0.5l-0.8,0.4l-0.8,0.4l-0.8,0.3
							l-0.8,0.2l-0.8,0.2l-0.8,0.1l-0.8,0l-0.8,0l-0.8-0.1l-0.8-0.2l-0.8-0.2l-0.8-0.3l-0.8-0.4l-0.8-0.4l-0.8-0.5l-0.8-0.6
							l-0.8-0.6l-0.8-0.7l-0.8-0.8L292,365l-0.8-0.9l-0.8-1l-0.8-1l-0.8-1.1l-0.8-1.1l-0.8-1.2l-0.8-1.3l-0.8-1.3l-0.8-1.4l-0.8-1.5
							l-0.8-1.5l-0.8-1.6l-0.8-1.6l-0.8-1.7l-0.8-1.7l-0.8-1.8l-0.8-1.9l-0.8-1.9l-0.8-2l-0.8-2l-0.8-2.1l-0.8-2.1l-0.8-2.2
							l-0.8-2.2l-0.8-2.3l-0.8-2.3l-0.8-2.4l-0.8-2.4l-0.8-2.5l-0.8-2.5l-0.8-2.6l-0.8-2.6l-0.8-2.7l-0.8-2.7l-0.8-2.7l-0.8-2.8
							l-0.8-2.8l-0.8-2.9l-0.8-2.9l-0.8-2.9l-0.8-3l-0.8-3l-0.8-3l-0.8-3l-0.8-3.1l-0.8-3.1l-0.8-3.1l-0.8-3.2l-0.8-3.2l-0.8-3.2
							l-0.8-3.2l-0.8-3.2l-0.8-3.3l-0.8-3.3l-0.8-3.3l-0.8-3.3l-0.8-3.3l-0.8-3.3l-0.8-3.4l-0.8-3.4l-0.8-3.4l-0.8-3.4l-0.8-3.4
							l-0.8-3.4l-0.8-3.4l-0.8-3.4l-0.8-3.4l-0.8-3.4l-0.8-3.4l-0.8-3.4l-0.8-3.4l-0.8-3.4l-0.8-3.4l-0.8-3.4l-0.8-3.4l-0.8-3.4
							l-0.8-3.4l-0.8-3.4l-0.8-3.3l-0.8-3.3l-0.8-3.3l-0.8-3.3l-0.8-3.3l-0.8-3.3l-0.8-3.2l-0.8-3.2l-0.8-3.2l-0.8-3.2l-0.8-3.2
							l-0.8-3.1l-0.8-3.1l-0.8-3.1l-0.8-3l-0.8-3l-0.8-3l-0.8-2.9l-0.8-2.9l-0.8-2.9l-0.8-2.8l-0.8-2.8l-0.8-2.8l-0.8-2.7l-0.8-2.7
							l-0.8-2.6l-0.8-2.6l-0.8-2.5l-0.8-2.5l-0.8-2.4l-0.8-2.4l-0.8-2.3l-0.8-2.3l-0.8-2.2l-0.8-2.2l-0.8-2.1l-0.8-2.1l-0.8-2
							l-0.8-2l-0.8-1.9l-0.8-1.9l-0.8-1.8l-0.8-1.7l-0.8-1.7l-0.8-1.6l-0.8-1.5l-0.8-1.5l-0.8-1.4l-0.8-1.3l-0.8-1.3l-0.8-1.2
							l-0.8-1.1l-0.8-1.1l-0.8-1l-0.8-0.9l-0.8-0.8l-0.8-0.8l-0.8-0.7l-0.8-0.6l-0.8-0.5l-0.8-0.5l-0.8-0.4l-0.8-0.3l-0.8-0.2
							l-0.8-0.1l-0.8-0.1l-0.8,0l-0.8,0.1l-0.8,0.2l-0.8,0.3l-0.8,0.3l-0.8,0.4l-0.8,0.5l-0.8,0.6l-0.8,0.7l-0.8,0.8l-0.8,0.9
							l-0.8,0.9l-0.8,1l-0.8,1.1l-0.8,1.2l-0.8,1.3l-0.8,1.4l-0.8,1.4l-0.8,1.5l-0.8,1.6l-0.8,1.7l-0.8,1.8l-0.8,1.9l-0.8,2l-0.8,2
							l-0.8,2.1l-0.8,2.2l-0.8,2.3l-0.8,2.4l-0.8,2.5l-0.8,2.5l-0.8,2.6l-0.8,2.7l-0.8,2.8l-0.8,2.9l-0.8,2.9l-0.8,3l-0.8,3.1
							l-0.8,3.2l-0.8,3.2l-0.8,3.3l-0.8,3.4l-0.8,3.5l-0.8,3.5l-0.8,3.6l-0.8,3.7l-0.8,3.7l-0.8,3.8l-0.8,3.8l-0.8,3.9l-0.8,4
							l-0.8,4l-0.8,4.1l-0.8,4.1l-0.8,4.2l-0.8,4.2l-0.8,4.3l-0.8,4.3l-0.8,4.4l-0.8,4.4l-0.8,4.5l-0.8,4.5l-0.8,4.5l-0.8,4.6
							l-0.8,4.6l-0.8,4.6l-0.8,4.7l-0.8,4.7l-0.8,4.7l-0.8,4.8l-0.8,4.8l-0.8,4.8L115.7,227.7z"/>
					</g>
				</g>
			</g>
		</g>
		<g id="PolyCollection_2">
			<g>
				<defs>
					<rect id="SVGID_19_" x="75.1" y="0.6" width="892.8" height="489.2"/>
				</defs>
				<clipPath id="SVGID_20_">
					<use xlink:href="#SVGID_19_"  style="overflow:visible;"/>
				</clipPath>
				<g class="st12">
					<g>
						<path id="ma433d781df" class="st13" d="M115.7,227.7v74.6l0.8-4.5l0.8-4.5l0.8-4.5l0.8-4.5l0.8-4.4l0.8-4.4l0.8-4.4l0.8-4.4
							l0.8-4.3l0.8-4.3l0.8-4.3l0.8-4.2l0.8-4.2l0.8-4.2l0.8-4.1l0.8-4.1l0.8-4l0.8-4l0.8-3.9l0.8-3.9l0.8-3.8l0.8-3.8l0.8-3.7
							l0.8-3.7l0.8-3.6l0.8-3.6l0.8-3.5l0.8-3.4l0.8-3.4l0.8-3.3l0.8-3.3l0.8-3.2l0.8-3.1l0.8-3.1l0.8-3l0.8-2.9l0.8-2.9l0.8-2.8
							l0.8-2.7l0.8-2.6l0.8-2.6l0.8-2.5l0.8-2.4l0.8-2.4l0.8-2.3l0.8-2.2l0.8-2.1l0.8-2.1l0.8-2l0.8-1.9l0.8-1.8l0.8-1.8l0.8-1.7
							l0.8-1.6l0.8-1.5l0.8-1.4l0.8-1.4l0.8-1.3l0.8-1.2l0.8-1.1l0.8-1.1l0.8-1l0.8-0.9l0.8-0.8l0.8-0.8l0.8-0.7l0.8-0.6l0.8-0.5
							l0.8-0.5l0.8-0.4l0.8-0.3l0.8-0.2l0.8-0.2l0.8-0.1l0.8,0l0.8,0l0.8,0.1l0.8,0.2l0.8,0.3l0.8,0.3l0.8,0.4l0.8,0.5l0.8,0.5
							l0.8,0.6l0.8,0.7l0.8,0.7l0.8,0.8l0.8,0.9l0.8,0.9l0.8,1l0.8,1l0.8,1.1l0.8,1.2l0.8,1.2l0.8,1.3l0.8,1.3l0.8,1.4l0.8,1.5
							l0.8,1.5l0.8,1.6l0.8,1.6l0.8,1.7l0.8,1.7l0.8,1.8l0.8,1.8l0.8,1.9l0.8,1.9l0.8,2l0.8,2l0.8,2.1l0.8,2.1l0.8,2.2l0.8,2.2
							l0.8,2.3l0.8,2.3l0.8,2.3l0.8,2.4l0.8,2.4l0.8,2.5l0.8,2.5l0.8,2.5l0.8,2.6l0.8,2.6l0.8,2.7l0.8,2.7l0.8,2.7l0.8,2.8l0.8,2.8
							l0.8,2.8l0.8,2.9l0.8,2.9l0.8,2.9l0.8,2.9l0.8,3l0.8,3l0.8,3l0.8,3l0.8,3.1l0.8,3.1l0.8,3.1l0.8,3.1l0.8,3.2l0.8,3.2l0.8,3.2
							l0.8,3.2l0.8,3.2l0.8,3.2l0.8,3.2l0.8,3.3l0.8,3.3l0.8,3.3l0.8,3.3l0.8,3.3l0.8,3.3l0.8,3.3l0.8,3.3l0.8,3.3l0.8,3.3l0.8,3.3
							l0.8,3.3l0.8,3.3l0.8,3.3l0.8,3.3l0.8,3.3l0.8,3.3l0.8,3.3l0.8,3.3l0.8,3.3l0.8,3.3l0.8,3.3l0.8,3.3l0.8,3.2l0.8,3.2l0.8,3.2
							l0.8,3.2l0.8,3.2l0.8,3.2l0.8,3.1l0.8,3.1l0.8,3.1l0.8,3.1l0.8,3l0.8,3l0.8,3l0.8,3l0.8,2.9l0.8,2.9l0.8,2.9l0.8,2.8l0.8,2.8
							l0.8,2.8l0.8,2.7l0.8,2.7l0.8,2.7l0.8,2.6l0.8,2.6l0.8,2.5l0.8,2.5l0.8,2.5l0.8,2.4l0.8,2.4l0.8,2.3l0.8,2.3l0.8,2.2l0.8,2.2
							l0.8,2.1l0.8,2.1l0.8,2l0.8,2l0.8,1.9l0.8,1.9l0.8,1.8l0.8,1.8l0.8,1.7l0.8,1.7l0.8,1.6l0.8,1.6l0.8,1.5l0.8,1.4l0.8,1.4
							l0.8,1.3l0.8,1.3l0.8,1.2l0.8,1.2l0.8,1.1l0.8,1l0.8,1l0.8,0.9l0.8,0.9l0.8,0.8l0.8,0.7l0.8,0.7l0.8,0.6l0.8,0.6l0.8,0.5
							l0.8,0.5l0.8,0.4l0.8,0.3l0.8,0.3l0.8,0.2l0.8,0.2l0.8,0.1l0.8,0l0.8,0l0.8-0.1l0.8-0.1l0.8-0.2l0.8-0.2l0.8-0.3l0.8-0.3
							l0.8-0.4l0.8-0.4l0.8-0.5l0.8-0.5l0.8-0.6l0.8-0.6l0.8-0.7l0.8-0.7l0.8-0.8l0.8-0.8l0.8-0.9l0.8-0.9l0.8-1l0.8-1l0.8-1
							l0.8-1.1l0.8-1.1l0.8-1.2l0.8-1.2l0.8-1.3l0.8-1.3l0.8-1.4l0.8-1.4l0.8-1.5l0.8-1.5l0.8-1.5l0.8-1.6l0.8-1.6l0.8-1.7l0.8-1.7
							l0.8-1.7l0.8-1.8l0.8-1.8l0.8-1.8l0.8-1.9l0.8-1.9l0.8-1.9l0.8-2l0.8-2l0.8-2l0.8-2.1l0.8-2.1l0.8-2.1l0.8-2.1l0.8-2.2
							l0.8-2.2l0.8-2.2l0.8-2.2l0.8-2.3l0.8-2.3l0.8-2.3l0.8-2.3l0.8-2.3l0.8-2.3l0.8-2.4l0.8-2.4l0.8-2.4l0.8-2.4l0.8-2.4l0.8-2.4
							l0.8-2.4l0.8-2.4l0.8-2.4l0.8-2.4l0.8-2.4l0.8-2.5l0.8-2.5l0.8-2.5l0.8-2.5l0.8-2.4l0.8-2.4l0.8-2.4l0.8-2.4l0.8-2.4l0.8-2.4
							l0.8-2.4l0.8-2.4l0.8-2.4l0.8-2.4l0.8-2.4l0.8-2.3l0.8-2.3l0.8-2.3l0.8-2.3l0.8-2.3l0.8-2.3l0.8-2.2l0.8-2.2l0.8-2.2l0.8-2.2
							l0.8-2.1l0.8-2.1l0.8-2.1l0.8-2.1l0.8-2l0.8-2l0.8-2l0.8-1.9l0.8-1.9l0.8-1.9l0.8-1.9l0.8-1.8l0.8-1.8l0.8-1.8l0.8-1.7
							l0.8-1.7l0.8-1.6l0.8-1.6l0.8-1.6l0.8-1.5l0.8-1.5l0.8-1.5l0.8-1.4l0.8-1.4l0.8-1.3l0.8-1.3l0.8-1.3l0.8-1.2l0.8-1.2l0.8-1.1
							l0.8-1.1l0.8-1.1l0.8-1l0.8-1l0.8-0.9l0.8-0.9l0.8-0.9l0.8-0.8l0.8-0.8l0.8-0.7l0.8-0.7l0.8-0.7l0.8-0.6l0.8-0.6l0.8-0.5
							l0.8-0.5l0.8-0.5l0.8-0.4l0.8-0.4l0.8-0.4l0.8-0.3l0.8-0.3l0.8-0.2l0.8-0.2l0.8-0.2l0.8-0.1l0.8-0.1l0.8-0.1l0.8,0l0.8,0
							l0.8,0l0.8,0.1l0.8,0.1l0.8,0.1l0.8,0.2l0.8,0.2l0.8,0.2l0.8,0.3l0.8,0.3l0.8,0.3l0.8,0.4l0.8,0.4l0.8,0.4l0.8,0.4l0.8,0.5
							l0.8,0.5l0.8,0.5l0.8,0.5l0.8,0.6l0.8,0.6l0.8,0.6l0.8,0.6l0.8,0.7l0.8,0.7l0.8,0.7l0.8,0.7l0.8,0.8l0.8,0.8l0.8,0.8l0.8,0.8
							l0.8,0.8l0.8,0.9l0.8,0.9l0.8,0.9l0.8,0.9l0.8,0.9l0.8,1l0.8,1l0.8,1l0.8,1l0.8,1l0.8,1.1l0.8,1.1l0.8,1.1l0.8,1.1l0.8,1.1
							l0.8,1.1l0.8,1.2l0.8,1.2l0.8,1.2l0.8,1.2l0.8,1.2l0.8,1.2l0.8,1.3l0.8,1.3l0.8,1.3l0.8,1.3l0.8,1.3l0.8,1.3l0.8,1.3l0.8,1.4
							l0.8,1.4l0.8,1.4l0.8,1.4l0.8,1.4l0.8,1.4l0.8,1.4l0.8,1.5l0.8,1.5l0.8,1.5l0.8,1.5l0.8,1.5l0.8,1.5l0.8,1.5l0.8,1.5l0.8,1.5
							l0.8,1.6l0.8,1.6l0.8,1.6l0.8,1.6l0.8,1.6l0.8,1.6l0.8,1.6l0.8,1.6l0.8,1.6l0.8,1.6l0.8,1.6l0.8,1.6l0.8,1.7l0.8,1.7l0.8,1.7
							l0.8,1.7l0.8,1.7l0.8,1.7l0.8,1.7l0.8,1.7l0.8,1.7l0.8,1.7l0.8,1.7l0.8,1.5l0.8,1.4l0.8,1.4l0.8,1.4l0.8,1.4l0.8,1.4l0.8,1.4
							l0.8,1.4l0.8,1.4l0.8,1.4l0.8,1.4l0.8,1.3l0.8,1.3l0.8,1.3l0.8,1.3l0.8,1.3l0.8,1.3l0.8,1.3l0.8,1.3l0.8,1.2l0.8,1.2l0.8,1.2
							l0.8,1.2l0.8,1.2l0.8,1.2l0.8,1.1l0.8,1.1l0.8,1.1l0.8,1.1l0.8,1.1l0.8,1l0.8,1l0.8,1l0.8,1l0.8,0.9l0.8,0.9l0.8,0.9l0.8,0.8
							l0.8,0.8l0.8,0.8l0.8,0.7l0.8,0.7l0.8,0.7l0.8,0.7l0.8,0.6l0.8,0.6l0.8,0.5l0.8,0.5l0.8,0.5l0.8,0.4l0.8,0.4l0.8,0.4l0.8,0.3
							l0.8,0.3l0.8,0.3l0.8,0.2l0.8,0.2l0.8,0.1l0.8,0.1l0.8,0.1l0.8,0l0.8,0l0.8-0.1l0.8-0.1l0.8-0.1l0.8-0.2l0.8-0.2l0.8-0.3
							l0.8-0.3l0.8-0.3l0.8-0.4l0.8-0.4l0.8-0.4l0.8-0.5l0.8-0.5l0.8-0.5l0.8-0.6l0.8-0.6l0.8-0.6l0.8-0.7l0.8-0.7l0.8-0.7l0.8-0.8
							l0.8-0.8l0.8-0.8l0.8-0.9l0.8-0.9l0.8-0.9l0.8-0.9l0.8-1l0.8-1l0.8-1l0.8-1l0.8-1l0.8-1.1l0.8-1.1l0.8-1.1l0.8-1.1l0.8-1.1
							l0.8-1.1l0.8-1.2l0.8-1.2l0.8-1.2l0.8-1.2l0.8-1.2l0.8-1.2l0.8-1.2l0.8-1.2l0.8-1.2l0.8-1.2l0.8-1.2l0.8-1.2l0.8-1.2l0.8-1.2
							l0.8-1.2l0.8-1.2l0.8-1.2l0.8-1.2l0.8-1.2l0.8-1.1l0.8-1.1l0.8-1.1l0.8-1.1l0.8-1.1l0.8-1.1l0.8-1.1l0.8-1l0.8-1l0.8-1l0.8-1
							l0.8-1l0.8-0.9l0.8-0.9l0.8-0.9l0.8-0.9l0.8-0.9l0.8-0.8l0.8-0.8l0.8-0.8l0.8-0.7l0.8-0.7l0.8-0.7l0.8-0.7l0.8-0.6l0.8-0.6
							l0.8-0.6l0.8-0.6l0.8-0.5l0.8-0.5l0.8-0.5l0.8-0.4l0.8-0.4l0.8-0.4l0.8-0.4l0.8-0.3l0.8-0.3l0.8-0.3l0.8-0.3l0.8-0.2l0.8-0.2
							l0.8-0.2l0.8-0.2l0.8-0.1l0.8-0.1l0.8-0.1l0.8-0.1l0.8,0l0.8,0l0.8,0l0.8,0l0.8,0l0.8,0.1l0.8,0.1l0.8,0.1l0.8,0.1l0.8,0.1
							l0.8,0.1l0.8,0.1l0.8,0.2l0.8,0.2l0.8,0.2l0.8,0.2l0.8,0.2l0.8,0.2l0.8,0.2l0.8,0.2l0.8,0.2l0.8,0.2l0.8,0.2l0.8,0.2l0.8,0.2
							l0.8,0.2l0.8,0.2l0.8,0.2l0.8,0.2l0.8,0.2l0.8,0.2l0.8,0.2l0.8,0.2l0.8,0.2l0.8,0.2l0.8,0.2l0.8,0.2l0.8,0.2l0.8,0.1l0.8,0.1
							l0.8,0.1l0.8,0.1l0.8,0.1l0.8,0.1l0.8,0.1l0.8,0.1l0.8,0l0.8,0l0.8,0l0.8,0l0.8,0l0.8,0l0.8-0.1l0.8-0.1l0.8-0.1l0.8-0.1
							l0.8-0.1l0.8-0.1l0.8-0.1l0.8-0.2l0.8-0.2l0.8-0.2l0.8-0.2l0.8-0.2l0.8-0.2l0.8-0.2l0.8-0.3l0.8-0.3l0.8-0.3l0.8-0.3l0.8-0.3
							l0.8-0.3l0.8-0.3l0.8-0.3l0.8-0.3l0.8-0.4l0.8-0.4l0.8-0.4l0.8-0.4l0.8-0.4l0.8-0.4l0.8-0.4l0.8-0.4l0.8-0.4l0.8-0.8l0.8-1
							l0.8-1l0.8-1l0.8-1l0.8-1l0.8-1l0.8-0.9l0.8-0.9l0.8-0.9l0.8-0.9l0.8-0.9l0.8-0.9l0.8-0.8l0.8-0.8l0.8-0.8l0.8-0.8l0.8-0.8
							l0.8-0.7l0.8-0.7l0.8-0.7l0.8-0.7l0.8-0.6l0.8-0.6l0.8-0.6l0.8-0.5l0.8-0.5l0.8-0.5l0.8-0.4l0.8-0.4l0.8-0.4l0.8-0.3l0.8-0.3
							l0.8-0.2l0.8-0.2l0.8-0.2l0.8-0.1l0.8-0.1l0.8,0l0.8,0l0.8,0l0.8,0.1l0.8,0.1l0.8,0.2l0.8,0.2l0.8,0.2l0.8,0.3l0.8,0.3
							l0.8,0.4l0.8,0.4l0.8,0.4l0.8,0.5l0.8,0.5l0.8,0.5l0.8,0.6l0.8,0.6l0.8,0.6l0.8,0.7l0.8,0.7l0.8,0.7l0.8,0.8l0.8,0.8l0.8,0.8
							l0.8,0.9l0.8,0.9l0.8,0.9l0.8,0.9l0.8,1l0.8,1l0.8,1l0.8,1l0.8,1l0.8,1l0.8,1.1l0.8,1.1l0.8,1.1l0.8,1.1l0.8,1.1l0.8,1.1
							l0.8,1.1l0.8,1.1l0.8,1.1l0.8,1.1l0.8,1.1l0.8,1.1l0.8,1.1l0.8,1.1l0.8,1.1l0.8,1.1l0.8,1.1l0.8,1.1l0.8,1.1l0.8,1.1l0.8,1.1
							l0.8,1l0.8,1l0.8,1l0.8,1l0.8,1l0.8,0.9l0.8,0.9l0.8,0.9l0.8,0.9l0.8,0.8l0.8,0.8l0.8,0.8l0.8,0.8l0.8,0.7l0.8,0.7l0.8,0.7
							l0.8,0.7l0.8,0.6l0.8,0.6l0.8,0.6l0.8,0.5l0.8,0.5l0.8,0.5l0.8,0.4l0.8,0.4l0.8,0.4l0.8,0.3l0.8,0.3l0.8,0.3l0.8,0.2l0.8,0.2
							l0.8,0.2l0.8,0.1l0.8,0.1l0.8,0.1l0.8,0.1l0.8,0l0.8,0l0.8,0l0.8-0.1l0.8-0.1l0.8-0.1l0.8-0.1l0.8-0.2l0.8-0.2l0.8-0.2
							l0.8-0.2l0.8-0.3l0.8-0.3l0.8-0.3l0.8-0.3l0.8-0.3l0.8-0.4l0.8-0.4l0.8-0.4l0.8-0.4l0.8-0.4l0.8-0.4l0.8-0.4l0.8-0.5l0.8-0.5
							l0.8-0.5l0.8-0.5l0.8-0.5l0.8-0.5l0.8-0.5l0.8-0.5l0.8-0.5l0.8-0.5l0.8-0.5l0.8-0.5l0.8-0.5l0.8-0.5l0.8-0.5l0.8-0.5l0.8-0.5
							l0.8-0.5l0.8-0.5l0.8-0.4l0.8-0.4l0.8-0.4l0.8-0.4l0.8-0.4l0.8-0.4l0.8-0.4l0.8-0.4l0.8-0.4l0.8-0.3l0.8-0.3l0.8-0.3l0.8-0.3
							l0.8-0.3l0.8-0.3l0.8-0.3l0.8-0.3l0.8-0.2l0.8-0.2l0.8-0.2l0.8-0.2l0.8-0.2l0.8-0.2l0.8-0.2l0.8-0.2l0.8-0.1l0.8-0.1l0.8-0.1
							l0.8-0.1l0.8-0.1l0.8-0.1l0.8-0.1l0.8-0.1l0.8-0.1l0.8-0.1l0.8-0.1l0.8-0.1l0.8-0.1l0.8-0.1l0.8-0.1l0.8-0.1l0.8-0.1l0.8-0.1
							l0.8-0.1l0.8-0.1l0.8-0.1l0.8-0.1l0.8-0.2l0.8-0.2l0.8-0.2l0.8-0.2l0.8-0.2l0.8-0.2l0.8-0.3l0.8-0.3l0.8-0.3l0.8-0.3l0.8-0.3
							l0.8-0.4l0.8-0.4l0.8-0.4l0.8-0.5l0.8-0.5l0.8-0.5l0.8-0.6l0.8-0.6l0.8-0.6l0.8-0.7l0.8-0.7l0.8-0.7l0.8-0.8l0.8-0.8l0.8-0.9
							l0.8-0.9l0.8-0.9l0.8-1l0.8-1l0.8-1.1V237l0,0l-0.8,1l-0.8,0.9l-0.8,0.9l-0.8,0.9l-0.8,0.8l-0.8,0.8l-0.8,0.7l-0.8,0.7
							l-0.8,0.7l-0.8,0.6l-0.8,0.6l-0.8,0.6l-0.8,0.5l-0.8,0.5l-0.8,0.4l-0.8,0.4l-0.8,0.4l-0.8,0.4l-0.8,0.3l-0.8,0.3l-0.8,0.3
							l-0.8,0.2l-0.8,0.2l-0.8,0.2l-0.8,0.2l-0.8,0.2l-0.8,0.1l-0.8,0.1l-0.8,0.1l-0.8,0.1l-0.8,0.1l-0.8,0.1l-0.8,0.1l-0.8,0
							l-0.8,0l-0.8,0l-0.8,0l-0.8,0l-0.8,0l-0.8,0l-0.8,0l-0.8,0l-0.8,0l-0.8,0l-0.8,0l-0.8,0l-0.8,0l-0.8,0l-0.8,0l-0.8,0l-0.8,0
							l-0.8,0.1l-0.8,0.1l-0.8,0.1l-0.8,0.1l-0.8,0.1l-0.8,0.1l-0.8,0.1l-0.8,0.1l-0.8,0.1l-0.8,0.2l-0.8,0.2l-0.8,0.2l-0.8,0.2
							l-0.8,0.2l-0.8,0.2l-0.8,0.2l-0.8,0.2l-0.8,0.3l-0.8,0.3l-0.8,0.3l-0.8,0.3l-0.8,0.3l-0.8,0.3l-0.8,0.3l-0.8,0.3l-0.8,0.3
							l-0.8,0.4l-0.8,0.4l-0.8,0.4l-0.8,0.4l-0.8,0.4l-0.8,0.4l-0.8,0.4l-0.8,0.4l-0.8,0.4l-0.8,0.4l-0.8,0.4l-0.8,0.4l-0.8,0.4
							l-0.8,0.4l-0.8,0.4l-0.8,0.4l-0.8,0.4l-0.8,0.4l-0.8,0.4l-0.8,0.4l-0.8,0.4l-0.8,0.3l-0.8,0.3l-0.8,0.3l-0.8,0.3l-0.8,0.3
							l-0.8,0.3l-0.8,0.3l-0.8,0.2l-0.8,0.2l-0.8,0.2l-0.8,0.2l-0.8,0.1l-0.8,0.1l-0.8,0.1l-0.8,0.1l-0.8,0.1l-0.8,0l-0.8,0l-0.8,0
							l-0.8-0.1l-0.8-0.1l-0.8-0.1L829,268l-0.8-0.2l-0.8-0.2l-0.8-0.2l-0.8-0.3l-0.8-0.3l-0.8-0.3l-0.8-0.4l-0.8-0.4l-0.8-0.4
							l-0.8-0.5l-0.8-0.5l-0.8-0.5l-0.8-0.6l-0.8-0.6l-0.8-0.6l-0.8-0.7l-0.8-0.7l-0.8-0.7l-0.8-0.8l-0.8-0.8l-0.8-0.8l-0.8-0.8
							l-0.8-0.9l-0.8-0.9l-0.8-0.9l-0.8-1l-0.8-1l-0.8-1l-0.8-1l-0.8-1l-0.8-1.1l-0.8-1.1l-0.8-1.1l-0.8-1.1l-0.8-1.1l-0.8-1.2
							l-0.8-1.2l-0.8-1.2l-0.8-1.2l-0.8-1.2l-0.8-1.2l-0.8-1.2l-0.8-1.2l-0.8-1.2l-0.8-1.2l-0.8-1.2l-0.8-1.2l-0.8-1.2l-0.8-1.2
							l-0.8-1.2l-0.8-1.2l-0.8-1.2l-0.8-1.2l-0.8-1.2l-0.8-1.2l-0.8-1.2l-0.8-1.2l-0.8-1.1l-0.8-1.1l-0.8-1.1l-0.8-1.1l-0.8-1.1
							l-0.8-1l-0.8-1l-0.8-1l-0.8-1l-0.8-0.9l-0.8-0.9l-0.8-0.9l-0.8-0.9l-0.8-0.8l-0.8-0.8l-0.8-0.8l-0.8-0.7l-0.8-0.7l-0.8-0.7
							l-0.8-0.6l-0.8-0.6l-0.8-0.5l-0.8-0.5l-0.8-0.5l-0.8-0.4l-0.8-0.4l-0.8-0.4l-0.8-0.3l-0.8-0.3l-0.8-0.2l-0.8-0.2l-0.8-0.2
							l-0.8-0.1l-0.8-0.1l-0.8,0l-0.8,0l-0.8,0l-0.8,0.1l-0.8,0.1l-0.8,0.2l-0.8,0.2l-0.8,0.2l-0.8,0.3l-0.8,0.3l-0.8,0.3l-0.8,0.4
							l-0.8,0.4l-0.8,0.4l-0.8,0.5l-0.8,0.5l-0.8,0.5l-0.8,0.6l-0.8,0.6l-0.8,0.6l-0.8,0.6l-0.8,0.7l-0.8,0.7l-0.8,0.7l-0.8,0.7
							l-0.8,0.7l-0.8,0.8l-0.8,0.8l-0.8,0.8l-0.8,0.8l-0.8,0.8l-0.8,0.8l-0.8,0.8l-0.8,0.8l-0.8,0.8l-0.8,0.9l-0.8,0.9l-0.8,0.7
							l-0.8,0.3l-0.8,0.3l-0.8,0.3l-0.8,0.3l-0.8,0.2l-0.8,0.2l-0.8,0.2l-0.8,0.2l-0.8,0.2l-0.8,0.2l-0.8,0.2l-0.8,0.2l-0.8,0.2
							l-0.8,0.2l-0.8,0.2l-0.8,0.1l-0.8,0.1l-0.8,0.1l-0.8,0.1L708,218l-0.8,0.1l-0.8,0.1l-0.8,0l-0.8,0l-0.8,0l-0.8,0l-0.8,0
							l-0.8,0l-0.8,0l-0.8-0.1L699,218l-0.8-0.1l-0.8-0.1l-0.8-0.1l-0.8-0.1l-0.8-0.2l-0.8-0.2l-0.8-0.2l-0.8-0.2l-0.8-0.2l-0.8-0.2
							l-0.8-0.2l-0.8-0.3l-0.8-0.3l-0.8-0.3l-0.8-0.3l-0.8-0.3l-0.8-0.3l-0.8-0.3l-0.8-0.3l-0.8-0.3l-0.8-0.3l-0.8-0.4l-0.8-0.4
							l-0.8-0.4l-0.8-0.4l-0.8-0.4l-0.8-0.4l-0.8-0.4l-0.8-0.4l-0.8-0.4l-0.8-0.4l-0.8-0.4l-0.8-0.4l-0.8-0.4l-0.8-0.4l-0.8-0.4
							l-0.8-0.4l-0.8-0.3l-0.8-0.3l-0.8-0.3l-0.8-0.3l-0.8-0.3l-0.8-0.3l-0.8-0.3l-0.8-0.3l-0.8-0.3l-0.8-0.2l-0.8-0.2l-0.8-0.2
							l-0.8-0.2l-0.8-0.2l-0.8-0.1l-0.8-0.1l-0.8-0.1l-0.8-0.1l-0.8-0.1l-0.8,0l-0.8,0l-0.8,0l-0.8,0l-0.8,0.1l-0.8,0.1l-0.8,0.1
							l-0.8,0.1l-0.8,0.2l-0.8,0.2l-0.8,0.2l-0.8,0.2l-0.8,0.3l-0.8,0.3l-0.8,0.3l-0.8,0.4l-0.8,0.4l-0.8,0.4l-0.8,0.4l-0.8,0.5
							l-0.8,0.5l-0.8,0.5l-0.8,0.5L634,209l-0.8,0.6l-0.8,0.6l-0.8,0.6l-0.8,0.7l-0.8,0.7l-0.8,0.7l-0.8,0.7l-0.8,0.8l-0.8,0.8
							l-0.8,0.8l-0.8,0.8l-0.8,0.8l-0.8,0.9l-0.8,0.9l-0.8,0.9l-0.8,0.9l-0.8,0.9l-0.8,0.9l-0.8,0.9l-0.8,1l-0.8,1l-0.8,1l-0.8,1
							l-0.8,1l-0.8,1l-0.8,1l-0.8,1l-0.8,1l-0.8,1l-0.8,1l-0.8,1l-0.8,1l-0.8,1l-0.8,1l-0.8,1l-0.8,1l-0.8,1l-0.8,1l-0.8,0.9
							l-0.8,0.9l-0.8,0.9l-0.8,0.9l-0.8,0.9l-0.8,0.9l-0.8,0.9l-0.8,0.8l-0.8,0.8l-0.8,0.8l-0.8,0.8l-0.8,0.7l-0.8,0.7l-0.8,0.7
							l-0.8,0.7l-0.8,0.6l-0.8,0.6l-0.8,0.6l-0.8,0.6l-0.8,0.5l-0.8,0.5l-0.8,0.5l-0.8,0.4l-0.8,0.4l-0.8,0.4l-0.8,0.3l-0.8,0.3
							l-0.8,0.2l-0.8,0.2l-0.8,0.2l-0.8,0.1l-0.8,0.1l-0.8,0.1l-0.8,0l-0.8,0l-0.8-0.1l-0.8-0.1l-0.8-0.1l-0.8-0.2l-0.8-0.2
							l-0.8-0.3l-0.8-0.3l-0.8-0.3l-0.8-0.4l-0.8-0.4l-0.8-0.5l-0.8-0.5l-0.8-0.5l-0.8-0.6l-0.8-0.6l-0.8-0.6l-0.8-0.7l-0.8-0.7
							l-0.8-0.8l-0.8-0.8l-0.8-0.8l-0.8-0.9l-0.8-0.9l-0.8-0.9l-0.8-1l-0.8-1l-0.8-1l-0.8-1.1l-0.8-1.1l-0.8-1.1l-0.8-1.2l-0.8-1.2
							l-0.8-1.2l-0.8-1.2l-0.8-1.3l-0.8-1.3l-0.8-1.3l-0.8-1.3l-0.8-1.4l-0.8-1.4l-0.8-1.4l-0.8-1.4l-0.8-1.5l-0.8-1.5l-0.8-1.5
							l-0.8-1.5l-0.8-1.5l-0.8-1.5l-0.8-1.6l-0.8-1.6l-0.8-1.6l-0.8-1.6l-0.8-1.6l-0.8-1.6l-0.8-1.6l-0.8-1.6l-0.8-1.6l-0.8-1.7
							l-0.8-1.7L526,199l-0.8-1.7l-0.8-1.7l-0.8-1.7l-0.8-1.7l-0.8-1.7l-0.8-1.5l-0.8-1.4l-0.8-1.4l-0.8-1.4l-0.8-1.4l-0.8-1.4
							l-0.8-1.4l-0.8-1.4l-0.8-1.4l-0.8-1.4l-0.8-1.4l-0.8-1.4l-0.8-1.4l-0.8-1.4l-0.8-1.4l-0.8-1.3l-0.8-1.3l-0.8-1.3l-0.8-1.3
							l-0.8-1.3l-0.8-1.3l-0.8-1.3l-0.8-1.3l-0.8-1.3l-0.8-1.3l-0.8-1.3l-0.8-1.3l-0.8-1.2l-0.8-1.2l-0.8-1.2l-0.8-1.2l-0.8-1.2
							l-0.8-1.2l-0.8-1.2l-0.8-1.2l-0.8-1.2l-0.8-1.1l-0.8-1.1l-0.8-1.1l-0.8-1.1l-0.8-1.1l-0.8-1.1l-0.8-1.1l-0.8-1l-0.8-1l-0.8-1
							l-0.8-1l-0.8-1l-0.8-1l-0.8-1l-0.8-0.9l-0.8-0.9l-0.8-0.9l-0.8-0.9l-0.8-0.9l-0.8-0.9l-0.8-0.8l-0.8-0.8l-0.8-0.8l-0.8-0.8
							l-0.8-0.8l-0.8-0.8l-0.8-0.7l-0.8-0.7l-0.8-0.7l-0.8-0.7l-0.8-0.7l-0.8-0.7l-0.8-0.6l-0.8-0.6l-0.8-0.6l-0.8-0.6l-0.8-0.6
							l-0.8-0.5l-0.8-0.5l-0.8-0.5l-0.8-0.5l-0.8-0.4l-0.8-0.4l-0.8-0.4l-0.8-0.4l-0.8-0.3l-0.8-0.3l-0.8-0.3l-0.8-0.3l-0.8-0.2
							l-0.8-0.2l-0.8-0.2l-0.8-0.2l-0.8-0.1l-0.8-0.1l-0.8-0.1l-0.8,0l-0.8,0l-0.8,0l-0.8,0l-0.8,0.1l-0.8,0.1l-0.8,0.1l-0.8,0.2
							l-0.8,0.2l-0.8,0.2l-0.8,0.3l-0.8,0.3l-0.8,0.3l-0.8,0.4l-0.8,0.4l-0.8,0.4l-0.8,0.5l-0.8,0.5l-0.8,0.6l-0.8,0.6l-0.8,0.6
							l-0.8,0.7l-0.8,0.7l-0.8,0.7l-0.8,0.8l-0.8,0.8l-0.8,0.9l-0.8,0.9l-0.8,0.9l-0.8,1l-0.8,1l-0.8,1.1l-0.8,1.1l-0.8,1.1
							l-0.8,1.2l-0.8,1.2l-0.8,1.3l-0.8,1.3l-0.8,1.3l-0.8,1.4l-0.8,1.4l-0.8,1.5l-0.8,1.5l-0.8,1.5l-0.8,1.6l-0.8,1.6l-0.8,1.6
							l-0.8,1.7l-0.8,1.7l-0.8,1.8l-0.8,1.8l-0.8,1.8l-0.8,1.9l-0.8,1.9l-0.8,1.9l-0.8,2l-0.8,2l-0.8,2l-0.8,2.1l-0.8,2.1l-0.8,2.1
							l-0.8,2.2l-0.8,2.2l-0.8,2.2l-0.8,2.2l-0.8,2.3l-0.8,2.3l-0.8,2.3l-0.8,2.3l-0.8,2.4l-0.8,2.4l-0.8,2.4l-0.8,2.4l-0.8,2.4
							l-0.8,2.5l-0.8,2.5l-0.8,2.5l-0.8,2.5l-0.8,2.5l-0.8,2.5l-0.8,2.6l-0.8,2.6l-0.8,2.6l-0.8,2.6l-0.8,2.6l-0.8,2.6l-0.8,2.6
							l-0.8,2.6l-0.8,2.6l-0.8,2.6l-0.8,2.6l-0.8,2.6l-0.8,2.6l-0.8,2.6l-0.8,2.6l-0.8,2.6l-0.8,2.6l-0.8,2.6l-0.8,2.6l-0.8,2.6
							l-0.8,2.6l-0.8,2.5l-0.8,2.5l-0.8,2.5l-0.8,2.5l-0.8,2.5l-0.8,2.5l-0.8,2.5l-0.8,2.4l-0.8,2.4l-0.8,2.4l-0.8,2.4l-0.8,2.3
							l-0.8,2.3l-0.8,2.3l-0.8,2.3l-0.8,2.2l-0.8,2.2l-0.8,2.2l-0.8,2.1l-0.8,2.1l-0.8,2.1l-0.8,2.1l-0.8,2l-0.8,2l-0.8,1.9
							l-0.8,1.9l-0.8,1.9l-0.8,1.8l-0.8,1.8l-0.8,1.8l-0.8,1.7l-0.8,1.7l-0.8,1.6l-0.8,1.6l-0.8,1.5l-0.8,1.5l-0.8,1.5l-0.8,1.4
							l-0.8,1.4l-0.8,1.3l-0.8,1.3l-0.8,1.2l-0.8,1.2l-0.8,1.1l-0.8,1.1l-0.8,1l-0.8,1l-0.8,0.9l-0.8,0.9l-0.8,0.8l-0.8,0.8
							l-0.8,0.7l-0.8,0.7l-0.8,0.6l-0.8,0.6l-0.8,0.5l-0.8,0.5l-0.8,0.5l-0.8,0.4l-0.8,0.4l-0.8,0.3l-0.8,0.3l-0.8,0.2l-0.8,0.1
							l-0.8,0.1l-0.8,0l-0.8,0l-0.8-0.1l-0.8-0.1l-0.8-0.2l-0.8-0.3l-0.8-0.3l-0.8-0.4l-0.8-0.4l-0.8-0.5l-0.8-0.6l-0.8-0.6
							l-0.8-0.7l-0.8-0.7l-0.8-0.8l-0.8-0.9l-0.8-0.9l-0.8-1l-0.8-1l-0.8-1.1l-0.8-1.2l-0.8-1.2l-0.8-1.3l-0.8-1.3l-0.8-1.4
							l-0.8-1.4l-0.8-1.5l-0.8-1.5l-0.8-1.6l-0.8-1.7l-0.8-1.7l-0.8-1.8l-0.8-1.8l-0.8-1.9l-0.8-1.9l-0.8-2l-0.8-2l-0.8-2.1
							l-0.8-2.1l-0.8-2.2l-0.8-2.2l-0.8-2.3l-0.8-2.3l-0.8-2.3l-0.8-2.4l-0.8-2.4l-0.8-2.5l-0.8-2.5l-0.8-2.5l-0.8-2.6l-0.8-2.6
							l-0.8-2.7l-0.8-2.7l-0.8-2.7l-0.8-2.8l-0.8-2.8l-0.8-2.8l-0.8-2.9l-0.8-2.9l-0.8-2.9l-0.8-2.9l-0.8-3l-0.8-3l-0.8-3l-0.8-3
							l-0.8-3l-0.8-3.1l-0.8-3.1l-0.8-3.1l-0.8-3.1l-0.8-3.1l-0.8-3.1l-0.8-3.2l-0.8-3.2l-0.8-3.2l-0.8-3.2l-0.8-3.2l-0.8-3.2
							l-0.8-3.2l-0.8-3.2l-0.8-3.2l-0.8-3.2l-0.8-3.2l-0.8-3.2l-0.8-3.2l-0.8-3.2l-0.8-3.2l-0.8-3.2l-0.8-3.2l-0.8-3.2l-0.8-3.2
							l-0.8-3.2l-0.8-3.2l-0.8-3.2l-0.8-3.1l-0.8-3.1l-0.8-3.1l-0.8-3.1l-0.8-3.1l-0.8-3.1l-0.8-3l-0.8-3l-0.8-3l-0.8-3l-0.8-3
							l-0.8-2.9l-0.8-2.9l-0.8-2.9l-0.8-2.9l-0.8-2.8l-0.8-2.8l-0.8-2.8l-0.8-2.8l-0.8-2.7l-0.8-2.7l-0.8-2.7l-0.8-2.6l-0.8-2.6
							l-0.8-2.6l-0.8-2.5l-0.8-2.5l-0.8-2.4l-0.8-2.4l-0.8-2.4l-0.8-2.3l-0.8-2.3l-0.8-2.2l-0.8-2.2l-0.8-2.2l-0.8-2.1l-0.8-2.1
							l-0.8-2l-0.8-2l-0.8-1.9l-0.8-1.9l-0.8-1.8l-0.8-1.8l-0.8-1.7l-0.8-1.7l-0.8-1.6l-0.8-1.6l-0.8-1.5l-0.8-1.5l-0.8-1.4
							l-0.8-1.4l-0.8-1.3l-0.8-1.2l-0.8-1.2l-0.8-1.1l-0.8-1.1l-0.8-1l-0.8-1L188,31l-0.8-0.8l-0.8-0.8l-0.8-0.7l-0.8-0.6l-0.8-0.6
							l-0.8-0.5l-0.8-0.4l-0.8-0.4l-0.8-0.3l-0.8-0.2l-0.8-0.2l-0.8-0.1l-0.8,0l-0.8,0l-0.8,0.1l-0.8,0.2l-0.8,0.3l-0.8,0.3
							l-0.8,0.4l-0.8,0.5l-0.8,0.6l-0.8,0.6l-0.8,0.7l-0.8,0.8l-0.8,0.8l-0.8,0.9l-0.8,1l-0.8,1.1l-0.8,1.2l-0.8,1.2l-0.8,1.3
							l-0.8,1.4l-0.8,1.5l-0.8,1.5l-0.8,1.6l-0.8,1.7l-0.8,1.8l-0.8,1.8l-0.8,1.9l-0.8,2l-0.8,2.1l-0.8,2.1l-0.8,2.2l-0.8,2.3
							l-0.8,2.4l-0.8,2.4l-0.8,2.5l-0.8,2.6l-0.8,2.7l-0.8,2.7l-0.8,2.8l-0.8,2.9l-0.8,2.9l-0.8,3l-0.8,3.1l-0.8,3.1l-0.8,3.2
							l-0.8,3.3l-0.8,3.3l-0.8,3.4l-0.8,3.5l-0.8,3.5l-0.8,3.6l-0.8,3.6l-0.8,3.7l-0.8,3.8l-0.8,3.8l-0.8,3.9L132,141l-0.8,4l-0.8,4
							l-0.8,4.1l-0.8,4.1l-0.8,4.2l-0.8,4.2l-0.8,4.2l-0.8,4.3l-0.8,4.3l-0.8,4.4l-0.8,4.4l-0.8,4.4l-0.8,4.4l-0.8,4.5l-0.8,4.5
							l-0.8,4.5l-0.8,4.5l-0.8,4.6l-0.8,4.6L115.7,227.7z"/>
					</g>
				</g>
			</g>
		</g>
		<g id="line2d_9">
			<g>
				<defs>
					<rect id="SVGID_21_" x="75.1" y="0.6" width="892.8" height="489.2"/>
				</defs>
				<clipPath id="SVGID_22_">
					<use xlink:href="#SVGID_21_"  style="overflow:visible;"/>
				</clipPath>
				<path class="st14" d="M115.7,265l6.5-37.6l4.9-26.9l4.1-21.2l4.1-19.9l3.2-14.8l3.2-13.8l3.2-12.6l2.4-8.7l2.4-8l2.4-7.3
					l2.4-6.5l2.4-5.8l2.4-5l1.6-2.9l1.6-2.6l1.6-2.2l1.6-1.9l1.6-1.5l1.6-1.2l1.6-0.9l1.6-0.5l1.6-0.2l1.6,0.1l1.6,0.5l1.6,0.8
					l1.6,1.1l1.6,1.4l1.6,1.7l1.6,2l1.6,2.3l1.6,2.6l2.4,4.4l2.4,4.9l2.4,5.5l2.4,6l2.4,6.6l3.2,9.5l3.2,10.3l3.2,11l4.1,14.6
					l4.1,15.4l4.9,19.4l6.5,27l21.9,92.1l4.9,19l4.1,15l4.1,14.1l3.2,10.6l3.2,9.9l3.2,9.1l2.4,6.3l2.4,5.8l2.4,5.2l2.4,4.7l2.4,4.2
					l2.4,3.6l1.6,2.1l1.6,1.8l1.6,1.6l1.6,1.3l1.6,1l1.6,0.8l1.6,0.5l1.6,0.3l1.6,0l1.6-0.3l1.6-0.5l1.6-0.8l1.6-1l1.6-1.3l1.6-1.5
					l1.6-1.8l1.6-2l2.4-3.4l2.4-3.8l2.4-4.2l2.4-4.6l2.4-5l3.2-7.3l3.2-8l3.2-8.5l4.1-11.4l4.1-12.1l4.9-15.2l6.5-21.2l17.9-59.1
					l4.9-15.1l4.1-11.9l4.1-11.2l3.2-8.3l3.2-7.7l3.2-7.1l2.4-4.8l2.4-4.4l2.4-4l2.4-3.5l2.4-3.1l2.4-2.6l1.6-1.5l1.6-1.3l1.6-1.1
					l1.6-0.9l1.6-0.7l1.6-0.5l1.6-0.3l1.6,0l1.6,0.1l1.6,0.3l1.6,0.5l1.6,0.7l1.6,0.9l2.4,1.7l2.4,2.1l2.4,2.4l2.4,2.8l2.4,3.1
					l3.2,4.6l3.2,5.1l3.2,5.5l4.1,7.3l4.9,9.3l6.5,12.9l13.8,27.6l5.7,10.8l4.9,8.8l4.9,8.3l4.1,6.5l4.1,6.1l4.1,5.7l4.1,5.3
					l4.1,4.9l4.1,4.5l3.2,3.3l3.2,3l3.2,2.8l3.2,2.5l3.2,2.2l3.2,2l3.2,1.7l3.2,1.4l3.2,1.1l2.4,0.6l2.4,0.4l2.4,0.2l2.4,0l2.4-0.2
					l2.4-0.4l2.4-0.6l2.4-0.8l2.4-1l2.4-1.2l2.4-1.5l2.4-1.7l2.4-1.9l3.2-2.9l3.2-3.2l3.2-3.6l3.2-3.9l4.1-5.3l4.1-5.6l5.7-8.3
					l14.6-21.7l4.1-5.5l3.2-4.1l3.2-3.8l3.2-3.4l2.4-2.2l2.4-2l2.4-1.7l2.4-1.4l2.4-1.1l2.4-0.8l2.4-0.4l2.4-0.1l2.4,0.2l2.4,0.5
					l2.4,0.8l2.4,1.1l2.4,1.4l2.4,1.6l2.4,1.8l3.2,2.7l3.2,3l4.1,4.1l15.4,16l3.2,2.9l3.2,2.6l2.4,1.7l2.4,1.5l2.4,1.2l2.4,0.9
					l2.4,0.7l0.8,0.2l1.6-0.4l3.2-1.2l3.2-1.4l4.1-2.1l4.9-2.7l12.2-7l4.1-2l3.2-1.3l3.2-1l2.4-0.6l2.4-0.3l2.4-0.1l2.4,0.1l2.4,0.4
					l2.4,0.6l2.4,0.9l2.4,1.2l2.4,1.5l2.4,1.7l2.4,2l2.4,2.2l3.2,3.3l3.2,3.6l4.1,4.9l5.7,7.4l8.1,10.6l4.1,4.9l3.2,3.6l2.4,2.4
					l2.4,2.1l2.4,1.8l2.4,1.5l1.6,0.8l1.6,0.6l1.6,0.4l1.6,0.2l1.6,0l1.6-0.2l1.6-0.4l1.6-0.6l1.6-0.8l1.6-1l1.6-1.2l1.6-1.4
					l1.6-1.6l2.4-2.8l2.4-3.3l2.4-3.7l2.4-4.1l2.4-4.5l3.2-6.5l3.2-7l4.1-9.4l4.9-11.9l13-32l4.1-9.3l3.2-6.9l3.2-6.3l2.4-4.4l2.4-4
					l2.4-3.6l2.4-3.1l2.4-2.7l2.4-2.2l1.6-1.2l1.6-1l1.6-0.8l0.8-0.3l0,0"/>
			</g>
		</g>
		<g id="line2d_10">
			<g>
				<defs>
					<rect id="SVGID_23_" x="75.1" y="0.6" width="892.8" height="489.2"/>
				</defs>
				<clipPath id="SVGID_24_">
					<use xlink:href="#SVGID_23_"  style="overflow:visible;"/>
				</clipPath>
				<path class="st15" d="M115.7,265l6.5-35.9l4.9-25.8l4.1-20.4l4.1-19.1l3.2-14.3l3.2-13.3l3.2-12.3l2.4-8.5l2.4-7.9l2.4-7.2
					l2.4-6.5l2.4-5.8l2.4-5.2l2.4-4.5l1.6-2.6l1.6-2.3l1.6-2l1.6-1.7l1.6-1.4l1.6-1.1l1.6-0.8L175,66l1.6-0.2l1.6,0.1l1.6,0.3
					l1.6,0.6l1.6,0.9l1.6,1.2l1.6,1.4L188,72l1.6,1.9l2.4,3.3l2.4,3.9l2.4,4.4l2.4,4.9l2.4,5.4l2.4,5.8l3.2,8.4l3.2,9.1l3.2,9.8
					l4.1,13l4.1,13.9l4.9,17.6l4.9,18.4l6.5,25.5l21.9,87l4.9,18l4.1,14.2l4.1,13.4l3.2,10l3.2,9.3l3.2,8.6l2.4,5.9l2.4,5.5l2.4,5
					l2.4,4.5l2.4,4l2.4,3.5l2.4,2.9l1.6,1.7l1.6,1.4l1.6,1.2l1.6,1l1.6,0.7l1.6,0.5l1.6,0.2l1.6,0l1.6-0.2l1.6-0.4l1.6-0.7l2.4-1.3
					l1.6-1.1l1.6-1.3l1.6-1.5l2.4-2.6l2.4-3.1l2.4-3.5l2.4-3.9l2.4-4.3l2.4-4.7l3.2-6.8l3.2-7.4l3.2-8l4.1-10.7l4.1-11.3l4.9-14.3
					l6.5-19.9l15.4-47.6l4.9-14.2l4.1-11.3l4.1-10.6l3.2-8l3.2-7.4l3.2-6.9l3.2-6.3l2.4-4.3l2.4-4l2.4-3.6l2.4-3.2l2.4-2.9l2.4-2.5
					l2.4-2.2l2.4-1.8l2.4-1.5l2.4-1.1l2.4-0.8l2.4-0.5l2.4-0.2l2.4,0.1l2.4,0.4l2.4,0.6l2.4,0.9l2.4,1.1l2.4,1.4l2.4,1.6l3.2,2.4
					l3.2,2.8l3.2,3.1l3.2,3.4l3.2,3.7l4.1,5l4.1,5.4l4.1,5.8l4.1,6.1l4.9,7.8l4.9,8.2l5.7,10.1l6.5,12l20.3,37.9l4.9,8.4l4.1,6.5
					l3.2,4.8l3.2,4.4l3.2,3.9l2.4,2.6l2.4,2.3l2.4,2l2.4,1.7l2.4,1.4l2.4,1l1.6,0.5l1.6,0.3l1.6,0.2l1.6,0l1.6-0.2l1.6-0.3l2.4-0.7
					l2.4-1.1l2.4-1.4l2.4-1.7l2.4-2l2.4-2.2l3.2-3.4l3.2-3.7l4.1-5l4.9-6.4l12.2-16.3l4.1-5l3.2-3.7l3.2-3.4l3.2-3l2.4-2l2.4-1.7
					l2.4-1.5l2.4-1.2l2.4-1l2.4-0.7l2.4-0.5l2.4-0.3l2.4-0.1l2.4,0.1l3.2,0.4l3.2,0.7l4.1,1.2l4.9,1.7l10.6,3.8l4.1,1.2l3.2,0.8
					l3.2,0.5l3.2,0.3l3.2,0.1l3.2-0.2l3.2-0.4l3.2-0.7l3.2-0.9l4.1-1.3l4.9-1.9l1.6-0.7l1.6-1.7l5.7-6.3l3.2-3.3l3.2-3l2.4-2
					l2.4-1.8l2.4-1.5l2.4-1.2l2.4-0.9l2.4-0.5l1.6-0.2l1.6,0l1.6,0.1l1.6,0.3l1.6,0.5l2.4,1l2.4,1.3l2.4,1.7l2.4,2l2.4,2.3l2.4,2.6
					l3.2,3.8l3.2,4.2l4.1,5.6l7.3,10.5l5.7,8.1l4.1,5.4l3.2,4l3.2,3.7l2.4,2.5l2.4,2.2l2.4,1.9l2.4,1.6l2.4,1.4l2.4,1.1l2.4,0.8
					l2.4,0.5l2.4,0.2l2.4-0.1l2.4-0.3l2.4-0.5l2.4-0.7l3.2-1.2l3.2-1.5l4.1-2.1l14.6-7.7l4.1-1.8l3.2-1.2l3.2-1l3.2-0.8l3.2-0.6
					l4.1-0.5l5.7-0.4l7.3-0.5l3.2-0.4l3.2-0.7l2.4-0.7l2.4-0.9l2.4-1.2l2.4-1.5l2.4-1.8l2.4-2.1l2.4-2.4l2.4-2.8l0.8-1l0,0"/>
			</g>
		</g>
		<g id="patch_3">
			<path class="st16" d="M75.1,489.9V0.6"/>
		</g>
		<g id="patch_4">
			<path class="st16" d="M967.9,489.9V0.6"/>
		</g>
		<g id="patch_5">
			<path class="st16" d="M75.1,489.9h892.8"/>
		</g>
		<g id="patch_6">
			<path class="st16" d="M75.1,0.6h892.8"/>
		</g>
		<g id="legend_1">
			<g id="patch_7">
				<path class="st17" d="M647.4,146.7h292.5c5.3,0,8-2.7,8-8V28.6c0-5.3-2.7-8-8-8H647.4c-5.3,0-8,2.7-8,8v110.1
					C639.4,144.1,642.1,146.7,647.4,146.7z"/>
			</g>
			<g id="line2d_11">
				<path class="st18" d="M655.4,51.3h80"/>
			</g>
			<g id="line2d_12">
			</g>
			<g id="text_9">
				<g transform="translate(836.275 142.39125)scale(0.4 -0.4)">
					<g>
						<path id="ArialMT-82" class="st2" d="M-164.3,192.8v71.6h31.7c6.4,0,11.2-0.6,14.5-1.9c3.3-1.3,6-3.6,8-6.8
							c2-3.3,3-6.8,3-10.8c0-5.1-1.6-9.4-4.9-12.8c-3.3-3.5-8.4-5.7-15.2-6.6c2.5-1.2,4.4-2.4,5.7-3.6c2.8-2.5,5.4-5.7,7.9-9.5
							l12.5-19.5h-11.9l-9.5,14.9c-2.8,4.3-5.1,7.6-6.8,9.9c-1.8,2.3-3.4,3.9-4.8,4.8c-1.4,0.9-2.9,1.6-4.3,1.9
							c-1.1,0.2-2.8,0.3-5.3,0.3h-11v-31.8H-164.3z M-154.9,232.8h20.4c4.3,0,7.7,0.4,10.1,1.3c2.4,0.9,4.3,2.3,5.6,4.3
							c1.3,2,1.9,4.1,1.9,6.4c0,3.4-1.2,6.2-3.7,8.3c-2.5,2.2-6.3,3.3-11.7,3.3h-22.7V232.8z"/>
					</g>
					<g>
						<path id="ArialMT-101" class="st2" d="M-57.9,209.5l9.1-1.1c-1.4-5.3-4.1-9.4-8-12.4c-3.9-2.9-8.8-4.4-14.8-4.4
							c-7.6,0-13.6,2.3-18,7c-4.4,4.7-6.7,11.2-6.7,19.7c0,8.7,2.2,15.5,6.7,20.3c4.5,4.8,10.3,7.2,17.5,7.2c6.9,0,12.6-2.4,17-7.1
							s6.6-11.4,6.6-19.9c0-0.5,0-1.3,0-2.3h-38.7c0.3-5.7,1.9-10.1,4.8-13.1c2.9-3,6.5-4.5,10.8-4.5c3.2,0,6,0.8,8.3,2.5
							C-61,203.1-59.2,205.8-57.9,209.5z M-86.7,223.7h29c-0.4,4.4-1.5,7.6-3.3,9.8c-2.8,3.4-6.4,5.1-10.9,5.1c-4,0-7.4-1.3-10.2-4
							S-86.4,228.3-86.7,223.7z"/>
					</g>
					<g>
						<path id="ArialMT-97" class="st2" d="M-3.9,199.2c-3.3-2.8-6.4-4.7-9.4-5.9c-3-1.1-6.2-1.7-9.7-1.7c-5.7,0-10.1,1.4-13.1,4.2
							s-4.6,6.3-4.6,10.7c0,2.5,0.6,4.9,1.7,7c1.2,2.1,2.7,3.8,4.5,5.1c1.9,1.3,4,2.2,6.3,2.9c1.7,0.5,4.3,0.9,7.8,1.3
							c7.1,0.8,12.3,1.8,15.7,3c0,1.2,0,2,0,2.3c0,3.6-0.8,6.1-2.5,7.6c-2.2,2-5.6,3-10,3c-4.1,0-7.2-0.7-9.2-2.2s-3.4-4-4.4-7.7
							l-8.6,1.2c0.8,3.7,2.1,6.6,3.9,8.9s4.4,4,7.8,5.2c3.4,1.2,7.3,1.8,11.8,1.8c4.4,0,8-0.5,10.8-1.6c2.8-1,4.8-2.4,6.1-3.9
							c1.3-1.6,2.2-3.6,2.7-6c0.3-1.5,0.4-4.2,0.4-8.1v-11.7c0-8.2,0.2-13.3,0.6-15.5c0.4-2.2,1.1-4.2,2.2-6.2h-9.2
							C-3.1,194.7-3.7,196.8-3.9,199.2z M-4.7,218.9c-3.2-1.3-8-2.4-14.4-3.3c-3.6-0.5-6.2-1.1-7.7-1.8c-1.5-0.6-2.6-1.6-3.5-2.8
							c-0.8-1.3-1.2-2.6-1.2-4.2c0-2.3,0.9-4.3,2.7-5.9c1.8-1.6,4.4-2.3,7.8-2.3c3.4,0,6.4,0.7,9,2.2s4.6,3.5,5.8,6.1
							c0.9,2,1.4,4.9,1.4,8.8V218.9z"/>
					</g>
					<g>
						<path id="ArialMT-108" class="st2" d="M17.7,192.8v71.6h8.8v-71.6H17.7z"/>
					</g>
				</g>
			</g>
			<g id="line2d_13">
				<path class="st19" d="M655.4,108.3h80"/>
			</g>
			<g id="line2d_14">
			</g>
			<g id="text_10">
				<g transform="translate(836.275 199.46)scale(0.4 -0.4)">
					<g>
						<path id="ArialMT-83" class="st2" d="M-167.7,215.8l8.9,0.8c0.4-3.6,1.4-6.5,3-8.8c1.6-2.3,4-4.1,7.2-5.6
							c3.3-1.4,6.9-2.1,11-2.1c3.6,0,6.8,0.5,9.6,1.6c2.8,1.1,4.8,2.5,6.2,4.4c1.4,1.9,2,3.9,2,6.1c0,2.2-0.7,4.2-2,5.9
							c-1.3,1.7-3.4,3.1-6.4,4.2c-1.9,0.8-6.2,1.9-12.8,3.5c-6.6,1.6-11.2,3.1-13.8,4.5c-3.4,1.8-6,4-7.7,6.7
							c-1.7,2.7-2.5,5.6-2.5,8.9c0,3.6,1,7,3.1,10.1c2.1,3.1,5,5.5,9,7.2c3.9,1.6,8.3,2.4,13.1,2.4c5.3,0,10-0.9,14-2.6
							c4.1-1.7,7.2-4.2,9.4-7.5c2.2-3.3,3.3-7.1,3.5-11.3l-9.1-0.7c-0.5,4.5-2.1,7.9-5,10.3c-2.8,2.3-7,3.5-12.5,3.5
							c-5.7,0-9.9-1.1-12.5-3.2c-2.6-2.1-3.9-4.6-3.9-7.6c0-2.6,0.9-4.7,2.8-6.4c1.8-1.7,6.6-3.4,14.3-5.1s13-3.3,15.8-4.6
							c4.2-1.9,7.2-4.4,9.2-7.3c2-2.9,3-6.3,3-10.2c0-3.8-1.1-7.4-3.3-10.8c-2.2-3.4-5.3-6-9.4-7.9c-4.1-1.9-8.7-2.8-13.8-2.8
							c-6.5,0-11.9,0.9-16.3,2.8c-4.4,1.9-7.8,4.7-10.3,8.5C-166.3,206.8-167.6,211.1-167.7,215.8z"/>
					</g>
					<g>
						<path id="ArialMT-121" class="st2" d="M-99.3,172.9l-1,8.3c1.9-0.5,3.6-0.8,5-0.8c2,0,3.5,0.3,4.7,1c1.2,0.6,2.1,1.6,2.9,2.7
							c0.6,0.9,1.4,3.1,2.7,6.5c0.2,0.5,0.4,1.2,0.8,2.2l-19.7,52h9.5l10.8-30c1.4-3.8,2.7-7.8,3.8-12c1,4,2.2,8,3.6,11.8l11.1,30.2
							h8.8L-76.1,192c-2.1-5.7-3.8-9.6-4.9-11.8c-1.6-2.9-3.4-5-5.4-6.4c-2-1.4-4.4-2-7.2-2C-95.3,171.8-97.2,172.2-99.3,172.9z"/>
					</g>
					<g>
						<path id="ArialMT-110" class="st2" d="M-48.9,192.8v51.9h7.9v-7.4c3.8,5.7,9.3,8.5,16.5,8.5c3.1,0,6-0.6,8.6-1.7
							s4.6-2.6,5.9-4.4s2.2-4,2.7-6.5c0.3-1.6,0.5-4.5,0.5-8.5v-31.9h-8.8v31.5c0,3.6-0.3,6.3-1,8c-0.7,1.8-1.9,3.2-3.6,4.2
							c-1.7,1.1-3.8,1.6-6.1,1.6c-3.8,0-7-1.2-9.7-3.6s-4.1-6.9-4.1-13.5v-28.3H-48.9z"/>
					</g>
					<g>
						<path id="ArialMT-116" class="st2" d="M25.9,200.7l1.3-7.8c-2.5-0.5-4.7-0.8-6.6-0.8c-3.2,0-5.7,0.5-7.4,1.5
							c-1.8,1-3,2.3-3.7,4c-0.7,1.6-1.1,5.1-1.1,10.4v29.8H1.9v6.8h6.4v12.8l8.7,5.3v-18.1h8.8v-6.8h-8.8v-30.3
							c0-2.5,0.2-4.1,0.5-4.8c0.3-0.7,0.8-1.3,1.5-1.7c0.7-0.4,1.7-0.6,3-0.6C23,200.4,24.3,200.5,25.9,200.7z"/>
					</g>
					<g>
						<path id="ArialMT-104" class="st2" d="M34.5,192.8v71.6h8.8v-25.7c4.1,4.8,9.3,7.1,15.5,7.1c3.8,0,7.2-0.8,10-2.3
							c2.8-1.5,4.9-3.6,6.1-6.3s1.8-6.5,1.8-11.6v-32.9H68v32.9c0,4.4-1,7.6-2.9,9.6s-4.6,3-8.1,3c-2.6,0-5.1-0.7-7.4-2
							c-2.3-1.3-3.9-3.2-4.9-5.5s-1.5-5.5-1.5-9.6v-28.4H34.5z"/>
					</g>
					<g>
						<path id="ArialMT-101_1_" class="st2" d="M125.6,209.5l9.1-1.1c-1.4-5.3-4.1-9.4-8-12.4c-3.9-2.9-8.8-4.4-14.8-4.4
							c-7.6,0-13.6,2.3-18,7c-4.4,4.7-6.7,11.2-6.7,19.7c0,8.7,2.2,15.5,6.7,20.3c4.5,4.8,10.3,7.2,17.5,7.2c6.9,0,12.6-2.4,17-7.1
							s6.6-11.4,6.6-19.9c0-0.5,0-1.3,0-2.3H96.3c0.3-5.7,1.9-10.1,4.8-13.1c2.9-3,6.5-4.5,10.8-4.5c3.2,0,6,0.8,8.3,2.5
							C122.5,203.1,124.3,205.8,125.6,209.5z M96.8,223.7h29c-0.4,4.4-1.5,7.6-3.3,9.8c-2.8,3.4-6.4,5.1-10.9,5.1
							c-4,0-7.4-1.3-10.2-4S97.1,228.3,96.8,223.7z"/>
					</g>
					<g>
						<path id="ArialMT-116_1_" class="st2" d="M164.9,200.7l1.3-7.8c-2.5-0.5-4.7-0.8-6.6-0.8c-3.2,0-5.7,0.5-7.4,1.5
							c-1.8,1-3,2.3-3.7,4c-0.7,1.6-1.1,5.1-1.1,10.4v29.8h-6.4v6.8h6.4v12.8l8.7,5.3v-18.1h8.8v-6.8h-8.8v-30.3
							c0-2.5,0.2-4.1,0.5-4.8c0.3-0.7,0.8-1.3,1.5-1.7c0.7-0.4,1.7-0.6,3-0.6C162,200.4,163.3,200.5,164.9,200.7z"/>
					</g>
					<g>
						<path id="ArialMT-105" class="st2" d="M173.6,254.3v10.1h8.8v-10.1H173.6z M173.6,192.8v51.9h8.8v-51.9H173.6z"/>
					</g>
					<g>
						<path id="ArialMT-99" class="st2" d="M229.6,211.8l8.6-1.1c-0.9-6-3.4-10.6-7.3-14c-3.9-3.4-8.7-5-14.3-5
							c-7.1,0-12.8,2.3-17.1,7c-4.3,4.6-6.5,11.3-6.5,20c0,5.6,0.9,10.5,2.8,14.7c1.9,4.2,4.7,7.4,8.5,9.5c3.8,2.1,7.9,3.2,12.4,3.2
							c5.6,0,10.2-1.4,13.8-4.3c3.6-2.8,5.9-6.9,6.9-12.1l-8.5-1.3c-0.8,3.5-2.3,6.1-4.3,7.9c-2.1,1.8-4.6,2.6-7.5,2.6
							c-4.4,0-8-1.6-10.8-4.8c-2.8-3.2-4.1-8.2-4.1-15c0-7,1.3-12,4-15.2c2.7-3.2,6.2-4.7,10.5-4.7c3.4,0,6.3,1.1,8.6,3.2
							C227.5,204.2,229,207.4,229.6,211.8z"/>
					</g>
				</g>
			</g>
		</g>
	</g>
</g>
</svg>
