<svg width="28" height="27" viewBox="0 0 28 27" fill="none" xmlns="http://www.w3.org/2000/svg">
<mask id="path-1-inside-1" fill="white">
<path fill-rule="evenodd" clip-rule="evenodd" d="M4.5 6.85506C5.94574 6.42479 7 5.08551 7 3.5C7 1.567 5.433 0 3.5 0C1.567 0 0 1.567 0 3.5C0 5.08551 1.05426 6.42479 2.5 6.85506V9.64494C1.05426 10.0752 0 11.4145 0 13C0 14.933 1.567 16.5 3.5 16.5C5.08551 16.5 6.42479 15.4457 6.85506 14H10.1449C10.4809 15.1289 11.3711 16.0191 12.5 16.3551V19.6449C11.0543 20.0752 10 21.4145 10 23C10 24.933 11.567 26.5 13.5 26.5C15.0855 26.5 16.4248 25.4457 16.8551 24H20.1449C20.5752 25.4457 21.9145 26.5 23.5 26.5C25.433 26.5 27 24.933 27 23C27 21.067 25.433 19.5 23.5 19.5C21.9145 19.5 20.5752 20.5543 20.1449 22H16.8551C16.5191 20.8711 15.6289 19.9809 14.5 19.6449V16.3551C15.9457 15.9248 17 14.5855 17 13C17 11.067 15.433 9.5 13.5 9.5C11.9145 9.5 10.5752 10.5543 10.1449 12H6.85506C6.51909 10.8711 5.62889 9.98091 4.5 9.64494V6.85506ZM12 23C12 22.1716 12.6716 21.5 13.5 21.5C14.3284 21.5 15 22.1716 15 23C15 23.8284 14.3284 24.5 13.5 24.5C12.6716 24.5 12 23.8284 12 23ZM13.5 5C14.3284 5 15 4.32843 15 3.5C15 2.67157 14.3284 2 13.5 2C12.6716 2 12 2.67157 12 3.5C12 4.32843 12.6716 5 13.5 5ZM13.5 7C15.433 7 17 5.433 17 3.5C17 1.567 15.433 0 13.5 0C11.567 0 10 1.567 10 3.5C10 5.433 11.567 7 13.5 7ZM25 3.5C25 4.32843 24.3284 5 23.5 5C22.6716 5 22 4.32843 22 3.5C22 2.67157 22.6716 2 23.5 2C24.3284 2 25 2.67157 25 3.5ZM27 3.5C27 5.433 25.433 7 23.5 7C21.567 7 20 5.433 20 3.5C20 1.567 21.567 0 23.5 0C25.433 0 27 1.567 27 3.5ZM3.5 14.5C4.32843 14.5 5 13.8284 5 13C5 12.1716 4.32843 11.5 3.5 11.5C2.67157 11.5 2 12.1716 2 13C2 13.8284 2.67157 14.5 3.5 14.5ZM15 13C15 13.8284 14.3284 14.5 13.5 14.5C12.6716 14.5 12 13.8284 12 13C12 12.1716 12.6716 11.5 13.5 11.5C14.3284 11.5 15 12.1716 15 13ZM23.5 14.5C24.3284 14.5 25 13.8284 25 13C25 12.1716 24.3284 11.5 23.5 11.5C22.6716 11.5 22 12.1716 22 13C22 13.8284 22.6716 14.5 23.5 14.5ZM23.5 16.5C25.433 16.5 27 14.933 27 13C27 11.067 25.433 9.5 23.5 9.5C21.567 9.5 20 11.067 20 13C20 14.933 21.567 16.5 23.5 16.5ZM5 23C5 23.8284 4.32843 24.5 3.5 24.5C2.67157 24.5 2 23.8284 2 23C2 22.1716 2.67157 21.5 3.5 21.5C4.32843 21.5 5 22.1716 5 23ZM7 23C7 24.933 5.433 26.5 3.5 26.5C1.567 26.5 0 24.933 0 23C0 21.067 1.567 19.5 3.5 19.5C5.433 19.5 7 21.067 7 23Z"/>
</mask>
<path fill-rule="evenodd" clip-rule="evenodd" d="M4.5 6.85506C5.94574 6.42479 7 5.08551 7 3.5C7 1.567 5.433 0 3.5 0C1.567 0 0 1.567 0 3.5C0 5.08551 1.05426 6.42479 2.5 6.85506V9.64494C1.05426 10.0752 0 11.4145 0 13C0 14.933 1.567 16.5 3.5 16.5C5.08551 16.5 6.42479 15.4457 6.85506 14H10.1449C10.4809 15.1289 11.3711 16.0191 12.5 16.3551V19.6449C11.0543 20.0752 10 21.4145 10 23C10 24.933 11.567 26.5 13.5 26.5C15.0855 26.5 16.4248 25.4457 16.8551 24H20.1449C20.5752 25.4457 21.9145 26.5 23.5 26.5C25.433 26.5 27 24.933 27 23C27 21.067 25.433 19.5 23.5 19.5C21.9145 19.5 20.5752 20.5543 20.1449 22H16.8551C16.5191 20.8711 15.6289 19.9809 14.5 19.6449V16.3551C15.9457 15.9248 17 14.5855 17 13C17 11.067 15.433 9.5 13.5 9.5C11.9145 9.5 10.5752 10.5543 10.1449 12H6.85506C6.51909 10.8711 5.62889 9.98091 4.5 9.64494V6.85506ZM12 23C12 22.1716 12.6716 21.5 13.5 21.5C14.3284 21.5 15 22.1716 15 23C15 23.8284 14.3284 24.5 13.5 24.5C12.6716 24.5 12 23.8284 12 23ZM13.5 5C14.3284 5 15 4.32843 15 3.5C15 2.67157 14.3284 2 13.5 2C12.6716 2 12 2.67157 12 3.5C12 4.32843 12.6716 5 13.5 5ZM13.5 7C15.433 7 17 5.433 17 3.5C17 1.567 15.433 0 13.5 0C11.567 0 10 1.567 10 3.5C10 5.433 11.567 7 13.5 7ZM25 3.5C25 4.32843 24.3284 5 23.5 5C22.6716 5 22 4.32843 22 3.5C22 2.67157 22.6716 2 23.5 2C24.3284 2 25 2.67157 25 3.5ZM27 3.5C27 5.433 25.433 7 23.5 7C21.567 7 20 5.433 20 3.5C20 1.567 21.567 0 23.5 0C25.433 0 27 1.567 27 3.5ZM3.5 14.5C4.32843 14.5 5 13.8284 5 13C5 12.1716 4.32843 11.5 3.5 11.5C2.67157 11.5 2 12.1716 2 13C2 13.8284 2.67157 14.5 3.5 14.5ZM15 13C15 13.8284 14.3284 14.5 13.5 14.5C12.6716 14.5 12 13.8284 12 13C12 12.1716 12.6716 11.5 13.5 11.5C14.3284 11.5 15 12.1716 15 13ZM23.5 14.5C24.3284 14.5 25 13.8284 25 13C25 12.1716 24.3284 11.5 23.5 11.5C22.6716 11.5 22 12.1716 22 13C22 13.8284 22.6716 14.5 23.5 14.5ZM23.5 16.5C25.433 16.5 27 14.933 27 13C27 11.067 25.433 9.5 23.5 9.5C21.567 9.5 20 11.067 20 13C20 14.933 21.567 16.5 23.5 16.5ZM5 23C5 23.8284 4.32843 24.5 3.5 24.5C2.67157 24.5 2 23.8284 2 23C2 22.1716 2.67157 21.5 3.5 21.5C4.32843 21.5 5 22.1716 5 23ZM7 23C7 24.933 5.433 26.5 3.5 26.5C1.567 26.5 0 24.933 0 23C0 21.067 1.567 19.5 3.5 19.5C5.433 19.5 7 21.067 7 23Z" fill="url(#paint0_linear)"/>
<path d="M4.5 6.85506L4.21475 5.89661L3.5 6.10933V6.85506H4.5ZM2.5 6.85506H3.5V6.10933L2.78525 5.89661L2.5 6.85506ZM2.5 9.64494L2.78525 10.6034L3.5 10.3907V9.64494H2.5ZM6.85506 14V13H6.10933L5.89661 13.7148L6.85506 14ZM10.1449 14L11.1034 13.7148L10.8907 13H10.1449V14ZM12.5 16.3551H13.5V15.6093L12.7852 15.3966L12.5 16.3551ZM12.5 19.6449L12.7852 20.6034L13.5 20.3907V19.6449H12.5ZM16.8551 24V23H16.1093L15.8966 23.7148L16.8551 24ZM20.1449 24L21.1034 23.7148L20.8907 23H20.1449V24ZM20.1449 22V23H20.8907L21.1034 22.2852L20.1449 22ZM16.8551 22L15.8966 22.2852L16.1093 23H16.8551V22ZM14.5 19.6449H13.5V20.3907L14.2148 20.6034L14.5 19.6449ZM14.5 16.3551L14.2148 15.3966L13.5 15.6093V16.3551H14.5ZM10.1449 12V13H10.8907L11.1034 12.2852L10.1449 12ZM6.85506 12L5.89661 12.2852L6.10933 13H6.85506V12ZM4.5 9.64494H3.5V10.3907L4.21475 10.6034L4.5 9.64494ZM6 3.5C6 4.63103 5.24813 5.58906 4.21475 5.89661L4.78525 7.81351C6.64336 7.26051 8 5.53999 8 3.5H6ZM3.5 1C4.88071 1 6 2.11929 6 3.5H8C8 1.01472 5.98528 -1 3.5 -1V1ZM1 3.5C1 2.11929 2.11929 1 3.5 1V-1C1.01472 -1 -1 1.01472 -1 3.5H1ZM2.78525 5.89661C1.75187 5.58906 1 4.63103 1 3.5H-1C-1 5.53999 0.356644 7.26051 2.21475 7.81351L2.78525 5.89661ZM3.5 9.64494V6.85506H1.5V9.64494H3.5ZM1 13C1 11.869 1.75187 10.9109 2.78525 10.6034L2.21475 8.68649C0.356644 9.23949 -1 10.96 -1 13H1ZM3.5 15.5C2.11929 15.5 1 14.3807 1 13H-1C-1 15.4853 1.01472 17.5 3.5 17.5V15.5ZM5.89661 13.7148C5.58906 14.7481 4.63103 15.5 3.5 15.5V17.5C5.53999 17.5 7.26051 16.1434 7.81351 14.2852L5.89661 13.7148ZM10.1449 13H6.85506V15H10.1449V13ZM12.7852 15.3966C11.98 15.157 11.343 14.52 11.1034 13.7148L9.18649 14.2852C9.61879 15.7378 10.7622 16.8812 12.2148 17.3135L12.7852 15.3966ZM13.5 19.6449V16.3551H11.5V19.6449H13.5ZM11 23C11 21.869 11.7519 20.9109 12.7852 20.6034L12.2148 18.6865C10.3566 19.2395 9 20.96 9 23H11ZM13.5 25.5C12.1193 25.5 11 24.3807 11 23H9C9 25.4853 11.0147 27.5 13.5 27.5V25.5ZM15.8966 23.7148C15.5891 24.7481 14.631 25.5 13.5 25.5V27.5C15.54 27.5 17.2605 26.1434 17.8135 24.2852L15.8966 23.7148ZM20.1449 23H16.8551V25H20.1449V23ZM23.5 25.5C22.369 25.5 21.4109 24.7481 21.1034 23.7148L19.1865 24.2852C19.7395 26.1434 21.46 27.5 23.5 27.5V25.5ZM26 23C26 24.3807 24.8807 25.5 23.5 25.5V27.5C25.9853 27.5 28 25.4853 28 23H26ZM23.5 20.5C24.8807 20.5 26 21.6193 26 23H28C28 20.5147 25.9853 18.5 23.5 18.5V20.5ZM21.1034 22.2852C21.4109 21.2519 22.369 20.5 23.5 20.5V18.5C21.46 18.5 19.7395 19.8566 19.1865 21.7148L21.1034 22.2852ZM16.8551 23H20.1449V21H16.8551V23ZM14.2148 20.6034C15.02 20.843 15.657 21.48 15.8966 22.2852L17.8135 21.7148C17.3812 20.2622 16.2378 19.1188 14.7852 18.6865L14.2148 20.6034ZM13.5 16.3551V19.6449H15.5V16.3551H13.5ZM16 13C16 14.131 15.2481 15.0891 14.2148 15.3966L14.7852 17.3135C16.6434 16.7605 18 15.04 18 13H16ZM13.5 10.5C14.8807 10.5 16 11.6193 16 13H18C18 10.5147 15.9853 8.5 13.5 8.5V10.5ZM11.1034 12.2852C11.4109 11.2519 12.369 10.5 13.5 10.5V8.5C11.46 8.5 9.73949 9.85664 9.18649 11.7148L11.1034 12.2852ZM6.85506 13H10.1449V11H6.85506V13ZM4.21475 10.6034C5.01996 10.843 5.65696 11.48 5.89661 12.2852L7.81351 11.7148C7.38121 10.2622 6.23782 9.11879 4.78525 8.68649L4.21475 10.6034ZM3.5 6.85506V9.64494H5.5V6.85506H3.5ZM13.5 20.5C12.1193 20.5 11 21.6193 11 23H13C13 22.7239 13.2239 22.5 13.5 22.5V20.5ZM16 23C16 21.6193 14.8807 20.5 13.5 20.5V22.5C13.7761 22.5 14 22.7239 14 23H16ZM13.5 25.5C14.8807 25.5 16 24.3807 16 23H14C14 23.2761 13.7761 23.5 13.5 23.5V25.5ZM11 23C11 24.3807 12.1193 25.5 13.5 25.5V23.5C13.2239 23.5 13 23.2761 13 23H11ZM14 3.5C14 3.77614 13.7761 4 13.5 4V6C14.8807 6 16 4.88071 16 3.5H14ZM13.5 3C13.7761 3 14 3.22386 14 3.5H16C16 2.11929 14.8807 1 13.5 1V3ZM13 3.5C13 3.22386 13.2239 3 13.5 3V1C12.1193 1 11 2.11929 11 3.5H13ZM13.5 4C13.2239 4 13 3.77614 13 3.5H11C11 4.88071 12.1193 6 13.5 6V4ZM16 3.5C16 4.88071 14.8807 6 13.5 6V8C15.9853 8 18 5.98528 18 3.5H16ZM13.5 1C14.8807 1 16 2.11929 16 3.5H18C18 1.01472 15.9853 -1 13.5 -1V1ZM11 3.5C11 2.11929 12.1193 1 13.5 1V-1C11.0147 -1 9 1.01472 9 3.5H11ZM13.5 6C12.1193 6 11 4.88071 11 3.5H9C9 5.98528 11.0147 8 13.5 8V6ZM23.5 6C24.8807 6 26 4.88071 26 3.5H24C24 3.77614 23.7761 4 23.5 4V6ZM21 3.5C21 4.88071 22.1193 6 23.5 6V4C23.2239 4 23 3.77614 23 3.5H21ZM23.5 1C22.1193 1 21 2.11929 21 3.5H23C23 3.22386 23.2239 3 23.5 3V1ZM26 3.5C26 2.11929 24.8807 1 23.5 1V3C23.7761 3 24 3.22386 24 3.5H26ZM23.5 8C25.9853 8 28 5.98528 28 3.5H26C26 4.88071 24.8807 6 23.5 6V8ZM19 3.5C19 5.98528 21.0147 8 23.5 8V6C22.1193 6 21 4.88071 21 3.5H19ZM23.5 -1C21.0147 -1 19 1.01472 19 3.5H21C21 2.11929 22.1193 1 23.5 1V-1ZM28 3.5C28 1.01472 25.9853 -1 23.5 -1V1C24.8807 1 26 2.11929 26 3.5H28ZM4 13C4 13.2761 3.77614 13.5 3.5 13.5V15.5C4.88071 15.5 6 14.3807 6 13H4ZM3.5 12.5C3.77614 12.5 4 12.7239 4 13H6C6 11.6193 4.88071 10.5 3.5 10.5V12.5ZM3 13C3 12.7239 3.22386 12.5 3.5 12.5V10.5C2.11929 10.5 1 11.6193 1 13H3ZM3.5 13.5C3.22386 13.5 3 13.2761 3 13H1C1 14.3807 2.11929 15.5 3.5 15.5V13.5ZM13.5 15.5C14.8807 15.5 16 14.3807 16 13H14C14 13.2761 13.7761 13.5 13.5 13.5V15.5ZM11 13C11 14.3807 12.1193 15.5 13.5 15.5V13.5C13.2239 13.5 13 13.2761 13 13H11ZM13.5 10.5C12.1193 10.5 11 11.6193 11 13H13C13 12.7239 13.2239 12.5 13.5 12.5V10.5ZM16 13C16 11.6193 14.8807 10.5 13.5 10.5V12.5C13.7761 12.5 14 12.7239 14 13H16ZM24 13C24 13.2761 23.7761 13.5 23.5 13.5V15.5C24.8807 15.5 26 14.3807 26 13H24ZM23.5 12.5C23.7761 12.5 24 12.7239 24 13H26C26 11.6193 24.8807 10.5 23.5 10.5V12.5ZM23 13C23 12.7239 23.2239 12.5 23.5 12.5V10.5C22.1193 10.5 21 11.6193 21 13H23ZM23.5 13.5C23.2239 13.5 23 13.2761 23 13H21C21 14.3807 22.1193 15.5 23.5 15.5V13.5ZM26 13C26 14.3807 24.8807 15.5 23.5 15.5V17.5C25.9853 17.5 28 15.4853 28 13H26ZM23.5 10.5C24.8807 10.5 26 11.6193 26 13H28C28 10.5147 25.9853 8.5 23.5 8.5V10.5ZM21 13C21 11.6193 22.1193 10.5 23.5 10.5V8.5C21.0147 8.5 19 10.5147 19 13H21ZM23.5 15.5C22.1193 15.5 21 14.3807 21 13H19C19 15.4853 21.0147 17.5 23.5 17.5V15.5ZM3.5 25.5C4.88071 25.5 6 24.3807 6 23H4C4 23.2761 3.77614 23.5 3.5 23.5V25.5ZM1 23C1 24.3807 2.11929 25.5 3.5 25.5V23.5C3.22386 23.5 3 23.2761 3 23H1ZM3.5 20.5C2.11929 20.5 1 21.6193 1 23H3C3 22.7239 3.22386 22.5 3.5 22.5V20.5ZM6 23C6 21.6193 4.88071 20.5 3.5 20.5V22.5C3.77614 22.5 4 22.7239 4 23H6ZM3.5 27.5C5.98528 27.5 8 25.4853 8 23H6C6 24.3807 4.88071 25.5 3.5 25.5V27.5ZM-1 23C-1 25.4853 1.01472 27.5 3.5 27.5V25.5C2.11929 25.5 1 24.3807 1 23H-1ZM3.5 18.5C1.01472 18.5 -1 20.5147 -1 23H1C1 21.6193 2.11929 20.5 3.5 20.5V18.5ZM8 23C8 20.5147 5.98528 18.5 3.5 18.5V20.5C4.88071 20.5 6 21.6193 6 23H8Z" fill="url(#paint1_linear)" mask="url(#path-1-inside-1)"/>
<defs>
<linearGradient id="paint0_linear" x1="0.423767" y1="13.25" x2="27" y2="13.25" gradientUnits="userSpaceOnUse">
<stop stop-color="#63B684"/>
<stop offset="1" stop-color="#E2CC55"/>
</linearGradient>
<linearGradient id="paint1_linear" x1="0.423767" y1="13.25" x2="27" y2="13.25" gradientUnits="userSpaceOnUse">
<stop stop-color="#63B684"/>
<stop offset="1" stop-color="#E2CC55"/>
</linearGradient>
</defs>
</svg>
