<svg width="29" height="28" viewBox="0 0 29 28" fill="none" xmlns="http://www.w3.org/2000/svg">
<mask id="path-1-inside-1" fill="white">
<path fill-rule="evenodd" clip-rule="evenodd" d="M14.4551 5.67432C15.2835 5.67432 15.9551 5.00274 15.9551 4.17432C15.9551 3.34589 15.2835 2.67432 14.4551 2.67432C13.6267 2.67432 12.9551 3.34589 12.9551 4.17432C12.9551 5.00274 13.6267 5.67432 14.4551 5.67432ZM12.3041 13L14.7972 7.65781C15.2 7.61874 15.5828 7.51137 15.934 7.34744L19.3359 10.7495C18.6464 11.2929 18.1662 12.09 18.0361 13H12.3041ZM18.3374 15H11.3708L9.65644 18.6736L12.2858 20.9274C12.8822 20.4558 13.6358 20.1743 14.4551 20.1743C14.6969 20.1743 14.933 20.1988 15.161 20.2455L18.864 15.8019C18.6538 15.5613 18.476 15.2918 18.3374 15ZM16.9514 21.2211C17.3464 21.623 17.6451 22.1199 17.8101 22.6743H22.0986C22.2799 21.9245 22.7026 21.269 23.2799 20.7946L21.3817 16.998C21.1025 16.9887 20.8315 16.9467 20.5726 16.8757L16.9514 21.2211ZM17.8101 24.6743H22.2025C22.6851 26.0297 23.9795 27 25.5006 27C27.4336 27 29.0006 25.433 29.0006 23.5C29.0006 21.567 27.4336 20 25.5006 20C25.3749 20 25.2507 20.0066 25.1284 20.0195L23.3536 16.4698C24.3427 15.8513 25.0006 14.7525 25.0006 13.5C25.0006 11.567 23.4336 10 21.5006 10C21.4723 10 21.444 10.0003 21.4158 10.001L17.4315 6.0166C17.7634 5.4815 17.9551 4.85029 17.9551 4.17432C17.9551 2.24132 16.3881 0.674316 14.4551 0.674316C12.5221 0.674316 10.9551 2.24132 10.9551 4.17432C10.9551 4.76956 11.1037 5.3301 11.3658 5.82086L4.15496 10.187C2.36246 10.3392 0.955078 11.8424 0.955078 13.6743C0.955078 15.6073 2.52208 17.1743 4.45508 17.1743C4.5759 17.1743 4.6953 17.1682 4.81297 17.1562L7.20192 19.2039L6.6577 20.3701C6.2955 20.2433 5.90611 20.1743 5.50061 20.1743C3.56761 20.1743 2.00061 21.7413 2.00061 23.6743C2.00061 25.6073 3.56761 27.1743 5.50061 27.1743C7.43361 27.1743 9.00061 25.6073 9.00061 23.6743C9.00061 22.8871 8.74072 22.1606 8.30205 21.5759L8.77839 20.5552L11.132 22.5726C11.0172 22.919 10.9551 23.2894 10.9551 23.6743C10.9551 25.6073 12.5221 27.1743 14.4551 27.1743C16.0406 27.1743 17.3799 26.1201 17.8101 24.6743ZM6.82681 16.2482L8.07997 17.3224L9.16374 15H7.6953C7.49943 15.4782 7.20078 15.9035 6.82681 16.2482ZM7.89018 13H10.0971L12.7464 7.32298L6.69656 10.9861C7.30147 11.4911 7.73333 12.1963 7.89018 13ZM23.0006 13.5C23.0006 14.3284 22.329 15 21.5006 15C20.6722 15 20.0006 14.3284 20.0006 13.5C20.0006 12.6716 20.6722 12 21.5006 12C22.329 12 23.0006 12.6716 23.0006 13.5ZM25.5006 25C26.329 25 27.0006 24.3284 27.0006 23.5C27.0006 22.6716 26.329 22 25.5006 22C24.6722 22 24.0006 22.6716 24.0006 23.5C24.0006 24.3284 24.6722 25 25.5006 25ZM5.95508 13.6743C5.95508 14.5027 5.28351 15.1743 4.45508 15.1743C3.62665 15.1743 2.95508 14.5027 2.95508 13.6743C2.95508 12.8459 3.62665 12.1743 4.45508 12.1743C5.28351 12.1743 5.95508 12.8459 5.95508 13.6743ZM5.50061 25.1743C6.32904 25.1743 7.00061 24.5027 7.00061 23.6743C7.00061 22.8459 6.32904 22.1743 5.50061 22.1743C4.67218 22.1743 4.00061 22.8459 4.00061 23.6743C4.00061 24.5027 4.67218 25.1743 5.50061 25.1743ZM15.9551 23.6743C15.9551 24.5027 15.2835 25.1743 14.4551 25.1743C13.6267 25.1743 12.9551 24.5027 12.9551 23.6743C12.9551 22.8459 13.6267 22.1743 14.4551 22.1743C15.2835 22.1743 15.9551 22.8459 15.9551 23.6743Z"/>
</mask>
<path fill-rule="evenodd" clip-rule="evenodd" d="M14.4551 5.67432C15.2835 5.67432 15.9551 5.00274 15.9551 4.17432C15.9551 3.34589 15.2835 2.67432 14.4551 2.67432C13.6267 2.67432 12.9551 3.34589 12.9551 4.17432C12.9551 5.00274 13.6267 5.67432 14.4551 5.67432ZM12.3041 13L14.7972 7.65781C15.2 7.61874 15.5828 7.51137 15.934 7.34744L19.3359 10.7495C18.6464 11.2929 18.1662 12.09 18.0361 13H12.3041ZM18.3374 15H11.3708L9.65644 18.6736L12.2858 20.9274C12.8822 20.4558 13.6358 20.1743 14.4551 20.1743C14.6969 20.1743 14.933 20.1988 15.161 20.2455L18.864 15.8019C18.6538 15.5613 18.476 15.2918 18.3374 15ZM16.9514 21.2211C17.3464 21.623 17.6451 22.1199 17.8101 22.6743H22.0986C22.2799 21.9245 22.7026 21.269 23.2799 20.7946L21.3817 16.998C21.1025 16.9887 20.8315 16.9467 20.5726 16.8757L16.9514 21.2211ZM17.8101 24.6743H22.2025C22.6851 26.0297 23.9795 27 25.5006 27C27.4336 27 29.0006 25.433 29.0006 23.5C29.0006 21.567 27.4336 20 25.5006 20C25.3749 20 25.2507 20.0066 25.1284 20.0195L23.3536 16.4698C24.3427 15.8513 25.0006 14.7525 25.0006 13.5C25.0006 11.567 23.4336 10 21.5006 10C21.4723 10 21.444 10.0003 21.4158 10.001L17.4315 6.0166C17.7634 5.4815 17.9551 4.85029 17.9551 4.17432C17.9551 2.24132 16.3881 0.674316 14.4551 0.674316C12.5221 0.674316 10.9551 2.24132 10.9551 4.17432C10.9551 4.76956 11.1037 5.3301 11.3658 5.82086L4.15496 10.187C2.36246 10.3392 0.955078 11.8424 0.955078 13.6743C0.955078 15.6073 2.52208 17.1743 4.45508 17.1743C4.5759 17.1743 4.6953 17.1682 4.81297 17.1562L7.20192 19.2039L6.6577 20.3701C6.2955 20.2433 5.90611 20.1743 5.50061 20.1743C3.56761 20.1743 2.00061 21.7413 2.00061 23.6743C2.00061 25.6073 3.56761 27.1743 5.50061 27.1743C7.43361 27.1743 9.00061 25.6073 9.00061 23.6743C9.00061 22.8871 8.74072 22.1606 8.30205 21.5759L8.77839 20.5552L11.132 22.5726C11.0172 22.919 10.9551 23.2894 10.9551 23.6743C10.9551 25.6073 12.5221 27.1743 14.4551 27.1743C16.0406 27.1743 17.3799 26.1201 17.8101 24.6743ZM6.82681 16.2482L8.07997 17.3224L9.16374 15H7.6953C7.49943 15.4782 7.20078 15.9035 6.82681 16.2482ZM7.89018 13H10.0971L12.7464 7.32298L6.69656 10.9861C7.30147 11.4911 7.73333 12.1963 7.89018 13ZM23.0006 13.5C23.0006 14.3284 22.329 15 21.5006 15C20.6722 15 20.0006 14.3284 20.0006 13.5C20.0006 12.6716 20.6722 12 21.5006 12C22.329 12 23.0006 12.6716 23.0006 13.5ZM25.5006 25C26.329 25 27.0006 24.3284 27.0006 23.5C27.0006 22.6716 26.329 22 25.5006 22C24.6722 22 24.0006 22.6716 24.0006 23.5C24.0006 24.3284 24.6722 25 25.5006 25ZM5.95508 13.6743C5.95508 14.5027 5.28351 15.1743 4.45508 15.1743C3.62665 15.1743 2.95508 14.5027 2.95508 13.6743C2.95508 12.8459 3.62665 12.1743 4.45508 12.1743C5.28351 12.1743 5.95508 12.8459 5.95508 13.6743ZM5.50061 25.1743C6.32904 25.1743 7.00061 24.5027 7.00061 23.6743C7.00061 22.8459 6.32904 22.1743 5.50061 22.1743C4.67218 22.1743 4.00061 22.8459 4.00061 23.6743C4.00061 24.5027 4.67218 25.1743 5.50061 25.1743ZM15.9551 23.6743C15.9551 24.5027 15.2835 25.1743 14.4551 25.1743C13.6267 25.1743 12.9551 24.5027 12.9551 23.6743C12.9551 22.8459 13.6267 22.1743 14.4551 22.1743C15.2835 22.1743 15.9551 22.8459 15.9551 23.6743Z" fill="url(#paint0_linear)"/>
<path d="M14.7972 7.65781L14.7006 6.66248L14.1324 6.7176L13.891 7.23493L14.7972 7.65781ZM12.3041 13L11.398 12.5771L10.7339 14H12.3041V13ZM15.934 7.34744L16.6411 6.64035L16.1457 6.14497L15.5109 6.44133L15.934 7.34744ZM19.3359 10.7495L19.9549 11.5349L20.8389 10.8383L20.0431 10.0424L19.3359 10.7495ZM18.0361 13V14H18.9032L19.026 13.1416L18.0361 13ZM11.3708 15V14H10.7339L10.4646 14.5771L11.3708 15ZM18.3374 15L19.2407 14.5709L18.9695 14H18.3374V15ZM9.65644 18.6736L8.75026 18.2507L8.42918 18.9388L9.00565 19.4329L9.65644 18.6736ZM12.2858 20.9274L11.6351 21.6867L12.2602 22.2225L12.9061 21.7118L12.2858 20.9274ZM15.161 20.2455L14.9603 21.2252L15.5463 21.3452L15.9292 20.8857L15.161 20.2455ZM18.864 15.8019L19.6322 16.4421L20.1785 15.7865L19.617 15.1439L18.864 15.8019ZM17.8101 22.6743L16.8517 22.9596L17.0644 23.6743H17.8101V22.6743ZM16.9514 21.2211L16.1832 20.5809L15.6036 21.2764L16.2382 21.922L16.9514 21.2211ZM22.0986 22.6743V23.6743H22.8856L23.0705 22.9094L22.0986 22.6743ZM23.2799 20.7946L23.9148 21.5672L24.531 21.0608L24.1743 20.3474L23.2799 20.7946ZM21.3817 16.998L22.2761 16.5508L22.0099 16.0184L21.415 15.9986L21.3817 16.998ZM20.5726 16.8757L20.8371 15.9113L20.2164 15.741L19.8044 16.2355L20.5726 16.8757ZM17.8101 24.6743V23.6743H17.0644L16.8517 24.3891L17.8101 24.6743ZM22.2025 24.6743L23.1445 24.3389L22.9079 23.6743H22.2025V24.6743ZM25.1284 20.0195L24.234 20.4667L24.5441 21.0869L25.2336 21.014L25.1284 20.0195ZM23.3536 16.4698L22.8235 15.6219L22.0526 16.1039L22.4592 16.917L23.3536 16.4698ZM21.4158 10.001L20.7087 10.7081L21.0115 11.0109L21.4396 11.0007L21.4158 10.001ZM17.4315 6.0166L16.5817 5.4895L16.1639 6.16315L16.7244 6.7237L17.4315 6.0166ZM11.3658 5.82086L11.8837 6.67627L12.6942 6.18551L12.2479 5.34975L11.3658 5.82086ZM4.15496 10.187L4.23958 11.1834L4.47275 11.1636L4.67291 11.0424L4.15496 10.187ZM4.81297 17.1562L5.46376 16.397L5.13834 16.1181L4.71193 16.1614L4.81297 17.1562ZM7.20192 19.2039L8.1081 19.6268L8.42918 18.9388L7.85271 18.4447L7.20192 19.2039ZM6.6577 20.3701L6.32721 21.3139L7.18123 21.613L7.56388 20.793L6.6577 20.3701ZM8.30205 21.5759L7.39587 21.153L7.1423 21.6964L7.50215 22.176L8.30205 21.5759ZM8.77839 20.5552L9.42918 19.7959L8.42918 18.9388L7.87221 20.1323L8.77839 20.5552ZM11.132 22.5726L12.0812 22.8871L12.2923 22.2501L11.7828 21.8133L11.132 22.5726ZM8.07997 17.3224L7.42918 18.0816L8.42918 18.9388L8.98615 17.7453L8.07997 17.3224ZM6.82681 16.2482L6.14899 15.513L5.32197 16.2754L6.17602 17.0075L6.82681 16.2482ZM9.16374 15L10.0699 15.4229L10.7339 14H9.16374V15ZM7.6953 15V14H7.02424L6.7699 14.621L7.6953 15ZM10.0971 13V14H10.7339L11.0033 13.4229L10.0971 13ZM7.89018 13L6.9087 13.1916L7.06648 14H7.89018V13ZM12.7464 7.32298L13.6525 7.74587L15.0449 4.76216L12.2284 6.46757L12.7464 7.32298ZM6.69656 10.9861L6.17861 10.1307L4.98042 10.8562L6.05574 11.7538L6.69656 10.9861ZM14.9551 4.17432C14.9551 4.45046 14.7312 4.67432 14.4551 4.67432V6.67432C15.8358 6.67432 16.9551 5.55503 16.9551 4.17432H14.9551ZM14.4551 3.67432C14.7312 3.67432 14.9551 3.89817 14.9551 4.17432H16.9551C16.9551 2.7936 15.8358 1.67432 14.4551 1.67432V3.67432ZM13.9551 4.17432C13.9551 3.89817 14.1789 3.67432 14.4551 3.67432V1.67432C13.0744 1.67432 11.9551 2.7936 11.9551 4.17432H13.9551ZM14.4551 4.67432C14.1789 4.67432 13.9551 4.45046 13.9551 4.17432H11.9551C11.9551 5.55503 13.0744 6.67432 14.4551 6.67432V4.67432ZM13.891 7.23493L11.398 12.5771L13.2103 13.4229L15.7033 8.0807L13.891 7.23493ZM15.5109 6.44133C15.2609 6.55806 14.9883 6.63458 14.7006 6.66248L14.8937 8.65314C15.4117 8.6029 15.9048 8.46469 16.357 8.25356L15.5109 6.44133ZM20.0431 10.0424L16.6411 6.64035L15.2268 8.05454L18.6288 11.4566L20.0431 10.0424ZM19.026 13.1416C19.1186 12.4942 19.4604 11.9246 19.9549 11.5349L18.717 9.9641C17.8325 10.6612 17.2139 11.6857 17.0461 12.8584L19.026 13.1416ZM12.3041 14H18.0361V12H12.3041V14ZM11.3708 16H18.3374V14H11.3708V16ZM10.5626 19.0965L12.277 15.4229L10.4646 14.5771L8.75026 18.2507L10.5626 19.0965ZM12.9366 20.1682L10.3072 17.9144L9.00565 19.4329L11.6351 21.6867L12.9366 20.1682ZM14.4551 19.1743C13.4027 19.1743 12.4322 19.5368 11.6656 20.143L12.9061 21.7118C13.3322 21.3748 13.8688 21.1743 14.4551 21.1743V19.1743ZM15.3616 19.2659C15.0679 19.2057 14.7647 19.1743 14.4551 19.1743V21.1743C14.6291 21.1743 14.798 21.1919 14.9603 21.2252L15.3616 19.2659ZM18.0958 15.1617L14.3927 19.6053L15.9292 20.8857L19.6322 16.4421L18.0958 15.1617ZM17.4342 15.4291C17.6126 15.8046 17.8411 16.151 18.111 16.4599L19.617 15.1439C19.4665 14.9716 19.3395 14.779 19.2407 14.5709L17.4342 15.4291ZM18.7686 22.3891C18.556 21.6746 18.1715 21.0359 17.6646 20.5201L16.2382 21.922C16.5213 22.2101 16.7343 22.5651 16.8517 22.9596L18.7686 22.3891ZM22.0986 21.6743H17.8101V23.6743H22.0986V21.6743ZM22.645 20.022C21.9044 20.6306 21.3603 21.473 21.1266 22.4392L23.0705 22.9094C23.1995 22.3761 23.5009 21.9074 23.9148 21.5672L22.645 20.022ZM20.4872 17.4452L22.3855 21.2418L24.1743 20.3474L22.2761 16.5508L20.4872 17.4452ZM20.3081 17.84C20.6418 17.9316 20.9902 17.9855 21.3483 17.9975L21.415 15.9986C21.2147 15.9919 21.0213 15.9618 20.8371 15.9113L20.3081 17.84ZM17.7196 21.8613L21.3408 17.5158L19.8044 16.2355L16.1832 20.5809L17.7196 21.8613ZM17.8101 25.6743H22.2025V23.6743H17.8101V25.6743ZM21.2604 25.0098C21.8805 26.751 23.5434 28 25.5006 28V26C24.4157 26 23.4898 25.3084 23.1445 24.3389L21.2604 25.0098ZM25.5006 28C27.9859 28 30.0006 25.9853 30.0006 23.5H28.0006C28.0006 24.8807 26.8813 26 25.5006 26V28ZM30.0006 23.5C30.0006 21.0147 27.9859 19 25.5006 19V21C26.8813 21 28.0006 22.1193 28.0006 23.5H30.0006ZM25.5006 19C25.3397 19 25.1805 19.0085 25.0233 19.0251L25.2336 21.014C25.321 21.0048 25.4101 21 25.5006 21V19ZM26.0229 19.5723L24.248 16.0226L22.4592 16.917L24.234 20.4667L26.0229 19.5723ZM23.8838 17.3177C25.1529 16.5242 26.0006 15.1115 26.0006 13.5H24.0006C24.0006 14.3935 23.5325 15.1785 22.8235 15.6219L23.8838 17.3177ZM26.0006 13.5C26.0006 11.0147 23.9859 9 21.5006 9V11C22.8813 11 24.0006 12.1193 24.0006 13.5H26.0006ZM21.5006 9C21.4644 9 21.4282 9.00043 21.3921 9.00129L21.4396 11.0007C21.4599 11.0002 21.4802 11 21.5006 11V9ZM22.123 9.29391L18.1387 5.3095L16.7244 6.7237L20.7087 10.7081L22.123 9.29391ZM18.2813 6.5437C18.7086 5.8549 18.9551 5.04187 18.9551 4.17432H16.9551C16.9551 4.65871 16.8183 5.10811 16.5817 5.4895L18.2813 6.5437ZM18.9551 4.17432C18.9551 1.68904 16.9404 -0.325684 14.4551 -0.325684V1.67432C15.8358 1.67432 16.9551 2.7936 16.9551 4.17432H18.9551ZM14.4551 -0.325684C11.9698 -0.325684 9.95508 1.68904 9.95508 4.17432H11.9551C11.9551 2.7936 13.0744 1.67432 14.4551 1.67432V-0.325684ZM9.95508 4.17432C9.95508 4.93788 10.1461 5.6598 10.4837 6.29197L12.2479 5.34975C12.0613 5.0004 11.9551 4.60124 11.9551 4.17432H9.95508ZM10.8478 4.96545L3.63701 9.3316L4.67291 11.0424L11.8837 6.67627L10.8478 4.96545ZM4.07035 9.19059C1.76465 9.3864 -0.0449219 11.3185 -0.0449219 13.6743H1.95508C1.95508 12.3663 2.96027 11.2921 4.23958 11.1834L4.07035 9.19059ZM-0.0449219 13.6743C-0.0449219 16.1596 1.9698 18.1743 4.45508 18.1743V16.1743C3.07437 16.1743 1.95508 15.055 1.95508 13.6743H-0.0449219ZM4.45508 18.1743C4.60971 18.1743 4.76283 18.1665 4.91402 18.1511L4.71193 16.1614C4.62777 16.1699 4.5421 16.1743 4.45508 16.1743V18.1743ZM4.16218 17.9155L6.55113 19.9632L7.85271 18.4447L5.46376 16.397L4.16218 17.9155ZM6.29574 18.781L5.75152 19.9472L7.56388 20.793L8.1081 19.6268L6.29574 18.781ZM6.98819 19.4263C6.52123 19.2628 6.02018 19.1743 5.50061 19.1743V21.1743C5.79203 21.1743 6.06977 21.2238 6.32721 21.3139L6.98819 19.4263ZM5.50061 19.1743C3.01533 19.1743 1.00061 21.189 1.00061 23.6743H3.00061C3.00061 22.2936 4.1199 21.1743 5.50061 21.1743V19.1743ZM1.00061 23.6743C1.00061 26.1596 3.01533 28.1743 5.50061 28.1743V26.1743C4.1199 26.1743 3.00061 25.055 3.00061 23.6743H1.00061ZM5.50061 28.1743C7.98589 28.1743 10.0006 26.1596 10.0006 23.6743H8.00061C8.00061 25.055 6.88132 26.1743 5.50061 26.1743V28.1743ZM10.0006 23.6743C10.0006 22.6633 9.66603 21.7276 9.10196 20.9758L7.50215 22.176C7.81541 22.5936 8.00061 23.1109 8.00061 23.6743H10.0006ZM9.20824 21.9988L9.68457 20.9781L7.87221 20.1323L7.39587 21.153L9.20824 21.9988ZM8.1276 21.3144L10.4812 23.3318L11.7828 21.8133L9.42918 19.7959L8.1276 21.3144ZM10.1828 22.258C10.0348 22.7046 9.95508 23.1812 9.95508 23.6743H11.9551C11.9551 23.3976 11.9997 23.1333 12.0812 22.8871L10.1828 22.258ZM9.95508 23.6743C9.95508 26.1596 11.9698 28.1743 14.4551 28.1743V26.1743C13.0744 26.1743 11.9551 25.055 11.9551 23.6743H9.95508ZM14.4551 28.1743C16.4951 28.1743 18.2156 26.8177 18.7686 24.9596L16.8517 24.3891C16.5441 25.4224 15.5861 26.1743 14.4551 26.1743V28.1743ZM8.73076 16.5631L7.4776 15.489L6.17602 17.0075L7.42918 18.0816L8.73076 16.5631ZM8.25756 14.5771L7.17379 16.8995L8.98615 17.7453L10.0699 15.4229L8.25756 14.5771ZM7.6953 16H9.16374V14H7.6953V16ZM7.50462 16.9835C7.98454 16.541 8.36852 15.9947 8.62069 15.379L6.7699 14.621C6.63035 14.9617 6.41702 15.2659 6.14899 15.513L7.50462 16.9835ZM10.0971 12H7.89018V14H10.0971V12ZM11.8402 6.90009L9.1909 12.5771L11.0033 13.4229L13.6525 7.74587L11.8402 6.90009ZM7.21451 11.8415L13.2643 8.17839L12.2284 6.46757L6.17861 10.1307L7.21451 11.8415ZM8.87166 12.8084C8.66951 11.7727 8.1134 10.8662 7.33738 10.2184L6.05574 11.7538C6.48954 12.1159 6.79714 12.62 6.9087 13.1916L8.87166 12.8084ZM21.5006 16C22.8813 16 24.0006 14.8807 24.0006 13.5H22.0006C22.0006 13.7761 21.7768 14 21.5006 14V16ZM19.0006 13.5C19.0006 14.8807 20.1199 16 21.5006 16V14C21.2245 14 21.0006 13.7761 21.0006 13.5H19.0006ZM21.5006 11C20.1199 11 19.0006 12.1193 19.0006 13.5H21.0006C21.0006 13.2239 21.2245 13 21.5006 13V11ZM24.0006 13.5C24.0006 12.1193 22.8813 11 21.5006 11V13C21.7768 13 22.0006 13.2239 22.0006 13.5H24.0006ZM26.0006 23.5C26.0006 23.7761 25.7768 24 25.5006 24V26C26.8813 26 28.0006 24.8807 28.0006 23.5H26.0006ZM25.5006 23C25.7768 23 26.0006 23.2239 26.0006 23.5H28.0006C28.0006 22.1193 26.8813 21 25.5006 21V23ZM25.0006 23.5C25.0006 23.2239 25.2245 23 25.5006 23V21C24.1199 21 23.0006 22.1193 23.0006 23.5H25.0006ZM25.5006 24C25.2245 24 25.0006 23.7761 25.0006 23.5H23.0006C23.0006 24.8807 24.1199 26 25.5006 26V24ZM4.45508 16.1743C5.83579 16.1743 6.95508 15.055 6.95508 13.6743H4.95508C4.95508 13.9505 4.73122 14.1743 4.45508 14.1743V16.1743ZM1.95508 13.6743C1.95508 15.055 3.07437 16.1743 4.45508 16.1743V14.1743C4.17894 14.1743 3.95508 13.9505 3.95508 13.6743H1.95508ZM4.45508 11.1743C3.07437 11.1743 1.95508 12.2936 1.95508 13.6743H3.95508C3.95508 13.3982 4.17894 13.1743 4.45508 13.1743V11.1743ZM6.95508 13.6743C6.95508 12.2936 5.83579 11.1743 4.45508 11.1743V13.1743C4.73122 13.1743 4.95508 13.3982 4.95508 13.6743H6.95508ZM6.00061 23.6743C6.00061 23.9505 5.77675 24.1743 5.50061 24.1743V26.1743C6.88132 26.1743 8.00061 25.055 8.00061 23.6743H6.00061ZM5.50061 23.1743C5.77675 23.1743 6.00061 23.3982 6.00061 23.6743H8.00061C8.00061 22.2936 6.88132 21.1743 5.50061 21.1743V23.1743ZM5.00061 23.6743C5.00061 23.3982 5.22447 23.1743 5.50061 23.1743V21.1743C4.1199 21.1743 3.00061 22.2936 3.00061 23.6743H5.00061ZM5.50061 24.1743C5.22447 24.1743 5.00061 23.9505 5.00061 23.6743H3.00061C3.00061 25.055 4.1199 26.1743 5.50061 26.1743V24.1743ZM14.4551 26.1743C15.8358 26.1743 16.9551 25.055 16.9551 23.6743H14.9551C14.9551 23.9505 14.7312 24.1743 14.4551 24.1743V26.1743ZM11.9551 23.6743C11.9551 25.055 13.0744 26.1743 14.4551 26.1743V24.1743C14.1789 24.1743 13.9551 23.9505 13.9551 23.6743H11.9551ZM14.4551 21.1743C13.0744 21.1743 11.9551 22.2936 11.9551 23.6743H13.9551C13.9551 23.3982 14.1789 23.1743 14.4551 23.1743V21.1743ZM16.9551 23.6743C16.9551 22.2936 15.8358 21.1743 14.4551 21.1743V23.1743C14.7312 23.1743 14.9551 23.3982 14.9551 23.6743H16.9551Z" fill="url(#paint1_linear)" mask="url(#path-1-inside-1)"/>
<defs>
<linearGradient id="paint0_linear" x1="1.39525" y1="13.9243" x2="29.0006" y2="13.9243" gradientUnits="userSpaceOnUse">
<stop stop-color="#5C4BA7"/>
<stop offset="1" stop-color="#C74992"/>
</linearGradient>
<linearGradient id="paint1_linear" x1="1.39525" y1="13.9243" x2="29.0006" y2="13.9243" gradientUnits="userSpaceOnUse">
<stop stop-color="#5C4BA7"/>
<stop offset="1" stop-color="#C74992"/>
</linearGradient>
</defs>
</svg>
