<svg width="41" height="42" viewBox="0 0 41 42" fill="none" xmlns="http://www.w3.org/2000/svg">
<path d="M38.0807 28.2228V15.7972C39.2439 15.0561 40.0145 13.7772 40.0145 12.3093C40.0145 10.0277 38.1534 8.16747 35.8706 8.16747C35.0854 8.16747 34.373 8.4 33.7477 8.77785L24.4129 4.60692C24.4275 4.44706 24.4566 4.30173 24.4566 4.14187C24.4566 1.86021 22.5954 0 20.3126 0C18.0298 0 16.1687 1.86021 16.1687 4.14187C16.1687 4.30173 16.1977 4.44706 16.2123 4.60692L6.52853 8.93772C5.85969 8.45813 5.0309 8.16747 4.14395 8.16747C1.86114 8.16747 0 10.0277 0 12.3093C0 14.0242 1.04689 15.5066 2.54453 16.1315V26.9294C1.04689 27.5543 0 29.0221 0 30.737C0 33.0332 1.86114 34.8789 4.14395 34.8789C5.04544 34.8789 5.85969 34.5882 6.54307 34.1087L16.2559 38.5993C16.6049 40.5322 18.2915 42 20.3272 42C22.3628 42 24.0494 40.5322 24.3984 38.5993L32.9626 34.6464C33.7186 35.3875 34.751 35.8526 35.8851 35.8526C38.1679 35.8526 40.0291 33.9924 40.0291 31.7107C40 30.2429 39.2294 28.964 38.0807 28.2228ZM17.8553 7.45536C18.5387 7.96401 19.382 8.28374 20.3126 8.28374C21.2286 8.28374 22.072 7.97855 22.7699 7.45536L31.8139 11.4955C31.7557 11.7571 31.7266 12.0332 31.7266 12.3093C31.7266 12.4692 31.7557 12.6145 31.7703 12.7599L26.3468 15.2159C24.9218 13.4429 22.7699 12.2803 20.3126 12.2803C17.8699 12.2803 15.7034 13.4429 14.2784 15.2159L8.25881 12.4983C8.25881 12.4401 8.27335 12.382 8.27335 12.3093C8.27335 12.1204 8.24427 11.946 8.21519 11.7571L17.8553 7.45536ZM18.6841 34.065C18.0298 34.3412 17.4773 34.8062 17.0411 35.3585L8.22973 31.2747C8.25881 31.1003 8.28789 30.9259 8.28789 30.737C8.28789 29.0512 7.27008 27.5979 5.81607 26.9585V16.0879C6.19411 15.928 6.52853 15.6955 6.83388 15.4339L12.8244 18.137C12.679 18.7329 12.5627 19.3578 12.5627 20.0118C12.5627 23.7176 15.1945 26.8277 18.6841 27.5834V34.065ZM20.3126 24.4152C17.8844 24.4152 15.9069 22.4388 15.9069 20.0118C15.9069 17.5848 17.8844 15.6083 20.3126 15.6083C22.7408 15.6083 24.7183 17.5848 24.7183 20.0118C24.7183 22.4533 22.7408 24.4152 20.3126 24.4152ZM34.8092 27.7142C33.0789 28.1647 31.7848 29.7197 31.7266 31.5799L23.5841 35.3439C23.1625 34.7917 22.5954 34.3266 21.9411 34.0505V27.5689C25.4307 26.8131 28.0625 23.7176 28.0625 19.9972C28.0625 19.3433 27.9607 18.7329 27.8008 18.1225L33.3988 15.5938C33.8204 15.899 34.2857 16.1315 34.8092 16.2768V27.7142Z" fill="url(#paint0_linear)"/>
<defs>
<linearGradient id="paint0_linear" x1="0.628259" y1="21" x2="40.0291" y2="21" gradientUnits="userSpaceOnUse">
<stop stop-color="#E2CC55"/>
<stop offset="1" stop-color="#63B684"/>
</linearGradient>
</defs>
</svg>
