<svg width="32" height="27" viewBox="0 0 32 27" fill="none" xmlns="http://www.w3.org/2000/svg">
<path fill-rule="evenodd" clip-rule="evenodd" d="M7.69672 19.9082H6.47616C4.91889 19.9082 3.65624 18.6498 3.65624 17.0977V13.1007C1.57878 14.679 0.808834 17.5358 1.95966 19.9892C2.83528 21.8559 4.6502 23.0759 6.65482 23.2342L5.8711 21.5623C5.70038 21.1981 5.84987 20.7891 6.2161 20.6185C6.58232 20.4478 6.99292 20.5959 7.16364 20.9601L8.36552 23.5241C8.4126 23.5915 8.44839 23.6669 8.4699 23.7468L8.56959 23.9595C8.74031 24.3237 8.59081 24.7326 8.22459 24.9033L5.20865 26.3083C4.84243 26.4789 4.43183 26.3309 4.2611 25.9667C4.09038 25.6024 4.23988 25.1935 4.6061 25.0229L5.67851 24.5233C3.51286 24.0774 1.6315 22.6442 0.668145 20.5905C-0.920352 17.204 0.421415 13.1956 3.65624 11.4095V3.63272C3.65624 2.08068 4.91889 0.822266 6.47616 0.822266H20.0286C21.5859 0.822266 22.8486 2.08068 22.8486 3.63272V4.97503C22.8486 5.68813 22.3014 6.23344 21.5859 6.23344C20.8704 6.23344 20.3232 5.68813 20.3232 4.97503V3.63272C20.3232 3.46493 20.197 3.33909 20.0286 3.33909H13.2524H6.47616C6.30781 3.33909 6.18154 3.46493 6.18154 3.63272V17.1397C6.18154 17.3075 6.30781 17.4333 6.47616 17.4333H7.69672C8.41223 17.4333 8.95938 17.9786 8.95938 18.6917C8.95938 19.4048 8.37014 19.9082 7.69672 19.9082ZM26.1735 26.0325H12.6211C11.0638 26.0325 9.80114 24.7741 9.80114 23.222V9.757C9.80114 8.20495 11.0638 6.94654 12.6211 6.94654H26.1735C27.7308 6.94654 28.9935 8.20495 28.9935 9.757V13.4826C30.5284 11.8866 31.0412 9.46914 30.102 7.3153C29.278 5.42542 27.4974 4.15628 25.498 3.94313L26.2356 5.63619C26.3962 6.00493 26.2356 6.40967 25.8648 6.57021C25.4941 6.73075 25.0877 6.57154 24.927 6.2028L23.7961 3.60717C23.7506 3.53808 23.7166 3.46133 23.6973 3.38034L23.604 3.16614C23.4433 2.7974 23.604 2.39265 23.9748 2.23211L27.0281 0.910016C27.3989 0.749476 27.8052 0.908685 27.9659 1.27742C28.1265 1.64616 27.9659 2.0509 27.5951 2.21144L26.5097 2.68142C28.662 3.18653 30.503 4.67049 31.4095 6.74959C32.7731 9.87673 31.6857 13.4544 28.9935 15.3468V23.264C28.9514 24.7741 27.6887 26.0325 26.1735 26.0325ZM12.6211 9.46337C12.4527 9.46337 12.3264 9.58921 12.3264 9.757V23.264C12.3264 23.4318 12.4527 23.5576 12.6211 23.5576H26.1735C26.3419 23.5576 26.4682 23.4318 26.4682 23.264V9.757C26.4682 9.58921 26.3419 9.46337 26.1735 9.46337H12.6211Z" fill="url(#paint0_linear)"/>
<defs>
<linearGradient id="paint0_linear" x1="0.502213" y1="13.6006" x2="31.9981" y2="13.6006" gradientUnits="userSpaceOnUse">
<stop stop-color="#3B4EF9"/>
<stop offset="1" stop-color="#01E0C9"/>
</linearGradient>
</defs>
</svg>
