<svg width="48" height="39" viewBox="0 0 48 39" fill="none" xmlns="http://www.w3.org/2000/svg">
<path fill-rule="evenodd" clip-rule="evenodd" d="M11.5467 28.7253H9.71582C7.37992 28.7253 5.48595 26.8313 5.48595 24.4954V18.4827C2.37018 20.86 1.21433 25.1581 2.93879 28.8483C4.25142 31.6572 6.97416 33.4921 9.98224 33.7287L8.80722 31.2143C8.55101 30.666 8.77505 30.0505 9.32425 29.7938C9.87345 29.5372 10.4894 29.7602 10.7456 30.3085L12.545 34.159C12.6182 34.2631 12.6735 34.3797 12.706 34.5037L12.8556 34.8237C13.1118 35.372 12.8878 35.9875 12.3386 36.2442L7.81575 38.3577C7.26655 38.6144 6.65065 38.3914 6.39443 37.8431C6.13822 37.2948 6.36226 36.6793 6.91146 36.4226L8.52106 35.6704C5.26957 35.0022 2.4453 32.846 1.00044 29.7541C-1.37995 24.6603 0.634174 18.6289 5.48595 15.9374V4.22987C5.48595 1.89397 7.37992 0 9.71582 0H30.0445C32.3804 0 34.2743 1.89397 34.2743 4.22987V6.25011C34.2743 7.32336 33.4536 8.14408 32.3804 8.14408C31.3071 8.14408 30.4864 7.32336 30.4864 6.25011V4.22987C30.4864 3.97734 30.297 3.78795 30.0445 3.78795H19.8801H9.71582C9.46329 3.78795 9.27389 3.97734 9.27389 4.22987V24.5585C9.27389 24.811 9.46329 25.0004 9.71582 25.0004H11.5467C12.6199 25.0004 13.4406 25.8212 13.4406 26.8944C13.4406 27.9677 12.5568 28.7253 11.5467 28.7253ZM39.2618 37.9426H18.9331C16.5972 37.9426 14.7033 36.0486 14.7033 33.7127V13.4472C14.7033 11.1113 16.5972 9.21733 18.9331 9.21733H39.2618C41.5977 9.21733 43.4917 11.1113 43.4917 13.4472V19.0496C45.7935 16.6464 46.5633 13.0099 45.1565 9.77079C43.9213 6.92706 41.25 5.01836 38.2497 4.6993L39.3555 7.24524C39.5966 7.80034 39.3558 8.4095 38.7998 8.65101C38.2437 8.89251 37.6342 8.65271 37.3931 8.09761L35.7003 4.20034C35.6292 4.0935 35.5766 3.97429 35.5474 3.84835L35.4075 3.52625C35.1664 2.97116 35.4073 2.36199 35.9633 2.12049L40.5423 0.131636C41.0983 -0.109868 41.7079 0.129936 41.949 0.68503C42.1901 1.24012 41.9493 1.84929 41.3932 2.09079L39.7639 2.79847C42.9956 3.55573 45.7594 5.78837 47.1189 8.91842C49.1617 13.6217 47.5295 19.0042 43.4917 21.8552V33.7758C43.4285 36.0486 41.5345 37.9426 39.2618 37.9426ZM18.9331 13.0053C18.6806 13.0053 18.4912 13.1947 18.4912 13.4472V33.7758C18.4912 34.0284 18.6806 34.2178 18.9331 34.2178H39.2618C39.5143 34.2178 39.7037 34.0284 39.7037 33.7758V13.4472C39.7037 13.1947 39.5143 13.0053 39.2618 13.0053H18.9331Z" fill="url(#paint0_linear)"/>
<defs>
<linearGradient id="paint0_linear" x1="0.753363" y1="19.2319" x2="48" y2="19.2319" gradientUnits="userSpaceOnUse">
<stop stop-color="#FEAA50"/>
<stop offset="1" stop-color="#F15383"/>
</linearGradient>
</defs>
</svg>
