<svg width="52" height="45" viewBox="0 0 52 45" fill="none" xmlns="http://www.w3.org/2000/svg">
<path d="M25.8463 35.5442C25.3259 35.5442 24.8055 35.371 24.3719 35.1112L1.12752 19.2657C0.433663 18.7462 0 17.9669 0 17.0145C0 16.062 0.433663 15.3693 1.21426 14.8498L24.4586 0.389644C25.3259 -0.129881 26.3667 -0.129881 27.234 0.389644L50.4784 14.9364C51.259 15.3693 51.6926 16.2352 51.6926 17.101C51.6926 17.9669 51.2589 18.8328 50.5651 19.2657L27.3208 35.1112C26.8871 35.371 26.3667 35.5442 25.8463 35.5442ZM7.37227 17.1876L25.933 29.8294L44.4938 17.1876L25.8463 5.5849L7.37227 17.1876Z" fill="url(#paint0_linear)"/>
<path d="M25.1478 44.3785C24.6414 44.3785 24.1351 44.21 23.7132 43.9572L1.09705 28.54C0.421942 28.0345 0 27.2763 0 26.3495C0 25.4228 0.421942 24.7488 1.18144 24.2433L23.7975 10.174C24.6414 9.66856 25.6541 9.66856 26.498 10.174L49.1141 24.3276C49.8736 24.7488 50.2955 25.5913 50.2955 26.4338C50.2955 27.2763 49.8736 28.1187 49.1985 28.54L26.5824 43.9572C26.1604 44.21 25.6541 44.3785 25.1478 44.3785ZM7.17302 26.518L25.2321 38.8181L43.2913 26.518L25.1478 15.2289L7.17302 26.518Z" fill="url(#paint1_linear)"/>
<defs>
<linearGradient id="paint0_linear" x1="25.1478" y1="9.7949" x2="25.1478" y2="44.3784" gradientUnits="userSpaceOnUse">
<stop stop-color="#03AFF1"/>
<stop offset="1" stop-color="#01E0C9"/>
</linearGradient>
<linearGradient id="paint1_linear" x1="25.1478" y1="9.7949" x2="25.1478" y2="44.3784" gradientUnits="userSpaceOnUse">
<stop stop-color="#03AFF1"/>
<stop offset="1" stop-color="#01E0C9"/>
</linearGradient>
</defs>
</svg>
