<svg width="37" height="32" viewBox="0 0 37 32" fill="none" xmlns="http://www.w3.org/2000/svg">
<path d="M18.469 25.4297C18.0972 25.4297 17.7253 25.306 17.4154 25.1204L0.805695 13.7976C0.309883 13.4264 0 12.8695 0 12.1889C0 11.5083 0.309883 11.0134 0.867672 10.6421L17.4774 0.309342C18.0972 -0.0618951 18.8409 -0.0618951 19.4606 0.309342L36.0704 10.704C36.6281 11.0134 36.938 11.6321 36.938 12.2508C36.938 12.8695 36.6281 13.4883 36.1323 13.7976L19.5226 25.1204C19.2127 25.306 18.8409 25.4297 18.469 25.4297ZM5.26801 12.3127L18.531 21.3461L31.794 12.3127L18.469 4.02172L5.26801 12.3127Z" fill="url(#paint0_linear)"/>
<path d="M17.9698 31.7425C17.608 31.7425 17.2462 31.6221 16.9447 31.4415L0.78392 20.4247C0.301507 20.0635 0 19.5217 0 18.8595C0 18.1973 0.301508 17.7157 0.844221 17.3545L17.005 7.30099C17.608 6.93979 18.3317 6.93979 18.9347 7.30099L35.0955 17.4147C35.6382 17.7157 35.9397 18.3177 35.9397 18.9197C35.9397 19.5217 35.6382 20.1237 35.1558 20.4247L18.995 31.4415C18.6935 31.6221 18.3317 31.7425 17.9698 31.7425ZM5.12563 18.9799L18.0302 27.7692L30.9347 18.9799L17.9698 10.913L5.12563 18.9799Z" fill="url(#paint1_linear)"/>
<defs>
<linearGradient id="paint0_linear" x1="18.469" y1="0.0309143" x2="18.469" y2="25.4297" gradientUnits="userSpaceOnUse">
<stop stop-color="#EB5B1D"/>
<stop offset="1" stop-color="#E97F1D"/>
</linearGradient>
<linearGradient id="paint1_linear" x1="17.9698" y1="7.03009" x2="17.9698" y2="31.7425" gradientUnits="userSpaceOnUse">
<stop stop-color="#F56223"/>
<stop offset="1" stop-color="#EDA766"/>
</linearGradient>
</defs>
</svg>
