<svg width="34" height="33" viewBox="0 0 34 33" fill="none" xmlns="http://www.w3.org/2000/svg">
<path d="M6.76758 33C5.67188 33 4.83398 32.167 4.83398 31.0777V11.6621C4.83398 10.5728 5.67188 9.73975 6.76758 9.73975C7.86329 9.73975 8.70118 10.5728 8.70118 11.6621V31.0777C8.70118 32.1029 7.79884 33 6.76758 33Z" fill="url(#paint0_linear)"/>
<path d="M21.4629 28.066C8.63673 28.066 4.96289 17.2368 4.83398 11.5339C4.83398 10.4446 5.67188 9.61156 6.70313 9.54749C7.79884 9.54749 8.63673 10.3805 8.70118 11.4057C8.70118 11.9184 9.21681 24.1572 21.5274 24.1572C22.6231 24.1572 23.461 24.9902 23.461 26.0796C23.461 27.1689 22.5586 28.066 21.4629 28.066Z" fill="url(#paint1_linear)"/>
<path d="M6.7676 13.3923C3.02931 13.3923 0 10.3806 0 6.72817C0 3.07574 3.02931 0 6.7676 0C10.5059 0 13.5352 3.01166 13.5352 6.72817C13.5352 10.4447 10.4414 13.3923 6.7676 13.3923ZM6.7676 3.84467C5.15626 3.84467 3.8672 5.12623 3.8672 6.72817C3.8672 8.33012 5.15626 9.61168 6.7676 9.61168C8.37893 9.61168 9.668 8.33012 9.668 6.72817C9.668 5.12623 8.31448 3.84467 6.7676 3.84467Z" fill="url(#paint2_linear)"/>
<path d="M26.2969 32.8077C22.5586 32.8077 19.5293 29.796 19.5293 26.0795C19.5293 22.363 22.5586 19.4154 26.2969 19.4154C30.0352 19.4154 33.0645 22.4271 33.0645 26.1436C33.0645 29.8601 29.9707 32.8077 26.2969 32.8077ZM26.2969 23.2601C24.6856 23.2601 23.3965 24.5416 23.3965 26.1436C23.3965 27.7455 24.6856 29.0271 26.2969 29.0271C27.9082 29.0271 29.1973 27.7455 29.1973 26.1436C29.1973 24.5416 27.8438 23.2601 26.2969 23.2601Z" fill="url(#paint3_linear)"/>
<defs>
<linearGradient id="paint0_linear" x1="6.76758" y1="9.73975" x2="6.76758" y2="33" gradientUnits="userSpaceOnUse">
<stop stop-color="#03AFF1"/>
<stop offset="1" stop-color="#01DFC8"/>
</linearGradient>
<linearGradient id="paint1_linear" x1="14.1475" y1="9.54749" x2="14.1475" y2="28.066" gradientUnits="userSpaceOnUse">
<stop stop-color="#03AFF1"/>
<stop offset="1" stop-color="#01DFC8"/>
</linearGradient>
<linearGradient id="paint2_linear" x1="6.7676" y1="0" x2="6.7676" y2="13.3923" gradientUnits="userSpaceOnUse">
<stop stop-color="#03AFF1"/>
<stop offset="1" stop-color="#01DFC8"/>
</linearGradient>
<linearGradient id="paint3_linear" x1="26.2969" y1="19.4154" x2="26.2969" y2="32.8077" gradientUnits="userSpaceOnUse">
<stop stop-color="#03AFF1"/>
<stop offset="1" stop-color="#01DFC8"/>
</linearGradient>
</defs>
</svg>
